M48
; DRILL file {KiCad 7.0.10} date Wed Apr 10 17:33:23 2024
; FORMAT={-:-/ absolute / inch / decimal}
; #@! TF.CreationDate,2024-04-10T17:33:23+08:00
; #@! TF.GenerationSoftware,Kicad,Pcbnew,7.0.10
; #@! TF.FileFunction,Plated,1,2,PTH
FMAT,2
INCH
; #@! TA.AperFunction,Plated,PTH,ViaDrill
T1C0.0157
%
G90
G05
T1
X4.3031Y-3.4646
X4.3661Y-3.1496
X4.3661Y-3.5236
X4.3661Y-3.563
X4.3819Y-3.4055
X4.4252Y-3.4055
X4.4291Y-3.8701
X4.4331Y-3.6299
X4.4331Y-3.6772
X4.4331Y-3.7244
X4.4331Y-3.7717
X4.4331Y-3.8228
X4.437Y-3.5669
X4.4567Y-3.3071
X4.4646Y-3.9055
X4.4724Y-3.4055
X4.4882Y-3.5315
X4.5Y-3.4528
X4.5Y-3.4921
X4.5Y-3.9449
X4.5276Y-3.9843
X4.6276Y-3.4504
X4.6299Y-3.3307
X4.939Y-3.3327
X5.0591Y-3.1457
X5.0984Y-3.2992
X5.1457Y-3.2992
X5.1929Y-3.2992
X5.2362Y-3.2992
X5.3976Y-3.248
X5.3976Y-3.3071
X5.4094Y-3.3898
M30
