%TF.GenerationSoftware,KiCad,Pcbnew,7.0.10*%
%TF.CreationDate,2024-04-10T17:33:26+08:00*%
%TF.ProjectId,solar_board_breakout,736f6c61-725f-4626-9f61-72645f627265,rev?*%
%TF.SameCoordinates,Original*%
%TF.FileFunction,Copper,L2,Bot*%
%TF.FilePolarity,Positive*%
%FSLAX46Y46*%
G04 Gerber Fmt 4.6, Leading zero omitted, Abs format (unit mm)*
G04 Created by KiCad (PCBNEW 7.0.10) date 2024-04-10 17:33:26*
%MOMM*%
%LPD*%
G01*
G04 APERTURE LIST*
%TA.AperFunction,ViaPad*%
%ADD10C,0.800000*%
%TD*%
%TA.AperFunction,Conductor*%
%ADD11C,0.500000*%
%TD*%
%TA.AperFunction,Conductor*%
%ADD12C,0.300000*%
%TD*%
G04 APERTURE END LIST*
D10*
%TO.N,3.3V*%
X125450000Y-84650000D03*
X137100000Y-82500000D03*
X110900000Y-80000000D03*
X128500000Y-79900000D03*
%TO.N,GND*%
X111300000Y-86500000D03*
X113400000Y-99200000D03*
X110900000Y-90500000D03*
X130700000Y-83800000D03*
X110900000Y-89500000D03*
X112600000Y-97100000D03*
X131900000Y-83800000D03*
X114300000Y-100200000D03*
X129500000Y-83800000D03*
X112400000Y-86500000D03*
X112600000Y-93400000D03*
X133000000Y-83800000D03*
X114300000Y-88700000D03*
X112500000Y-98300000D03*
X113600000Y-86500000D03*
X115000000Y-101200000D03*
X112600000Y-95800000D03*
X137100000Y-84000000D03*
X137400000Y-86100000D03*
X112600000Y-94600000D03*
X114300000Y-87700000D03*
X112600000Y-92200000D03*
%TO.N,VSYS*%
X112700000Y-90600000D03*
X109300000Y-88000000D03*
%TO.N,PWR_EN*%
X113200000Y-84000000D03*
X114000000Y-89700000D03*
%TO.N,MCU_TXD*%
X117540000Y-87640000D03*
X117600000Y-84600000D03*
%TD*%
D11*
%TO.N,3.3V*%
X120800000Y-80000000D02*
X110900000Y-80000000D01*
X120800000Y-80000000D02*
X120900000Y-79900000D01*
X125450000Y-84650000D02*
X120800000Y-80000000D01*
X120900000Y-79900000D02*
X128500000Y-79900000D01*
X131100000Y-82500000D02*
X128500000Y-79900000D01*
X137100000Y-82500000D02*
X131100000Y-82500000D01*
%TO.N,GND*%
X137400000Y-86100000D02*
X137100000Y-85800000D01*
X137100000Y-85800000D02*
X137100000Y-84000000D01*
%TO.N,VSYS*%
X112200000Y-88200000D02*
X109500000Y-88200000D01*
X112900000Y-90400000D02*
X112900000Y-88900000D01*
X109500000Y-88200000D02*
X109300000Y-88000000D01*
X112900000Y-88900000D02*
X112200000Y-88200000D01*
D12*
X109300000Y-88000000D02*
X109250000Y-87950000D01*
X112700000Y-90600000D02*
X112900000Y-90400000D01*
%TO.N,PWR_EN*%
X113200000Y-84100000D02*
X113200000Y-84000000D01*
X114000000Y-89700000D02*
X114900000Y-89700000D01*
X115600000Y-89000000D02*
X115600000Y-86500000D01*
X115600000Y-86500000D02*
X113200000Y-84100000D01*
X114900000Y-89700000D02*
X115600000Y-89000000D01*
%TO.N,MCU_TXD*%
X117540000Y-84660000D02*
X117600000Y-84600000D01*
X117540000Y-87640000D02*
X117540000Y-84660000D01*
%TD*%
%TA.AperFunction,Conductor*%
%TO.N,GND*%
G36*
X149070115Y-70003561D02*
G01*
X149302504Y-70013707D01*
X149306110Y-70013920D01*
X149502242Y-70028479D01*
X149509146Y-70029189D01*
X149739374Y-70059499D01*
X149743168Y-70060061D01*
X149937531Y-70092027D01*
X149944231Y-70093319D01*
X150170584Y-70143501D01*
X150174548Y-70144450D01*
X150365579Y-70193619D01*
X150371935Y-70195437D01*
X150505019Y-70237398D01*
X150592777Y-70265069D01*
X150596938Y-70266463D01*
X150640216Y-70281812D01*
X150783024Y-70332463D01*
X150788973Y-70334747D01*
X151002716Y-70423282D01*
X151006902Y-70425108D01*
X151186615Y-70507473D01*
X151192185Y-70510197D01*
X151397195Y-70616919D01*
X151401407Y-70619216D01*
X151573197Y-70717271D01*
X151578353Y-70720382D01*
X151654828Y-70769101D01*
X151773226Y-70844529D01*
X151777351Y-70847276D01*
X151939829Y-70960249D01*
X151944526Y-70963681D01*
X152127758Y-71104280D01*
X152131821Y-71107535D01*
X152283687Y-71234540D01*
X152287911Y-71238239D01*
X152458134Y-71394220D01*
X152462042Y-71397961D01*
X152602037Y-71537956D01*
X152605778Y-71541864D01*
X152761759Y-71712087D01*
X152765458Y-71716311D01*
X152892463Y-71868177D01*
X152895718Y-71872240D01*
X153036317Y-72055472D01*
X153039749Y-72060169D01*
X153152709Y-72222628D01*
X153155482Y-72226792D01*
X153279616Y-72421645D01*
X153282727Y-72426801D01*
X153380782Y-72598591D01*
X153383079Y-72602803D01*
X153489795Y-72807802D01*
X153492531Y-72813396D01*
X153574885Y-72993085D01*
X153576721Y-72997295D01*
X153665240Y-73210998D01*
X153667546Y-73217002D01*
X153733535Y-73403060D01*
X153734929Y-73407221D01*
X153804557Y-73628051D01*
X153806382Y-73634430D01*
X153855535Y-73825397D01*
X153856510Y-73829468D01*
X153906677Y-74055761D01*
X153907972Y-74062475D01*
X153939926Y-74256758D01*
X153940509Y-74260697D01*
X153970803Y-74490801D01*
X153971524Y-74497807D01*
X153986073Y-74693807D01*
X153986295Y-74697577D01*
X153996436Y-74929839D01*
X153996540Y-74937086D01*
X153993634Y-75133125D01*
X153993530Y-75136695D01*
X153983369Y-75369444D01*
X153982820Y-75376876D01*
X153962574Y-75571351D01*
X153962180Y-75574697D01*
X153931701Y-75806201D01*
X153930468Y-75813755D01*
X153893153Y-76005053D01*
X153892508Y-76008152D01*
X153841828Y-76236754D01*
X153839884Y-76244369D01*
X153785929Y-76430909D01*
X153785073Y-76433742D01*
X153714446Y-76657743D01*
X153711773Y-76665351D01*
X153641769Y-76845586D01*
X153640742Y-76848144D01*
X153550540Y-77065909D01*
X153547124Y-77073437D01*
X153461825Y-77245871D01*
X153460669Y-77248147D01*
X153351364Y-77458118D01*
X153347198Y-77465494D01*
X153247587Y-77628587D01*
X153246345Y-77630579D01*
X153118473Y-77831298D01*
X153113558Y-77838447D01*
X153000699Y-77990915D01*
X152999409Y-77992628D01*
X152853661Y-78182569D01*
X152848007Y-78189415D01*
X152723249Y-78329916D01*
X152721949Y-78331356D01*
X152558969Y-78509217D01*
X152552592Y-78515685D01*
X152417537Y-78642963D01*
X152416265Y-78644144D01*
X152236682Y-78808702D01*
X152229604Y-78814717D01*
X152086161Y-78927625D01*
X152084953Y-78928564D01*
X151889303Y-79078692D01*
X151881557Y-79084178D01*
X151731784Y-79181863D01*
X151730668Y-79182581D01*
X151519515Y-79317101D01*
X151511141Y-79321987D01*
X151358025Y-79403465D01*
X151357031Y-79403988D01*
X151130178Y-79522080D01*
X151121221Y-79526297D01*
X150968577Y-79590853D01*
X150967730Y-79591208D01*
X150724316Y-79692033D01*
X150714832Y-79695516D01*
X150568704Y-79742518D01*
X150568022Y-79742735D01*
X150305042Y-79825652D01*
X150295092Y-79828340D01*
X150167022Y-79857286D01*
X150166523Y-79857398D01*
X149875648Y-79921883D01*
X149865299Y-79923721D01*
X149786012Y-79934359D01*
X149785709Y-79934399D01*
X149441104Y-79979768D01*
X149430327Y-79980711D01*
X149003667Y-79999339D01*
X148999573Y-79999426D01*
X148999500Y-79999500D01*
X148999500Y-145000500D01*
X148999586Y-145000586D01*
X149003851Y-145000667D01*
X149430348Y-145019289D01*
X149441084Y-145020229D01*
X149785670Y-145065594D01*
X149785956Y-145065721D01*
X149785968Y-145065634D01*
X149865305Y-145076278D01*
X149875639Y-145078113D01*
X150166834Y-145142669D01*
X150295111Y-145171663D01*
X150305036Y-145174344D01*
X150568191Y-145257317D01*
X150568452Y-145257400D01*
X150714844Y-145304486D01*
X150724297Y-145307958D01*
X150967977Y-145408893D01*
X150968416Y-145409077D01*
X151121239Y-145473709D01*
X151130162Y-145477910D01*
X151357215Y-145596107D01*
X151357840Y-145596436D01*
X151511158Y-145678021D01*
X151519502Y-145682889D01*
X151709006Y-145803617D01*
X151730668Y-145817417D01*
X151731720Y-145818094D01*
X151881573Y-145915831D01*
X151889303Y-145921306D01*
X152084953Y-146071434D01*
X152086098Y-146072324D01*
X152229626Y-146185299D01*
X152236682Y-146191296D01*
X152416265Y-146355854D01*
X152417537Y-146357035D01*
X152552592Y-146484313D01*
X152558969Y-146490781D01*
X152721949Y-146668642D01*
X152723249Y-146670082D01*
X152848007Y-146810583D01*
X152853661Y-146817429D01*
X152999447Y-147007420D01*
X153000699Y-147009083D01*
X153113558Y-147161551D01*
X153118473Y-147168700D01*
X153246345Y-147369419D01*
X153247587Y-147371411D01*
X153347198Y-147534504D01*
X153351364Y-147541880D01*
X153460669Y-147751851D01*
X153461825Y-147754127D01*
X153547124Y-147926561D01*
X153550540Y-147934089D01*
X153640742Y-148151854D01*
X153641744Y-148154351D01*
X153711777Y-148334660D01*
X153714446Y-148342255D01*
X153785073Y-148566256D01*
X153785929Y-148569089D01*
X153839884Y-148755629D01*
X153841828Y-148763244D01*
X153892508Y-148991846D01*
X153893153Y-148994945D01*
X153930468Y-149186243D01*
X153931701Y-149193797D01*
X153962180Y-149425301D01*
X153962574Y-149428647D01*
X153982820Y-149623122D01*
X153983369Y-149630554D01*
X153993530Y-149863303D01*
X153993634Y-149866873D01*
X153996540Y-150062912D01*
X153996436Y-150070159D01*
X153986295Y-150302421D01*
X153986073Y-150306191D01*
X153971524Y-150502191D01*
X153970803Y-150509197D01*
X153940509Y-150739301D01*
X153939926Y-150743240D01*
X153907972Y-150937523D01*
X153906677Y-150944237D01*
X153856510Y-151170530D01*
X153855535Y-151174601D01*
X153806382Y-151365568D01*
X153804557Y-151371947D01*
X153734929Y-151592777D01*
X153733535Y-151596938D01*
X153667546Y-151782996D01*
X153665240Y-151789000D01*
X153576721Y-152002703D01*
X153574885Y-152006913D01*
X153492531Y-152186602D01*
X153489795Y-152192196D01*
X153383079Y-152397195D01*
X153380782Y-152401407D01*
X153282727Y-152573197D01*
X153279616Y-152578353D01*
X153155482Y-152773206D01*
X153152709Y-152777370D01*
X153039749Y-152939829D01*
X153036317Y-152944526D01*
X152895718Y-153127758D01*
X152892463Y-153131821D01*
X152765458Y-153283687D01*
X152761759Y-153287911D01*
X152605778Y-153458134D01*
X152602037Y-153462042D01*
X152462042Y-153602037D01*
X152458134Y-153605778D01*
X152287911Y-153761759D01*
X152283687Y-153765458D01*
X152131821Y-153892463D01*
X152127758Y-153895718D01*
X151944526Y-154036317D01*
X151939829Y-154039749D01*
X151777370Y-154152709D01*
X151773206Y-154155482D01*
X151578353Y-154279616D01*
X151573197Y-154282727D01*
X151401407Y-154380782D01*
X151397195Y-154383079D01*
X151192196Y-154489795D01*
X151186602Y-154492531D01*
X151006913Y-154574885D01*
X151002703Y-154576721D01*
X150789000Y-154665240D01*
X150782996Y-154667546D01*
X150596938Y-154733535D01*
X150592777Y-154734929D01*
X150371947Y-154804557D01*
X150365568Y-154806382D01*
X150174601Y-154855535D01*
X150170530Y-154856510D01*
X149944237Y-154906677D01*
X149937523Y-154907972D01*
X149743240Y-154939926D01*
X149739301Y-154940509D01*
X149509197Y-154970803D01*
X149502191Y-154971524D01*
X149306191Y-154986073D01*
X149302421Y-154986295D01*
X149070159Y-154996436D01*
X149062912Y-154996540D01*
X148866873Y-154993634D01*
X148863303Y-154993530D01*
X148630554Y-154983369D01*
X148623122Y-154982820D01*
X148428647Y-154962574D01*
X148425301Y-154962180D01*
X148193797Y-154931701D01*
X148186243Y-154930468D01*
X147994945Y-154893153D01*
X147991846Y-154892508D01*
X147763244Y-154841828D01*
X147755629Y-154839884D01*
X147569089Y-154785929D01*
X147566256Y-154785073D01*
X147342255Y-154714446D01*
X147334660Y-154711777D01*
X147154351Y-154641744D01*
X147151854Y-154640742D01*
X146934089Y-154550540D01*
X146926561Y-154547124D01*
X146754127Y-154461825D01*
X146751851Y-154460669D01*
X146541880Y-154351364D01*
X146534504Y-154347198D01*
X146371411Y-154247587D01*
X146369419Y-154246345D01*
X146168700Y-154118473D01*
X146161551Y-154113558D01*
X146009083Y-154000699D01*
X146007420Y-153999447D01*
X145867996Y-153892463D01*
X145817429Y-153853661D01*
X145810583Y-153848007D01*
X145670082Y-153723249D01*
X145668642Y-153721949D01*
X145490781Y-153558969D01*
X145484313Y-153552592D01*
X145357035Y-153417537D01*
X145355854Y-153416265D01*
X145191296Y-153236682D01*
X145185299Y-153229626D01*
X145072324Y-153086098D01*
X145071434Y-153084953D01*
X144921306Y-152889303D01*
X144915831Y-152881573D01*
X144818094Y-152731720D01*
X144817417Y-152730668D01*
X144791079Y-152689326D01*
X144682889Y-152519502D01*
X144678021Y-152511158D01*
X144596436Y-152357840D01*
X144596107Y-152357215D01*
X144477910Y-152130162D01*
X144473709Y-152121239D01*
X144409077Y-151968416D01*
X144408893Y-151967977D01*
X144307958Y-151724297D01*
X144304486Y-151714844D01*
X144257400Y-151568452D01*
X144257317Y-151568191D01*
X144174344Y-151305036D01*
X144171663Y-151295111D01*
X144142669Y-151166834D01*
X144078113Y-150875639D01*
X144076278Y-150865305D01*
X144065633Y-150785962D01*
X144065594Y-150785665D01*
X144054293Y-150699824D01*
X144020229Y-150441084D01*
X144019289Y-150430348D01*
X144000671Y-150003946D01*
X144000599Y-150000001D01*
X146994390Y-150000001D01*
X146997367Y-150041635D01*
X147002099Y-150107793D01*
X147002232Y-150109645D01*
X147002548Y-150118491D01*
X147002548Y-150142860D01*
X147006016Y-150166981D01*
X147006962Y-150175782D01*
X147014804Y-150285428D01*
X147014805Y-150285435D01*
X147038168Y-150392834D01*
X147039739Y-150401539D01*
X147043210Y-150425675D01*
X147050077Y-150449065D01*
X147052264Y-150457635D01*
X147075630Y-150565046D01*
X147075631Y-150565047D01*
X147114046Y-150668044D01*
X147116840Y-150676438D01*
X147123706Y-150699820D01*
X147123708Y-150699824D01*
X147133827Y-150721983D01*
X147137213Y-150730157D01*
X147175632Y-150833159D01*
X147175635Y-150833166D01*
X147228314Y-150929640D01*
X147232275Y-150937553D01*
X147242398Y-150959719D01*
X147242401Y-150959724D01*
X147255572Y-150980219D01*
X147260087Y-150987829D01*
X147312773Y-151084314D01*
X147312776Y-151084318D01*
X147378650Y-151172316D01*
X147383697Y-151179584D01*
X147396873Y-151200086D01*
X147396876Y-151200089D01*
X147396883Y-151200098D01*
X147412834Y-151218507D01*
X147418388Y-151225399D01*
X147484254Y-151313387D01*
X147484260Y-151313393D01*
X147484261Y-151313395D01*
X147561991Y-151391125D01*
X147568012Y-151397593D01*
X147583972Y-151416012D01*
X147583976Y-151416015D01*
X147583980Y-151416020D01*
X147602416Y-151431995D01*
X147608863Y-151437997D01*
X147686605Y-151515739D01*
X147774635Y-151581637D01*
X147781482Y-151587156D01*
X147799911Y-151603124D01*
X147799914Y-151603127D01*
X147799921Y-151603132D01*
X147820414Y-151616302D01*
X147827686Y-151621351D01*
X147915682Y-151687224D01*
X147915690Y-151687229D01*
X148012166Y-151739909D01*
X148019769Y-151744420D01*
X148040278Y-151757600D01*
X148062452Y-151767726D01*
X148070342Y-151771675D01*
X148166839Y-151824367D01*
X148269851Y-151862788D01*
X148277998Y-151866163D01*
X148300179Y-151876293D01*
X148320480Y-151882254D01*
X148323552Y-151883156D01*
X148331951Y-151885951D01*
X148348589Y-151892156D01*
X148434954Y-151924369D01*
X148542364Y-151947734D01*
X148550921Y-151949917D01*
X148574326Y-151956790D01*
X148598483Y-151960263D01*
X148607122Y-151961821D01*
X148714572Y-151985196D01*
X148824241Y-151993039D01*
X148833001Y-151993981D01*
X148857137Y-151997451D01*
X148857138Y-151997452D01*
X148881507Y-151997452D01*
X148890353Y-151997768D01*
X148999999Y-152005610D01*
X149000000Y-152005610D01*
X149000001Y-152005610D01*
X149109647Y-151997768D01*
X149118493Y-151997452D01*
X149142862Y-151997452D01*
X149144503Y-151997215D01*
X149167022Y-151993978D01*
X149175727Y-151993041D01*
X149285428Y-151985196D01*
X149392872Y-151961822D01*
X149401516Y-151960263D01*
X149425674Y-151956790D01*
X149449078Y-151949917D01*
X149457595Y-151947743D01*
X149565046Y-151924369D01*
X149668067Y-151885943D01*
X149676415Y-151883165D01*
X149699821Y-151876293D01*
X149722006Y-151866161D01*
X149730139Y-151862792D01*
X149833161Y-151824367D01*
X149833165Y-151824364D01*
X149833171Y-151824362D01*
X149881590Y-151797922D01*
X149929646Y-151771681D01*
X149937524Y-151767737D01*
X149959722Y-151757600D01*
X149980234Y-151744417D01*
X149987812Y-151739920D01*
X150084315Y-151687226D01*
X150172344Y-151621327D01*
X150179560Y-151616318D01*
X150200086Y-151603127D01*
X150218527Y-151587146D01*
X150225371Y-151581632D01*
X150313395Y-151515739D01*
X150391139Y-151437994D01*
X150397575Y-151432001D01*
X150416020Y-151416020D01*
X150432001Y-151397575D01*
X150437994Y-151391139D01*
X150515739Y-151313395D01*
X150581632Y-151225371D01*
X150587146Y-151218527D01*
X150603127Y-151200086D01*
X150616318Y-151179560D01*
X150621327Y-151172344D01*
X150687226Y-151084315D01*
X150739920Y-150987812D01*
X150744417Y-150980234D01*
X150757600Y-150959722D01*
X150767738Y-150937523D01*
X150771687Y-150929636D01*
X150824362Y-150833171D01*
X150824368Y-150833158D01*
X150842082Y-150785665D01*
X150862792Y-150730139D01*
X150866161Y-150722006D01*
X150876293Y-150699821D01*
X150883165Y-150676415D01*
X150885943Y-150668067D01*
X150924369Y-150565046D01*
X150947743Y-150457595D01*
X150949917Y-150449078D01*
X150956790Y-150425674D01*
X150960263Y-150401516D01*
X150961822Y-150392872D01*
X150985196Y-150285428D01*
X150993040Y-150175752D01*
X150993980Y-150167004D01*
X150997452Y-150142861D01*
X150998077Y-150107793D01*
X150998370Y-150101225D01*
X151005610Y-150000000D01*
X150998370Y-149898777D01*
X150998077Y-149892203D01*
X150997452Y-149857139D01*
X150997451Y-149857135D01*
X150996842Y-149852899D01*
X150993981Y-149833004D01*
X150993039Y-149824241D01*
X150985196Y-149714572D01*
X150961821Y-149607122D01*
X150960263Y-149598483D01*
X150956790Y-149574326D01*
X150949917Y-149550921D01*
X150947733Y-149542358D01*
X150924369Y-149434954D01*
X150885951Y-149331951D01*
X150883156Y-149323552D01*
X150876295Y-149300187D01*
X150876293Y-149300179D01*
X150866163Y-149277998D01*
X150862784Y-149269840D01*
X150824367Y-149166839D01*
X150771675Y-149070342D01*
X150767726Y-149062452D01*
X150757600Y-149040278D01*
X150744419Y-149019768D01*
X150739909Y-149012166D01*
X150687229Y-148915690D01*
X150687224Y-148915682D01*
X150621351Y-148827686D01*
X150616302Y-148820414D01*
X150603132Y-148799921D01*
X150603127Y-148799914D01*
X150587156Y-148781482D01*
X150581637Y-148774635D01*
X150515739Y-148686605D01*
X150437997Y-148608863D01*
X150431995Y-148602416D01*
X150416020Y-148583980D01*
X150416015Y-148583976D01*
X150416012Y-148583972D01*
X150397593Y-148568012D01*
X150391125Y-148561991D01*
X150313395Y-148484261D01*
X150313393Y-148484260D01*
X150313387Y-148484254D01*
X150225399Y-148418388D01*
X150218507Y-148412834D01*
X150200098Y-148396883D01*
X150200093Y-148396879D01*
X150200086Y-148396873D01*
X150185911Y-148387763D01*
X150179584Y-148383697D01*
X150172316Y-148378650D01*
X150084318Y-148312776D01*
X150084314Y-148312773D01*
X149987829Y-148260087D01*
X149980219Y-148255572D01*
X149959724Y-148242401D01*
X149959719Y-148242398D01*
X149937553Y-148232275D01*
X149929640Y-148228314D01*
X149833166Y-148175635D01*
X149833159Y-148175632D01*
X149730157Y-148137213D01*
X149721983Y-148133827D01*
X149699824Y-148123708D01*
X149699820Y-148123706D01*
X149676438Y-148116840D01*
X149668044Y-148114046D01*
X149565047Y-148075631D01*
X149565046Y-148075630D01*
X149457635Y-148052264D01*
X149449065Y-148050077D01*
X149425675Y-148043210D01*
X149401539Y-148039739D01*
X149392834Y-148038168D01*
X149285435Y-148014805D01*
X149285428Y-148014804D01*
X149175782Y-148006962D01*
X149166983Y-148006016D01*
X149142861Y-148002548D01*
X149142860Y-148002548D01*
X149118493Y-148002548D01*
X149109647Y-148002232D01*
X149000001Y-147994390D01*
X148999999Y-147994390D01*
X148890353Y-148002232D01*
X148881507Y-148002548D01*
X148857135Y-148002548D01*
X148833015Y-148006016D01*
X148824216Y-148006962D01*
X148714571Y-148014804D01*
X148714564Y-148014805D01*
X148607157Y-148038170D01*
X148598449Y-148039741D01*
X148574335Y-148043208D01*
X148574325Y-148043210D01*
X148550935Y-148050077D01*
X148542368Y-148052263D01*
X148434950Y-148075631D01*
X148434947Y-148075632D01*
X148331956Y-148114045D01*
X148323565Y-148116838D01*
X148300181Y-148123705D01*
X148278001Y-148133834D01*
X148269827Y-148137219D01*
X148166845Y-148175630D01*
X148166831Y-148175636D01*
X148070360Y-148228312D01*
X148062455Y-148232270D01*
X148040277Y-148242400D01*
X148019768Y-148255579D01*
X148012163Y-148260091D01*
X147915688Y-148312771D01*
X147827673Y-148378656D01*
X147820411Y-148383698D01*
X147799914Y-148396872D01*
X147781493Y-148412833D01*
X147774605Y-148418383D01*
X147686619Y-148484249D01*
X147686604Y-148484262D01*
X147608873Y-148561991D01*
X147602399Y-148568018D01*
X147583979Y-148583979D01*
X147568018Y-148602399D01*
X147561991Y-148608873D01*
X147484262Y-148686604D01*
X147484249Y-148686619D01*
X147418383Y-148774605D01*
X147412833Y-148781493D01*
X147396872Y-148799914D01*
X147383698Y-148820411D01*
X147378656Y-148827673D01*
X147312771Y-148915688D01*
X147260091Y-149012163D01*
X147255579Y-149019768D01*
X147242400Y-149040277D01*
X147232270Y-149062455D01*
X147228312Y-149070360D01*
X147175636Y-149166831D01*
X147175630Y-149166845D01*
X147137219Y-149269827D01*
X147133834Y-149278001D01*
X147123705Y-149300181D01*
X147116838Y-149323565D01*
X147114045Y-149331956D01*
X147075632Y-149434947D01*
X147075631Y-149434950D01*
X147052263Y-149542368D01*
X147050077Y-149550935D01*
X147043210Y-149574325D01*
X147043208Y-149574335D01*
X147039741Y-149598449D01*
X147038170Y-149607157D01*
X147014805Y-149714564D01*
X147014804Y-149714571D01*
X147006962Y-149824216D01*
X147006016Y-149833015D01*
X147002548Y-149857135D01*
X147002548Y-149881507D01*
X147002232Y-149890353D01*
X146994390Y-149999999D01*
X146994390Y-150000001D01*
X144000599Y-150000001D01*
X144000592Y-149999592D01*
X144000500Y-149999500D01*
X144000099Y-149999500D01*
X84000500Y-149999500D01*
X83999500Y-149999500D01*
X83999421Y-149999578D01*
X83999336Y-150003738D01*
X83980711Y-150430327D01*
X83979768Y-150441103D01*
X83934405Y-150785665D01*
X83934365Y-150785970D01*
X83923721Y-150865300D01*
X83921883Y-150875648D01*
X83857398Y-151166523D01*
X83857286Y-151167022D01*
X83828340Y-151295092D01*
X83825652Y-151305042D01*
X83742735Y-151568022D01*
X83742518Y-151568704D01*
X83695516Y-151714832D01*
X83692033Y-151724316D01*
X83591208Y-151967730D01*
X83590853Y-151968577D01*
X83526297Y-152121221D01*
X83522080Y-152130178D01*
X83403988Y-152357031D01*
X83403465Y-152358025D01*
X83321987Y-152511141D01*
X83317101Y-152519515D01*
X83182581Y-152730668D01*
X83181863Y-152731784D01*
X83084178Y-152881557D01*
X83078692Y-152889303D01*
X82928564Y-153084953D01*
X82927625Y-153086161D01*
X82814717Y-153229604D01*
X82808702Y-153236682D01*
X82644144Y-153416265D01*
X82642963Y-153417537D01*
X82515685Y-153552592D01*
X82509217Y-153558969D01*
X82331356Y-153721949D01*
X82329916Y-153723249D01*
X82189415Y-153848007D01*
X82182569Y-153853661D01*
X81992628Y-153999409D01*
X81990915Y-154000699D01*
X81838447Y-154113558D01*
X81831298Y-154118473D01*
X81630579Y-154246345D01*
X81628587Y-154247587D01*
X81465494Y-154347198D01*
X81458118Y-154351364D01*
X81248147Y-154460669D01*
X81245871Y-154461825D01*
X81073437Y-154547124D01*
X81065909Y-154550540D01*
X80848144Y-154640742D01*
X80845586Y-154641769D01*
X80665351Y-154711773D01*
X80657743Y-154714446D01*
X80433742Y-154785073D01*
X80430909Y-154785929D01*
X80244369Y-154839884D01*
X80236754Y-154841828D01*
X80008152Y-154892508D01*
X80005053Y-154893153D01*
X79813755Y-154930468D01*
X79806201Y-154931701D01*
X79574697Y-154962180D01*
X79571351Y-154962574D01*
X79376876Y-154982820D01*
X79369444Y-154983369D01*
X79136695Y-154993530D01*
X79133125Y-154993634D01*
X78937086Y-154996540D01*
X78929839Y-154996436D01*
X78697577Y-154986295D01*
X78693807Y-154986073D01*
X78497807Y-154971524D01*
X78490801Y-154970803D01*
X78260697Y-154940509D01*
X78256758Y-154939926D01*
X78062475Y-154907972D01*
X78055761Y-154906677D01*
X77829468Y-154856510D01*
X77825397Y-154855535D01*
X77634430Y-154806382D01*
X77628051Y-154804557D01*
X77407221Y-154734929D01*
X77403060Y-154733535D01*
X77217002Y-154667546D01*
X77210998Y-154665240D01*
X76997295Y-154576721D01*
X76993085Y-154574885D01*
X76813396Y-154492531D01*
X76807802Y-154489795D01*
X76602803Y-154383079D01*
X76598591Y-154380782D01*
X76426801Y-154282727D01*
X76421645Y-154279616D01*
X76226792Y-154155482D01*
X76222628Y-154152709D01*
X76060169Y-154039749D01*
X76055472Y-154036317D01*
X75872240Y-153895718D01*
X75868177Y-153892463D01*
X75716311Y-153765458D01*
X75712087Y-153761759D01*
X75541864Y-153605778D01*
X75537956Y-153602037D01*
X75397961Y-153462042D01*
X75394220Y-153458134D01*
X75238239Y-153287911D01*
X75234540Y-153283687D01*
X75107535Y-153131821D01*
X75104280Y-153127758D01*
X74963681Y-152944526D01*
X74960249Y-152939829D01*
X74847276Y-152777351D01*
X74844529Y-152773226D01*
X74720382Y-152578353D01*
X74717271Y-152573197D01*
X74619216Y-152401407D01*
X74616919Y-152397195D01*
X74510197Y-152192185D01*
X74507467Y-152186602D01*
X74490841Y-152150326D01*
X74425108Y-152006902D01*
X74423277Y-152002703D01*
X74334747Y-151788973D01*
X74332463Y-151783024D01*
X74281812Y-151640216D01*
X74266463Y-151596938D01*
X74265069Y-151592777D01*
X74195441Y-151371947D01*
X74193616Y-151365568D01*
X74181356Y-151317936D01*
X74144450Y-151174548D01*
X74143501Y-151170584D01*
X74093319Y-150944231D01*
X74092026Y-150937523D01*
X74060061Y-150743168D01*
X74059499Y-150739374D01*
X74029189Y-150509146D01*
X74028479Y-150502242D01*
X74013920Y-150306110D01*
X74013707Y-150302504D01*
X74003561Y-150070115D01*
X74003458Y-150062959D01*
X74004391Y-150000001D01*
X76994390Y-150000001D01*
X76997367Y-150041635D01*
X77002099Y-150107793D01*
X77002232Y-150109645D01*
X77002548Y-150118491D01*
X77002548Y-150142860D01*
X77006016Y-150166981D01*
X77006962Y-150175782D01*
X77014804Y-150285428D01*
X77014805Y-150285435D01*
X77038168Y-150392834D01*
X77039739Y-150401539D01*
X77043210Y-150425675D01*
X77050077Y-150449065D01*
X77052264Y-150457635D01*
X77075630Y-150565046D01*
X77075631Y-150565047D01*
X77114046Y-150668044D01*
X77116840Y-150676438D01*
X77123706Y-150699820D01*
X77123708Y-150699824D01*
X77133827Y-150721983D01*
X77137213Y-150730157D01*
X77175632Y-150833159D01*
X77175635Y-150833166D01*
X77228314Y-150929640D01*
X77232275Y-150937553D01*
X77242398Y-150959719D01*
X77242401Y-150959724D01*
X77255572Y-150980219D01*
X77260087Y-150987829D01*
X77312773Y-151084314D01*
X77312776Y-151084318D01*
X77378650Y-151172316D01*
X77383697Y-151179584D01*
X77396873Y-151200086D01*
X77396876Y-151200089D01*
X77396883Y-151200098D01*
X77412834Y-151218507D01*
X77418388Y-151225399D01*
X77484254Y-151313387D01*
X77484260Y-151313393D01*
X77484261Y-151313395D01*
X77561991Y-151391125D01*
X77568012Y-151397593D01*
X77583972Y-151416012D01*
X77583976Y-151416015D01*
X77583980Y-151416020D01*
X77602416Y-151431995D01*
X77608863Y-151437997D01*
X77686605Y-151515739D01*
X77774635Y-151581637D01*
X77781482Y-151587156D01*
X77799911Y-151603124D01*
X77799914Y-151603127D01*
X77799921Y-151603132D01*
X77820414Y-151616302D01*
X77827686Y-151621351D01*
X77915682Y-151687224D01*
X77915690Y-151687229D01*
X78012166Y-151739909D01*
X78019769Y-151744420D01*
X78040278Y-151757600D01*
X78062452Y-151767726D01*
X78070342Y-151771675D01*
X78166839Y-151824367D01*
X78269851Y-151862788D01*
X78277998Y-151866163D01*
X78300179Y-151876293D01*
X78320480Y-151882254D01*
X78323552Y-151883156D01*
X78331951Y-151885951D01*
X78348589Y-151892156D01*
X78434954Y-151924369D01*
X78542364Y-151947734D01*
X78550921Y-151949917D01*
X78574326Y-151956790D01*
X78598483Y-151960263D01*
X78607122Y-151961821D01*
X78714572Y-151985196D01*
X78824241Y-151993039D01*
X78833001Y-151993981D01*
X78857137Y-151997451D01*
X78857138Y-151997452D01*
X78881507Y-151997452D01*
X78890353Y-151997768D01*
X78999999Y-152005610D01*
X79000000Y-152005610D01*
X79000001Y-152005610D01*
X79109647Y-151997768D01*
X79118493Y-151997452D01*
X79142862Y-151997452D01*
X79144503Y-151997215D01*
X79167022Y-151993978D01*
X79175727Y-151993041D01*
X79285428Y-151985196D01*
X79392872Y-151961822D01*
X79401516Y-151960263D01*
X79425674Y-151956790D01*
X79449078Y-151949917D01*
X79457595Y-151947743D01*
X79565046Y-151924369D01*
X79668067Y-151885943D01*
X79676415Y-151883165D01*
X79699821Y-151876293D01*
X79722006Y-151866161D01*
X79730139Y-151862792D01*
X79833161Y-151824367D01*
X79833165Y-151824364D01*
X79833171Y-151824362D01*
X79881590Y-151797922D01*
X79929646Y-151771681D01*
X79937524Y-151767737D01*
X79959722Y-151757600D01*
X79980234Y-151744417D01*
X79987812Y-151739920D01*
X80084315Y-151687226D01*
X80172344Y-151621327D01*
X80179560Y-151616318D01*
X80200086Y-151603127D01*
X80218527Y-151587146D01*
X80225371Y-151581632D01*
X80313395Y-151515739D01*
X80391139Y-151437994D01*
X80397575Y-151432001D01*
X80416020Y-151416020D01*
X80432001Y-151397575D01*
X80437994Y-151391139D01*
X80515739Y-151313395D01*
X80581632Y-151225371D01*
X80587146Y-151218527D01*
X80603127Y-151200086D01*
X80616318Y-151179560D01*
X80621327Y-151172344D01*
X80687226Y-151084315D01*
X80739920Y-150987812D01*
X80744417Y-150980234D01*
X80757600Y-150959722D01*
X80767738Y-150937523D01*
X80771687Y-150929636D01*
X80824362Y-150833171D01*
X80824368Y-150833158D01*
X80842082Y-150785665D01*
X80862792Y-150730139D01*
X80866161Y-150722006D01*
X80876293Y-150699821D01*
X80883165Y-150676415D01*
X80885943Y-150668067D01*
X80924369Y-150565046D01*
X80947743Y-150457595D01*
X80949917Y-150449078D01*
X80956790Y-150425674D01*
X80960263Y-150401516D01*
X80961822Y-150392872D01*
X80985196Y-150285428D01*
X80993040Y-150175752D01*
X80993980Y-150167004D01*
X80997452Y-150142861D01*
X80998077Y-150107793D01*
X80998370Y-150101225D01*
X81005610Y-150000000D01*
X80998370Y-149898777D01*
X80998077Y-149892203D01*
X80997452Y-149857139D01*
X80997451Y-149857135D01*
X80996842Y-149852899D01*
X80993981Y-149833004D01*
X80993039Y-149824241D01*
X80985196Y-149714572D01*
X80961821Y-149607122D01*
X80960263Y-149598483D01*
X80956790Y-149574326D01*
X80949917Y-149550921D01*
X80947733Y-149542358D01*
X80924369Y-149434954D01*
X80885951Y-149331951D01*
X80883156Y-149323552D01*
X80876295Y-149300187D01*
X80876293Y-149300179D01*
X80866163Y-149277998D01*
X80862784Y-149269840D01*
X80824367Y-149166839D01*
X80771675Y-149070342D01*
X80767726Y-149062452D01*
X80757600Y-149040278D01*
X80744419Y-149019768D01*
X80739909Y-149012166D01*
X80687229Y-148915690D01*
X80687224Y-148915682D01*
X80621351Y-148827686D01*
X80616302Y-148820414D01*
X80603132Y-148799921D01*
X80603127Y-148799914D01*
X80587156Y-148781482D01*
X80581637Y-148774635D01*
X80515739Y-148686605D01*
X80437997Y-148608863D01*
X80431995Y-148602416D01*
X80416020Y-148583980D01*
X80416015Y-148583976D01*
X80416012Y-148583972D01*
X80397593Y-148568012D01*
X80391125Y-148561991D01*
X80313395Y-148484261D01*
X80313393Y-148484260D01*
X80313387Y-148484254D01*
X80225399Y-148418388D01*
X80218507Y-148412834D01*
X80200098Y-148396883D01*
X80200093Y-148396879D01*
X80200086Y-148396873D01*
X80185911Y-148387763D01*
X80179584Y-148383697D01*
X80172316Y-148378650D01*
X80084318Y-148312776D01*
X80084314Y-148312773D01*
X79987829Y-148260087D01*
X79980219Y-148255572D01*
X79959724Y-148242401D01*
X79959719Y-148242398D01*
X79937553Y-148232275D01*
X79929640Y-148228314D01*
X79833166Y-148175635D01*
X79833159Y-148175632D01*
X79730157Y-148137213D01*
X79721983Y-148133827D01*
X79699824Y-148123708D01*
X79699820Y-148123706D01*
X79676438Y-148116840D01*
X79668044Y-148114046D01*
X79565047Y-148075631D01*
X79565046Y-148075630D01*
X79457635Y-148052264D01*
X79449065Y-148050077D01*
X79425675Y-148043210D01*
X79401539Y-148039739D01*
X79392834Y-148038168D01*
X79285435Y-148014805D01*
X79285428Y-148014804D01*
X79175782Y-148006962D01*
X79166983Y-148006016D01*
X79142861Y-148002548D01*
X79142860Y-148002548D01*
X79118493Y-148002548D01*
X79109647Y-148002232D01*
X79000001Y-147994390D01*
X78999999Y-147994390D01*
X78890353Y-148002232D01*
X78881507Y-148002548D01*
X78857135Y-148002548D01*
X78833015Y-148006016D01*
X78824216Y-148006962D01*
X78714571Y-148014804D01*
X78714564Y-148014805D01*
X78607157Y-148038170D01*
X78598449Y-148039741D01*
X78574335Y-148043208D01*
X78574325Y-148043210D01*
X78550935Y-148050077D01*
X78542368Y-148052263D01*
X78434950Y-148075631D01*
X78434947Y-148075632D01*
X78331956Y-148114045D01*
X78323565Y-148116838D01*
X78300181Y-148123705D01*
X78278001Y-148133834D01*
X78269827Y-148137219D01*
X78166845Y-148175630D01*
X78166831Y-148175636D01*
X78070360Y-148228312D01*
X78062455Y-148232270D01*
X78040277Y-148242400D01*
X78019768Y-148255579D01*
X78012163Y-148260091D01*
X77915688Y-148312771D01*
X77827673Y-148378656D01*
X77820411Y-148383698D01*
X77799914Y-148396872D01*
X77781493Y-148412833D01*
X77774605Y-148418383D01*
X77686619Y-148484249D01*
X77686604Y-148484262D01*
X77608873Y-148561991D01*
X77602399Y-148568018D01*
X77583979Y-148583979D01*
X77568018Y-148602399D01*
X77561991Y-148608873D01*
X77484262Y-148686604D01*
X77484249Y-148686619D01*
X77418383Y-148774605D01*
X77412833Y-148781493D01*
X77396872Y-148799914D01*
X77383698Y-148820411D01*
X77378656Y-148827673D01*
X77312771Y-148915688D01*
X77260091Y-149012163D01*
X77255579Y-149019768D01*
X77242400Y-149040277D01*
X77232270Y-149062455D01*
X77228312Y-149070360D01*
X77175636Y-149166831D01*
X77175630Y-149166845D01*
X77137219Y-149269827D01*
X77133834Y-149278001D01*
X77123705Y-149300181D01*
X77116838Y-149323565D01*
X77114045Y-149331956D01*
X77075632Y-149434947D01*
X77075631Y-149434950D01*
X77052263Y-149542368D01*
X77050077Y-149550935D01*
X77043210Y-149574325D01*
X77043208Y-149574335D01*
X77039741Y-149598449D01*
X77038170Y-149607157D01*
X77014805Y-149714564D01*
X77014804Y-149714571D01*
X77006962Y-149824216D01*
X77006016Y-149833015D01*
X77002548Y-149857135D01*
X77002548Y-149881507D01*
X77002232Y-149890353D01*
X76994390Y-149999998D01*
X76994390Y-150000001D01*
X74004391Y-150000001D01*
X74006364Y-149866843D01*
X74006468Y-149863303D01*
X74016633Y-149630497D01*
X74017173Y-149623180D01*
X74037439Y-149428516D01*
X74037801Y-149425442D01*
X74068302Y-149193765D01*
X74069525Y-149186273D01*
X74106863Y-148994855D01*
X74107471Y-148991933D01*
X74158176Y-148763217D01*
X74160107Y-148755655D01*
X74214095Y-148569001D01*
X74214905Y-148566321D01*
X74285562Y-148342223D01*
X74288201Y-148334714D01*
X74358314Y-148154198D01*
X74359196Y-148152001D01*
X74449467Y-147934067D01*
X74452858Y-147926595D01*
X74538255Y-147753964D01*
X74539260Y-147751986D01*
X74648643Y-147541862D01*
X74652789Y-147534521D01*
X74752482Y-147371296D01*
X74753582Y-147369532D01*
X74881546Y-147168669D01*
X74886428Y-147161567D01*
X74999369Y-147008989D01*
X75000440Y-147007567D01*
X75146359Y-146817402D01*
X75151979Y-146810596D01*
X75276870Y-146669946D01*
X75277897Y-146668809D01*
X75441058Y-146490751D01*
X75447376Y-146484342D01*
X75582608Y-146356898D01*
X75583560Y-146356014D01*
X75763347Y-146191269D01*
X75770346Y-146185321D01*
X75914059Y-146072199D01*
X75914906Y-146071541D01*
X76110723Y-145921285D01*
X76118401Y-145915847D01*
X76268424Y-145817999D01*
X76269105Y-145817561D01*
X76480519Y-145682875D01*
X76488818Y-145678033D01*
X76642335Y-145596342D01*
X76642514Y-145596247D01*
X76869856Y-145477900D01*
X76878740Y-145473718D01*
X77031804Y-145408984D01*
X77275718Y-145307951D01*
X77285139Y-145304491D01*
X77431610Y-145257379D01*
X77694975Y-145174340D01*
X77704876Y-145171666D01*
X77833178Y-145142666D01*
X78124368Y-145078111D01*
X78134686Y-145076279D01*
X78213972Y-145065641D01*
X78214031Y-145065634D01*
X78214041Y-145065711D01*
X78214323Y-145065595D01*
X78558917Y-145020229D01*
X78569649Y-145019289D01*
X78996209Y-145000664D01*
X79000419Y-145000580D01*
X79000500Y-145000500D01*
X79000500Y-88000001D01*
X108694318Y-88000001D01*
X108714955Y-88156760D01*
X108714956Y-88156762D01*
X108775464Y-88302841D01*
X108871718Y-88428282D01*
X108997159Y-88524536D01*
X109143238Y-88585044D01*
X109269804Y-88601706D01*
X109293157Y-88608670D01*
X109293447Y-88607733D01*
X109356980Y-88627330D01*
X109361371Y-88628774D01*
X109415301Y-88647646D01*
X109415305Y-88647646D01*
X109423698Y-88649234D01*
X109432095Y-88650500D01*
X109432098Y-88650500D01*
X109489245Y-88650500D01*
X109493883Y-88650587D01*
X109551009Y-88652725D01*
X109551009Y-88652724D01*
X109551010Y-88652725D01*
X109551010Y-88652724D01*
X109560242Y-88651685D01*
X109560335Y-88652513D01*
X109575639Y-88650500D01*
X111962034Y-88650500D01*
X112029073Y-88670185D01*
X112049715Y-88686819D01*
X112413181Y-89050285D01*
X112446666Y-89111608D01*
X112449500Y-89137966D01*
X112449500Y-89974151D01*
X112429815Y-90041190D01*
X112400987Y-90072527D01*
X112397159Y-90075463D01*
X112397159Y-90075464D01*
X112271718Y-90171718D01*
X112175463Y-90297160D01*
X112114956Y-90443237D01*
X112114955Y-90443239D01*
X112094318Y-90599998D01*
X112094318Y-90600001D01*
X112114955Y-90756760D01*
X112114956Y-90756762D01*
X112175464Y-90902841D01*
X112271718Y-91028282D01*
X112397159Y-91124536D01*
X112543238Y-91185044D01*
X112621619Y-91195363D01*
X112699999Y-91205682D01*
X112700000Y-91205682D01*
X112700001Y-91205682D01*
X112752254Y-91198802D01*
X112856762Y-91185044D01*
X113002841Y-91124536D01*
X113128282Y-91028282D01*
X113224536Y-90902841D01*
X113285044Y-90756762D01*
X113301706Y-90630192D01*
X113308672Y-90606845D01*
X113307732Y-90606555D01*
X113310472Y-90597673D01*
X113350500Y-90467902D01*
X113350500Y-90205276D01*
X113370185Y-90138237D01*
X113422989Y-90092482D01*
X113492147Y-90082538D01*
X113555703Y-90111563D01*
X113567166Y-90123730D01*
X113571713Y-90128277D01*
X113571715Y-90128279D01*
X113571718Y-90128282D01*
X113697159Y-90224536D01*
X113843238Y-90285044D01*
X113921619Y-90295363D01*
X113999999Y-90305682D01*
X114000000Y-90305682D01*
X114000001Y-90305682D01*
X114064739Y-90297159D01*
X114156762Y-90285044D01*
X114302841Y-90224536D01*
X114428282Y-90128282D01*
X114450741Y-90099011D01*
X114507168Y-90057811D01*
X114549116Y-90050500D01*
X114850789Y-90050500D01*
X114876234Y-90053138D01*
X114885315Y-90055043D01*
X114910673Y-90051881D01*
X114914123Y-90051452D01*
X114927764Y-90050605D01*
X114929026Y-90050500D01*
X114929040Y-90050500D01*
X114937071Y-90049159D01*
X114948014Y-90047334D01*
X114953063Y-90046597D01*
X115001393Y-90040573D01*
X115001399Y-90040569D01*
X115008456Y-90038468D01*
X115015377Y-90036092D01*
X115015381Y-90036092D01*
X115058216Y-90012909D01*
X115062729Y-90010586D01*
X115106484Y-89989198D01*
X115106486Y-89989195D01*
X115112461Y-89984929D01*
X115118256Y-89980419D01*
X115118255Y-89980419D01*
X115118258Y-89980418D01*
X115151254Y-89944572D01*
X115154756Y-89940924D01*
X115813046Y-89282634D01*
X115832902Y-89266511D01*
X115840669Y-89261437D01*
X115858496Y-89238531D01*
X115867542Y-89228289D01*
X115868362Y-89227319D01*
X115868375Y-89227307D01*
X115879588Y-89211601D01*
X115882592Y-89207572D01*
X115912517Y-89169126D01*
X115912520Y-89169115D01*
X115916021Y-89162648D01*
X115919235Y-89156071D01*
X115919239Y-89156067D01*
X115933127Y-89109417D01*
X115934686Y-89104550D01*
X115940847Y-89086604D01*
X115950500Y-89058488D01*
X115950500Y-89058483D01*
X115951706Y-89051252D01*
X115952617Y-89043952D01*
X115950606Y-88995332D01*
X115950500Y-88990207D01*
X115950500Y-87640001D01*
X116934318Y-87640001D01*
X116954955Y-87796760D01*
X116954956Y-87796762D01*
X117015464Y-87942841D01*
X117111718Y-88068282D01*
X117237159Y-88164536D01*
X117383238Y-88225044D01*
X117461619Y-88235363D01*
X117539999Y-88245682D01*
X117540000Y-88245682D01*
X117540001Y-88245682D01*
X117592254Y-88238802D01*
X117696762Y-88225044D01*
X117842841Y-88164536D01*
X117968282Y-88068282D01*
X118064536Y-87942841D01*
X118125044Y-87796762D01*
X118145682Y-87640000D01*
X118125044Y-87483238D01*
X118064536Y-87337159D01*
X117968282Y-87211718D01*
X117968279Y-87211716D01*
X117968278Y-87211714D01*
X117939013Y-87189258D01*
X117897811Y-87132830D01*
X117890500Y-87090883D01*
X117890500Y-85195155D01*
X117910185Y-85128116D01*
X117939012Y-85096780D01*
X118028282Y-85028282D01*
X118124536Y-84902841D01*
X118185044Y-84756762D01*
X118205682Y-84600000D01*
X118185044Y-84443238D01*
X118124536Y-84297159D01*
X118028282Y-84171718D01*
X117902841Y-84075464D01*
X117877472Y-84064956D01*
X117756762Y-84014956D01*
X117756760Y-84014955D01*
X117600001Y-83994318D01*
X117599999Y-83994318D01*
X117443239Y-84014955D01*
X117443237Y-84014956D01*
X117297160Y-84075463D01*
X117171718Y-84171718D01*
X117075463Y-84297160D01*
X117014956Y-84443237D01*
X117014955Y-84443239D01*
X116994318Y-84599998D01*
X116994318Y-84600001D01*
X117014955Y-84756760D01*
X117014956Y-84756762D01*
X117075464Y-84902842D01*
X117163876Y-85018062D01*
X117189070Y-85083231D01*
X117189500Y-85093548D01*
X117189500Y-87090883D01*
X117169815Y-87157922D01*
X117140987Y-87189258D01*
X117111721Y-87211714D01*
X117015463Y-87337160D01*
X116954956Y-87483237D01*
X116954955Y-87483239D01*
X116934318Y-87639998D01*
X116934318Y-87640001D01*
X115950500Y-87640001D01*
X115950500Y-86549212D01*
X115953139Y-86523765D01*
X115955043Y-86514686D01*
X115951452Y-86485878D01*
X115950604Y-86472222D01*
X115950499Y-86470953D01*
X115949798Y-86466755D01*
X115947330Y-86451971D01*
X115946597Y-86446941D01*
X115940573Y-86398608D01*
X115940570Y-86398603D01*
X115938472Y-86391557D01*
X115936092Y-86384622D01*
X115936092Y-86384619D01*
X115912918Y-86341798D01*
X115910576Y-86337247D01*
X115889202Y-86293523D01*
X115889201Y-86293522D01*
X115889199Y-86293517D01*
X115889194Y-86293512D01*
X115884919Y-86287525D01*
X115880420Y-86281745D01*
X115880419Y-86281744D01*
X115880418Y-86281742D01*
X115844587Y-86248757D01*
X115840914Y-86245232D01*
X113824491Y-84228809D01*
X113791006Y-84167486D01*
X113789233Y-84124943D01*
X113805682Y-84000001D01*
X113805682Y-83999998D01*
X113785044Y-83843239D01*
X113785044Y-83843238D01*
X113724536Y-83697159D01*
X113628282Y-83571718D01*
X113502841Y-83475464D01*
X113356762Y-83414956D01*
X113356760Y-83414955D01*
X113200001Y-83394318D01*
X113199999Y-83394318D01*
X113043239Y-83414955D01*
X113043237Y-83414956D01*
X112897160Y-83475463D01*
X112771718Y-83571718D01*
X112675463Y-83697160D01*
X112614956Y-83843237D01*
X112614955Y-83843239D01*
X112594318Y-83999998D01*
X112594318Y-84000001D01*
X112614955Y-84156760D01*
X112614956Y-84156762D01*
X112675464Y-84302841D01*
X112771718Y-84428282D01*
X112897159Y-84524536D01*
X113043238Y-84585044D01*
X113169785Y-84601704D01*
X113233679Y-84629969D01*
X113241279Y-84636961D01*
X115213181Y-86608863D01*
X115246666Y-86670186D01*
X115249500Y-86696544D01*
X115249500Y-88803456D01*
X115229815Y-88870495D01*
X115213181Y-88891137D01*
X114791137Y-89313181D01*
X114729814Y-89346666D01*
X114703456Y-89349500D01*
X114549116Y-89349500D01*
X114482077Y-89329815D01*
X114450742Y-89300989D01*
X114428282Y-89271718D01*
X114302841Y-89175464D01*
X114271900Y-89162648D01*
X114156762Y-89114956D01*
X114156760Y-89114955D01*
X114000001Y-89094318D01*
X113999999Y-89094318D01*
X113843239Y-89114955D01*
X113843237Y-89114956D01*
X113697160Y-89175463D01*
X113652721Y-89209562D01*
X113585117Y-89261437D01*
X113571713Y-89271722D01*
X113565971Y-89277465D01*
X113564691Y-89276185D01*
X113516445Y-89311413D01*
X113446699Y-89315566D01*
X113385780Y-89281353D01*
X113353028Y-89219635D01*
X113350500Y-89194723D01*
X113350500Y-88932261D01*
X113351280Y-88918376D01*
X113355270Y-88882966D01*
X113352910Y-88870495D01*
X113344633Y-88826753D01*
X113343864Y-88822219D01*
X113335348Y-88765715D01*
X113335348Y-88765713D01*
X113335346Y-88765709D01*
X113332836Y-88757571D01*
X113330024Y-88749534D01*
X113330023Y-88749528D01*
X113303285Y-88698941D01*
X113301223Y-88694854D01*
X113297354Y-88686819D01*
X113276425Y-88643358D01*
X113276423Y-88643356D01*
X113276423Y-88643355D01*
X113271642Y-88636342D01*
X113266566Y-88629465D01*
X113266565Y-88629462D01*
X113226165Y-88589062D01*
X113222947Y-88585721D01*
X113184060Y-88543809D01*
X113176792Y-88538014D01*
X113177312Y-88537361D01*
X113165067Y-88527964D01*
X112541368Y-87904265D01*
X112532102Y-87893897D01*
X112509877Y-87866028D01*
X112476451Y-87843239D01*
X112462633Y-87833818D01*
X112458869Y-87831147D01*
X112412886Y-87797209D01*
X112405297Y-87793198D01*
X112397675Y-87789528D01*
X112343049Y-87772679D01*
X112338644Y-87771230D01*
X112284695Y-87752352D01*
X112276326Y-87750768D01*
X112267904Y-87749500D01*
X112267902Y-87749500D01*
X112210738Y-87749500D01*
X112206101Y-87749413D01*
X112204085Y-87749337D01*
X112148989Y-87747275D01*
X112139756Y-87748316D01*
X112139662Y-87747486D01*
X112124364Y-87749500D01*
X109925849Y-87749500D01*
X109858810Y-87729815D01*
X109827473Y-87700987D01*
X109780676Y-87640000D01*
X109728282Y-87571718D01*
X109602841Y-87475464D01*
X109456762Y-87414956D01*
X109456760Y-87414955D01*
X109300001Y-87394318D01*
X109299999Y-87394318D01*
X109143239Y-87414955D01*
X109143237Y-87414956D01*
X108997160Y-87475463D01*
X108871718Y-87571718D01*
X108775463Y-87697160D01*
X108714956Y-87843237D01*
X108714955Y-87843239D01*
X108694318Y-87999998D01*
X108694318Y-88000001D01*
X79000500Y-88000001D01*
X79000500Y-80000001D01*
X110294318Y-80000001D01*
X110314955Y-80156760D01*
X110314956Y-80156762D01*
X110375464Y-80302841D01*
X110471718Y-80428282D01*
X110597159Y-80524536D01*
X110743238Y-80585044D01*
X110821619Y-80595363D01*
X110899999Y-80605682D01*
X110900000Y-80605682D01*
X110900001Y-80605682D01*
X110952254Y-80598802D01*
X111056762Y-80585044D01*
X111202841Y-80524536D01*
X111265933Y-80476123D01*
X111331102Y-80450930D01*
X111341419Y-80450500D01*
X120562034Y-80450500D01*
X120629073Y-80470185D01*
X120649715Y-80486819D01*
X124819317Y-84656420D01*
X124852802Y-84717743D01*
X124854575Y-84727915D01*
X124864955Y-84806761D01*
X124925463Y-84952839D01*
X124925464Y-84952841D01*
X125021718Y-85078282D01*
X125147159Y-85174536D01*
X125293238Y-85235044D01*
X125371619Y-85245363D01*
X125449999Y-85255682D01*
X125450000Y-85255682D01*
X125450001Y-85255682D01*
X125502254Y-85248802D01*
X125606762Y-85235044D01*
X125752841Y-85174536D01*
X125878282Y-85078282D01*
X125974536Y-84952841D01*
X126035044Y-84806762D01*
X126055682Y-84650000D01*
X126053965Y-84636961D01*
X126035044Y-84493239D01*
X126035044Y-84493238D01*
X125974536Y-84347159D01*
X125878282Y-84221718D01*
X125752841Y-84125464D01*
X125752839Y-84125463D01*
X125606761Y-84064955D01*
X125527916Y-84054575D01*
X125464019Y-84026308D01*
X125456421Y-84019317D01*
X121999284Y-80562181D01*
X121965799Y-80500858D01*
X121970783Y-80431166D01*
X122012655Y-80375233D01*
X122078119Y-80350816D01*
X122086965Y-80350500D01*
X128058581Y-80350500D01*
X128125620Y-80370185D01*
X128134067Y-80376124D01*
X128197157Y-80424535D01*
X128197158Y-80424535D01*
X128197159Y-80424536D01*
X128343238Y-80485044D01*
X128422082Y-80495423D01*
X128485977Y-80523689D01*
X128493577Y-80530681D01*
X130758630Y-82795733D01*
X130767895Y-82806100D01*
X130790121Y-82833970D01*
X130790123Y-82833972D01*
X130837363Y-82866180D01*
X130841145Y-82868863D01*
X130887118Y-82902793D01*
X130894665Y-82906781D01*
X130902322Y-82910468D01*
X130902327Y-82910472D01*
X130956983Y-82927330D01*
X130961342Y-82928765D01*
X131015300Y-82947646D01*
X131015305Y-82947646D01*
X131023698Y-82949234D01*
X131032095Y-82950500D01*
X131032098Y-82950500D01*
X131089261Y-82950500D01*
X131093898Y-82950587D01*
X131151009Y-82952724D01*
X131151009Y-82952723D01*
X131151010Y-82952724D01*
X131151010Y-82952723D01*
X131160243Y-82951684D01*
X131160336Y-82952513D01*
X131175636Y-82950500D01*
X132076000Y-82950500D01*
X132143039Y-82970185D01*
X132188794Y-83022989D01*
X132200000Y-83074500D01*
X132200000Y-85774115D01*
X132199443Y-85776926D01*
X132199476Y-85824616D01*
X132199471Y-85824616D01*
X132199500Y-85824759D01*
X132199500Y-91075467D01*
X132199416Y-91075889D01*
X132199459Y-91100000D01*
X132199500Y-91100099D01*
X132199617Y-91100383D01*
X132199618Y-91100384D01*
X132199808Y-91100462D01*
X132200000Y-91100541D01*
X132200002Y-91100539D01*
X132224616Y-91100524D01*
X132224616Y-91100528D01*
X132224760Y-91100500D01*
X146875240Y-91100500D01*
X146875383Y-91100528D01*
X146875384Y-91100524D01*
X146899997Y-91100539D01*
X146900000Y-91100541D01*
X146900383Y-91100383D01*
X146900500Y-91100099D01*
X146900541Y-91100000D01*
X146900540Y-91099997D01*
X146900583Y-91075889D01*
X146900500Y-91075467D01*
X146900500Y-79124759D01*
X146900528Y-79124616D01*
X146900524Y-79124616D01*
X146900539Y-79100002D01*
X146900541Y-79100000D01*
X146900462Y-79099808D01*
X146900384Y-79099618D01*
X146900380Y-79099614D01*
X146900194Y-79099538D01*
X146900002Y-79099459D01*
X146875446Y-79099459D01*
X146875240Y-79099500D01*
X132224760Y-79099500D01*
X132224554Y-79099459D01*
X132199998Y-79099459D01*
X132199807Y-79099538D01*
X132199619Y-79099615D01*
X132199615Y-79099618D01*
X132199459Y-79099999D01*
X132199476Y-79124616D01*
X132199471Y-79124616D01*
X132199500Y-79124759D01*
X132199500Y-80375467D01*
X132199416Y-80375889D01*
X132199501Y-80423458D01*
X132200000Y-80425967D01*
X132200000Y-81925500D01*
X132180315Y-81992539D01*
X132127511Y-82038294D01*
X132076000Y-82049500D01*
X131337965Y-82049500D01*
X131270926Y-82029815D01*
X131250284Y-82013181D01*
X129130681Y-79893578D01*
X129097196Y-79832255D01*
X129095425Y-79822097D01*
X129085044Y-79743238D01*
X129024536Y-79597159D01*
X128928282Y-79471718D01*
X128802841Y-79375464D01*
X128656762Y-79314956D01*
X128656760Y-79314955D01*
X128500001Y-79294318D01*
X128499999Y-79294318D01*
X128343239Y-79314955D01*
X128343237Y-79314956D01*
X128197157Y-79375464D01*
X128134067Y-79423876D01*
X128068898Y-79449070D01*
X128058581Y-79449500D01*
X120932262Y-79449500D01*
X120918379Y-79448720D01*
X120913370Y-79448155D01*
X120882963Y-79444729D01*
X120826810Y-79455354D01*
X120822241Y-79456131D01*
X120765715Y-79464651D01*
X120757532Y-79467175D01*
X120749529Y-79469976D01*
X120698985Y-79496689D01*
X120694848Y-79498777D01*
X120643363Y-79523571D01*
X120636932Y-79527956D01*
X120570452Y-79549454D01*
X120567083Y-79549500D01*
X111341419Y-79549500D01*
X111274380Y-79529815D01*
X111265933Y-79523876D01*
X111202842Y-79475464D01*
X111056762Y-79414956D01*
X111056760Y-79414955D01*
X110900001Y-79394318D01*
X110899999Y-79394318D01*
X110743239Y-79414955D01*
X110743237Y-79414956D01*
X110597160Y-79475463D01*
X110471718Y-79571718D01*
X110375463Y-79697160D01*
X110314956Y-79843237D01*
X110314955Y-79843239D01*
X110294318Y-79999998D01*
X110294318Y-80000001D01*
X79000500Y-80000001D01*
X79000500Y-79999500D01*
X79000433Y-79999433D01*
X78996409Y-79999343D01*
X78569671Y-79980711D01*
X78558895Y-79979768D01*
X78214334Y-79934405D01*
X78214029Y-79934365D01*
X78134698Y-79923721D01*
X78124350Y-79921883D01*
X77833475Y-79857398D01*
X77832976Y-79857286D01*
X77704906Y-79828340D01*
X77694956Y-79825652D01*
X77431976Y-79742735D01*
X77431294Y-79742518D01*
X77285166Y-79695516D01*
X77275682Y-79692033D01*
X77032268Y-79591208D01*
X77031421Y-79590853D01*
X76878777Y-79526297D01*
X76869820Y-79522080D01*
X76721230Y-79444729D01*
X76642940Y-79403973D01*
X76641973Y-79403465D01*
X76488857Y-79321987D01*
X76480483Y-79317101D01*
X76269330Y-79182581D01*
X76268214Y-79181863D01*
X76142114Y-79099618D01*
X76118437Y-79084175D01*
X76110695Y-79078692D01*
X75915045Y-78928564D01*
X75913837Y-78927625D01*
X75770378Y-78814703D01*
X75763316Y-78808702D01*
X75583733Y-78644144D01*
X75582461Y-78642963D01*
X75447406Y-78515685D01*
X75441029Y-78509217D01*
X75278049Y-78331356D01*
X75276749Y-78329916D01*
X75151991Y-78189415D01*
X75146337Y-78182569D01*
X75042320Y-78047012D01*
X75000526Y-77992544D01*
X74999299Y-77990915D01*
X74886440Y-77838447D01*
X74881525Y-77831298D01*
X74753653Y-77630579D01*
X74752411Y-77628587D01*
X74652800Y-77465494D01*
X74648634Y-77458118D01*
X74572139Y-77311174D01*
X74539303Y-77248097D01*
X74538217Y-77245958D01*
X74452869Y-77073426D01*
X74449458Y-77065909D01*
X74424481Y-77005610D01*
X74359224Y-76848064D01*
X74358290Y-76845739D01*
X74288208Y-76665304D01*
X74285552Y-76657743D01*
X74268333Y-76603132D01*
X74214919Y-76433725D01*
X74214082Y-76430952D01*
X74160111Y-76244359D01*
X74158170Y-76236754D01*
X74155653Y-76225399D01*
X74107478Y-76008097D01*
X74106857Y-76005112D01*
X74069527Y-75813737D01*
X74068300Y-75806224D01*
X74037803Y-75574574D01*
X74037437Y-75571466D01*
X74017174Y-75376824D01*
X74016632Y-75369497D01*
X74006467Y-75136670D01*
X74006364Y-75133125D01*
X74004391Y-75000000D01*
X76994392Y-75000000D01*
X77002101Y-75107793D01*
X77002234Y-75109645D01*
X77002550Y-75118491D01*
X77002550Y-75142860D01*
X77006018Y-75166981D01*
X77006964Y-75175782D01*
X77014806Y-75285428D01*
X77014807Y-75285435D01*
X77038170Y-75392834D01*
X77039741Y-75401539D01*
X77043212Y-75425675D01*
X77050079Y-75449065D01*
X77052266Y-75457635D01*
X77075632Y-75565046D01*
X77075633Y-75565047D01*
X77114048Y-75668044D01*
X77116842Y-75676438D01*
X77123708Y-75699820D01*
X77123710Y-75699824D01*
X77133829Y-75721983D01*
X77137215Y-75730157D01*
X77175634Y-75833159D01*
X77175637Y-75833166D01*
X77228316Y-75929640D01*
X77232277Y-75937553D01*
X77242400Y-75959719D01*
X77242403Y-75959724D01*
X77255574Y-75980219D01*
X77260089Y-75987829D01*
X77312775Y-76084314D01*
X77312778Y-76084318D01*
X77378652Y-76172316D01*
X77383699Y-76179584D01*
X77396875Y-76200086D01*
X77396878Y-76200089D01*
X77396885Y-76200098D01*
X77412836Y-76218507D01*
X77418390Y-76225399D01*
X77484256Y-76313387D01*
X77484262Y-76313393D01*
X77484263Y-76313395D01*
X77561993Y-76391125D01*
X77568014Y-76397593D01*
X77583974Y-76416012D01*
X77583978Y-76416015D01*
X77583982Y-76416020D01*
X77602418Y-76431995D01*
X77608865Y-76437997D01*
X77686607Y-76515739D01*
X77774637Y-76581637D01*
X77781484Y-76587156D01*
X77797864Y-76601349D01*
X77799916Y-76603127D01*
X77799923Y-76603132D01*
X77820416Y-76616302D01*
X77827688Y-76621351D01*
X77915684Y-76687224D01*
X77915692Y-76687229D01*
X78012168Y-76739909D01*
X78019771Y-76744420D01*
X78040280Y-76757600D01*
X78062454Y-76767726D01*
X78070344Y-76771675D01*
X78166841Y-76824367D01*
X78269853Y-76862788D01*
X78278000Y-76866163D01*
X78300181Y-76876293D01*
X78320482Y-76882254D01*
X78323554Y-76883156D01*
X78331953Y-76885951D01*
X78348591Y-76892156D01*
X78434956Y-76924369D01*
X78542366Y-76947734D01*
X78550923Y-76949917D01*
X78574328Y-76956790D01*
X78598485Y-76960263D01*
X78607124Y-76961821D01*
X78714574Y-76985196D01*
X78824243Y-76993039D01*
X78833003Y-76993981D01*
X78857139Y-76997451D01*
X78857140Y-76997452D01*
X78881509Y-76997452D01*
X78890355Y-76997768D01*
X79000001Y-77005610D01*
X79000002Y-77005610D01*
X79000003Y-77005610D01*
X79109649Y-76997768D01*
X79118495Y-76997452D01*
X79142864Y-76997452D01*
X79144505Y-76997215D01*
X79167024Y-76993978D01*
X79175729Y-76993041D01*
X79285430Y-76985196D01*
X79392874Y-76961822D01*
X79401518Y-76960263D01*
X79425676Y-76956790D01*
X79449080Y-76949917D01*
X79457597Y-76947743D01*
X79565048Y-76924369D01*
X79668069Y-76885943D01*
X79676417Y-76883165D01*
X79699823Y-76876293D01*
X79722008Y-76866161D01*
X79730141Y-76862792D01*
X79833163Y-76824367D01*
X79833167Y-76824364D01*
X79833173Y-76824362D01*
X79881592Y-76797922D01*
X79929648Y-76771681D01*
X79937526Y-76767737D01*
X79959724Y-76757600D01*
X79980236Y-76744417D01*
X79987814Y-76739920D01*
X80084317Y-76687226D01*
X80172346Y-76621327D01*
X80179562Y-76616318D01*
X80200088Y-76603127D01*
X80218529Y-76587146D01*
X80225373Y-76581632D01*
X80313397Y-76515739D01*
X80391141Y-76437994D01*
X80397577Y-76432001D01*
X80416022Y-76416020D01*
X80432003Y-76397575D01*
X80437996Y-76391139D01*
X80515741Y-76313395D01*
X80581634Y-76225371D01*
X80587148Y-76218527D01*
X80603129Y-76200086D01*
X80616320Y-76179560D01*
X80621329Y-76172344D01*
X80687228Y-76084315D01*
X80739922Y-75987812D01*
X80744419Y-75980234D01*
X80757602Y-75959722D01*
X80767739Y-75937524D01*
X80771689Y-75929636D01*
X80824364Y-75833171D01*
X80824370Y-75833158D01*
X80831614Y-75813737D01*
X80862794Y-75730139D01*
X80866163Y-75722006D01*
X80876295Y-75699821D01*
X80883167Y-75676415D01*
X80885945Y-75668067D01*
X80924371Y-75565046D01*
X80947745Y-75457595D01*
X80949919Y-75449078D01*
X80956792Y-75425674D01*
X80960265Y-75401516D01*
X80961824Y-75392872D01*
X80985198Y-75285428D01*
X80993042Y-75175752D01*
X80993982Y-75167004D01*
X80997454Y-75142861D01*
X80998079Y-75107793D01*
X80998372Y-75101225D01*
X81005612Y-75000000D01*
X80998372Y-74898777D01*
X80998079Y-74892203D01*
X80997454Y-74857139D01*
X80997453Y-74857135D01*
X80996691Y-74851833D01*
X80993983Y-74833004D01*
X80993041Y-74824241D01*
X80985198Y-74714572D01*
X80961823Y-74607122D01*
X80960265Y-74598483D01*
X80956792Y-74574326D01*
X80949919Y-74550921D01*
X80947735Y-74542358D01*
X80938031Y-74497750D01*
X80924371Y-74434954D01*
X80885953Y-74331951D01*
X80883158Y-74323552D01*
X80876297Y-74300187D01*
X80876295Y-74300179D01*
X80866165Y-74277998D01*
X80862786Y-74269840D01*
X80824369Y-74166839D01*
X80771677Y-74070342D01*
X80767728Y-74062452D01*
X80757602Y-74040278D01*
X80744421Y-74019768D01*
X80739911Y-74012166D01*
X80687231Y-73915690D01*
X80687226Y-73915682D01*
X80621353Y-73827686D01*
X80616304Y-73820414D01*
X80603134Y-73799921D01*
X80603129Y-73799914D01*
X80587158Y-73781482D01*
X80581639Y-73774635D01*
X80515741Y-73686605D01*
X80437999Y-73608863D01*
X80431997Y-73602416D01*
X80416022Y-73583980D01*
X80416017Y-73583976D01*
X80416014Y-73583972D01*
X80397595Y-73568012D01*
X80391127Y-73561991D01*
X80313397Y-73484261D01*
X80313395Y-73484260D01*
X80313389Y-73484254D01*
X80225401Y-73418388D01*
X80218509Y-73412834D01*
X80200100Y-73396883D01*
X80200095Y-73396879D01*
X80200088Y-73396873D01*
X80185913Y-73387763D01*
X80179586Y-73383697D01*
X80172318Y-73378650D01*
X80084320Y-73312776D01*
X80084316Y-73312773D01*
X79987831Y-73260087D01*
X79980221Y-73255572D01*
X79959726Y-73242401D01*
X79959721Y-73242398D01*
X79937555Y-73232275D01*
X79929642Y-73228314D01*
X79833168Y-73175635D01*
X79833161Y-73175632D01*
X79730159Y-73137213D01*
X79721985Y-73133827D01*
X79699826Y-73123708D01*
X79699822Y-73123706D01*
X79676440Y-73116840D01*
X79668046Y-73114046D01*
X79565049Y-73075631D01*
X79565048Y-73075630D01*
X79457637Y-73052264D01*
X79449067Y-73050077D01*
X79425677Y-73043210D01*
X79401541Y-73039739D01*
X79392836Y-73038168D01*
X79285437Y-73014805D01*
X79285430Y-73014804D01*
X79175784Y-73006962D01*
X79166985Y-73006016D01*
X79142863Y-73002548D01*
X79142862Y-73002548D01*
X79118495Y-73002548D01*
X79109649Y-73002232D01*
X79000003Y-72994390D01*
X79000001Y-72994390D01*
X78890355Y-73002232D01*
X78881509Y-73002548D01*
X78857137Y-73002548D01*
X78833017Y-73006016D01*
X78824218Y-73006962D01*
X78714573Y-73014804D01*
X78714566Y-73014805D01*
X78607159Y-73038170D01*
X78598451Y-73039741D01*
X78574337Y-73043208D01*
X78574327Y-73043210D01*
X78550937Y-73050077D01*
X78542370Y-73052263D01*
X78434952Y-73075631D01*
X78434949Y-73075632D01*
X78331958Y-73114045D01*
X78323567Y-73116838D01*
X78300183Y-73123705D01*
X78278003Y-73133834D01*
X78269829Y-73137219D01*
X78166847Y-73175630D01*
X78166833Y-73175636D01*
X78070362Y-73228312D01*
X78062457Y-73232270D01*
X78040279Y-73242400D01*
X78019770Y-73255579D01*
X78012165Y-73260091D01*
X77915690Y-73312771D01*
X77827675Y-73378656D01*
X77820413Y-73383698D01*
X77799916Y-73396872D01*
X77781495Y-73412833D01*
X77774607Y-73418383D01*
X77686621Y-73484249D01*
X77686606Y-73484262D01*
X77608875Y-73561991D01*
X77602401Y-73568018D01*
X77583981Y-73583979D01*
X77568020Y-73602399D01*
X77561993Y-73608873D01*
X77484264Y-73686604D01*
X77484251Y-73686619D01*
X77418385Y-73774605D01*
X77412835Y-73781493D01*
X77396874Y-73799914D01*
X77383700Y-73820411D01*
X77378658Y-73827673D01*
X77312773Y-73915688D01*
X77260093Y-74012163D01*
X77255581Y-74019768D01*
X77242402Y-74040277D01*
X77232272Y-74062455D01*
X77228314Y-74070360D01*
X77175638Y-74166831D01*
X77175632Y-74166845D01*
X77137221Y-74269827D01*
X77133836Y-74278001D01*
X77123707Y-74300181D01*
X77116840Y-74323565D01*
X77114047Y-74331956D01*
X77075634Y-74434947D01*
X77075633Y-74434950D01*
X77052265Y-74542368D01*
X77050079Y-74550935D01*
X77043212Y-74574325D01*
X77043210Y-74574335D01*
X77039743Y-74598449D01*
X77038172Y-74607157D01*
X77014807Y-74714564D01*
X77014806Y-74714571D01*
X77006964Y-74824216D01*
X77006018Y-74833015D01*
X77002550Y-74857135D01*
X77002550Y-74881507D01*
X77002234Y-74890353D01*
X76994665Y-74996189D01*
X76994392Y-75000000D01*
X74004391Y-75000000D01*
X74003458Y-74937040D01*
X74003561Y-74929885D01*
X74013708Y-74697487D01*
X74013919Y-74693897D01*
X74028479Y-74497750D01*
X74029188Y-74490860D01*
X74059502Y-74260607D01*
X74060058Y-74256849D01*
X74092029Y-74062455D01*
X74093317Y-74055781D01*
X74143507Y-73829387D01*
X74144443Y-73825478D01*
X74193624Y-73634400D01*
X74195431Y-73628083D01*
X74265076Y-73407199D01*
X74266463Y-73403060D01*
X74268654Y-73396883D01*
X74332472Y-73216949D01*
X74334737Y-73211052D01*
X74423299Y-72997243D01*
X74425090Y-72993136D01*
X74507488Y-72813352D01*
X74510181Y-72807846D01*
X74616946Y-72602753D01*
X74619188Y-72598642D01*
X74717285Y-72426776D01*
X74720366Y-72421671D01*
X74844559Y-72226726D01*
X74847245Y-72222693D01*
X74960280Y-72060125D01*
X74963665Y-72055492D01*
X75104294Y-71872221D01*
X75107502Y-71868217D01*
X75234579Y-71716265D01*
X75238197Y-71712134D01*
X75394266Y-71541815D01*
X75397916Y-71538002D01*
X75538002Y-71397916D01*
X75541815Y-71394266D01*
X75712134Y-71238197D01*
X75716265Y-71234579D01*
X75868217Y-71107502D01*
X75872221Y-71104294D01*
X76055492Y-70963665D01*
X76060125Y-70960280D01*
X76222693Y-70847245D01*
X76226726Y-70844559D01*
X76421671Y-70720366D01*
X76426776Y-70717285D01*
X76598642Y-70619188D01*
X76602753Y-70616946D01*
X76807846Y-70510181D01*
X76813352Y-70507488D01*
X76993136Y-70425090D01*
X76997243Y-70423299D01*
X77211052Y-70334737D01*
X77216949Y-70332472D01*
X77403083Y-70266455D01*
X77407199Y-70265076D01*
X77628083Y-70195431D01*
X77634400Y-70193624D01*
X77825478Y-70144443D01*
X77829387Y-70143507D01*
X78055781Y-70093317D01*
X78062455Y-70092029D01*
X78256849Y-70060058D01*
X78260607Y-70059502D01*
X78490860Y-70029188D01*
X78497750Y-70028479D01*
X78693897Y-70013919D01*
X78697487Y-70013708D01*
X78929885Y-70003561D01*
X78937040Y-70003458D01*
X79133152Y-70006364D01*
X79136669Y-70006467D01*
X79369497Y-70016632D01*
X79376824Y-70017174D01*
X79571466Y-70037437D01*
X79574574Y-70037803D01*
X79806224Y-70068300D01*
X79813737Y-70069527D01*
X80005112Y-70106857D01*
X80008097Y-70107478D01*
X80236767Y-70158173D01*
X80244359Y-70160111D01*
X80430952Y-70214082D01*
X80433725Y-70214919D01*
X80657756Y-70285556D01*
X80665304Y-70288208D01*
X80845739Y-70358290D01*
X80848064Y-70359224D01*
X81007123Y-70425108D01*
X81065909Y-70449458D01*
X81073426Y-70452869D01*
X81245958Y-70538217D01*
X81248097Y-70539303D01*
X81394283Y-70615403D01*
X81458118Y-70648634D01*
X81465494Y-70652800D01*
X81628587Y-70752411D01*
X81630562Y-70753642D01*
X81777537Y-70847276D01*
X81831298Y-70881525D01*
X81838447Y-70886440D01*
X81990915Y-70999299D01*
X81992544Y-71000526D01*
X82182569Y-71146337D01*
X82189415Y-71151991D01*
X82329916Y-71276749D01*
X82331340Y-71278035D01*
X82462216Y-71397961D01*
X82509217Y-71441029D01*
X82515685Y-71447406D01*
X82642963Y-71582461D01*
X82644144Y-71583733D01*
X82808702Y-71763316D01*
X82814703Y-71770378D01*
X82927625Y-71913837D01*
X82928564Y-71915045D01*
X83078692Y-72110695D01*
X83084178Y-72118441D01*
X83181863Y-72268214D01*
X83182581Y-72269330D01*
X83317101Y-72480483D01*
X83321987Y-72488857D01*
X83403465Y-72641973D01*
X83403988Y-72642967D01*
X83522080Y-72869820D01*
X83526297Y-72878777D01*
X83590853Y-73031421D01*
X83591208Y-73032268D01*
X83692033Y-73275682D01*
X83695516Y-73285166D01*
X83742518Y-73431294D01*
X83742735Y-73431976D01*
X83825652Y-73694956D01*
X83828340Y-73704906D01*
X83857286Y-73832976D01*
X83857398Y-73833475D01*
X83921883Y-74124350D01*
X83923721Y-74134698D01*
X83934365Y-74214029D01*
X83934405Y-74214334D01*
X83979768Y-74558895D01*
X83980711Y-74569671D01*
X83999343Y-74996409D01*
X83999433Y-75000433D01*
X83999500Y-75000500D01*
X144000500Y-75000500D01*
X144000580Y-75000419D01*
X144000588Y-75000000D01*
X146994390Y-75000000D01*
X147002099Y-75107793D01*
X147002232Y-75109645D01*
X147002548Y-75118491D01*
X147002548Y-75142860D01*
X147006016Y-75166981D01*
X147006962Y-75175782D01*
X147014804Y-75285428D01*
X147014805Y-75285435D01*
X147038168Y-75392834D01*
X147039739Y-75401539D01*
X147043210Y-75425675D01*
X147050077Y-75449065D01*
X147052264Y-75457635D01*
X147075630Y-75565046D01*
X147075631Y-75565047D01*
X147114046Y-75668044D01*
X147116840Y-75676438D01*
X147123706Y-75699820D01*
X147123708Y-75699824D01*
X147133827Y-75721983D01*
X147137213Y-75730157D01*
X147175632Y-75833159D01*
X147175635Y-75833166D01*
X147228314Y-75929640D01*
X147232275Y-75937553D01*
X147242398Y-75959719D01*
X147242401Y-75959724D01*
X147255572Y-75980219D01*
X147260087Y-75987829D01*
X147312773Y-76084314D01*
X147312776Y-76084318D01*
X147378650Y-76172316D01*
X147383697Y-76179584D01*
X147396873Y-76200086D01*
X147396876Y-76200089D01*
X147396883Y-76200098D01*
X147412834Y-76218507D01*
X147418388Y-76225399D01*
X147484254Y-76313387D01*
X147484260Y-76313393D01*
X147484261Y-76313395D01*
X147561991Y-76391125D01*
X147568012Y-76397593D01*
X147583972Y-76416012D01*
X147583976Y-76416015D01*
X147583980Y-76416020D01*
X147602416Y-76431995D01*
X147608863Y-76437997D01*
X147686605Y-76515739D01*
X147774635Y-76581637D01*
X147781482Y-76587156D01*
X147797862Y-76601349D01*
X147799914Y-76603127D01*
X147799921Y-76603132D01*
X147820414Y-76616302D01*
X147827686Y-76621351D01*
X147915682Y-76687224D01*
X147915690Y-76687229D01*
X148012166Y-76739909D01*
X148019769Y-76744420D01*
X148040278Y-76757600D01*
X148062452Y-76767726D01*
X148070342Y-76771675D01*
X148166839Y-76824367D01*
X148269851Y-76862788D01*
X148277998Y-76866163D01*
X148300179Y-76876293D01*
X148320480Y-76882254D01*
X148323552Y-76883156D01*
X148331951Y-76885951D01*
X148348589Y-76892156D01*
X148434954Y-76924369D01*
X148542364Y-76947734D01*
X148550921Y-76949917D01*
X148574326Y-76956790D01*
X148598483Y-76960263D01*
X148607122Y-76961821D01*
X148714572Y-76985196D01*
X148824241Y-76993039D01*
X148833001Y-76993981D01*
X148857137Y-76997451D01*
X148857138Y-76997452D01*
X148881507Y-76997452D01*
X148890353Y-76997768D01*
X148999999Y-77005610D01*
X149000000Y-77005610D01*
X149000001Y-77005610D01*
X149109647Y-76997768D01*
X149118493Y-76997452D01*
X149142862Y-76997452D01*
X149144503Y-76997215D01*
X149167022Y-76993978D01*
X149175727Y-76993041D01*
X149285428Y-76985196D01*
X149392872Y-76961822D01*
X149401516Y-76960263D01*
X149425674Y-76956790D01*
X149449078Y-76949917D01*
X149457595Y-76947743D01*
X149565046Y-76924369D01*
X149668067Y-76885943D01*
X149676415Y-76883165D01*
X149699821Y-76876293D01*
X149722006Y-76866161D01*
X149730139Y-76862792D01*
X149833161Y-76824367D01*
X149833165Y-76824364D01*
X149833171Y-76824362D01*
X149881590Y-76797922D01*
X149929646Y-76771681D01*
X149937524Y-76767737D01*
X149959722Y-76757600D01*
X149980234Y-76744417D01*
X149987812Y-76739920D01*
X150084315Y-76687226D01*
X150172344Y-76621327D01*
X150179560Y-76616318D01*
X150200086Y-76603127D01*
X150218527Y-76587146D01*
X150225371Y-76581632D01*
X150313395Y-76515739D01*
X150391139Y-76437994D01*
X150397575Y-76432001D01*
X150416020Y-76416020D01*
X150432001Y-76397575D01*
X150437994Y-76391139D01*
X150515739Y-76313395D01*
X150581632Y-76225371D01*
X150587146Y-76218527D01*
X150603127Y-76200086D01*
X150616318Y-76179560D01*
X150621327Y-76172344D01*
X150687226Y-76084315D01*
X150739920Y-75987812D01*
X150744417Y-75980234D01*
X150757600Y-75959722D01*
X150767737Y-75937524D01*
X150771687Y-75929636D01*
X150824362Y-75833171D01*
X150824368Y-75833158D01*
X150831612Y-75813737D01*
X150862792Y-75730139D01*
X150866161Y-75722006D01*
X150876293Y-75699821D01*
X150883165Y-75676415D01*
X150885943Y-75668067D01*
X150924369Y-75565046D01*
X150947743Y-75457595D01*
X150949917Y-75449078D01*
X150956790Y-75425674D01*
X150960263Y-75401516D01*
X150961822Y-75392872D01*
X150985196Y-75285428D01*
X150993040Y-75175752D01*
X150993980Y-75167004D01*
X150997452Y-75142861D01*
X150998077Y-75107793D01*
X150998370Y-75101225D01*
X151005610Y-75000000D01*
X150998370Y-74898777D01*
X150998077Y-74892203D01*
X150997452Y-74857139D01*
X150997451Y-74857135D01*
X150996689Y-74851833D01*
X150993981Y-74833004D01*
X150993039Y-74824241D01*
X150985196Y-74714572D01*
X150961821Y-74607122D01*
X150960263Y-74598483D01*
X150956790Y-74574326D01*
X150949917Y-74550921D01*
X150947733Y-74542358D01*
X150938029Y-74497750D01*
X150924369Y-74434954D01*
X150885951Y-74331951D01*
X150883156Y-74323552D01*
X150876295Y-74300187D01*
X150876293Y-74300179D01*
X150866163Y-74277998D01*
X150862784Y-74269840D01*
X150824367Y-74166839D01*
X150771675Y-74070342D01*
X150767726Y-74062452D01*
X150757600Y-74040278D01*
X150744419Y-74019768D01*
X150739909Y-74012166D01*
X150687229Y-73915690D01*
X150687224Y-73915682D01*
X150621351Y-73827686D01*
X150616302Y-73820414D01*
X150603132Y-73799921D01*
X150603127Y-73799914D01*
X150587156Y-73781482D01*
X150581637Y-73774635D01*
X150515739Y-73686605D01*
X150437997Y-73608863D01*
X150431995Y-73602416D01*
X150416020Y-73583980D01*
X150416015Y-73583976D01*
X150416012Y-73583972D01*
X150397593Y-73568012D01*
X150391125Y-73561991D01*
X150313395Y-73484261D01*
X150313393Y-73484260D01*
X150313387Y-73484254D01*
X150225399Y-73418388D01*
X150218507Y-73412834D01*
X150200098Y-73396883D01*
X150200093Y-73396879D01*
X150200086Y-73396873D01*
X150185911Y-73387763D01*
X150179584Y-73383697D01*
X150172316Y-73378650D01*
X150084318Y-73312776D01*
X150084314Y-73312773D01*
X149987829Y-73260087D01*
X149980219Y-73255572D01*
X149959724Y-73242401D01*
X149959719Y-73242398D01*
X149937553Y-73232275D01*
X149929640Y-73228314D01*
X149833166Y-73175635D01*
X149833159Y-73175632D01*
X149730157Y-73137213D01*
X149721983Y-73133827D01*
X149699824Y-73123708D01*
X149699820Y-73123706D01*
X149676438Y-73116840D01*
X149668044Y-73114046D01*
X149565047Y-73075631D01*
X149565046Y-73075630D01*
X149457635Y-73052264D01*
X149449065Y-73050077D01*
X149425675Y-73043210D01*
X149401539Y-73039739D01*
X149392834Y-73038168D01*
X149285435Y-73014805D01*
X149285428Y-73014804D01*
X149175782Y-73006962D01*
X149166983Y-73006016D01*
X149142861Y-73002548D01*
X149142860Y-73002548D01*
X149118493Y-73002548D01*
X149109647Y-73002232D01*
X149000001Y-72994390D01*
X148999999Y-72994390D01*
X148890353Y-73002232D01*
X148881507Y-73002548D01*
X148857135Y-73002548D01*
X148833015Y-73006016D01*
X148824216Y-73006962D01*
X148714571Y-73014804D01*
X148714564Y-73014805D01*
X148607157Y-73038170D01*
X148598449Y-73039741D01*
X148574335Y-73043208D01*
X148574325Y-73043210D01*
X148550935Y-73050077D01*
X148542368Y-73052263D01*
X148434950Y-73075631D01*
X148434947Y-73075632D01*
X148331956Y-73114045D01*
X148323565Y-73116838D01*
X148300181Y-73123705D01*
X148278001Y-73133834D01*
X148269827Y-73137219D01*
X148166845Y-73175630D01*
X148166831Y-73175636D01*
X148070360Y-73228312D01*
X148062455Y-73232270D01*
X148040277Y-73242400D01*
X148019768Y-73255579D01*
X148012163Y-73260091D01*
X147915688Y-73312771D01*
X147827673Y-73378656D01*
X147820411Y-73383698D01*
X147799914Y-73396872D01*
X147781493Y-73412833D01*
X147774605Y-73418383D01*
X147686619Y-73484249D01*
X147686604Y-73484262D01*
X147608873Y-73561991D01*
X147602399Y-73568018D01*
X147583979Y-73583979D01*
X147568018Y-73602399D01*
X147561991Y-73608873D01*
X147484262Y-73686604D01*
X147484249Y-73686619D01*
X147418383Y-73774605D01*
X147412833Y-73781493D01*
X147396872Y-73799914D01*
X147383698Y-73820411D01*
X147378656Y-73827673D01*
X147312771Y-73915688D01*
X147260091Y-74012163D01*
X147255579Y-74019768D01*
X147242400Y-74040277D01*
X147232270Y-74062455D01*
X147228312Y-74070360D01*
X147175636Y-74166831D01*
X147175630Y-74166845D01*
X147137219Y-74269827D01*
X147133834Y-74278001D01*
X147123705Y-74300181D01*
X147116838Y-74323565D01*
X147114045Y-74331956D01*
X147075632Y-74434947D01*
X147075631Y-74434950D01*
X147052263Y-74542368D01*
X147050077Y-74550935D01*
X147043210Y-74574325D01*
X147043208Y-74574335D01*
X147039741Y-74598449D01*
X147038170Y-74607157D01*
X147014805Y-74714564D01*
X147014804Y-74714571D01*
X147006962Y-74824216D01*
X147006016Y-74833015D01*
X147002548Y-74857135D01*
X147002548Y-74881507D01*
X147002232Y-74890353D01*
X146994663Y-74996189D01*
X146994390Y-75000000D01*
X144000588Y-75000000D01*
X144000665Y-74996189D01*
X144003248Y-74937040D01*
X144019289Y-74569649D01*
X144020229Y-74558917D01*
X144065655Y-74213865D01*
X144076279Y-74134686D01*
X144078111Y-74124368D01*
X144142666Y-73833178D01*
X144171666Y-73704876D01*
X144174340Y-73694975D01*
X144257379Y-73431610D01*
X144304491Y-73285139D01*
X144307951Y-73275718D01*
X144408986Y-73031797D01*
X144473718Y-72878740D01*
X144477900Y-72869856D01*
X144596247Y-72642514D01*
X144596342Y-72642335D01*
X144678033Y-72488818D01*
X144682875Y-72480519D01*
X144817561Y-72269105D01*
X144817999Y-72268424D01*
X144915847Y-72118401D01*
X144921285Y-72110723D01*
X145071541Y-71914906D01*
X145072199Y-71914059D01*
X145185321Y-71770346D01*
X145191269Y-71763347D01*
X145356014Y-71583560D01*
X145356898Y-71582608D01*
X145484342Y-71447376D01*
X145490751Y-71441058D01*
X145668809Y-71277897D01*
X145669946Y-71276870D01*
X145810596Y-71151979D01*
X145817402Y-71146359D01*
X146007567Y-71000440D01*
X146008989Y-70999369D01*
X146161567Y-70886428D01*
X146168669Y-70881546D01*
X146369532Y-70753582D01*
X146371296Y-70752482D01*
X146534521Y-70652789D01*
X146541862Y-70648643D01*
X146751986Y-70539260D01*
X146753964Y-70538255D01*
X146926595Y-70452858D01*
X146934067Y-70449467D01*
X147152001Y-70359196D01*
X147154198Y-70358314D01*
X147334714Y-70288201D01*
X147342223Y-70285562D01*
X147566321Y-70214905D01*
X147569001Y-70214095D01*
X147755655Y-70160107D01*
X147763217Y-70158176D01*
X147991933Y-70107471D01*
X147994855Y-70106863D01*
X148186273Y-70069525D01*
X148193765Y-70068302D01*
X148425442Y-70037801D01*
X148428516Y-70037439D01*
X148623180Y-70017173D01*
X148630497Y-70016633D01*
X148863334Y-70006467D01*
X148866843Y-70006364D01*
X149062959Y-70003458D01*
X149070115Y-70003561D01*
G37*
%TD.AperFunction*%
%TD*%
M02*
