%TF.GenerationSoftware,KiCad,Pcbnew,7.0.10*%
%TF.CreationDate,2024-04-10T17:33:26+08:00*%
%TF.ProjectId,solar_board_breakout,736f6c61-725f-4626-9f61-72645f627265,rev?*%
%TF.SameCoordinates,Original*%
%TF.FileFunction,Copper,L1,Top*%
%TF.FilePolarity,Positive*%
%FSLAX46Y46*%
G04 Gerber Fmt 4.6, Leading zero omitted, Abs format (unit mm)*
G04 Created by KiCad (PCBNEW 7.0.10) date 2024-04-10 17:33:26*
%MOMM*%
%LPD*%
G01*
G04 APERTURE LIST*
G04 Aperture macros list*
%AMRoundRect*
0 Rectangle with rounded corners*
0 $1 Rounding radius*
0 $2 $3 $4 $5 $6 $7 $8 $9 X,Y pos of 4 corners*
0 Add a 4 corners polygon primitive as box body*
4,1,4,$2,$3,$4,$5,$6,$7,$8,$9,$2,$3,0*
0 Add four circle primitives for the rounded corners*
1,1,$1+$1,$2,$3*
1,1,$1+$1,$4,$5*
1,1,$1+$1,$6,$7*
1,1,$1+$1,$8,$9*
0 Add four rect primitives between the rounded corners*
20,1,$1+$1,$2,$3,$4,$5,0*
20,1,$1+$1,$4,$5,$6,$7,0*
20,1,$1+$1,$6,$7,$8,$9,0*
20,1,$1+$1,$8,$9,$2,$3,0*%
%AMFreePoly0*
4,1,6,0.500000,-0.850000,-0.500000,-0.850000,-0.500000,0.550000,-0.200000,0.850000,0.500000,0.850000,0.500000,-0.850000,0.500000,-0.850000,$1*%
G04 Aperture macros list end*
%TA.AperFunction,SMDPad,CuDef*%
%ADD10RoundRect,0.225000X0.225000X0.250000X-0.225000X0.250000X-0.225000X-0.250000X0.225000X-0.250000X0*%
%TD*%
%TA.AperFunction,SMDPad,CuDef*%
%ADD11R,0.740000X2.400000*%
%TD*%
%TA.AperFunction,SMDPad,CuDef*%
%ADD12RoundRect,0.225000X-0.225000X-0.250000X0.225000X-0.250000X0.225000X0.250000X-0.225000X0.250000X0*%
%TD*%
%TA.AperFunction,SMDPad,CuDef*%
%ADD13RoundRect,0.200000X0.200000X0.275000X-0.200000X0.275000X-0.200000X-0.275000X0.200000X-0.275000X0*%
%TD*%
%TA.AperFunction,SMDPad,CuDef*%
%ADD14R,0.450000X0.350000*%
%TD*%
%TA.AperFunction,SMDPad,CuDef*%
%ADD15R,0.450000X0.250000*%
%TD*%
%TA.AperFunction,SMDPad,CuDef*%
%ADD16R,1.000000X1.800000*%
%TD*%
%TA.AperFunction,SMDPad,CuDef*%
%ADD17RoundRect,0.200000X-0.200000X-0.275000X0.200000X-0.275000X0.200000X0.275000X-0.200000X0.275000X0*%
%TD*%
%TA.AperFunction,SMDPad,CuDef*%
%ADD18RoundRect,0.200000X0.275000X-0.200000X0.275000X0.200000X-0.275000X0.200000X-0.275000X-0.200000X0*%
%TD*%
%TA.AperFunction,SMDPad,CuDef*%
%ADD19R,2.750000X1.000000*%
%TD*%
%TA.AperFunction,SMDPad,CuDef*%
%ADD20RoundRect,0.200000X-0.275000X0.200000X-0.275000X-0.200000X0.275000X-0.200000X0.275000X0.200000X0*%
%TD*%
%TA.AperFunction,SMDPad,CuDef*%
%ADD21RoundRect,0.250000X-0.250000X-1.200000X0.250000X-1.200000X0.250000X1.200000X-0.250000X1.200000X0*%
%TD*%
%TA.AperFunction,SMDPad,CuDef*%
%ADD22RoundRect,0.250000X-0.650000X-1.550000X0.650000X-1.550000X0.650000X1.550000X-0.650000X1.550000X0*%
%TD*%
%TA.AperFunction,SMDPad,CuDef*%
%ADD23R,0.550000X0.250000*%
%TD*%
%TA.AperFunction,SMDPad,CuDef*%
%ADD24FreePoly0,0.000000*%
%TD*%
%TA.AperFunction,ViaPad*%
%ADD25C,0.800000*%
%TD*%
%TA.AperFunction,Conductor*%
%ADD26C,0.500000*%
%TD*%
%TA.AperFunction,Conductor*%
%ADD27C,0.250000*%
%TD*%
%TA.AperFunction,Conductor*%
%ADD28C,0.300000*%
%TD*%
%TA.AperFunction,Conductor*%
%ADD29C,1.000000*%
%TD*%
%TA.AperFunction,Conductor*%
%ADD30C,0.600000*%
%TD*%
G04 APERTURE END LIST*
D10*
%TO.P,C5,1*%
%TO.N,3.3V*%
X144275000Y-87000000D03*
%TO.P,C5,2*%
%TO.N,GND*%
X142725000Y-87000000D03*
%TD*%
D11*
%TO.P,U1,1,VCC*%
%TO.N,+5VD*%
X113730000Y-103100000D03*
%TO.P,U1,2,VCC*%
X113730000Y-107000000D03*
%TO.P,U1,3,GND*%
%TO.N,GND*%
X115000000Y-103100000D03*
%TO.P,U1,4,GND*%
X115000000Y-107000000D03*
%TO.P,U1,5,RESET*%
%TO.N,unconnected-(U1-RESET-Pad5)*%
X116270000Y-103100000D03*
%TO.P,U1,6,NC*%
%TO.N,unconnected-(U1-NC-Pad6)*%
X116270000Y-107000000D03*
%TO.P,U1,7,RX*%
%TO.N,MCU_TXD*%
X117540000Y-103100000D03*
%TO.P,U1,8,NC*%
%TO.N,unconnected-(U1-NC-Pad8)*%
X117540000Y-107000000D03*
%TO.P,U1,9,TX*%
%TO.N,MCU_RXD*%
X118810000Y-103100000D03*
%TO.P,U1,10,SET*%
%TO.N,unconnected-(U1-SET-Pad10)*%
X118810000Y-107000000D03*
%TD*%
D12*
%TO.P,C2,1*%
%TO.N,+5VD*%
X109825000Y-95300000D03*
%TO.P,C2,2*%
%TO.N,GND*%
X111375000Y-95300000D03*
%TD*%
%TO.P,C3,1*%
%TO.N,VSYS*%
X110125000Y-87700000D03*
%TO.P,C3,2*%
%TO.N,GND*%
X111675000Y-87700000D03*
%TD*%
D13*
%TO.P,R3,1*%
%TO.N,Net-(U3-ADDR)*%
X139825000Y-84000000D03*
%TO.P,R3,2*%
%TO.N,GND*%
X138175000Y-84000000D03*
%TD*%
D14*
%TO.P,U2,1,BAT*%
%TO.N,VSYS*%
X111875000Y-90550000D03*
D15*
%TO.P,U2,2,GND*%
%TO.N,GND*%
X111875000Y-90000000D03*
%TO.P,U2,3,CE*%
%TO.N,PWR_EN*%
X111875000Y-89500000D03*
%TO.P,U2,4,GND*%
%TO.N,GND*%
X109925000Y-89500000D03*
%TO.P,U2,5,LX*%
%TO.N,Net-(U2-LX)*%
X109925000Y-90000000D03*
%TO.P,U2,6,VOUT*%
%TO.N,+5VD*%
X109925000Y-90500000D03*
D16*
%TO.P,U2,7,PAD*%
%TO.N,GND*%
X110900000Y-90000000D03*
%TD*%
D10*
%TO.P,C4,1*%
%TO.N,3.3V*%
X144275000Y-85500000D03*
%TO.P,C4,2*%
%TO.N,GND*%
X142725000Y-85500000D03*
%TD*%
D12*
%TO.P,C6,1*%
%TO.N,+5VD*%
X109800000Y-92200000D03*
%TO.P,C6,2*%
%TO.N,GND*%
X111350000Y-92200000D03*
%TD*%
%TO.P,C7,1*%
%TO.N,+5VD*%
X109800000Y-93710000D03*
%TO.P,C7,2*%
%TO.N,GND*%
X111350000Y-93710000D03*
%TD*%
D17*
%TO.P,R2,1*%
%TO.N,3.3V*%
X138175000Y-82500000D03*
%TO.P,R2,2*%
%TO.N,Net-(U3-ADDR)*%
X139825000Y-82500000D03*
%TD*%
D18*
%TO.P,R1,1*%
%TO.N,PWR_EN*%
X113100000Y-89325000D03*
%TO.P,R1,2*%
%TO.N,GND*%
X113100000Y-87675000D03*
%TD*%
D19*
%TO.P,L1,1,1*%
%TO.N,Net-(U2-LX)*%
X107600000Y-90250000D03*
%TO.P,L1,2,2*%
%TO.N,VSYS*%
X107600000Y-87950000D03*
%TD*%
D20*
%TO.P,R4,1*%
%TO.N,3.3V*%
X127500000Y-79850000D03*
%TO.P,R4,2*%
%TO.N,I2C_SDA*%
X127500000Y-81500000D03*
%TD*%
D18*
%TO.P,R5,1*%
%TO.N,3.3V*%
X127500000Y-84650000D03*
%TO.P,R5,2*%
%TO.N,I2C_SCL*%
X127500000Y-83000000D03*
%TD*%
D21*
%TO.P,J1,1,Pin_1*%
%TO.N,VSYS*%
X107000000Y-82500000D03*
%TO.P,J1,2,Pin_2*%
%TO.N,GND*%
X109000000Y-82500000D03*
%TO.P,J1,3,Pin_3*%
%TO.N,3.3V*%
X111000000Y-82500000D03*
%TO.P,J1,4,Pin_4*%
%TO.N,PWR_EN*%
X113000000Y-82500000D03*
%TO.P,J1,5,Pin_5*%
%TO.N,MCU_RXD*%
X115000000Y-82500000D03*
%TO.P,J1,6,Pin_6*%
%TO.N,MCU_TXD*%
X117000000Y-82500000D03*
%TO.P,J1,7,Pin_7*%
%TO.N,I2C_SDA*%
X119000000Y-82500000D03*
%TO.P,J1,8,Pin_8*%
%TO.N,I2C_SCL*%
X121000000Y-82500000D03*
D22*
%TO.P,J1,MP*%
%TO.N,N/C*%
X104650000Y-77850000D03*
X123350000Y-77850000D03*
%TD*%
D12*
%TO.P,C1,1*%
%TO.N,+5VD*%
X109825000Y-96800000D03*
%TO.P,C1,2*%
%TO.N,GND*%
X111375000Y-96800000D03*
%TD*%
D23*
%TO.P,U3,1,SDA*%
%TO.N,I2C_SDA*%
X142000000Y-82000000D03*
%TO.P,U3,2,ADDR*%
%TO.N,Net-(U3-ADDR)*%
X142000000Y-82500000D03*
%TO.P,U3,3,ALERT*%
%TO.N,unconnected-(U3-ALERT-Pad3)*%
X142000000Y-83000000D03*
%TO.P,U3,4,SCL*%
%TO.N,I2C_SCL*%
X142000000Y-83500000D03*
%TO.P,U3,5,VDD*%
%TO.N,3.3V*%
X144350000Y-83500000D03*
%TO.P,U3,6,~{RESET}*%
%TO.N,unconnected-(U3-~{RESET}-Pad6)*%
X144350000Y-83000000D03*
%TO.P,U3,7,R*%
%TO.N,GND*%
X144350000Y-82500000D03*
%TO.P,U3,8,VSS*%
X144350000Y-82000000D03*
D24*
%TO.P,U3,9,VSS*%
X143175000Y-82750000D03*
%TD*%
D25*
%TO.N,3.3V*%
X125450000Y-84650000D03*
X137100000Y-82500000D03*
X110900000Y-80000000D03*
X128500000Y-79900000D03*
%TO.N,GND*%
X111300000Y-86500000D03*
X113400000Y-99200000D03*
X110900000Y-90500000D03*
X130700000Y-83800000D03*
X110900000Y-89500000D03*
X112600000Y-97100000D03*
X131900000Y-83800000D03*
X114300000Y-100200000D03*
X129500000Y-83800000D03*
X112400000Y-86500000D03*
X112600000Y-93400000D03*
X133000000Y-83800000D03*
X114300000Y-88700000D03*
X112500000Y-98300000D03*
X113600000Y-86500000D03*
X115000000Y-101200000D03*
X112600000Y-95800000D03*
X137100000Y-84000000D03*
X137400000Y-86100000D03*
X112600000Y-94600000D03*
X114300000Y-87700000D03*
X112600000Y-92200000D03*
%TO.N,VSYS*%
X112700000Y-90600000D03*
X109300000Y-88000000D03*
%TO.N,PWR_EN*%
X113200000Y-84000000D03*
X114000000Y-89700000D03*
%TO.N,MCU_TXD*%
X117540000Y-87640000D03*
X117600000Y-84600000D03*
%TD*%
D26*
%TO.N,3.3V*%
X143300000Y-88300000D02*
X136800000Y-88300000D01*
X111000000Y-80100000D02*
X110900000Y-80000000D01*
X127500000Y-79850000D02*
X128450000Y-79850000D01*
X144275000Y-87000000D02*
X144275000Y-87325000D01*
D27*
X144350000Y-83500000D02*
X144350000Y-85425000D01*
D26*
X136800000Y-88300000D02*
X133150000Y-84650000D01*
X111000000Y-82500000D02*
X111000000Y-80100000D01*
X125400000Y-84600000D02*
X125450000Y-84650000D01*
D27*
X144275000Y-85500000D02*
X144275000Y-87000000D01*
D26*
X128450000Y-79850000D02*
X128500000Y-79900000D01*
X144275000Y-87325000D02*
X143300000Y-88300000D01*
X133150000Y-84650000D02*
X127500000Y-84650000D01*
X138175000Y-82500000D02*
X137100000Y-82500000D01*
X127500000Y-84650000D02*
X125450000Y-84650000D01*
D27*
X144350000Y-85425000D02*
X144275000Y-85500000D01*
D28*
%TO.N,GND*%
X111350000Y-97450000D02*
X115000000Y-101100000D01*
D29*
X137400000Y-86100000D02*
X138300000Y-87000000D01*
D27*
X144350000Y-82500000D02*
X144350000Y-82300000D01*
D29*
X142725000Y-85025000D02*
X142725000Y-85500000D01*
X138300000Y-87000000D02*
X142725000Y-87000000D01*
D27*
X144350000Y-82000000D02*
X143925000Y-82000000D01*
D29*
X143175000Y-82750000D02*
X143175000Y-84575000D01*
D28*
X111500000Y-87675000D02*
X111175000Y-88000000D01*
D30*
X136400000Y-86100000D02*
X134100000Y-83800000D01*
D29*
X143625000Y-82300000D02*
X143175000Y-82750000D01*
D28*
X110900000Y-90000000D02*
X110900000Y-91750000D01*
X109000000Y-82500000D02*
X109000000Y-84400000D01*
X109925000Y-89500000D02*
X110400000Y-89500000D01*
X111875000Y-90000000D02*
X110900000Y-90000000D01*
D27*
X144350000Y-82300000D02*
X144350000Y-82000000D01*
D28*
X115000000Y-101100000D02*
X115000000Y-107000000D01*
D29*
X143175000Y-84575000D02*
X142725000Y-85025000D01*
D28*
X110900000Y-88475000D02*
X111675000Y-87700000D01*
D29*
X144350000Y-82300000D02*
X143625000Y-82300000D01*
D28*
X111175000Y-86575000D02*
X111175000Y-88000000D01*
X110900000Y-90000000D02*
X110900000Y-88475000D01*
D26*
X138175000Y-84000000D02*
X137100000Y-84000000D01*
D28*
X113100000Y-87675000D02*
X111500000Y-87675000D01*
X109000000Y-84400000D02*
X111175000Y-86575000D01*
D30*
X134100000Y-83800000D02*
X129200000Y-83800000D01*
D28*
X111350000Y-92200000D02*
X111350000Y-97450000D01*
D30*
X137400000Y-86100000D02*
X136400000Y-86100000D01*
D29*
X142725000Y-85500000D02*
X142725000Y-87000000D01*
D28*
X110900000Y-91750000D02*
X111350000Y-92200000D01*
X110400000Y-89500000D02*
X110900000Y-90000000D01*
D27*
X143925000Y-82000000D02*
X143175000Y-82750000D01*
D28*
%TO.N,VSYS*%
X109625000Y-86625000D02*
X109625000Y-88000000D01*
X107000000Y-84000000D02*
X109625000Y-86625000D01*
X106425000Y-88000000D02*
X106400000Y-87975000D01*
X112650000Y-90550000D02*
X112700000Y-90600000D01*
X109625000Y-88000000D02*
X106425000Y-88000000D01*
X111875000Y-90550000D02*
X112650000Y-90550000D01*
X107000000Y-82500000D02*
X107000000Y-84000000D01*
D27*
X109300000Y-88000000D02*
X109250000Y-87950000D01*
X109250000Y-87950000D02*
X107000000Y-87950000D01*
D28*
%TO.N,PWR_EN*%
X113625000Y-89325000D02*
X114000000Y-89700000D01*
X113100000Y-89325000D02*
X112050000Y-89325000D01*
X113100000Y-89325000D02*
X113625000Y-89325000D01*
X112050000Y-89325000D02*
X111875000Y-89500000D01*
%TO.N,MCU_RXD*%
X118810000Y-103100000D02*
X118810000Y-87410000D01*
X115000000Y-83600000D02*
X115000000Y-82500000D01*
X118810000Y-87410000D02*
X115000000Y-83600000D01*
%TO.N,MCU_TXD*%
X117540000Y-102100000D02*
X118300000Y-101340000D01*
X117000000Y-82500000D02*
X117000000Y-84000000D01*
X117000000Y-84000000D02*
X117600000Y-84600000D01*
X118300000Y-101340000D02*
X118300000Y-88400000D01*
X117540000Y-103100000D02*
X117540000Y-102100000D01*
X117500000Y-87600000D02*
X117540000Y-87640000D01*
X118300000Y-88400000D02*
X117540000Y-87640000D01*
D27*
%TO.N,I2C_SDA*%
X125300000Y-80400000D02*
X126400000Y-81500000D01*
X126400000Y-81500000D02*
X127500000Y-81500000D01*
X141500000Y-81500000D02*
X142000000Y-82000000D01*
X119000000Y-82100000D02*
X120700000Y-80400000D01*
X127500000Y-81500000D02*
X141500000Y-81500000D01*
X120700000Y-80400000D02*
X125300000Y-80400000D01*
X119000000Y-82500000D02*
X119000000Y-82100000D01*
%TO.N,I2C_SCL*%
X127200000Y-83000000D02*
X127500000Y-83000000D01*
X142000000Y-83600000D02*
X140400000Y-85200000D01*
X142000000Y-83500000D02*
X142000000Y-83600000D01*
X121400000Y-81000000D02*
X125200000Y-81000000D01*
X128000000Y-82500000D02*
X127500000Y-83000000D01*
X134500000Y-82500000D02*
X128000000Y-82500000D01*
X121000000Y-81400000D02*
X121400000Y-81000000D01*
X125200000Y-81000000D02*
X127200000Y-83000000D01*
X140400000Y-85200000D02*
X137200000Y-85200000D01*
X121000000Y-82500000D02*
X121000000Y-81400000D01*
X137200000Y-85200000D02*
X134500000Y-82500000D01*
D28*
%TO.N,+5VD*%
X113730000Y-103100000D02*
X113730000Y-107000000D01*
X109825000Y-96800000D02*
X109825000Y-99195000D01*
X109800000Y-92200000D02*
X109800000Y-96775000D01*
X109925000Y-90700000D02*
X109925000Y-92075000D01*
X109925000Y-92075000D02*
X109800000Y-92200000D01*
X109825000Y-99195000D02*
X113730000Y-103100000D01*
X109800000Y-96775000D02*
X109825000Y-96800000D01*
%TO.N,Net-(U2-LX)*%
X109925000Y-90000000D02*
X107250000Y-90000000D01*
D27*
%TO.N,Net-(U3-ADDR)*%
X139825000Y-84000000D02*
X139825000Y-82500000D01*
X142000000Y-82500000D02*
X139825000Y-82500000D01*
%TD*%
%TA.AperFunction,Conductor*%
%TO.N,Net-(U2-LX)*%
G36*
X108943039Y-89719685D02*
G01*
X108988794Y-89772489D01*
X108993327Y-89793327D01*
X109000000Y-89800000D01*
X109318488Y-89800000D01*
X109379020Y-89815778D01*
X109399063Y-89826990D01*
X109466102Y-89846675D01*
X109524000Y-89855000D01*
X109928502Y-89855000D01*
X109967529Y-89861512D01*
X109967558Y-89861416D01*
X109968333Y-89861646D01*
X109968766Y-89861719D01*
X109970013Y-89862147D01*
X109970017Y-89862148D01*
X109970020Y-89862149D01*
X110005396Y-89871107D01*
X110005127Y-89872166D01*
X110062963Y-89903138D01*
X110096947Y-89964186D01*
X110100000Y-89991531D01*
X110100000Y-90050500D01*
X110080315Y-90117539D01*
X110027511Y-90163294D01*
X109976000Y-90174500D01*
X109680247Y-90174500D01*
X109621770Y-90186131D01*
X109611081Y-90190560D01*
X109563626Y-90200000D01*
X109000000Y-90200000D01*
X109000000Y-90643740D01*
X108980315Y-90710779D01*
X108927511Y-90756534D01*
X108858353Y-90766478D01*
X108841064Y-90762717D01*
X108809085Y-90753326D01*
X108808436Y-90753232D01*
X108751180Y-90745000D01*
X108751176Y-90745000D01*
X106354000Y-90745000D01*
X106286961Y-90725315D01*
X106241206Y-90672511D01*
X106230000Y-90621000D01*
X106230000Y-89824000D01*
X106249685Y-89756961D01*
X106302489Y-89711206D01*
X106354000Y-89700000D01*
X108876000Y-89700000D01*
X108943039Y-89719685D01*
G37*
%TD.AperFunction*%
%TD*%
%TA.AperFunction,Conductor*%
%TO.N,+5VD*%
G36*
X110142539Y-90519685D02*
G01*
X110188294Y-90572489D01*
X110199500Y-90624000D01*
X110199500Y-90920747D01*
X110200000Y-90930915D01*
X110200000Y-97900000D01*
X114163681Y-101863681D01*
X114197166Y-101925004D01*
X114200000Y-101951362D01*
X114200000Y-108276000D01*
X114180315Y-108343039D01*
X114127511Y-108388794D01*
X114076000Y-108400000D01*
X112924000Y-108400000D01*
X112856961Y-108380315D01*
X112811206Y-108327511D01*
X112800000Y-108276000D01*
X112800000Y-103200000D01*
X108836319Y-99236319D01*
X108802834Y-99174996D01*
X108800000Y-99148638D01*
X108800000Y-91493533D01*
X108819685Y-91426494D01*
X108872489Y-91380739D01*
X108889931Y-91374305D01*
X109500000Y-91200000D01*
X109500000Y-90624000D01*
X109519685Y-90556961D01*
X109572489Y-90511206D01*
X109624000Y-90500000D01*
X110075500Y-90500000D01*
X110142539Y-90519685D01*
G37*
%TD.AperFunction*%
%TD*%
%TA.AperFunction,Conductor*%
%TO.N,VSYS*%
G36*
X107743039Y-81019685D02*
G01*
X107788794Y-81072489D01*
X107800000Y-81124000D01*
X107800000Y-84000000D01*
X110294735Y-86594524D01*
X110304549Y-86606066D01*
X110450000Y-86799999D01*
X110575200Y-86966933D01*
X110599676Y-87032375D01*
X110600000Y-87041333D01*
X110600000Y-88062456D01*
X110580315Y-88129495D01*
X110579174Y-88131239D01*
X110436811Y-88344783D01*
X110383246Y-88389644D01*
X110333637Y-88400000D01*
X106324000Y-88400000D01*
X106256961Y-88380315D01*
X106211206Y-88327511D01*
X106200000Y-88276000D01*
X106200000Y-87524000D01*
X106219685Y-87456961D01*
X106272489Y-87411206D01*
X106324000Y-87400000D01*
X109300000Y-87400000D01*
X109300000Y-87399999D01*
X109227822Y-86966933D01*
X109200000Y-86800000D01*
X106496552Y-84000000D01*
X106434794Y-83936036D01*
X106402390Y-83874135D01*
X106400000Y-83849906D01*
X106400000Y-81124000D01*
X106419685Y-81056961D01*
X106472489Y-81011206D01*
X106524000Y-81000000D01*
X107676000Y-81000000D01*
X107743039Y-81019685D01*
G37*
%TD.AperFunction*%
%TD*%
%TA.AperFunction,Conductor*%
%TO.N,GND*%
G36*
X149070115Y-70003561D02*
G01*
X149302504Y-70013707D01*
X149306110Y-70013920D01*
X149502242Y-70028479D01*
X149509146Y-70029189D01*
X149739374Y-70059499D01*
X149743168Y-70060061D01*
X149937531Y-70092027D01*
X149944231Y-70093319D01*
X150170584Y-70143501D01*
X150174548Y-70144450D01*
X150365579Y-70193619D01*
X150371935Y-70195437D01*
X150505019Y-70237398D01*
X150592777Y-70265069D01*
X150596938Y-70266463D01*
X150640216Y-70281812D01*
X150783024Y-70332463D01*
X150788973Y-70334747D01*
X151002716Y-70423282D01*
X151006902Y-70425108D01*
X151186615Y-70507473D01*
X151192185Y-70510197D01*
X151397195Y-70616919D01*
X151401407Y-70619216D01*
X151573197Y-70717271D01*
X151578353Y-70720382D01*
X151654828Y-70769101D01*
X151773226Y-70844529D01*
X151777351Y-70847276D01*
X151939829Y-70960249D01*
X151944526Y-70963681D01*
X152127758Y-71104280D01*
X152131821Y-71107535D01*
X152283687Y-71234540D01*
X152287911Y-71238239D01*
X152458134Y-71394220D01*
X152462042Y-71397961D01*
X152602037Y-71537956D01*
X152605778Y-71541864D01*
X152761759Y-71712087D01*
X152765458Y-71716311D01*
X152892463Y-71868177D01*
X152895718Y-71872240D01*
X153036317Y-72055472D01*
X153039749Y-72060169D01*
X153152709Y-72222628D01*
X153155482Y-72226792D01*
X153279616Y-72421645D01*
X153282727Y-72426801D01*
X153380782Y-72598591D01*
X153383079Y-72602803D01*
X153489795Y-72807802D01*
X153492531Y-72813396D01*
X153574885Y-72993085D01*
X153576721Y-72997295D01*
X153665240Y-73210998D01*
X153667546Y-73217002D01*
X153733535Y-73403060D01*
X153734929Y-73407221D01*
X153804557Y-73628051D01*
X153806382Y-73634430D01*
X153855535Y-73825397D01*
X153856510Y-73829468D01*
X153906677Y-74055761D01*
X153907972Y-74062475D01*
X153939926Y-74256758D01*
X153940509Y-74260697D01*
X153970803Y-74490801D01*
X153971524Y-74497807D01*
X153986073Y-74693807D01*
X153986295Y-74697577D01*
X153996436Y-74929839D01*
X153996540Y-74937086D01*
X153993634Y-75133125D01*
X153993530Y-75136695D01*
X153983369Y-75369444D01*
X153982820Y-75376876D01*
X153962574Y-75571351D01*
X153962180Y-75574697D01*
X153931701Y-75806201D01*
X153930468Y-75813755D01*
X153893153Y-76005053D01*
X153892508Y-76008152D01*
X153841828Y-76236754D01*
X153839884Y-76244369D01*
X153785929Y-76430909D01*
X153785073Y-76433742D01*
X153714446Y-76657743D01*
X153711773Y-76665351D01*
X153641769Y-76845586D01*
X153640742Y-76848144D01*
X153550540Y-77065909D01*
X153547124Y-77073437D01*
X153461825Y-77245871D01*
X153460669Y-77248147D01*
X153351364Y-77458118D01*
X153347198Y-77465494D01*
X153247587Y-77628587D01*
X153246345Y-77630579D01*
X153118473Y-77831298D01*
X153113558Y-77838447D01*
X153000699Y-77990915D01*
X152999409Y-77992628D01*
X152853661Y-78182569D01*
X152848007Y-78189415D01*
X152723249Y-78329916D01*
X152721949Y-78331356D01*
X152558969Y-78509217D01*
X152552592Y-78515685D01*
X152417537Y-78642963D01*
X152416265Y-78644144D01*
X152236682Y-78808702D01*
X152229604Y-78814717D01*
X152086161Y-78927625D01*
X152084953Y-78928564D01*
X151889303Y-79078692D01*
X151881557Y-79084178D01*
X151731784Y-79181863D01*
X151730668Y-79182581D01*
X151519515Y-79317101D01*
X151511141Y-79321987D01*
X151358025Y-79403465D01*
X151357031Y-79403988D01*
X151130178Y-79522080D01*
X151121221Y-79526297D01*
X150968577Y-79590853D01*
X150967730Y-79591208D01*
X150724316Y-79692033D01*
X150714832Y-79695516D01*
X150568704Y-79742518D01*
X150568022Y-79742735D01*
X150305042Y-79825652D01*
X150295092Y-79828340D01*
X150167022Y-79857286D01*
X150166523Y-79857398D01*
X149875648Y-79921883D01*
X149865299Y-79923721D01*
X149786012Y-79934359D01*
X149785709Y-79934399D01*
X149441104Y-79979768D01*
X149430327Y-79980711D01*
X149003667Y-79999339D01*
X148999573Y-79999426D01*
X148999500Y-79999500D01*
X148999500Y-145000500D01*
X148999586Y-145000586D01*
X149003851Y-145000667D01*
X149430348Y-145019289D01*
X149441084Y-145020229D01*
X149785670Y-145065594D01*
X149785956Y-145065721D01*
X149785968Y-145065634D01*
X149865305Y-145076278D01*
X149875639Y-145078113D01*
X150166834Y-145142669D01*
X150295111Y-145171663D01*
X150305036Y-145174344D01*
X150568191Y-145257317D01*
X150568452Y-145257400D01*
X150714844Y-145304486D01*
X150724297Y-145307958D01*
X150967977Y-145408893D01*
X150968416Y-145409077D01*
X151121239Y-145473709D01*
X151130162Y-145477910D01*
X151357215Y-145596107D01*
X151357840Y-145596436D01*
X151511158Y-145678021D01*
X151519502Y-145682889D01*
X151709006Y-145803617D01*
X151730668Y-145817417D01*
X151731720Y-145818094D01*
X151881573Y-145915831D01*
X151889303Y-145921306D01*
X152084953Y-146071434D01*
X152086098Y-146072324D01*
X152229626Y-146185299D01*
X152236682Y-146191296D01*
X152416265Y-146355854D01*
X152417537Y-146357035D01*
X152552592Y-146484313D01*
X152558969Y-146490781D01*
X152721949Y-146668642D01*
X152723249Y-146670082D01*
X152848007Y-146810583D01*
X152853661Y-146817429D01*
X152999447Y-147007420D01*
X153000699Y-147009083D01*
X153113558Y-147161551D01*
X153118473Y-147168700D01*
X153246345Y-147369419D01*
X153247587Y-147371411D01*
X153347198Y-147534504D01*
X153351364Y-147541880D01*
X153460669Y-147751851D01*
X153461825Y-147754127D01*
X153547124Y-147926561D01*
X153550540Y-147934089D01*
X153640742Y-148151854D01*
X153641744Y-148154351D01*
X153711777Y-148334660D01*
X153714446Y-148342255D01*
X153785073Y-148566256D01*
X153785929Y-148569089D01*
X153839884Y-148755629D01*
X153841828Y-148763244D01*
X153892508Y-148991846D01*
X153893153Y-148994945D01*
X153930468Y-149186243D01*
X153931701Y-149193797D01*
X153962180Y-149425301D01*
X153962574Y-149428647D01*
X153982820Y-149623122D01*
X153983369Y-149630554D01*
X153993530Y-149863303D01*
X153993634Y-149866873D01*
X153996540Y-150062912D01*
X153996436Y-150070159D01*
X153986295Y-150302421D01*
X153986073Y-150306191D01*
X153971524Y-150502191D01*
X153970803Y-150509197D01*
X153940509Y-150739301D01*
X153939926Y-150743240D01*
X153907972Y-150937523D01*
X153906677Y-150944237D01*
X153856510Y-151170530D01*
X153855535Y-151174601D01*
X153806382Y-151365568D01*
X153804557Y-151371947D01*
X153734929Y-151592777D01*
X153733535Y-151596938D01*
X153667546Y-151782996D01*
X153665240Y-151789000D01*
X153576721Y-152002703D01*
X153574885Y-152006913D01*
X153492531Y-152186602D01*
X153489795Y-152192196D01*
X153383079Y-152397195D01*
X153380782Y-152401407D01*
X153282727Y-152573197D01*
X153279616Y-152578353D01*
X153155482Y-152773206D01*
X153152709Y-152777370D01*
X153039749Y-152939829D01*
X153036317Y-152944526D01*
X152895718Y-153127758D01*
X152892463Y-153131821D01*
X152765458Y-153283687D01*
X152761759Y-153287911D01*
X152605778Y-153458134D01*
X152602037Y-153462042D01*
X152462042Y-153602037D01*
X152458134Y-153605778D01*
X152287911Y-153761759D01*
X152283687Y-153765458D01*
X152131821Y-153892463D01*
X152127758Y-153895718D01*
X151944526Y-154036317D01*
X151939829Y-154039749D01*
X151777370Y-154152709D01*
X151773206Y-154155482D01*
X151578353Y-154279616D01*
X151573197Y-154282727D01*
X151401407Y-154380782D01*
X151397195Y-154383079D01*
X151192196Y-154489795D01*
X151186602Y-154492531D01*
X151006913Y-154574885D01*
X151002703Y-154576721D01*
X150789000Y-154665240D01*
X150782996Y-154667546D01*
X150596938Y-154733535D01*
X150592777Y-154734929D01*
X150371947Y-154804557D01*
X150365568Y-154806382D01*
X150174601Y-154855535D01*
X150170530Y-154856510D01*
X149944237Y-154906677D01*
X149937523Y-154907972D01*
X149743240Y-154939926D01*
X149739301Y-154940509D01*
X149509197Y-154970803D01*
X149502191Y-154971524D01*
X149306191Y-154986073D01*
X149302421Y-154986295D01*
X149070159Y-154996436D01*
X149062912Y-154996540D01*
X148866873Y-154993634D01*
X148863303Y-154993530D01*
X148630554Y-154983369D01*
X148623122Y-154982820D01*
X148428647Y-154962574D01*
X148425301Y-154962180D01*
X148193797Y-154931701D01*
X148186243Y-154930468D01*
X147994945Y-154893153D01*
X147991846Y-154892508D01*
X147763244Y-154841828D01*
X147755629Y-154839884D01*
X147569089Y-154785929D01*
X147566256Y-154785073D01*
X147342255Y-154714446D01*
X147334660Y-154711777D01*
X147154351Y-154641744D01*
X147151854Y-154640742D01*
X146934089Y-154550540D01*
X146926561Y-154547124D01*
X146754127Y-154461825D01*
X146751851Y-154460669D01*
X146541880Y-154351364D01*
X146534504Y-154347198D01*
X146371411Y-154247587D01*
X146369419Y-154246345D01*
X146168700Y-154118473D01*
X146161551Y-154113558D01*
X146009083Y-154000699D01*
X146007420Y-153999447D01*
X145867996Y-153892463D01*
X145817429Y-153853661D01*
X145810583Y-153848007D01*
X145670082Y-153723249D01*
X145668642Y-153721949D01*
X145490781Y-153558969D01*
X145484313Y-153552592D01*
X145357035Y-153417537D01*
X145355854Y-153416265D01*
X145191296Y-153236682D01*
X145185299Y-153229626D01*
X145072324Y-153086098D01*
X145071434Y-153084953D01*
X144921306Y-152889303D01*
X144915831Y-152881573D01*
X144818094Y-152731720D01*
X144817417Y-152730668D01*
X144791079Y-152689326D01*
X144682889Y-152519502D01*
X144678021Y-152511158D01*
X144596436Y-152357840D01*
X144596107Y-152357215D01*
X144477910Y-152130162D01*
X144473709Y-152121239D01*
X144409077Y-151968416D01*
X144408893Y-151967977D01*
X144307958Y-151724297D01*
X144304486Y-151714844D01*
X144257400Y-151568452D01*
X144257317Y-151568191D01*
X144174344Y-151305036D01*
X144171663Y-151295111D01*
X144142669Y-151166834D01*
X144078113Y-150875639D01*
X144076278Y-150865305D01*
X144065633Y-150785962D01*
X144065594Y-150785665D01*
X144054293Y-150699824D01*
X144020229Y-150441084D01*
X144019289Y-150430348D01*
X144000671Y-150003946D01*
X144000599Y-150000001D01*
X146994390Y-150000001D01*
X146997367Y-150041635D01*
X147002099Y-150107793D01*
X147002232Y-150109645D01*
X147002548Y-150118491D01*
X147002548Y-150142860D01*
X147006016Y-150166981D01*
X147006962Y-150175782D01*
X147014804Y-150285428D01*
X147014805Y-150285435D01*
X147038168Y-150392834D01*
X147039739Y-150401539D01*
X147043210Y-150425675D01*
X147050077Y-150449065D01*
X147052264Y-150457635D01*
X147075630Y-150565046D01*
X147075631Y-150565047D01*
X147114046Y-150668044D01*
X147116840Y-150676438D01*
X147123706Y-150699820D01*
X147123708Y-150699824D01*
X147133827Y-150721983D01*
X147137213Y-150730157D01*
X147175632Y-150833159D01*
X147175635Y-150833166D01*
X147228314Y-150929640D01*
X147232275Y-150937553D01*
X147242398Y-150959719D01*
X147242401Y-150959724D01*
X147255572Y-150980219D01*
X147260087Y-150987829D01*
X147312773Y-151084314D01*
X147312776Y-151084318D01*
X147378650Y-151172316D01*
X147383697Y-151179584D01*
X147396873Y-151200086D01*
X147396876Y-151200089D01*
X147396883Y-151200098D01*
X147412834Y-151218507D01*
X147418388Y-151225399D01*
X147484254Y-151313387D01*
X147484260Y-151313393D01*
X147484261Y-151313395D01*
X147561991Y-151391125D01*
X147568012Y-151397593D01*
X147583972Y-151416012D01*
X147583976Y-151416015D01*
X147583980Y-151416020D01*
X147602416Y-151431995D01*
X147608863Y-151437997D01*
X147686605Y-151515739D01*
X147774635Y-151581637D01*
X147781482Y-151587156D01*
X147799911Y-151603124D01*
X147799914Y-151603127D01*
X147799921Y-151603132D01*
X147820414Y-151616302D01*
X147827686Y-151621351D01*
X147915682Y-151687224D01*
X147915690Y-151687229D01*
X148012166Y-151739909D01*
X148019769Y-151744420D01*
X148040278Y-151757600D01*
X148062452Y-151767726D01*
X148070342Y-151771675D01*
X148166839Y-151824367D01*
X148269851Y-151862788D01*
X148277998Y-151866163D01*
X148300179Y-151876293D01*
X148320480Y-151882254D01*
X148323552Y-151883156D01*
X148331951Y-151885951D01*
X148348589Y-151892156D01*
X148434954Y-151924369D01*
X148542364Y-151947734D01*
X148550921Y-151949917D01*
X148574326Y-151956790D01*
X148598483Y-151960263D01*
X148607122Y-151961821D01*
X148714572Y-151985196D01*
X148824241Y-151993039D01*
X148833001Y-151993981D01*
X148857137Y-151997451D01*
X148857138Y-151997452D01*
X148881507Y-151997452D01*
X148890353Y-151997768D01*
X148999999Y-152005610D01*
X149000000Y-152005610D01*
X149000001Y-152005610D01*
X149109647Y-151997768D01*
X149118493Y-151997452D01*
X149142862Y-151997452D01*
X149144503Y-151997215D01*
X149167022Y-151993978D01*
X149175727Y-151993041D01*
X149285428Y-151985196D01*
X149392872Y-151961822D01*
X149401516Y-151960263D01*
X149425674Y-151956790D01*
X149449078Y-151949917D01*
X149457595Y-151947743D01*
X149565046Y-151924369D01*
X149668067Y-151885943D01*
X149676415Y-151883165D01*
X149699821Y-151876293D01*
X149722006Y-151866161D01*
X149730139Y-151862792D01*
X149833161Y-151824367D01*
X149833165Y-151824364D01*
X149833171Y-151824362D01*
X149881590Y-151797922D01*
X149929646Y-151771681D01*
X149937524Y-151767737D01*
X149959722Y-151757600D01*
X149980234Y-151744417D01*
X149987812Y-151739920D01*
X150084315Y-151687226D01*
X150172344Y-151621327D01*
X150179560Y-151616318D01*
X150200086Y-151603127D01*
X150218527Y-151587146D01*
X150225371Y-151581632D01*
X150313395Y-151515739D01*
X150391139Y-151437994D01*
X150397575Y-151432001D01*
X150416020Y-151416020D01*
X150432001Y-151397575D01*
X150437994Y-151391139D01*
X150515739Y-151313395D01*
X150581632Y-151225371D01*
X150587146Y-151218527D01*
X150603127Y-151200086D01*
X150616318Y-151179560D01*
X150621327Y-151172344D01*
X150687226Y-151084315D01*
X150739920Y-150987812D01*
X150744417Y-150980234D01*
X150757600Y-150959722D01*
X150767738Y-150937523D01*
X150771687Y-150929636D01*
X150824362Y-150833171D01*
X150824368Y-150833158D01*
X150842082Y-150785665D01*
X150862792Y-150730139D01*
X150866161Y-150722006D01*
X150876293Y-150699821D01*
X150883165Y-150676415D01*
X150885943Y-150668067D01*
X150924369Y-150565046D01*
X150947743Y-150457595D01*
X150949917Y-150449078D01*
X150956790Y-150425674D01*
X150960263Y-150401516D01*
X150961822Y-150392872D01*
X150985196Y-150285428D01*
X150993040Y-150175752D01*
X150993980Y-150167004D01*
X150997452Y-150142861D01*
X150998077Y-150107793D01*
X150998370Y-150101225D01*
X151005610Y-150000000D01*
X150998370Y-149898777D01*
X150998077Y-149892203D01*
X150997452Y-149857139D01*
X150997451Y-149857135D01*
X150996842Y-149852899D01*
X150993981Y-149833004D01*
X150993039Y-149824241D01*
X150985196Y-149714572D01*
X150961821Y-149607122D01*
X150960263Y-149598483D01*
X150956790Y-149574326D01*
X150949917Y-149550921D01*
X150947733Y-149542358D01*
X150924369Y-149434954D01*
X150885951Y-149331951D01*
X150883156Y-149323552D01*
X150876295Y-149300187D01*
X150876293Y-149300179D01*
X150866163Y-149277998D01*
X150862784Y-149269840D01*
X150824367Y-149166839D01*
X150771675Y-149070342D01*
X150767726Y-149062452D01*
X150757600Y-149040278D01*
X150744419Y-149019768D01*
X150739909Y-149012166D01*
X150687229Y-148915690D01*
X150687224Y-148915682D01*
X150621351Y-148827686D01*
X150616302Y-148820414D01*
X150603132Y-148799921D01*
X150603127Y-148799914D01*
X150587156Y-148781482D01*
X150581637Y-148774635D01*
X150515739Y-148686605D01*
X150437997Y-148608863D01*
X150431995Y-148602416D01*
X150416020Y-148583980D01*
X150416015Y-148583976D01*
X150416012Y-148583972D01*
X150397593Y-148568012D01*
X150391125Y-148561991D01*
X150313395Y-148484261D01*
X150313393Y-148484260D01*
X150313387Y-148484254D01*
X150225399Y-148418388D01*
X150218507Y-148412834D01*
X150200098Y-148396883D01*
X150200093Y-148396879D01*
X150200086Y-148396873D01*
X150185911Y-148387763D01*
X150179584Y-148383697D01*
X150172316Y-148378650D01*
X150084318Y-148312776D01*
X150084314Y-148312773D01*
X149987829Y-148260087D01*
X149980219Y-148255572D01*
X149959724Y-148242401D01*
X149959719Y-148242398D01*
X149937553Y-148232275D01*
X149929640Y-148228314D01*
X149833166Y-148175635D01*
X149833159Y-148175632D01*
X149730157Y-148137213D01*
X149721983Y-148133827D01*
X149699824Y-148123708D01*
X149699820Y-148123706D01*
X149676438Y-148116840D01*
X149668044Y-148114046D01*
X149565047Y-148075631D01*
X149565046Y-148075630D01*
X149457635Y-148052264D01*
X149449065Y-148050077D01*
X149425675Y-148043210D01*
X149401539Y-148039739D01*
X149392834Y-148038168D01*
X149285435Y-148014805D01*
X149285428Y-148014804D01*
X149175782Y-148006962D01*
X149166983Y-148006016D01*
X149142861Y-148002548D01*
X149142860Y-148002548D01*
X149118493Y-148002548D01*
X149109647Y-148002232D01*
X149000001Y-147994390D01*
X148999999Y-147994390D01*
X148890353Y-148002232D01*
X148881507Y-148002548D01*
X148857135Y-148002548D01*
X148833015Y-148006016D01*
X148824216Y-148006962D01*
X148714571Y-148014804D01*
X148714564Y-148014805D01*
X148607157Y-148038170D01*
X148598449Y-148039741D01*
X148574335Y-148043208D01*
X148574325Y-148043210D01*
X148550935Y-148050077D01*
X148542368Y-148052263D01*
X148434950Y-148075631D01*
X148434947Y-148075632D01*
X148331956Y-148114045D01*
X148323565Y-148116838D01*
X148300181Y-148123705D01*
X148278001Y-148133834D01*
X148269827Y-148137219D01*
X148166845Y-148175630D01*
X148166831Y-148175636D01*
X148070360Y-148228312D01*
X148062455Y-148232270D01*
X148040277Y-148242400D01*
X148019768Y-148255579D01*
X148012163Y-148260091D01*
X147915688Y-148312771D01*
X147827673Y-148378656D01*
X147820411Y-148383698D01*
X147799914Y-148396872D01*
X147781493Y-148412833D01*
X147774605Y-148418383D01*
X147686619Y-148484249D01*
X147686604Y-148484262D01*
X147608873Y-148561991D01*
X147602399Y-148568018D01*
X147583979Y-148583979D01*
X147568018Y-148602399D01*
X147561991Y-148608873D01*
X147484262Y-148686604D01*
X147484249Y-148686619D01*
X147418383Y-148774605D01*
X147412833Y-148781493D01*
X147396872Y-148799914D01*
X147383698Y-148820411D01*
X147378656Y-148827673D01*
X147312771Y-148915688D01*
X147260091Y-149012163D01*
X147255579Y-149019768D01*
X147242400Y-149040277D01*
X147232270Y-149062455D01*
X147228312Y-149070360D01*
X147175636Y-149166831D01*
X147175630Y-149166845D01*
X147137219Y-149269827D01*
X147133834Y-149278001D01*
X147123705Y-149300181D01*
X147116838Y-149323565D01*
X147114045Y-149331956D01*
X147075632Y-149434947D01*
X147075631Y-149434950D01*
X147052263Y-149542368D01*
X147050077Y-149550935D01*
X147043210Y-149574325D01*
X147043208Y-149574335D01*
X147039741Y-149598449D01*
X147038170Y-149607157D01*
X147014805Y-149714564D01*
X147014804Y-149714571D01*
X147006962Y-149824216D01*
X147006016Y-149833015D01*
X147002548Y-149857135D01*
X147002548Y-149881507D01*
X147002232Y-149890353D01*
X146994390Y-149999999D01*
X146994390Y-150000001D01*
X144000599Y-150000001D01*
X144000592Y-149999592D01*
X144000500Y-149999500D01*
X144000099Y-149999500D01*
X84000500Y-149999500D01*
X83999500Y-149999500D01*
X83999421Y-149999578D01*
X83999336Y-150003738D01*
X83980711Y-150430327D01*
X83979768Y-150441103D01*
X83934405Y-150785665D01*
X83934365Y-150785970D01*
X83923721Y-150865300D01*
X83921883Y-150875648D01*
X83857398Y-151166523D01*
X83857286Y-151167022D01*
X83828340Y-151295092D01*
X83825652Y-151305042D01*
X83742735Y-151568022D01*
X83742518Y-151568704D01*
X83695516Y-151714832D01*
X83692033Y-151724316D01*
X83591208Y-151967730D01*
X83590853Y-151968577D01*
X83526297Y-152121221D01*
X83522080Y-152130178D01*
X83403988Y-152357031D01*
X83403465Y-152358025D01*
X83321987Y-152511141D01*
X83317101Y-152519515D01*
X83182581Y-152730668D01*
X83181863Y-152731784D01*
X83084178Y-152881557D01*
X83078692Y-152889303D01*
X82928564Y-153084953D01*
X82927625Y-153086161D01*
X82814717Y-153229604D01*
X82808702Y-153236682D01*
X82644144Y-153416265D01*
X82642963Y-153417537D01*
X82515685Y-153552592D01*
X82509217Y-153558969D01*
X82331356Y-153721949D01*
X82329916Y-153723249D01*
X82189415Y-153848007D01*
X82182569Y-153853661D01*
X81992628Y-153999409D01*
X81990915Y-154000699D01*
X81838447Y-154113558D01*
X81831298Y-154118473D01*
X81630579Y-154246345D01*
X81628587Y-154247587D01*
X81465494Y-154347198D01*
X81458118Y-154351364D01*
X81248147Y-154460669D01*
X81245871Y-154461825D01*
X81073437Y-154547124D01*
X81065909Y-154550540D01*
X80848144Y-154640742D01*
X80845586Y-154641769D01*
X80665351Y-154711773D01*
X80657743Y-154714446D01*
X80433742Y-154785073D01*
X80430909Y-154785929D01*
X80244369Y-154839884D01*
X80236754Y-154841828D01*
X80008152Y-154892508D01*
X80005053Y-154893153D01*
X79813755Y-154930468D01*
X79806201Y-154931701D01*
X79574697Y-154962180D01*
X79571351Y-154962574D01*
X79376876Y-154982820D01*
X79369444Y-154983369D01*
X79136695Y-154993530D01*
X79133125Y-154993634D01*
X78937086Y-154996540D01*
X78929839Y-154996436D01*
X78697577Y-154986295D01*
X78693807Y-154986073D01*
X78497807Y-154971524D01*
X78490801Y-154970803D01*
X78260697Y-154940509D01*
X78256758Y-154939926D01*
X78062475Y-154907972D01*
X78055761Y-154906677D01*
X77829468Y-154856510D01*
X77825397Y-154855535D01*
X77634430Y-154806382D01*
X77628051Y-154804557D01*
X77407221Y-154734929D01*
X77403060Y-154733535D01*
X77217002Y-154667546D01*
X77210998Y-154665240D01*
X76997295Y-154576721D01*
X76993085Y-154574885D01*
X76813396Y-154492531D01*
X76807802Y-154489795D01*
X76602803Y-154383079D01*
X76598591Y-154380782D01*
X76426801Y-154282727D01*
X76421645Y-154279616D01*
X76226792Y-154155482D01*
X76222628Y-154152709D01*
X76060169Y-154039749D01*
X76055472Y-154036317D01*
X75872240Y-153895718D01*
X75868177Y-153892463D01*
X75716311Y-153765458D01*
X75712087Y-153761759D01*
X75541864Y-153605778D01*
X75537956Y-153602037D01*
X75397961Y-153462042D01*
X75394220Y-153458134D01*
X75238239Y-153287911D01*
X75234540Y-153283687D01*
X75107535Y-153131821D01*
X75104280Y-153127758D01*
X74963681Y-152944526D01*
X74960249Y-152939829D01*
X74847276Y-152777351D01*
X74844529Y-152773226D01*
X74720382Y-152578353D01*
X74717271Y-152573197D01*
X74619216Y-152401407D01*
X74616919Y-152397195D01*
X74510197Y-152192185D01*
X74507467Y-152186602D01*
X74490841Y-152150326D01*
X74425108Y-152006902D01*
X74423277Y-152002703D01*
X74334747Y-151788973D01*
X74332463Y-151783024D01*
X74281812Y-151640216D01*
X74266463Y-151596938D01*
X74265069Y-151592777D01*
X74195441Y-151371947D01*
X74193616Y-151365568D01*
X74181356Y-151317936D01*
X74144450Y-151174548D01*
X74143501Y-151170584D01*
X74093319Y-150944231D01*
X74092026Y-150937523D01*
X74060061Y-150743168D01*
X74059499Y-150739374D01*
X74029189Y-150509146D01*
X74028479Y-150502242D01*
X74013920Y-150306110D01*
X74013707Y-150302504D01*
X74003561Y-150070115D01*
X74003458Y-150062959D01*
X74004391Y-150000001D01*
X76994390Y-150000001D01*
X76997367Y-150041635D01*
X77002099Y-150107793D01*
X77002232Y-150109645D01*
X77002548Y-150118491D01*
X77002548Y-150142860D01*
X77006016Y-150166981D01*
X77006962Y-150175782D01*
X77014804Y-150285428D01*
X77014805Y-150285435D01*
X77038168Y-150392834D01*
X77039739Y-150401539D01*
X77043210Y-150425675D01*
X77050077Y-150449065D01*
X77052264Y-150457635D01*
X77075630Y-150565046D01*
X77075631Y-150565047D01*
X77114046Y-150668044D01*
X77116840Y-150676438D01*
X77123706Y-150699820D01*
X77123708Y-150699824D01*
X77133827Y-150721983D01*
X77137213Y-150730157D01*
X77175632Y-150833159D01*
X77175635Y-150833166D01*
X77228314Y-150929640D01*
X77232275Y-150937553D01*
X77242398Y-150959719D01*
X77242401Y-150959724D01*
X77255572Y-150980219D01*
X77260087Y-150987829D01*
X77312773Y-151084314D01*
X77312776Y-151084318D01*
X77378650Y-151172316D01*
X77383697Y-151179584D01*
X77396873Y-151200086D01*
X77396876Y-151200089D01*
X77396883Y-151200098D01*
X77412834Y-151218507D01*
X77418388Y-151225399D01*
X77484254Y-151313387D01*
X77484260Y-151313393D01*
X77484261Y-151313395D01*
X77561991Y-151391125D01*
X77568012Y-151397593D01*
X77583972Y-151416012D01*
X77583976Y-151416015D01*
X77583980Y-151416020D01*
X77602416Y-151431995D01*
X77608863Y-151437997D01*
X77686605Y-151515739D01*
X77774635Y-151581637D01*
X77781482Y-151587156D01*
X77799911Y-151603124D01*
X77799914Y-151603127D01*
X77799921Y-151603132D01*
X77820414Y-151616302D01*
X77827686Y-151621351D01*
X77915682Y-151687224D01*
X77915690Y-151687229D01*
X78012166Y-151739909D01*
X78019769Y-151744420D01*
X78040278Y-151757600D01*
X78062452Y-151767726D01*
X78070342Y-151771675D01*
X78166839Y-151824367D01*
X78269851Y-151862788D01*
X78277998Y-151866163D01*
X78300179Y-151876293D01*
X78320480Y-151882254D01*
X78323552Y-151883156D01*
X78331951Y-151885951D01*
X78348589Y-151892156D01*
X78434954Y-151924369D01*
X78542364Y-151947734D01*
X78550921Y-151949917D01*
X78574326Y-151956790D01*
X78598483Y-151960263D01*
X78607122Y-151961821D01*
X78714572Y-151985196D01*
X78824241Y-151993039D01*
X78833001Y-151993981D01*
X78857137Y-151997451D01*
X78857138Y-151997452D01*
X78881507Y-151997452D01*
X78890353Y-151997768D01*
X78999999Y-152005610D01*
X79000000Y-152005610D01*
X79000001Y-152005610D01*
X79109647Y-151997768D01*
X79118493Y-151997452D01*
X79142862Y-151997452D01*
X79144503Y-151997215D01*
X79167022Y-151993978D01*
X79175727Y-151993041D01*
X79285428Y-151985196D01*
X79392872Y-151961822D01*
X79401516Y-151960263D01*
X79425674Y-151956790D01*
X79449078Y-151949917D01*
X79457595Y-151947743D01*
X79565046Y-151924369D01*
X79668067Y-151885943D01*
X79676415Y-151883165D01*
X79699821Y-151876293D01*
X79722006Y-151866161D01*
X79730139Y-151862792D01*
X79833161Y-151824367D01*
X79833165Y-151824364D01*
X79833171Y-151824362D01*
X79881590Y-151797922D01*
X79929646Y-151771681D01*
X79937524Y-151767737D01*
X79959722Y-151757600D01*
X79980234Y-151744417D01*
X79987812Y-151739920D01*
X80084315Y-151687226D01*
X80172344Y-151621327D01*
X80179560Y-151616318D01*
X80200086Y-151603127D01*
X80218527Y-151587146D01*
X80225371Y-151581632D01*
X80313395Y-151515739D01*
X80391139Y-151437994D01*
X80397575Y-151432001D01*
X80416020Y-151416020D01*
X80432001Y-151397575D01*
X80437994Y-151391139D01*
X80515739Y-151313395D01*
X80581632Y-151225371D01*
X80587146Y-151218527D01*
X80603127Y-151200086D01*
X80616318Y-151179560D01*
X80621327Y-151172344D01*
X80687226Y-151084315D01*
X80739920Y-150987812D01*
X80744417Y-150980234D01*
X80757600Y-150959722D01*
X80767738Y-150937523D01*
X80771687Y-150929636D01*
X80824362Y-150833171D01*
X80824368Y-150833158D01*
X80842082Y-150785665D01*
X80862792Y-150730139D01*
X80866161Y-150722006D01*
X80876293Y-150699821D01*
X80883165Y-150676415D01*
X80885943Y-150668067D01*
X80924369Y-150565046D01*
X80947743Y-150457595D01*
X80949917Y-150449078D01*
X80956790Y-150425674D01*
X80960263Y-150401516D01*
X80961822Y-150392872D01*
X80985196Y-150285428D01*
X80993040Y-150175752D01*
X80993980Y-150167004D01*
X80997452Y-150142861D01*
X80998077Y-150107793D01*
X80998370Y-150101225D01*
X81005610Y-150000000D01*
X80998370Y-149898777D01*
X80998077Y-149892203D01*
X80997452Y-149857139D01*
X80997451Y-149857135D01*
X80996842Y-149852899D01*
X80993981Y-149833004D01*
X80993039Y-149824241D01*
X80985196Y-149714572D01*
X80961821Y-149607122D01*
X80960263Y-149598483D01*
X80956790Y-149574326D01*
X80949917Y-149550921D01*
X80947733Y-149542358D01*
X80924369Y-149434954D01*
X80885951Y-149331951D01*
X80883156Y-149323552D01*
X80876295Y-149300187D01*
X80876293Y-149300179D01*
X80866163Y-149277998D01*
X80862784Y-149269840D01*
X80824367Y-149166839D01*
X80771675Y-149070342D01*
X80767726Y-149062452D01*
X80757600Y-149040278D01*
X80744419Y-149019768D01*
X80739909Y-149012166D01*
X80687229Y-148915690D01*
X80687224Y-148915682D01*
X80621351Y-148827686D01*
X80616302Y-148820414D01*
X80603132Y-148799921D01*
X80603127Y-148799914D01*
X80587156Y-148781482D01*
X80581637Y-148774635D01*
X80515739Y-148686605D01*
X80437997Y-148608863D01*
X80431995Y-148602416D01*
X80416020Y-148583980D01*
X80416015Y-148583976D01*
X80416012Y-148583972D01*
X80397593Y-148568012D01*
X80391125Y-148561991D01*
X80313395Y-148484261D01*
X80313393Y-148484260D01*
X80313387Y-148484254D01*
X80225399Y-148418388D01*
X80218507Y-148412834D01*
X80200098Y-148396883D01*
X80200093Y-148396879D01*
X80200086Y-148396873D01*
X80185911Y-148387763D01*
X80179584Y-148383697D01*
X80172316Y-148378650D01*
X80084318Y-148312776D01*
X80084314Y-148312773D01*
X79987829Y-148260087D01*
X79980219Y-148255572D01*
X79959724Y-148242401D01*
X79959719Y-148242398D01*
X79937553Y-148232275D01*
X79929640Y-148228314D01*
X79833166Y-148175635D01*
X79833159Y-148175632D01*
X79730157Y-148137213D01*
X79721983Y-148133827D01*
X79699824Y-148123708D01*
X79699820Y-148123706D01*
X79676438Y-148116840D01*
X79668044Y-148114046D01*
X79565047Y-148075631D01*
X79565046Y-148075630D01*
X79457635Y-148052264D01*
X79449065Y-148050077D01*
X79425675Y-148043210D01*
X79401539Y-148039739D01*
X79392834Y-148038168D01*
X79285435Y-148014805D01*
X79285428Y-148014804D01*
X79175782Y-148006962D01*
X79166983Y-148006016D01*
X79142861Y-148002548D01*
X79142860Y-148002548D01*
X79118493Y-148002548D01*
X79109647Y-148002232D01*
X79000001Y-147994390D01*
X78999999Y-147994390D01*
X78890353Y-148002232D01*
X78881507Y-148002548D01*
X78857135Y-148002548D01*
X78833015Y-148006016D01*
X78824216Y-148006962D01*
X78714571Y-148014804D01*
X78714564Y-148014805D01*
X78607157Y-148038170D01*
X78598449Y-148039741D01*
X78574335Y-148043208D01*
X78574325Y-148043210D01*
X78550935Y-148050077D01*
X78542368Y-148052263D01*
X78434950Y-148075631D01*
X78434947Y-148075632D01*
X78331956Y-148114045D01*
X78323565Y-148116838D01*
X78300181Y-148123705D01*
X78278001Y-148133834D01*
X78269827Y-148137219D01*
X78166845Y-148175630D01*
X78166831Y-148175636D01*
X78070360Y-148228312D01*
X78062455Y-148232270D01*
X78040277Y-148242400D01*
X78019768Y-148255579D01*
X78012163Y-148260091D01*
X77915688Y-148312771D01*
X77827673Y-148378656D01*
X77820411Y-148383698D01*
X77799914Y-148396872D01*
X77781493Y-148412833D01*
X77774605Y-148418383D01*
X77686619Y-148484249D01*
X77686604Y-148484262D01*
X77608873Y-148561991D01*
X77602399Y-148568018D01*
X77583979Y-148583979D01*
X77568018Y-148602399D01*
X77561991Y-148608873D01*
X77484262Y-148686604D01*
X77484249Y-148686619D01*
X77418383Y-148774605D01*
X77412833Y-148781493D01*
X77396872Y-148799914D01*
X77383698Y-148820411D01*
X77378656Y-148827673D01*
X77312771Y-148915688D01*
X77260091Y-149012163D01*
X77255579Y-149019768D01*
X77242400Y-149040277D01*
X77232270Y-149062455D01*
X77228312Y-149070360D01*
X77175636Y-149166831D01*
X77175630Y-149166845D01*
X77137219Y-149269827D01*
X77133834Y-149278001D01*
X77123705Y-149300181D01*
X77116838Y-149323565D01*
X77114045Y-149331956D01*
X77075632Y-149434947D01*
X77075631Y-149434950D01*
X77052263Y-149542368D01*
X77050077Y-149550935D01*
X77043210Y-149574325D01*
X77043208Y-149574335D01*
X77039741Y-149598449D01*
X77038170Y-149607157D01*
X77014805Y-149714564D01*
X77014804Y-149714571D01*
X77006962Y-149824216D01*
X77006016Y-149833015D01*
X77002548Y-149857135D01*
X77002548Y-149881507D01*
X77002232Y-149890353D01*
X76994390Y-149999998D01*
X76994390Y-150000001D01*
X74004391Y-150000001D01*
X74006364Y-149866843D01*
X74006468Y-149863303D01*
X74016633Y-149630497D01*
X74017173Y-149623180D01*
X74037439Y-149428516D01*
X74037801Y-149425442D01*
X74068302Y-149193765D01*
X74069525Y-149186273D01*
X74106863Y-148994855D01*
X74107471Y-148991933D01*
X74158176Y-148763217D01*
X74160107Y-148755655D01*
X74214095Y-148569001D01*
X74214905Y-148566321D01*
X74285562Y-148342223D01*
X74288201Y-148334714D01*
X74358314Y-148154198D01*
X74359196Y-148152001D01*
X74449467Y-147934067D01*
X74452858Y-147926595D01*
X74538255Y-147753964D01*
X74539260Y-147751986D01*
X74648643Y-147541862D01*
X74652789Y-147534521D01*
X74752482Y-147371296D01*
X74753582Y-147369532D01*
X74881546Y-147168669D01*
X74886428Y-147161567D01*
X74999369Y-147008989D01*
X75000440Y-147007567D01*
X75146359Y-146817402D01*
X75151979Y-146810596D01*
X75276870Y-146669946D01*
X75277897Y-146668809D01*
X75441058Y-146490751D01*
X75447376Y-146484342D01*
X75582608Y-146356898D01*
X75583560Y-146356014D01*
X75763347Y-146191269D01*
X75770346Y-146185321D01*
X75914059Y-146072199D01*
X75914906Y-146071541D01*
X76110723Y-145921285D01*
X76118401Y-145915847D01*
X76268424Y-145817999D01*
X76269105Y-145817561D01*
X76480519Y-145682875D01*
X76488818Y-145678033D01*
X76642335Y-145596342D01*
X76642514Y-145596247D01*
X76869856Y-145477900D01*
X76878740Y-145473718D01*
X77031804Y-145408984D01*
X77275718Y-145307951D01*
X77285139Y-145304491D01*
X77431610Y-145257379D01*
X77694975Y-145174340D01*
X77704876Y-145171666D01*
X77833178Y-145142666D01*
X78124368Y-145078111D01*
X78134686Y-145076279D01*
X78213972Y-145065641D01*
X78214031Y-145065634D01*
X78214041Y-145065711D01*
X78214323Y-145065595D01*
X78558917Y-145020229D01*
X78569649Y-145019289D01*
X78996209Y-145000664D01*
X79000419Y-145000580D01*
X79000500Y-145000500D01*
X79000500Y-88276007D01*
X105994500Y-88276007D01*
X105999197Y-88319688D01*
X105999198Y-88319696D01*
X105999301Y-88320167D01*
X105999293Y-88320278D01*
X105999729Y-88322970D01*
X105999092Y-88323073D01*
X105997260Y-88348638D01*
X106000000Y-88348638D01*
X106000000Y-89709825D01*
X106021666Y-89749504D01*
X106024500Y-89775862D01*
X106024500Y-90769752D01*
X106036131Y-90828229D01*
X106036132Y-90828230D01*
X106080447Y-90894552D01*
X106146769Y-90938867D01*
X106146770Y-90938868D01*
X106205247Y-90950499D01*
X106205250Y-90950500D01*
X108751180Y-90950500D01*
X108818219Y-90970185D01*
X108863974Y-91022989D01*
X108873918Y-91092147D01*
X108844893Y-91155703D01*
X108804388Y-91186504D01*
X108801365Y-91187939D01*
X108737912Y-91225434D01*
X108737910Y-91225435D01*
X108685117Y-91271181D01*
X108685110Y-91271188D01*
X108667160Y-91288775D01*
X108667154Y-91288782D01*
X108622511Y-91368592D01*
X108622509Y-91368597D01*
X108602826Y-91435629D01*
X108594500Y-91493536D01*
X108594500Y-99148638D01*
X108595678Y-99170618D01*
X108598511Y-99196965D01*
X108598512Y-99196967D01*
X108622470Y-99273478D01*
X108622471Y-99273483D01*
X108636872Y-99299855D01*
X108655956Y-99334805D01*
X108655958Y-99334808D01*
X108655960Y-99334811D01*
X108690998Y-99381615D01*
X108691002Y-99381619D01*
X108691009Y-99381629D01*
X108691016Y-99381636D01*
X112558181Y-103248801D01*
X112591666Y-103310124D01*
X112594500Y-103336482D01*
X112594500Y-108276007D01*
X112599197Y-108319686D01*
X112610397Y-108371174D01*
X112612890Y-108381372D01*
X112612891Y-108381375D01*
X112655899Y-108462083D01*
X112655901Y-108462086D01*
X112701660Y-108514895D01*
X112719242Y-108532839D01*
X112719246Y-108532843D01*
X112719247Y-108532844D01*
X112719249Y-108532845D01*
X112799059Y-108577488D01*
X112799063Y-108577490D01*
X112866102Y-108597175D01*
X112924000Y-108605500D01*
X112924004Y-108605500D01*
X114075991Y-108605500D01*
X114076000Y-108605500D01*
X114119684Y-108600803D01*
X114148875Y-108594452D01*
X114171174Y-108589602D01*
X114171190Y-108589598D01*
X114171195Y-108589597D01*
X114181373Y-108587110D01*
X114262085Y-108544100D01*
X114314889Y-108498345D01*
X114332843Y-108480754D01*
X114377490Y-108400937D01*
X114397175Y-108333898D01*
X114405500Y-108276000D01*
X114405500Y-108219752D01*
X115699500Y-108219752D01*
X115711131Y-108278229D01*
X115711132Y-108278230D01*
X115755447Y-108344552D01*
X115821769Y-108388867D01*
X115821770Y-108388868D01*
X115880247Y-108400499D01*
X115880250Y-108400500D01*
X115880252Y-108400500D01*
X116659750Y-108400500D01*
X116659751Y-108400499D01*
X116674568Y-108397552D01*
X116718229Y-108388868D01*
X116718229Y-108388867D01*
X116718231Y-108388867D01*
X116784552Y-108344552D01*
X116801898Y-108318591D01*
X116855509Y-108273787D01*
X116924834Y-108265080D01*
X116987862Y-108295234D01*
X117008100Y-108318590D01*
X117025448Y-108344552D01*
X117091769Y-108388867D01*
X117091770Y-108388868D01*
X117150247Y-108400499D01*
X117150250Y-108400500D01*
X117150252Y-108400500D01*
X117929750Y-108400500D01*
X117929751Y-108400499D01*
X117944568Y-108397552D01*
X117988229Y-108388868D01*
X117988229Y-108388867D01*
X117988231Y-108388867D01*
X118054552Y-108344552D01*
X118071898Y-108318591D01*
X118125509Y-108273787D01*
X118194834Y-108265080D01*
X118257862Y-108295234D01*
X118278100Y-108318590D01*
X118295448Y-108344552D01*
X118361769Y-108388867D01*
X118361770Y-108388868D01*
X118420247Y-108400499D01*
X118420250Y-108400500D01*
X118420252Y-108400500D01*
X119199750Y-108400500D01*
X119199751Y-108400499D01*
X119214568Y-108397552D01*
X119258229Y-108388868D01*
X119258229Y-108388867D01*
X119258231Y-108388867D01*
X119324552Y-108344552D01*
X119368867Y-108278231D01*
X119368867Y-108278229D01*
X119368868Y-108278229D01*
X119380499Y-108219752D01*
X119380500Y-108219750D01*
X119380500Y-105780249D01*
X119380499Y-105780247D01*
X119368868Y-105721770D01*
X119368867Y-105721769D01*
X119324552Y-105655447D01*
X119258230Y-105611132D01*
X119258229Y-105611131D01*
X119199752Y-105599500D01*
X119199748Y-105599500D01*
X118420252Y-105599500D01*
X118420247Y-105599500D01*
X118361770Y-105611131D01*
X118361769Y-105611132D01*
X118295447Y-105655447D01*
X118278102Y-105681407D01*
X118224489Y-105726212D01*
X118155164Y-105734919D01*
X118092137Y-105704764D01*
X118071898Y-105681407D01*
X118054552Y-105655447D01*
X117988230Y-105611132D01*
X117988229Y-105611131D01*
X117929752Y-105599500D01*
X117929748Y-105599500D01*
X117150252Y-105599500D01*
X117150247Y-105599500D01*
X117091770Y-105611131D01*
X117091769Y-105611132D01*
X117025447Y-105655447D01*
X117008102Y-105681407D01*
X116954489Y-105726212D01*
X116885164Y-105734919D01*
X116822137Y-105704764D01*
X116801898Y-105681407D01*
X116784552Y-105655447D01*
X116718230Y-105611132D01*
X116718229Y-105611131D01*
X116659752Y-105599500D01*
X116659748Y-105599500D01*
X115880252Y-105599500D01*
X115880247Y-105599500D01*
X115821770Y-105611131D01*
X115821769Y-105611132D01*
X115755447Y-105655447D01*
X115711132Y-105721769D01*
X115711131Y-105721770D01*
X115699500Y-105780247D01*
X115699500Y-108219752D01*
X114405500Y-108219752D01*
X114405500Y-101951362D01*
X114404322Y-101929393D01*
X114401488Y-101903035D01*
X114377529Y-101826518D01*
X114344044Y-101765195D01*
X114344039Y-101765188D01*
X114309001Y-101718384D01*
X114308998Y-101718381D01*
X114308991Y-101718371D01*
X110441819Y-97851199D01*
X110408334Y-97789876D01*
X110405500Y-97763518D01*
X110405500Y-97319306D01*
X110419015Y-97263011D01*
X110459719Y-97183126D01*
X110459719Y-97183124D01*
X110459720Y-97183123D01*
X110475500Y-97083493D01*
X110475500Y-96516506D01*
X110459720Y-96416876D01*
X110419015Y-96336987D01*
X110405500Y-96280693D01*
X110405500Y-95819306D01*
X110419015Y-95763011D01*
X110459719Y-95683126D01*
X110459719Y-95683124D01*
X110459720Y-95683123D01*
X110475500Y-95583493D01*
X110475500Y-95016506D01*
X110459720Y-94916876D01*
X110419015Y-94836987D01*
X110405500Y-94780693D01*
X110405500Y-94180241D01*
X110419015Y-94123946D01*
X110434719Y-94093126D01*
X110434719Y-94093124D01*
X110434720Y-94093123D01*
X110450500Y-93993493D01*
X110450500Y-93426506D01*
X110434720Y-93326876D01*
X110419015Y-93296053D01*
X110405500Y-93239759D01*
X110405500Y-92670241D01*
X110419015Y-92613946D01*
X110434719Y-92583126D01*
X110434719Y-92583124D01*
X110434720Y-92583123D01*
X110450500Y-92483493D01*
X110450500Y-91916506D01*
X110434720Y-91816876D01*
X110419015Y-91786053D01*
X110405500Y-91729759D01*
X110405500Y-90930933D01*
X110405500Y-90930915D01*
X110405252Y-90920822D01*
X110405149Y-90918747D01*
X110405000Y-90912655D01*
X110405000Y-90744752D01*
X111449500Y-90744752D01*
X111461131Y-90803229D01*
X111461132Y-90803230D01*
X111505447Y-90869552D01*
X111571769Y-90913867D01*
X111571770Y-90913868D01*
X111630247Y-90925499D01*
X111630250Y-90925500D01*
X112125840Y-90925500D01*
X112125840Y-90926834D01*
X112187772Y-90938575D01*
X112229663Y-90973475D01*
X112271718Y-91028282D01*
X112397159Y-91124536D01*
X112543238Y-91185044D01*
X112621619Y-91195363D01*
X112699999Y-91205682D01*
X112700000Y-91205682D01*
X112700001Y-91205682D01*
X112752254Y-91198802D01*
X112856762Y-91185044D01*
X113002841Y-91124536D01*
X113128282Y-91028282D01*
X113224536Y-90902841D01*
X113285044Y-90756762D01*
X113305682Y-90600000D01*
X113285044Y-90443238D01*
X113224536Y-90297159D01*
X113128282Y-90171718D01*
X113097206Y-90147873D01*
X113056006Y-90091447D01*
X113051851Y-90021701D01*
X113086064Y-89960780D01*
X113147781Y-89928028D01*
X113172691Y-89925499D01*
X113360573Y-89925499D01*
X113427612Y-89945184D01*
X113473367Y-89997988D01*
X113475132Y-90002042D01*
X113475460Y-90002834D01*
X113475464Y-90002841D01*
X113543453Y-90091447D01*
X113571718Y-90128282D01*
X113697159Y-90224536D01*
X113843238Y-90285044D01*
X113921619Y-90295363D01*
X113999999Y-90305682D01*
X114000000Y-90305682D01*
X114000001Y-90305682D01*
X114064739Y-90297159D01*
X114156762Y-90285044D01*
X114302841Y-90224536D01*
X114428282Y-90128282D01*
X114524536Y-90002841D01*
X114585044Y-89856762D01*
X114601652Y-89730608D01*
X114605682Y-89700001D01*
X114605682Y-89699998D01*
X114585044Y-89543239D01*
X114585044Y-89543238D01*
X114524536Y-89397159D01*
X114428282Y-89271718D01*
X114302841Y-89175464D01*
X114156762Y-89114956D01*
X114156760Y-89114955D01*
X114000002Y-89094318D01*
X113999998Y-89094318D01*
X113965259Y-89098891D01*
X113896223Y-89088125D01*
X113872915Y-89073806D01*
X113863526Y-89066499D01*
X113853249Y-89057423D01*
X113852309Y-89056627D01*
X113852307Y-89056625D01*
X113836651Y-89045447D01*
X113832544Y-89042385D01*
X113824086Y-89035802D01*
X113794126Y-89012483D01*
X113794122Y-89012481D01*
X113790831Y-89010700D01*
X113787189Y-89007085D01*
X113786020Y-89006175D01*
X113786130Y-89006033D01*
X113741244Y-88961477D01*
X113739386Y-88957973D01*
X113703050Y-88886658D01*
X113613342Y-88796950D01*
X113555702Y-88767580D01*
X113500301Y-88739352D01*
X113406524Y-88724500D01*
X112793482Y-88724500D01*
X112712519Y-88737323D01*
X112699696Y-88739354D01*
X112586658Y-88796950D01*
X112586657Y-88796951D01*
X112586652Y-88796954D01*
X112496954Y-88886652D01*
X112496949Y-88886659D01*
X112486689Y-88906796D01*
X112438714Y-88957591D01*
X112376205Y-88974500D01*
X112099206Y-88974500D01*
X112073761Y-88971861D01*
X112073016Y-88971704D01*
X112064685Y-88969958D01*
X112064684Y-88969958D01*
X112035884Y-88973548D01*
X112022181Y-88974398D01*
X112020962Y-88974499D01*
X112001990Y-88977665D01*
X111996923Y-88978403D01*
X111948605Y-88984426D01*
X111941584Y-88986516D01*
X111934617Y-88988908D01*
X111891812Y-89012072D01*
X111887261Y-89014415D01*
X111843513Y-89035803D01*
X111837566Y-89040047D01*
X111831742Y-89044581D01*
X111798791Y-89080375D01*
X111795246Y-89084070D01*
X111741138Y-89138180D01*
X111679815Y-89171666D01*
X111653455Y-89174500D01*
X111630247Y-89174500D01*
X111571770Y-89186131D01*
X111571769Y-89186132D01*
X111505447Y-89230447D01*
X111461132Y-89296769D01*
X111461131Y-89296770D01*
X111449500Y-89355247D01*
X111449500Y-89644752D01*
X111461131Y-89703229D01*
X111461132Y-89703230D01*
X111505447Y-89769552D01*
X111571769Y-89813867D01*
X111571770Y-89813868D01*
X111630247Y-89825499D01*
X111630250Y-89825500D01*
X111630252Y-89825500D01*
X111708303Y-89825500D01*
X111735420Y-89830603D01*
X111735772Y-89828928D01*
X111745828Y-89831036D01*
X111745829Y-89831037D01*
X111860315Y-89855043D01*
X111976393Y-89840573D01*
X111981456Y-89838097D01*
X112035913Y-89825500D01*
X112119750Y-89825500D01*
X112119751Y-89825499D01*
X112134568Y-89822552D01*
X112178229Y-89813868D01*
X112178229Y-89813867D01*
X112178231Y-89813867D01*
X112244552Y-89769552D01*
X112244553Y-89769551D01*
X112270575Y-89730608D01*
X112324187Y-89685804D01*
X112373676Y-89675500D01*
X112376205Y-89675500D01*
X112443244Y-89695185D01*
X112486689Y-89743204D01*
X112496949Y-89763340D01*
X112496954Y-89763347D01*
X112557200Y-89823593D01*
X112590685Y-89884916D01*
X112585701Y-89954608D01*
X112543829Y-90010541D01*
X112516972Y-90025835D01*
X112397158Y-90075464D01*
X112282127Y-90163730D01*
X112216958Y-90188924D01*
X112182451Y-90186972D01*
X112119748Y-90174500D01*
X111630252Y-90174500D01*
X111630247Y-90174500D01*
X111571770Y-90186131D01*
X111571769Y-90186132D01*
X111505447Y-90230447D01*
X111461132Y-90296769D01*
X111461131Y-90296770D01*
X111449500Y-90355247D01*
X111449500Y-90744752D01*
X110405000Y-90744752D01*
X110405000Y-90624008D01*
X110404999Y-90623992D01*
X110400303Y-90580316D01*
X110396397Y-90562364D01*
X110389102Y-90528825D01*
X110388848Y-90527789D01*
X110386610Y-90518627D01*
X110365067Y-90478200D01*
X110350500Y-90419887D01*
X110350500Y-90355249D01*
X110350499Y-90355247D01*
X110336485Y-90284790D01*
X110337762Y-90284535D01*
X110331680Y-90227991D01*
X110338694Y-90204100D01*
X110350499Y-90144752D01*
X110350500Y-90144750D01*
X110350500Y-89855249D01*
X110350499Y-89855247D01*
X110338868Y-89796770D01*
X110338867Y-89796769D01*
X110294552Y-89730447D01*
X110228230Y-89686132D01*
X110228229Y-89686131D01*
X110169752Y-89674500D01*
X110169748Y-89674500D01*
X110077000Y-89674500D01*
X110036738Y-89667781D01*
X109983488Y-89649500D01*
X109983487Y-89649500D01*
X109524000Y-89649500D01*
X109456961Y-89629815D01*
X109411206Y-89577011D01*
X109400000Y-89525500D01*
X109400000Y-88729500D01*
X109419685Y-88662461D01*
X109472489Y-88616706D01*
X109524000Y-88605500D01*
X110333638Y-88605500D01*
X110339920Y-88604851D01*
X110375630Y-88601164D01*
X110425239Y-88590808D01*
X110433768Y-88588837D01*
X110515191Y-88547190D01*
X110568756Y-88502329D01*
X110607797Y-88458774D01*
X110750160Y-88245230D01*
X110751140Y-88243747D01*
X110752281Y-88242003D01*
X110777490Y-88187393D01*
X110797175Y-88120354D01*
X110805500Y-88062456D01*
X110805500Y-87041333D01*
X110805480Y-87040271D01*
X110805366Y-87033899D01*
X110805042Y-87024949D01*
X110792154Y-86960388D01*
X110792154Y-86960386D01*
X110767678Y-86894944D01*
X110739600Y-86843633D01*
X110734217Y-86836456D01*
X110468952Y-86482769D01*
X110461104Y-86472946D01*
X110451289Y-86461403D01*
X110447881Y-86457636D01*
X110442866Y-86452090D01*
X109275949Y-85238496D01*
X108040117Y-83953230D01*
X108007840Y-83891263D01*
X108005500Y-83867285D01*
X108005500Y-81124008D01*
X108005499Y-81123992D01*
X108001534Y-81087117D01*
X108000803Y-81080316D01*
X107994317Y-81050500D01*
X107989602Y-81028825D01*
X107989348Y-81027789D01*
X107987110Y-81018627D01*
X107944100Y-80937915D01*
X107898345Y-80885111D01*
X107898339Y-80885104D01*
X107880757Y-80867160D01*
X107880756Y-80867159D01*
X107880754Y-80867157D01*
X107880752Y-80867156D01*
X107880750Y-80867154D01*
X107800940Y-80822511D01*
X107800935Y-80822509D01*
X107733903Y-80802826D01*
X107733899Y-80802825D01*
X107733898Y-80802825D01*
X107676000Y-80794500D01*
X106524000Y-80794500D01*
X106523992Y-80794500D01*
X106480313Y-80799197D01*
X106428825Y-80810397D01*
X106418627Y-80812890D01*
X106418624Y-80812891D01*
X106337916Y-80855899D01*
X106337913Y-80855901D01*
X106285104Y-80901660D01*
X106267160Y-80919242D01*
X106267154Y-80919249D01*
X106222511Y-80999059D01*
X106222509Y-80999064D01*
X106202826Y-81066096D01*
X106202825Y-81066101D01*
X106202825Y-81066102D01*
X106194502Y-81123992D01*
X106194500Y-81124003D01*
X106194500Y-83849905D01*
X106195492Y-83870070D01*
X106195494Y-83870097D01*
X106197883Y-83894310D01*
X106197884Y-83894316D01*
X106220324Y-83969436D01*
X106220326Y-83969441D01*
X106220327Y-83969442D01*
X106236324Y-84000000D01*
X106252730Y-84031341D01*
X106252732Y-84031344D01*
X106286954Y-84078772D01*
X108981025Y-86869061D01*
X109013429Y-86930962D01*
X109014132Y-86934806D01*
X109033350Y-87050114D01*
X109024954Y-87119477D01*
X108980391Y-87173290D01*
X108913808Y-87194468D01*
X108911037Y-87194499D01*
X106324008Y-87194499D01*
X106323992Y-87194500D01*
X106280313Y-87199197D01*
X106228825Y-87210397D01*
X106218627Y-87212890D01*
X106218624Y-87212891D01*
X106137916Y-87255899D01*
X106137914Y-87255901D01*
X106087543Y-87299546D01*
X106082512Y-87303383D01*
X106072520Y-87313374D01*
X106069792Y-87316663D01*
X106067162Y-87319240D01*
X106067154Y-87319250D01*
X106048619Y-87352384D01*
X106043508Y-87360730D01*
X106036132Y-87371770D01*
X106034224Y-87376376D01*
X106027891Y-87389442D01*
X106022509Y-87399064D01*
X106002827Y-87466090D01*
X106002825Y-87466100D01*
X106002825Y-87466102D01*
X106000362Y-87483237D01*
X105994500Y-87524003D01*
X105994500Y-88276007D01*
X79000500Y-88276007D01*
X79000500Y-80000001D01*
X110294318Y-80000001D01*
X110314955Y-80156760D01*
X110314956Y-80156762D01*
X110375464Y-80302841D01*
X110471718Y-80428282D01*
X110500987Y-80450740D01*
X110542189Y-80507165D01*
X110549500Y-80549115D01*
X110549500Y-80825470D01*
X110529815Y-80892509D01*
X110499134Y-80925240D01*
X110427850Y-80977850D01*
X110347207Y-81087117D01*
X110347206Y-81087119D01*
X110302353Y-81215298D01*
X110302353Y-81215300D01*
X110299500Y-81245730D01*
X110299500Y-83754269D01*
X110302353Y-83784699D01*
X110302353Y-83784701D01*
X110347206Y-83912880D01*
X110347207Y-83912882D01*
X110427850Y-84022150D01*
X110537118Y-84102793D01*
X110579845Y-84117744D01*
X110665299Y-84147646D01*
X110695730Y-84150500D01*
X110695734Y-84150500D01*
X111304270Y-84150500D01*
X111334699Y-84147646D01*
X111334701Y-84147646D01*
X111398790Y-84125219D01*
X111462882Y-84102793D01*
X111572150Y-84022150D01*
X111652793Y-83912882D01*
X111677898Y-83841137D01*
X111697646Y-83784701D01*
X111697646Y-83784699D01*
X111700500Y-83754269D01*
X112299500Y-83754269D01*
X112302353Y-83784699D01*
X112302353Y-83784701D01*
X112347206Y-83912880D01*
X112347207Y-83912882D01*
X112427850Y-84022150D01*
X112504571Y-84078772D01*
X112537118Y-84102793D01*
X112537122Y-84102795D01*
X112549633Y-84107173D01*
X112606409Y-84147894D01*
X112623239Y-84176760D01*
X112640429Y-84218259D01*
X112675464Y-84302841D01*
X112771718Y-84428282D01*
X112897159Y-84524536D01*
X113043238Y-84585044D01*
X113121619Y-84595363D01*
X113199999Y-84605682D01*
X113200000Y-84605682D01*
X113200001Y-84605682D01*
X113252254Y-84598802D01*
X113356762Y-84585044D01*
X113502841Y-84524536D01*
X113628282Y-84428282D01*
X113724536Y-84302841D01*
X113785044Y-84156762D01*
X113803713Y-84014956D01*
X113805682Y-84000001D01*
X113805682Y-83999998D01*
X113785044Y-83843239D01*
X113785044Y-83843238D01*
X113748192Y-83754269D01*
X114299500Y-83754269D01*
X114302353Y-83784699D01*
X114302353Y-83784701D01*
X114347206Y-83912880D01*
X114347207Y-83912882D01*
X114427850Y-84022150D01*
X114537118Y-84102793D01*
X114579845Y-84117744D01*
X114665299Y-84147646D01*
X114695730Y-84150500D01*
X114695734Y-84150500D01*
X115003456Y-84150500D01*
X115070495Y-84170185D01*
X115091137Y-84186819D01*
X117740774Y-86836456D01*
X117774259Y-86897779D01*
X117769275Y-86967471D01*
X117727403Y-87023404D01*
X117661939Y-87047821D01*
X117636908Y-87047076D01*
X117540001Y-87034318D01*
X117539999Y-87034318D01*
X117383239Y-87054955D01*
X117383237Y-87054956D01*
X117237160Y-87115463D01*
X117111718Y-87211718D01*
X117015463Y-87337160D01*
X116954956Y-87483237D01*
X116954955Y-87483239D01*
X116934318Y-87639998D01*
X116934318Y-87640001D01*
X116954955Y-87796760D01*
X116954956Y-87796762D01*
X117015464Y-87942841D01*
X117111718Y-88068282D01*
X117237159Y-88164536D01*
X117383238Y-88225044D01*
X117540000Y-88245682D01*
X117576577Y-88240866D01*
X117645609Y-88251631D01*
X117680442Y-88276124D01*
X117913181Y-88508863D01*
X117946666Y-88570186D01*
X117949500Y-88596544D01*
X117949500Y-101143456D01*
X117929815Y-101210495D01*
X117913181Y-101231137D01*
X117481137Y-101663181D01*
X117419814Y-101696666D01*
X117393456Y-101699500D01*
X117150247Y-101699500D01*
X117091770Y-101711131D01*
X117091769Y-101711132D01*
X117025447Y-101755447D01*
X117008102Y-101781407D01*
X116954489Y-101826212D01*
X116885164Y-101834919D01*
X116822137Y-101804764D01*
X116801898Y-101781407D01*
X116784552Y-101755447D01*
X116718230Y-101711132D01*
X116718229Y-101711131D01*
X116659752Y-101699500D01*
X116659748Y-101699500D01*
X115880252Y-101699500D01*
X115880247Y-101699500D01*
X115821770Y-101711131D01*
X115821769Y-101711132D01*
X115755447Y-101755447D01*
X115711132Y-101821769D01*
X115711131Y-101821770D01*
X115699500Y-101880247D01*
X115699500Y-104319752D01*
X115711131Y-104378229D01*
X115711132Y-104378230D01*
X115755447Y-104444552D01*
X115821769Y-104488867D01*
X115821770Y-104488868D01*
X115880247Y-104500499D01*
X115880250Y-104500500D01*
X115880252Y-104500500D01*
X116659750Y-104500500D01*
X116659751Y-104500499D01*
X116674568Y-104497552D01*
X116718229Y-104488868D01*
X116718229Y-104488867D01*
X116718231Y-104488867D01*
X116784552Y-104444552D01*
X116801898Y-104418591D01*
X116855509Y-104373787D01*
X116924834Y-104365080D01*
X116987862Y-104395234D01*
X117008100Y-104418590D01*
X117025448Y-104444552D01*
X117091769Y-104488867D01*
X117091770Y-104488868D01*
X117150247Y-104500499D01*
X117150250Y-104500500D01*
X117150252Y-104500500D01*
X117929750Y-104500500D01*
X117929751Y-104500499D01*
X117944568Y-104497552D01*
X117988229Y-104488868D01*
X117988229Y-104488867D01*
X117988231Y-104488867D01*
X118054552Y-104444552D01*
X118071898Y-104418591D01*
X118125509Y-104373787D01*
X118194834Y-104365080D01*
X118257862Y-104395234D01*
X118278100Y-104418590D01*
X118295448Y-104444552D01*
X118361769Y-104488867D01*
X118361770Y-104488868D01*
X118420247Y-104500499D01*
X118420250Y-104500500D01*
X118420252Y-104500500D01*
X119199750Y-104500500D01*
X119199751Y-104500499D01*
X119214568Y-104497552D01*
X119258229Y-104488868D01*
X119258229Y-104488867D01*
X119258231Y-104488867D01*
X119324552Y-104444552D01*
X119368867Y-104378231D01*
X119368867Y-104378229D01*
X119368868Y-104378229D01*
X119380499Y-104319752D01*
X119380500Y-104319750D01*
X119380500Y-101880249D01*
X119380499Y-101880247D01*
X119368868Y-101821770D01*
X119368867Y-101821769D01*
X119324552Y-101755447D01*
X119258230Y-101711132D01*
X119246946Y-101706458D01*
X119247593Y-101704895D01*
X119198393Y-101679156D01*
X119163822Y-101618438D01*
X119160500Y-101589928D01*
X119160500Y-87459211D01*
X119163139Y-87433764D01*
X119165043Y-87424685D01*
X119161452Y-87395877D01*
X119160602Y-87382192D01*
X119160501Y-87380970D01*
X119160500Y-87380964D01*
X119160500Y-87380960D01*
X119157330Y-87361966D01*
X119156595Y-87356918D01*
X119150573Y-87308607D01*
X119148475Y-87301561D01*
X119146092Y-87294619D01*
X119122925Y-87251810D01*
X119120580Y-87247253D01*
X119099200Y-87203521D01*
X119099199Y-87203520D01*
X119099198Y-87203517D01*
X119099195Y-87203514D01*
X119094929Y-87197538D01*
X119090420Y-87191746D01*
X119090418Y-87191742D01*
X119054587Y-87158757D01*
X119050890Y-87155209D01*
X117669796Y-85774115D01*
X117265191Y-85369509D01*
X117231707Y-85308188D01*
X117236691Y-85238496D01*
X117278563Y-85182563D01*
X117344027Y-85158146D01*
X117400325Y-85167268D01*
X117443238Y-85185044D01*
X117521619Y-85195363D01*
X117599999Y-85205682D01*
X117600000Y-85205682D01*
X117600001Y-85205682D01*
X117652254Y-85198802D01*
X117756762Y-85185044D01*
X117902841Y-85124536D01*
X118028282Y-85028282D01*
X118124536Y-84902841D01*
X118185044Y-84756762D01*
X118205682Y-84600000D01*
X118200866Y-84563422D01*
X118185044Y-84443239D01*
X118185044Y-84443238D01*
X118124536Y-84297159D01*
X118028282Y-84171718D01*
X117902841Y-84075464D01*
X117877472Y-84064956D01*
X117796326Y-84031344D01*
X117756762Y-84014956D01*
X117756760Y-84014955D01*
X117749253Y-84011846D01*
X117749892Y-84010301D01*
X117698469Y-83978952D01*
X117667944Y-83916103D01*
X117673187Y-83854597D01*
X117697646Y-83784699D01*
X117700500Y-83754269D01*
X118299500Y-83754269D01*
X118302353Y-83784699D01*
X118302353Y-83784701D01*
X118347206Y-83912880D01*
X118347207Y-83912882D01*
X118427850Y-84022150D01*
X118537118Y-84102793D01*
X118579845Y-84117744D01*
X118665299Y-84147646D01*
X118695730Y-84150500D01*
X118695734Y-84150500D01*
X119304270Y-84150500D01*
X119334699Y-84147646D01*
X119334701Y-84147646D01*
X119398790Y-84125219D01*
X119462882Y-84102793D01*
X119572150Y-84022150D01*
X119652793Y-83912882D01*
X119677898Y-83841137D01*
X119697646Y-83784701D01*
X119697646Y-83784699D01*
X119700500Y-83754269D01*
X119700500Y-81911188D01*
X119720185Y-81844149D01*
X119736819Y-81823507D01*
X120087819Y-81472507D01*
X120149142Y-81439022D01*
X120218834Y-81444006D01*
X120274767Y-81485878D01*
X120299184Y-81551342D01*
X120299500Y-81560188D01*
X120299500Y-83754269D01*
X120302353Y-83784699D01*
X120302353Y-83784701D01*
X120347206Y-83912880D01*
X120347207Y-83912882D01*
X120427850Y-84022150D01*
X120537118Y-84102793D01*
X120579845Y-84117744D01*
X120665299Y-84147646D01*
X120695730Y-84150500D01*
X120695734Y-84150500D01*
X121304270Y-84150500D01*
X121334699Y-84147646D01*
X121334701Y-84147646D01*
X121398790Y-84125219D01*
X121462882Y-84102793D01*
X121572150Y-84022150D01*
X121652793Y-83912882D01*
X121677898Y-83841137D01*
X121697646Y-83784701D01*
X121697646Y-83784699D01*
X121700500Y-83754269D01*
X121700500Y-81449500D01*
X121720185Y-81382461D01*
X121772989Y-81336706D01*
X121824500Y-81325500D01*
X125013812Y-81325500D01*
X125080851Y-81345185D01*
X125101493Y-81361819D01*
X126788181Y-83048507D01*
X126821666Y-83109830D01*
X126824500Y-83136187D01*
X126824500Y-83231517D01*
X126835292Y-83299657D01*
X126839354Y-83325304D01*
X126896950Y-83438342D01*
X126896952Y-83438344D01*
X126896954Y-83438347D01*
X126986652Y-83528045D01*
X126986654Y-83528046D01*
X126986658Y-83528050D01*
X127099694Y-83585645D01*
X127099698Y-83585647D01*
X127193475Y-83600499D01*
X127193481Y-83600500D01*
X127806518Y-83600499D01*
X127900304Y-83585646D01*
X128013342Y-83528050D01*
X128103050Y-83438342D01*
X128160646Y-83325304D01*
X128160646Y-83325302D01*
X128160647Y-83325301D01*
X128175499Y-83231524D01*
X128175500Y-83231519D01*
X128175499Y-82949498D01*
X128195183Y-82882461D01*
X128247987Y-82836706D01*
X128299499Y-82825500D01*
X132076000Y-82825500D01*
X132143039Y-82845185D01*
X132188794Y-82897989D01*
X132200000Y-82949500D01*
X132200000Y-84075500D01*
X132180315Y-84142539D01*
X132127511Y-84188294D01*
X132076000Y-84199500D01*
X128142254Y-84199500D01*
X128075215Y-84179815D01*
X128054572Y-84163180D01*
X128013346Y-84121953D01*
X128013344Y-84121952D01*
X128013342Y-84121950D01*
X127928601Y-84078772D01*
X127900301Y-84064352D01*
X127806524Y-84049500D01*
X127193482Y-84049500D01*
X127112519Y-84062323D01*
X127099696Y-84064354D01*
X126986658Y-84121950D01*
X126986657Y-84121951D01*
X126986653Y-84121953D01*
X126945428Y-84163180D01*
X126884105Y-84196666D01*
X126857746Y-84199500D01*
X125891419Y-84199500D01*
X125824380Y-84179815D01*
X125815933Y-84173876D01*
X125752842Y-84125464D01*
X125606762Y-84064956D01*
X125606760Y-84064955D01*
X125450001Y-84044318D01*
X125449999Y-84044318D01*
X125293239Y-84064955D01*
X125293237Y-84064956D01*
X125147160Y-84125463D01*
X125021718Y-84221718D01*
X124925463Y-84347160D01*
X124864956Y-84493237D01*
X124864955Y-84493239D01*
X124844318Y-84649998D01*
X124844318Y-84650001D01*
X124864955Y-84806760D01*
X124864956Y-84806762D01*
X124917993Y-84934806D01*
X124925464Y-84952841D01*
X125021718Y-85078282D01*
X125147159Y-85174536D01*
X125293238Y-85235044D01*
X125319459Y-85238496D01*
X125449999Y-85255682D01*
X125450000Y-85255682D01*
X125450001Y-85255682D01*
X125502254Y-85248802D01*
X125606762Y-85235044D01*
X125752841Y-85174536D01*
X125815933Y-85126123D01*
X125881102Y-85100930D01*
X125891419Y-85100500D01*
X126857746Y-85100500D01*
X126924785Y-85120185D01*
X126945428Y-85136820D01*
X126986653Y-85178046D01*
X126986655Y-85178047D01*
X126986658Y-85178050D01*
X127077821Y-85224500D01*
X127099698Y-85235647D01*
X127193475Y-85250499D01*
X127193481Y-85250500D01*
X127806518Y-85250499D01*
X127900304Y-85235646D01*
X128013342Y-85178050D01*
X128054572Y-85136820D01*
X128115895Y-85103334D01*
X128142254Y-85100500D01*
X132076000Y-85100500D01*
X132143039Y-85120185D01*
X132188794Y-85172989D01*
X132200000Y-85224500D01*
X132200000Y-85774115D01*
X132199443Y-85776926D01*
X132199476Y-85824616D01*
X132199471Y-85824616D01*
X132199500Y-85824759D01*
X132199500Y-91075467D01*
X132199416Y-91075889D01*
X132199459Y-91100000D01*
X132199500Y-91100099D01*
X132199617Y-91100383D01*
X132199618Y-91100384D01*
X132199808Y-91100462D01*
X132200000Y-91100541D01*
X132200002Y-91100539D01*
X132224616Y-91100524D01*
X132224616Y-91100528D01*
X132224760Y-91100500D01*
X146875240Y-91100500D01*
X146875383Y-91100528D01*
X146875384Y-91100524D01*
X146899997Y-91100539D01*
X146900000Y-91100541D01*
X146900383Y-91100383D01*
X146900500Y-91100099D01*
X146900541Y-91100000D01*
X146900540Y-91099997D01*
X146900583Y-91075889D01*
X146900500Y-91075467D01*
X146900500Y-79124759D01*
X146900528Y-79124616D01*
X146900524Y-79124616D01*
X146900539Y-79100002D01*
X146900541Y-79100000D01*
X146900462Y-79099808D01*
X146900384Y-79099618D01*
X146900380Y-79099614D01*
X146900194Y-79099538D01*
X146900002Y-79099459D01*
X146875446Y-79099459D01*
X146875240Y-79099500D01*
X132224760Y-79099500D01*
X132224554Y-79099459D01*
X132199998Y-79099459D01*
X132199807Y-79099538D01*
X132199619Y-79099615D01*
X132199615Y-79099618D01*
X132199459Y-79099999D01*
X132199476Y-79124616D01*
X132199471Y-79124616D01*
X132199500Y-79124759D01*
X132199500Y-80375467D01*
X132199416Y-80375889D01*
X132199501Y-80423458D01*
X132200000Y-80425967D01*
X132200000Y-81050500D01*
X132180315Y-81117539D01*
X132127511Y-81163294D01*
X132076000Y-81174500D01*
X128236533Y-81174500D01*
X128169494Y-81154815D01*
X128126049Y-81106796D01*
X128103050Y-81061658D01*
X128103046Y-81061654D01*
X128103045Y-81061652D01*
X128013347Y-80971954D01*
X128013344Y-80971952D01*
X128013342Y-80971950D01*
X127921669Y-80925240D01*
X127900301Y-80914352D01*
X127806524Y-80899500D01*
X127193482Y-80899500D01*
X127112519Y-80912323D01*
X127099696Y-80914354D01*
X126986658Y-80971950D01*
X126986657Y-80971951D01*
X126986652Y-80971954D01*
X126896954Y-81061652D01*
X126896951Y-81061657D01*
X126896950Y-81061658D01*
X126873950Y-81106796D01*
X126825977Y-81157591D01*
X126763467Y-81174500D01*
X126586188Y-81174500D01*
X126519149Y-81154815D01*
X126498507Y-81138181D01*
X125544044Y-80183718D01*
X125536734Y-80175741D01*
X125512456Y-80146807D01*
X125512455Y-80146806D01*
X125479734Y-80127914D01*
X125470616Y-80122104D01*
X125439684Y-80100446D01*
X125434861Y-80098197D01*
X125418055Y-80091235D01*
X125413042Y-80089411D01*
X125375852Y-80082852D01*
X125369831Y-80081517D01*
X126824500Y-80081517D01*
X126831421Y-80125212D01*
X126839354Y-80175304D01*
X126896950Y-80288342D01*
X126896952Y-80288344D01*
X126896954Y-80288347D01*
X126986652Y-80378045D01*
X126986654Y-80378046D01*
X126986658Y-80378050D01*
X127099694Y-80435645D01*
X127099698Y-80435647D01*
X127193475Y-80450499D01*
X127193481Y-80450500D01*
X127806518Y-80450499D01*
X127900304Y-80435646D01*
X128013342Y-80378050D01*
X128013344Y-80378047D01*
X128017689Y-80375834D01*
X128086358Y-80362938D01*
X128149468Y-80387942D01*
X128197159Y-80424536D01*
X128343238Y-80485044D01*
X128421619Y-80495363D01*
X128499999Y-80505682D01*
X128500000Y-80505682D01*
X128500001Y-80505682D01*
X128552254Y-80498802D01*
X128656762Y-80485044D01*
X128802841Y-80424536D01*
X128928282Y-80328282D01*
X129024536Y-80202841D01*
X129085044Y-80056762D01*
X129105682Y-79900000D01*
X129103920Y-79886619D01*
X129085044Y-79743239D01*
X129085044Y-79743238D01*
X129024536Y-79597159D01*
X128928282Y-79471718D01*
X128802841Y-79375464D01*
X128787718Y-79369200D01*
X128656762Y-79314956D01*
X128656760Y-79314955D01*
X128500001Y-79294318D01*
X128499999Y-79294318D01*
X128343239Y-79314955D01*
X128343234Y-79314957D01*
X128197157Y-79375463D01*
X128196946Y-79375586D01*
X128196745Y-79375634D01*
X128189649Y-79378574D01*
X128189190Y-79377467D01*
X128129045Y-79392055D01*
X128063019Y-79369200D01*
X128047270Y-79355877D01*
X128013347Y-79321954D01*
X128013344Y-79321952D01*
X128013342Y-79321950D01*
X127936517Y-79282805D01*
X127900301Y-79264352D01*
X127806524Y-79249500D01*
X127193482Y-79249500D01*
X127112519Y-79262323D01*
X127099696Y-79264354D01*
X126986658Y-79321950D01*
X126986657Y-79321951D01*
X126986652Y-79321954D01*
X126896954Y-79411652D01*
X126896951Y-79411657D01*
X126896950Y-79411658D01*
X126895270Y-79414956D01*
X126839352Y-79524698D01*
X126824500Y-79618475D01*
X126824500Y-80081517D01*
X125369831Y-80081517D01*
X125365298Y-80080512D01*
X125328808Y-80070735D01*
X125291181Y-80074028D01*
X125280372Y-80074500D01*
X124166200Y-80074500D01*
X124099161Y-80054815D01*
X124053406Y-80002011D01*
X124043462Y-79932853D01*
X124072487Y-79869297D01*
X124125245Y-79833459D01*
X124165868Y-79819243D01*
X124212882Y-79802793D01*
X124322150Y-79722150D01*
X124402793Y-79612882D01*
X124431415Y-79531086D01*
X124447646Y-79484701D01*
X124447646Y-79484699D01*
X124450500Y-79454269D01*
X124450500Y-76245730D01*
X124447646Y-76215300D01*
X124447646Y-76215298D01*
X124402793Y-76087119D01*
X124402792Y-76087117D01*
X124322150Y-75977850D01*
X124212882Y-75897207D01*
X124212880Y-75897206D01*
X124084700Y-75852353D01*
X124054270Y-75849500D01*
X124054266Y-75849500D01*
X122645734Y-75849500D01*
X122645730Y-75849500D01*
X122615300Y-75852353D01*
X122615298Y-75852353D01*
X122487119Y-75897206D01*
X122487117Y-75897207D01*
X122377850Y-75977850D01*
X122297207Y-76087117D01*
X122297206Y-76087119D01*
X122252353Y-76215298D01*
X122252353Y-76215300D01*
X122249500Y-76245730D01*
X122249500Y-79454269D01*
X122252353Y-79484699D01*
X122252353Y-79484701D01*
X122297206Y-79612880D01*
X122297207Y-79612882D01*
X122377850Y-79722150D01*
X122487118Y-79802793D01*
X122519240Y-79814033D01*
X122574755Y-79833459D01*
X122631531Y-79874181D01*
X122657278Y-79939134D01*
X122643821Y-80007695D01*
X122595434Y-80058098D01*
X122533800Y-80074500D01*
X120719628Y-80074500D01*
X120708819Y-80074028D01*
X120671192Y-80070735D01*
X120671191Y-80070735D01*
X120634703Y-80080512D01*
X120624148Y-80082852D01*
X120586960Y-80089410D01*
X120581961Y-80091229D01*
X120565117Y-80098206D01*
X120560313Y-80100446D01*
X120529381Y-80122105D01*
X120520264Y-80127914D01*
X120487548Y-80146804D01*
X120487540Y-80146810D01*
X120463262Y-80175743D01*
X120455956Y-80183716D01*
X119699200Y-80940472D01*
X119637877Y-80973957D01*
X119568185Y-80968973D01*
X119537886Y-80952562D01*
X119518037Y-80937913D01*
X119462882Y-80897207D01*
X119462880Y-80897206D01*
X119334700Y-80852353D01*
X119304270Y-80849500D01*
X119304266Y-80849500D01*
X118695734Y-80849500D01*
X118695730Y-80849500D01*
X118665300Y-80852353D01*
X118665298Y-80852353D01*
X118537119Y-80897206D01*
X118537117Y-80897207D01*
X118427850Y-80977850D01*
X118347207Y-81087117D01*
X118347206Y-81087119D01*
X118302353Y-81215298D01*
X118302353Y-81215300D01*
X118299500Y-81245730D01*
X118299500Y-83754269D01*
X117700500Y-83754269D01*
X117700500Y-83754266D01*
X117700500Y-81245734D01*
X117697646Y-81215301D01*
X117697646Y-81215300D01*
X117697646Y-81215298D01*
X117652793Y-81087119D01*
X117652792Y-81087117D01*
X117647773Y-81080316D01*
X117572150Y-80977850D01*
X117462882Y-80897207D01*
X117462880Y-80897206D01*
X117334700Y-80852353D01*
X117304270Y-80849500D01*
X117304266Y-80849500D01*
X116695734Y-80849500D01*
X116695730Y-80849500D01*
X116665300Y-80852353D01*
X116665298Y-80852353D01*
X116537119Y-80897206D01*
X116537117Y-80897207D01*
X116427850Y-80977850D01*
X116347207Y-81087117D01*
X116347206Y-81087119D01*
X116302353Y-81215298D01*
X116302353Y-81215300D01*
X116299500Y-81245730D01*
X116299500Y-83754269D01*
X116302353Y-83784699D01*
X116302353Y-83784701D01*
X116347206Y-83912880D01*
X116347207Y-83912882D01*
X116427850Y-84022150D01*
X116537118Y-84102793D01*
X116587536Y-84120435D01*
X116637416Y-84137889D01*
X116694192Y-84178610D01*
X116707860Y-84200466D01*
X116710803Y-84206486D01*
X116715062Y-84212451D01*
X116719583Y-84218259D01*
X116755398Y-84251230D01*
X116759096Y-84254778D01*
X116963875Y-84459557D01*
X116997360Y-84520880D01*
X116999133Y-84563422D01*
X116994318Y-84599998D01*
X116994318Y-84600001D01*
X117014955Y-84756760D01*
X117014957Y-84756765D01*
X117032730Y-84799673D01*
X117040199Y-84869142D01*
X117008924Y-84931621D01*
X116948835Y-84967273D01*
X116879009Y-84964779D01*
X116830488Y-84934806D01*
X115736819Y-83841137D01*
X115703334Y-83779814D01*
X115700500Y-83753456D01*
X115700500Y-81245730D01*
X115697646Y-81215300D01*
X115697646Y-81215298D01*
X115652793Y-81087119D01*
X115652792Y-81087117D01*
X115647773Y-81080316D01*
X115572150Y-80977850D01*
X115462882Y-80897207D01*
X115462880Y-80897206D01*
X115334700Y-80852353D01*
X115304270Y-80849500D01*
X115304266Y-80849500D01*
X114695734Y-80849500D01*
X114695730Y-80849500D01*
X114665300Y-80852353D01*
X114665298Y-80852353D01*
X114537119Y-80897206D01*
X114537117Y-80897207D01*
X114427850Y-80977850D01*
X114347207Y-81087117D01*
X114347206Y-81087119D01*
X114302353Y-81215298D01*
X114302353Y-81215300D01*
X114299500Y-81245730D01*
X114299500Y-83754269D01*
X113748192Y-83754269D01*
X113724536Y-83697159D01*
X113724534Y-83697156D01*
X113720472Y-83690119D01*
X113722213Y-83689113D01*
X113700930Y-83634057D01*
X113700500Y-83623742D01*
X113700500Y-81245730D01*
X113697646Y-81215300D01*
X113697646Y-81215298D01*
X113652793Y-81087119D01*
X113652792Y-81087117D01*
X113647773Y-81080316D01*
X113572150Y-80977850D01*
X113462882Y-80897207D01*
X113462880Y-80897206D01*
X113334700Y-80852353D01*
X113304270Y-80849500D01*
X113304266Y-80849500D01*
X112695734Y-80849500D01*
X112695730Y-80849500D01*
X112665300Y-80852353D01*
X112665298Y-80852353D01*
X112537119Y-80897206D01*
X112537117Y-80897207D01*
X112427850Y-80977850D01*
X112347207Y-81087117D01*
X112347206Y-81087119D01*
X112302353Y-81215298D01*
X112302353Y-81215300D01*
X112299500Y-81245730D01*
X112299500Y-83754269D01*
X111700500Y-83754269D01*
X111700500Y-81245730D01*
X111697646Y-81215300D01*
X111697646Y-81215298D01*
X111652793Y-81087119D01*
X111652792Y-81087117D01*
X111647773Y-81080316D01*
X111572150Y-80977850D01*
X111500866Y-80925240D01*
X111458615Y-80869592D01*
X111450500Y-80825470D01*
X111450500Y-80264823D01*
X111459939Y-80217370D01*
X111475465Y-80179887D01*
X111485044Y-80156762D01*
X111505682Y-80000000D01*
X111505607Y-79999433D01*
X111485044Y-79843239D01*
X111485044Y-79843238D01*
X111424536Y-79697159D01*
X111328282Y-79571718D01*
X111202841Y-79475464D01*
X111193797Y-79471718D01*
X111056762Y-79414956D01*
X111056760Y-79414955D01*
X110900001Y-79394318D01*
X110899999Y-79394318D01*
X110743239Y-79414955D01*
X110743237Y-79414956D01*
X110597160Y-79475463D01*
X110471718Y-79571718D01*
X110375463Y-79697160D01*
X110314956Y-79843237D01*
X110314955Y-79843239D01*
X110294318Y-79999998D01*
X110294318Y-80000001D01*
X79000500Y-80000001D01*
X79000500Y-79999500D01*
X79000433Y-79999433D01*
X78996409Y-79999343D01*
X78569671Y-79980711D01*
X78558895Y-79979768D01*
X78214334Y-79934405D01*
X78214029Y-79934365D01*
X78134698Y-79923721D01*
X78124350Y-79921883D01*
X77833475Y-79857398D01*
X77832976Y-79857286D01*
X77704906Y-79828340D01*
X77694956Y-79825652D01*
X77431976Y-79742735D01*
X77431294Y-79742518D01*
X77285166Y-79695516D01*
X77275682Y-79692033D01*
X77032268Y-79591208D01*
X77031421Y-79590853D01*
X76878777Y-79526297D01*
X76869820Y-79522080D01*
X76739556Y-79454269D01*
X103549500Y-79454269D01*
X103552353Y-79484699D01*
X103552353Y-79484701D01*
X103597206Y-79612880D01*
X103597207Y-79612882D01*
X103677850Y-79722150D01*
X103787118Y-79802793D01*
X103829845Y-79817744D01*
X103915299Y-79847646D01*
X103945730Y-79850500D01*
X103945734Y-79850500D01*
X105354270Y-79850500D01*
X105384699Y-79847646D01*
X105384701Y-79847646D01*
X105448790Y-79825219D01*
X105512882Y-79802793D01*
X105622150Y-79722150D01*
X105702793Y-79612882D01*
X105731415Y-79531086D01*
X105747646Y-79484701D01*
X105747646Y-79484699D01*
X105750500Y-79454269D01*
X105750500Y-76245730D01*
X105747646Y-76215300D01*
X105747646Y-76215298D01*
X105702793Y-76087119D01*
X105702792Y-76087117D01*
X105622150Y-75977850D01*
X105512882Y-75897207D01*
X105512880Y-75897206D01*
X105384700Y-75852353D01*
X105354270Y-75849500D01*
X105354266Y-75849500D01*
X103945734Y-75849500D01*
X103945730Y-75849500D01*
X103915300Y-75852353D01*
X103915298Y-75852353D01*
X103787119Y-75897206D01*
X103787117Y-75897207D01*
X103677850Y-75977850D01*
X103597207Y-76087117D01*
X103597206Y-76087119D01*
X103552353Y-76215298D01*
X103552353Y-76215300D01*
X103549500Y-76245730D01*
X103549500Y-79454269D01*
X76739556Y-79454269D01*
X76739550Y-79454266D01*
X76642940Y-79403973D01*
X76641973Y-79403465D01*
X76488857Y-79321987D01*
X76480483Y-79317101D01*
X76269330Y-79182581D01*
X76268214Y-79181863D01*
X76142114Y-79099618D01*
X76118437Y-79084175D01*
X76110695Y-79078692D01*
X75915045Y-78928564D01*
X75913837Y-78927625D01*
X75770378Y-78814703D01*
X75763316Y-78808702D01*
X75583733Y-78644144D01*
X75582461Y-78642963D01*
X75447406Y-78515685D01*
X75441029Y-78509217D01*
X75278049Y-78331356D01*
X75276749Y-78329916D01*
X75151991Y-78189415D01*
X75146337Y-78182569D01*
X75042320Y-78047012D01*
X75000526Y-77992544D01*
X74999299Y-77990915D01*
X74886440Y-77838447D01*
X74881525Y-77831298D01*
X74753653Y-77630579D01*
X74752411Y-77628587D01*
X74652800Y-77465494D01*
X74648634Y-77458118D01*
X74572139Y-77311174D01*
X74539303Y-77248097D01*
X74538217Y-77245958D01*
X74452869Y-77073426D01*
X74449458Y-77065909D01*
X74424481Y-77005610D01*
X74359224Y-76848064D01*
X74358290Y-76845739D01*
X74288208Y-76665304D01*
X74285552Y-76657743D01*
X74268333Y-76603132D01*
X74214919Y-76433725D01*
X74214082Y-76430952D01*
X74160111Y-76244359D01*
X74158170Y-76236754D01*
X74155653Y-76225399D01*
X74107478Y-76008097D01*
X74106857Y-76005112D01*
X74069527Y-75813737D01*
X74068300Y-75806224D01*
X74037803Y-75574574D01*
X74037437Y-75571466D01*
X74017174Y-75376824D01*
X74016632Y-75369497D01*
X74006467Y-75136670D01*
X74006364Y-75133125D01*
X74004391Y-75000000D01*
X76994392Y-75000000D01*
X77002101Y-75107793D01*
X77002234Y-75109645D01*
X77002550Y-75118491D01*
X77002550Y-75142860D01*
X77006018Y-75166981D01*
X77006964Y-75175782D01*
X77014806Y-75285428D01*
X77014807Y-75285435D01*
X77038170Y-75392834D01*
X77039741Y-75401539D01*
X77043212Y-75425675D01*
X77050079Y-75449065D01*
X77052266Y-75457635D01*
X77075632Y-75565046D01*
X77075633Y-75565047D01*
X77114048Y-75668044D01*
X77116842Y-75676438D01*
X77123708Y-75699820D01*
X77123710Y-75699824D01*
X77133829Y-75721983D01*
X77137215Y-75730157D01*
X77175634Y-75833159D01*
X77175637Y-75833166D01*
X77228316Y-75929640D01*
X77232277Y-75937553D01*
X77242400Y-75959719D01*
X77242403Y-75959724D01*
X77255574Y-75980219D01*
X77260089Y-75987829D01*
X77312775Y-76084314D01*
X77312778Y-76084318D01*
X77378652Y-76172316D01*
X77383699Y-76179584D01*
X77396875Y-76200086D01*
X77396878Y-76200089D01*
X77396885Y-76200098D01*
X77412836Y-76218507D01*
X77418390Y-76225399D01*
X77484256Y-76313387D01*
X77484262Y-76313393D01*
X77484263Y-76313395D01*
X77561993Y-76391125D01*
X77568014Y-76397593D01*
X77583974Y-76416012D01*
X77583978Y-76416015D01*
X77583982Y-76416020D01*
X77602418Y-76431995D01*
X77608865Y-76437997D01*
X77686607Y-76515739D01*
X77774637Y-76581637D01*
X77781484Y-76587156D01*
X77797864Y-76601349D01*
X77799916Y-76603127D01*
X77799923Y-76603132D01*
X77820416Y-76616302D01*
X77827688Y-76621351D01*
X77915684Y-76687224D01*
X77915692Y-76687229D01*
X78012168Y-76739909D01*
X78019771Y-76744420D01*
X78040280Y-76757600D01*
X78062454Y-76767726D01*
X78070344Y-76771675D01*
X78166841Y-76824367D01*
X78269853Y-76862788D01*
X78278000Y-76866163D01*
X78300181Y-76876293D01*
X78320482Y-76882254D01*
X78323554Y-76883156D01*
X78331953Y-76885951D01*
X78348591Y-76892156D01*
X78434956Y-76924369D01*
X78542366Y-76947734D01*
X78550923Y-76949917D01*
X78574328Y-76956790D01*
X78598485Y-76960263D01*
X78607124Y-76961821D01*
X78714574Y-76985196D01*
X78824243Y-76993039D01*
X78833003Y-76993981D01*
X78857139Y-76997451D01*
X78857140Y-76997452D01*
X78881509Y-76997452D01*
X78890355Y-76997768D01*
X79000001Y-77005610D01*
X79000002Y-77005610D01*
X79000003Y-77005610D01*
X79109649Y-76997768D01*
X79118495Y-76997452D01*
X79142864Y-76997452D01*
X79144505Y-76997215D01*
X79167024Y-76993978D01*
X79175729Y-76993041D01*
X79285430Y-76985196D01*
X79392874Y-76961822D01*
X79401518Y-76960263D01*
X79425676Y-76956790D01*
X79449080Y-76949917D01*
X79457597Y-76947743D01*
X79565048Y-76924369D01*
X79668069Y-76885943D01*
X79676417Y-76883165D01*
X79699823Y-76876293D01*
X79722008Y-76866161D01*
X79730141Y-76862792D01*
X79833163Y-76824367D01*
X79833167Y-76824364D01*
X79833173Y-76824362D01*
X79881592Y-76797922D01*
X79929648Y-76771681D01*
X79937526Y-76767737D01*
X79959724Y-76757600D01*
X79980236Y-76744417D01*
X79987814Y-76739920D01*
X80084317Y-76687226D01*
X80172346Y-76621327D01*
X80179562Y-76616318D01*
X80200088Y-76603127D01*
X80218529Y-76587146D01*
X80225373Y-76581632D01*
X80313397Y-76515739D01*
X80391141Y-76437994D01*
X80397577Y-76432001D01*
X80416022Y-76416020D01*
X80432003Y-76397575D01*
X80437996Y-76391139D01*
X80515741Y-76313395D01*
X80581634Y-76225371D01*
X80587148Y-76218527D01*
X80603129Y-76200086D01*
X80616320Y-76179560D01*
X80621329Y-76172344D01*
X80687228Y-76084315D01*
X80739922Y-75987812D01*
X80744419Y-75980234D01*
X80757602Y-75959722D01*
X80767739Y-75937524D01*
X80771689Y-75929636D01*
X80789398Y-75897206D01*
X80813889Y-75852354D01*
X80824364Y-75833171D01*
X80824370Y-75833158D01*
X80831614Y-75813737D01*
X80862794Y-75730139D01*
X80866163Y-75722006D01*
X80876295Y-75699821D01*
X80883167Y-75676415D01*
X80885945Y-75668067D01*
X80924371Y-75565046D01*
X80947745Y-75457595D01*
X80949919Y-75449078D01*
X80956792Y-75425674D01*
X80960265Y-75401516D01*
X80961824Y-75392872D01*
X80985198Y-75285428D01*
X80993042Y-75175752D01*
X80993982Y-75167004D01*
X80997454Y-75142861D01*
X80998079Y-75107793D01*
X80998372Y-75101225D01*
X81005612Y-75000000D01*
X80998372Y-74898777D01*
X80998079Y-74892203D01*
X80997454Y-74857139D01*
X80997453Y-74857135D01*
X80996691Y-74851833D01*
X80993983Y-74833004D01*
X80993041Y-74824241D01*
X80985198Y-74714572D01*
X80961823Y-74607122D01*
X80960265Y-74598483D01*
X80956792Y-74574326D01*
X80949919Y-74550921D01*
X80947735Y-74542358D01*
X80938031Y-74497750D01*
X80924371Y-74434954D01*
X80885953Y-74331951D01*
X80883158Y-74323552D01*
X80876297Y-74300187D01*
X80876295Y-74300179D01*
X80866165Y-74277998D01*
X80862786Y-74269840D01*
X80824369Y-74166839D01*
X80771677Y-74070342D01*
X80767728Y-74062452D01*
X80757602Y-74040278D01*
X80744421Y-74019768D01*
X80739911Y-74012166D01*
X80687231Y-73915690D01*
X80687226Y-73915682D01*
X80621353Y-73827686D01*
X80616304Y-73820414D01*
X80603134Y-73799921D01*
X80603129Y-73799914D01*
X80587158Y-73781482D01*
X80581639Y-73774635D01*
X80515741Y-73686605D01*
X80437999Y-73608863D01*
X80431997Y-73602416D01*
X80416022Y-73583980D01*
X80416017Y-73583976D01*
X80416014Y-73583972D01*
X80397595Y-73568012D01*
X80391127Y-73561991D01*
X80313397Y-73484261D01*
X80313395Y-73484260D01*
X80313389Y-73484254D01*
X80225401Y-73418388D01*
X80218509Y-73412834D01*
X80200100Y-73396883D01*
X80200095Y-73396879D01*
X80200088Y-73396873D01*
X80185913Y-73387763D01*
X80179586Y-73383697D01*
X80172318Y-73378650D01*
X80084320Y-73312776D01*
X80084316Y-73312773D01*
X79987831Y-73260087D01*
X79980221Y-73255572D01*
X79959726Y-73242401D01*
X79959721Y-73242398D01*
X79937555Y-73232275D01*
X79929642Y-73228314D01*
X79833168Y-73175635D01*
X79833161Y-73175632D01*
X79730159Y-73137213D01*
X79721985Y-73133827D01*
X79699826Y-73123708D01*
X79699822Y-73123706D01*
X79676440Y-73116840D01*
X79668046Y-73114046D01*
X79565049Y-73075631D01*
X79565048Y-73075630D01*
X79457637Y-73052264D01*
X79449067Y-73050077D01*
X79425677Y-73043210D01*
X79401541Y-73039739D01*
X79392836Y-73038168D01*
X79285437Y-73014805D01*
X79285430Y-73014804D01*
X79175784Y-73006962D01*
X79166985Y-73006016D01*
X79142863Y-73002548D01*
X79142862Y-73002548D01*
X79118495Y-73002548D01*
X79109649Y-73002232D01*
X79000003Y-72994390D01*
X79000001Y-72994390D01*
X78890355Y-73002232D01*
X78881509Y-73002548D01*
X78857137Y-73002548D01*
X78833017Y-73006016D01*
X78824218Y-73006962D01*
X78714573Y-73014804D01*
X78714566Y-73014805D01*
X78607159Y-73038170D01*
X78598451Y-73039741D01*
X78574337Y-73043208D01*
X78574327Y-73043210D01*
X78550937Y-73050077D01*
X78542370Y-73052263D01*
X78434952Y-73075631D01*
X78434949Y-73075632D01*
X78331958Y-73114045D01*
X78323567Y-73116838D01*
X78300183Y-73123705D01*
X78278003Y-73133834D01*
X78269829Y-73137219D01*
X78166847Y-73175630D01*
X78166833Y-73175636D01*
X78070362Y-73228312D01*
X78062457Y-73232270D01*
X78040279Y-73242400D01*
X78019770Y-73255579D01*
X78012165Y-73260091D01*
X77915690Y-73312771D01*
X77827675Y-73378656D01*
X77820413Y-73383698D01*
X77799916Y-73396872D01*
X77781495Y-73412833D01*
X77774607Y-73418383D01*
X77686621Y-73484249D01*
X77686606Y-73484262D01*
X77608875Y-73561991D01*
X77602401Y-73568018D01*
X77583981Y-73583979D01*
X77568020Y-73602399D01*
X77561993Y-73608873D01*
X77484264Y-73686604D01*
X77484251Y-73686619D01*
X77418385Y-73774605D01*
X77412835Y-73781493D01*
X77396874Y-73799914D01*
X77383700Y-73820411D01*
X77378658Y-73827673D01*
X77312773Y-73915688D01*
X77260093Y-74012163D01*
X77255581Y-74019768D01*
X77242402Y-74040277D01*
X77232272Y-74062455D01*
X77228314Y-74070360D01*
X77175638Y-74166831D01*
X77175632Y-74166845D01*
X77137221Y-74269827D01*
X77133836Y-74278001D01*
X77123707Y-74300181D01*
X77116840Y-74323565D01*
X77114047Y-74331956D01*
X77075634Y-74434947D01*
X77075633Y-74434950D01*
X77052265Y-74542368D01*
X77050079Y-74550935D01*
X77043212Y-74574325D01*
X77043210Y-74574335D01*
X77039743Y-74598449D01*
X77038172Y-74607157D01*
X77014807Y-74714564D01*
X77014806Y-74714571D01*
X77006964Y-74824216D01*
X77006018Y-74833015D01*
X77002550Y-74857135D01*
X77002550Y-74881507D01*
X77002234Y-74890353D01*
X76994665Y-74996189D01*
X76994392Y-75000000D01*
X74004391Y-75000000D01*
X74003458Y-74937040D01*
X74003561Y-74929885D01*
X74013708Y-74697487D01*
X74013919Y-74693897D01*
X74028479Y-74497750D01*
X74029188Y-74490860D01*
X74059502Y-74260607D01*
X74060058Y-74256849D01*
X74092029Y-74062455D01*
X74093317Y-74055781D01*
X74143507Y-73829387D01*
X74144443Y-73825478D01*
X74193624Y-73634400D01*
X74195431Y-73628083D01*
X74265076Y-73407199D01*
X74266463Y-73403060D01*
X74268654Y-73396883D01*
X74332472Y-73216949D01*
X74334737Y-73211052D01*
X74423299Y-72997243D01*
X74425090Y-72993136D01*
X74507488Y-72813352D01*
X74510181Y-72807846D01*
X74616946Y-72602753D01*
X74619188Y-72598642D01*
X74717285Y-72426776D01*
X74720366Y-72421671D01*
X74844559Y-72226726D01*
X74847245Y-72222693D01*
X74960280Y-72060125D01*
X74963665Y-72055492D01*
X75104294Y-71872221D01*
X75107502Y-71868217D01*
X75234579Y-71716265D01*
X75238197Y-71712134D01*
X75394266Y-71541815D01*
X75397916Y-71538002D01*
X75538002Y-71397916D01*
X75541815Y-71394266D01*
X75712134Y-71238197D01*
X75716265Y-71234579D01*
X75868217Y-71107502D01*
X75872221Y-71104294D01*
X76055492Y-70963665D01*
X76060125Y-70960280D01*
X76222693Y-70847245D01*
X76226726Y-70844559D01*
X76421671Y-70720366D01*
X76426776Y-70717285D01*
X76598642Y-70619188D01*
X76602753Y-70616946D01*
X76807846Y-70510181D01*
X76813352Y-70507488D01*
X76993136Y-70425090D01*
X76997243Y-70423299D01*
X77211052Y-70334737D01*
X77216949Y-70332472D01*
X77403083Y-70266455D01*
X77407199Y-70265076D01*
X77628083Y-70195431D01*
X77634400Y-70193624D01*
X77825478Y-70144443D01*
X77829387Y-70143507D01*
X78055781Y-70093317D01*
X78062455Y-70092029D01*
X78256849Y-70060058D01*
X78260607Y-70059502D01*
X78490860Y-70029188D01*
X78497750Y-70028479D01*
X78693897Y-70013919D01*
X78697487Y-70013708D01*
X78929885Y-70003561D01*
X78937040Y-70003458D01*
X79133152Y-70006364D01*
X79136669Y-70006467D01*
X79369497Y-70016632D01*
X79376824Y-70017174D01*
X79571466Y-70037437D01*
X79574574Y-70037803D01*
X79806224Y-70068300D01*
X79813737Y-70069527D01*
X80005112Y-70106857D01*
X80008097Y-70107478D01*
X80236767Y-70158173D01*
X80244359Y-70160111D01*
X80430952Y-70214082D01*
X80433725Y-70214919D01*
X80657756Y-70285556D01*
X80665304Y-70288208D01*
X80845739Y-70358290D01*
X80848064Y-70359224D01*
X81007123Y-70425108D01*
X81065909Y-70449458D01*
X81073426Y-70452869D01*
X81245958Y-70538217D01*
X81248097Y-70539303D01*
X81394283Y-70615403D01*
X81458118Y-70648634D01*
X81465494Y-70652800D01*
X81628587Y-70752411D01*
X81630562Y-70753642D01*
X81777537Y-70847276D01*
X81831298Y-70881525D01*
X81838447Y-70886440D01*
X81990915Y-70999299D01*
X81992544Y-71000526D01*
X82182569Y-71146337D01*
X82189415Y-71151991D01*
X82329916Y-71276749D01*
X82331340Y-71278035D01*
X82462216Y-71397961D01*
X82509217Y-71441029D01*
X82515685Y-71447406D01*
X82642963Y-71582461D01*
X82644144Y-71583733D01*
X82808702Y-71763316D01*
X82814703Y-71770378D01*
X82927625Y-71913837D01*
X82928564Y-71915045D01*
X83078692Y-72110695D01*
X83084178Y-72118441D01*
X83181863Y-72268214D01*
X83182581Y-72269330D01*
X83317101Y-72480483D01*
X83321987Y-72488857D01*
X83403465Y-72641973D01*
X83403988Y-72642967D01*
X83522080Y-72869820D01*
X83526297Y-72878777D01*
X83590853Y-73031421D01*
X83591208Y-73032268D01*
X83692033Y-73275682D01*
X83695516Y-73285166D01*
X83742518Y-73431294D01*
X83742735Y-73431976D01*
X83825652Y-73694956D01*
X83828340Y-73704906D01*
X83857286Y-73832976D01*
X83857398Y-73833475D01*
X83921883Y-74124350D01*
X83923721Y-74134698D01*
X83934365Y-74214029D01*
X83934405Y-74214334D01*
X83979768Y-74558895D01*
X83980711Y-74569671D01*
X83999343Y-74996409D01*
X83999433Y-75000433D01*
X83999500Y-75000500D01*
X144000500Y-75000500D01*
X144000580Y-75000419D01*
X144000588Y-75000000D01*
X146994390Y-75000000D01*
X147002099Y-75107793D01*
X147002232Y-75109645D01*
X147002548Y-75118491D01*
X147002548Y-75142860D01*
X147006016Y-75166981D01*
X147006962Y-75175782D01*
X147014804Y-75285428D01*
X147014805Y-75285435D01*
X147038168Y-75392834D01*
X147039739Y-75401539D01*
X147043210Y-75425675D01*
X147050077Y-75449065D01*
X147052264Y-75457635D01*
X147075630Y-75565046D01*
X147075631Y-75565047D01*
X147114046Y-75668044D01*
X147116840Y-75676438D01*
X147123706Y-75699820D01*
X147123708Y-75699824D01*
X147133827Y-75721983D01*
X147137213Y-75730157D01*
X147175632Y-75833159D01*
X147175635Y-75833166D01*
X147228314Y-75929640D01*
X147232275Y-75937553D01*
X147242398Y-75959719D01*
X147242401Y-75959724D01*
X147255572Y-75980219D01*
X147260087Y-75987829D01*
X147312773Y-76084314D01*
X147312776Y-76084318D01*
X147378650Y-76172316D01*
X147383697Y-76179584D01*
X147396873Y-76200086D01*
X147396876Y-76200089D01*
X147396883Y-76200098D01*
X147412834Y-76218507D01*
X147418388Y-76225399D01*
X147484254Y-76313387D01*
X147484260Y-76313393D01*
X147484261Y-76313395D01*
X147561991Y-76391125D01*
X147568012Y-76397593D01*
X147583972Y-76416012D01*
X147583976Y-76416015D01*
X147583980Y-76416020D01*
X147602416Y-76431995D01*
X147608863Y-76437997D01*
X147686605Y-76515739D01*
X147774635Y-76581637D01*
X147781482Y-76587156D01*
X147797862Y-76601349D01*
X147799914Y-76603127D01*
X147799921Y-76603132D01*
X147820414Y-76616302D01*
X147827686Y-76621351D01*
X147915682Y-76687224D01*
X147915690Y-76687229D01*
X148012166Y-76739909D01*
X148019769Y-76744420D01*
X148040278Y-76757600D01*
X148062452Y-76767726D01*
X148070342Y-76771675D01*
X148166839Y-76824367D01*
X148269851Y-76862788D01*
X148277998Y-76866163D01*
X148300179Y-76876293D01*
X148320480Y-76882254D01*
X148323552Y-76883156D01*
X148331951Y-76885951D01*
X148348589Y-76892156D01*
X148434954Y-76924369D01*
X148542364Y-76947734D01*
X148550921Y-76949917D01*
X148574326Y-76956790D01*
X148598483Y-76960263D01*
X148607122Y-76961821D01*
X148714572Y-76985196D01*
X148824241Y-76993039D01*
X148833001Y-76993981D01*
X148857137Y-76997451D01*
X148857138Y-76997452D01*
X148881507Y-76997452D01*
X148890353Y-76997768D01*
X148999999Y-77005610D01*
X149000000Y-77005610D01*
X149000001Y-77005610D01*
X149109647Y-76997768D01*
X149118493Y-76997452D01*
X149142862Y-76997452D01*
X149144503Y-76997215D01*
X149167022Y-76993978D01*
X149175727Y-76993041D01*
X149285428Y-76985196D01*
X149392872Y-76961822D01*
X149401516Y-76960263D01*
X149425674Y-76956790D01*
X149449078Y-76949917D01*
X149457595Y-76947743D01*
X149565046Y-76924369D01*
X149668067Y-76885943D01*
X149676415Y-76883165D01*
X149699821Y-76876293D01*
X149722006Y-76866161D01*
X149730139Y-76862792D01*
X149833161Y-76824367D01*
X149833165Y-76824364D01*
X149833171Y-76824362D01*
X149881590Y-76797922D01*
X149929646Y-76771681D01*
X149937524Y-76767737D01*
X149959722Y-76757600D01*
X149980234Y-76744417D01*
X149987812Y-76739920D01*
X150084315Y-76687226D01*
X150172344Y-76621327D01*
X150179560Y-76616318D01*
X150200086Y-76603127D01*
X150218527Y-76587146D01*
X150225371Y-76581632D01*
X150313395Y-76515739D01*
X150391139Y-76437994D01*
X150397575Y-76432001D01*
X150416020Y-76416020D01*
X150432001Y-76397575D01*
X150437994Y-76391139D01*
X150515739Y-76313395D01*
X150581632Y-76225371D01*
X150587146Y-76218527D01*
X150603127Y-76200086D01*
X150616318Y-76179560D01*
X150621327Y-76172344D01*
X150687226Y-76084315D01*
X150739920Y-75987812D01*
X150744417Y-75980234D01*
X150757600Y-75959722D01*
X150767737Y-75937524D01*
X150771687Y-75929636D01*
X150789396Y-75897206D01*
X150813887Y-75852354D01*
X150824362Y-75833171D01*
X150824368Y-75833158D01*
X150831612Y-75813737D01*
X150862792Y-75730139D01*
X150866161Y-75722006D01*
X150876293Y-75699821D01*
X150883165Y-75676415D01*
X150885943Y-75668067D01*
X150924369Y-75565046D01*
X150947743Y-75457595D01*
X150949917Y-75449078D01*
X150956790Y-75425674D01*
X150960263Y-75401516D01*
X150961822Y-75392872D01*
X150985196Y-75285428D01*
X150993040Y-75175752D01*
X150993980Y-75167004D01*
X150997452Y-75142861D01*
X150998077Y-75107793D01*
X150998370Y-75101225D01*
X151005610Y-75000000D01*
X150998370Y-74898777D01*
X150998077Y-74892203D01*
X150997452Y-74857139D01*
X150997451Y-74857135D01*
X150996689Y-74851833D01*
X150993981Y-74833004D01*
X150993039Y-74824241D01*
X150985196Y-74714572D01*
X150961821Y-74607122D01*
X150960263Y-74598483D01*
X150956790Y-74574326D01*
X150949917Y-74550921D01*
X150947733Y-74542358D01*
X150938029Y-74497750D01*
X150924369Y-74434954D01*
X150885951Y-74331951D01*
X150883156Y-74323552D01*
X150876295Y-74300187D01*
X150876293Y-74300179D01*
X150866163Y-74277998D01*
X150862784Y-74269840D01*
X150824367Y-74166839D01*
X150771675Y-74070342D01*
X150767726Y-74062452D01*
X150757600Y-74040278D01*
X150744419Y-74019768D01*
X150739909Y-74012166D01*
X150687229Y-73915690D01*
X150687224Y-73915682D01*
X150621351Y-73827686D01*
X150616302Y-73820414D01*
X150603132Y-73799921D01*
X150603127Y-73799914D01*
X150587156Y-73781482D01*
X150581637Y-73774635D01*
X150515739Y-73686605D01*
X150437997Y-73608863D01*
X150431995Y-73602416D01*
X150416020Y-73583980D01*
X150416015Y-73583976D01*
X150416012Y-73583972D01*
X150397593Y-73568012D01*
X150391125Y-73561991D01*
X150313395Y-73484261D01*
X150313393Y-73484260D01*
X150313387Y-73484254D01*
X150225399Y-73418388D01*
X150218507Y-73412834D01*
X150200098Y-73396883D01*
X150200093Y-73396879D01*
X150200086Y-73396873D01*
X150185911Y-73387763D01*
X150179584Y-73383697D01*
X150172316Y-73378650D01*
X150084318Y-73312776D01*
X150084314Y-73312773D01*
X149987829Y-73260087D01*
X149980219Y-73255572D01*
X149959724Y-73242401D01*
X149959719Y-73242398D01*
X149937553Y-73232275D01*
X149929640Y-73228314D01*
X149833166Y-73175635D01*
X149833159Y-73175632D01*
X149730157Y-73137213D01*
X149721983Y-73133827D01*
X149699824Y-73123708D01*
X149699820Y-73123706D01*
X149676438Y-73116840D01*
X149668044Y-73114046D01*
X149565047Y-73075631D01*
X149565046Y-73075630D01*
X149457635Y-73052264D01*
X149449065Y-73050077D01*
X149425675Y-73043210D01*
X149401539Y-73039739D01*
X149392834Y-73038168D01*
X149285435Y-73014805D01*
X149285428Y-73014804D01*
X149175782Y-73006962D01*
X149166983Y-73006016D01*
X149142861Y-73002548D01*
X149142860Y-73002548D01*
X149118493Y-73002548D01*
X149109647Y-73002232D01*
X149000001Y-72994390D01*
X148999999Y-72994390D01*
X148890353Y-73002232D01*
X148881507Y-73002548D01*
X148857135Y-73002548D01*
X148833015Y-73006016D01*
X148824216Y-73006962D01*
X148714571Y-73014804D01*
X148714564Y-73014805D01*
X148607157Y-73038170D01*
X148598449Y-73039741D01*
X148574335Y-73043208D01*
X148574325Y-73043210D01*
X148550935Y-73050077D01*
X148542368Y-73052263D01*
X148434950Y-73075631D01*
X148434947Y-73075632D01*
X148331956Y-73114045D01*
X148323565Y-73116838D01*
X148300181Y-73123705D01*
X148278001Y-73133834D01*
X148269827Y-73137219D01*
X148166845Y-73175630D01*
X148166831Y-73175636D01*
X148070360Y-73228312D01*
X148062455Y-73232270D01*
X148040277Y-73242400D01*
X148019768Y-73255579D01*
X148012163Y-73260091D01*
X147915688Y-73312771D01*
X147827673Y-73378656D01*
X147820411Y-73383698D01*
X147799914Y-73396872D01*
X147781493Y-73412833D01*
X147774605Y-73418383D01*
X147686619Y-73484249D01*
X147686604Y-73484262D01*
X147608873Y-73561991D01*
X147602399Y-73568018D01*
X147583979Y-73583979D01*
X147568018Y-73602399D01*
X147561991Y-73608873D01*
X147484262Y-73686604D01*
X147484249Y-73686619D01*
X147418383Y-73774605D01*
X147412833Y-73781493D01*
X147396872Y-73799914D01*
X147383698Y-73820411D01*
X147378656Y-73827673D01*
X147312771Y-73915688D01*
X147260091Y-74012163D01*
X147255579Y-74019768D01*
X147242400Y-74040277D01*
X147232270Y-74062455D01*
X147228312Y-74070360D01*
X147175636Y-74166831D01*
X147175630Y-74166845D01*
X147137219Y-74269827D01*
X147133834Y-74278001D01*
X147123705Y-74300181D01*
X147116838Y-74323565D01*
X147114045Y-74331956D01*
X147075632Y-74434947D01*
X147075631Y-74434950D01*
X147052263Y-74542368D01*
X147050077Y-74550935D01*
X147043210Y-74574325D01*
X147043208Y-74574335D01*
X147039741Y-74598449D01*
X147038170Y-74607157D01*
X147014805Y-74714564D01*
X147014804Y-74714571D01*
X147006962Y-74824216D01*
X147006016Y-74833015D01*
X147002548Y-74857135D01*
X147002548Y-74881507D01*
X147002232Y-74890353D01*
X146994663Y-74996189D01*
X146994390Y-75000000D01*
X144000588Y-75000000D01*
X144000665Y-74996189D01*
X144003248Y-74937040D01*
X144019289Y-74569649D01*
X144020229Y-74558917D01*
X144065655Y-74213865D01*
X144076279Y-74134686D01*
X144078111Y-74124368D01*
X144142666Y-73833178D01*
X144171666Y-73704876D01*
X144174340Y-73694975D01*
X144257379Y-73431610D01*
X144304491Y-73285139D01*
X144307951Y-73275718D01*
X144408986Y-73031797D01*
X144473718Y-72878740D01*
X144477900Y-72869856D01*
X144596247Y-72642514D01*
X144596342Y-72642335D01*
X144678033Y-72488818D01*
X144682875Y-72480519D01*
X144817561Y-72269105D01*
X144817999Y-72268424D01*
X144915847Y-72118401D01*
X144921285Y-72110723D01*
X145071541Y-71914906D01*
X145072199Y-71914059D01*
X145185321Y-71770346D01*
X145191269Y-71763347D01*
X145356014Y-71583560D01*
X145356898Y-71582608D01*
X145484342Y-71447376D01*
X145490751Y-71441058D01*
X145668809Y-71277897D01*
X145669946Y-71276870D01*
X145810596Y-71151979D01*
X145817402Y-71146359D01*
X146007567Y-71000440D01*
X146008989Y-70999369D01*
X146161567Y-70886428D01*
X146168669Y-70881546D01*
X146369532Y-70753582D01*
X146371296Y-70752482D01*
X146534521Y-70652789D01*
X146541862Y-70648643D01*
X146751986Y-70539260D01*
X146753964Y-70538255D01*
X146926595Y-70452858D01*
X146934067Y-70449467D01*
X147152001Y-70359196D01*
X147154198Y-70358314D01*
X147334714Y-70288201D01*
X147342223Y-70285562D01*
X147566321Y-70214905D01*
X147569001Y-70214095D01*
X147755655Y-70160107D01*
X147763217Y-70158176D01*
X147991933Y-70107471D01*
X147994855Y-70106863D01*
X148186273Y-70069525D01*
X148193765Y-70068302D01*
X148425442Y-70037801D01*
X148428516Y-70037439D01*
X148623180Y-70017173D01*
X148630497Y-70016633D01*
X148863334Y-70006467D01*
X148866843Y-70006364D01*
X149062959Y-70003458D01*
X149070115Y-70003561D01*
G37*
%TD.AperFunction*%
%TD*%
M02*
