%TF.GenerationSoftware,KiCad,Pcbnew,7.0.9*%
%TF.CreationDate,2024-05-06T20:13:39+08:00*%
%TF.ProjectId,power_monitor_v0.1,706f7765-725f-46d6-9f6e-69746f725f76,rev?*%
%TF.SameCoordinates,Original*%
%TF.FileFunction,Copper,L4,Bot*%
%TF.FilePolarity,Positive*%
%FSLAX46Y46*%
G04 Gerber Fmt 4.6, Leading zero omitted, Abs format (unit mm)*
G04 Created by KiCad (PCBNEW 7.0.9) date 2024-05-06 20:13:39*
%MOMM*%
%LPD*%
G01*
G04 APERTURE LIST*
G04 Aperture macros list*
%AMRoundRect*
0 Rectangle with rounded corners*
0 $1 Rounding radius*
0 $2 $3 $4 $5 $6 $7 $8 $9 X,Y pos of 4 corners*
0 Add a 4 corners polygon primitive as box body*
4,1,4,$2,$3,$4,$5,$6,$7,$8,$9,$2,$3,0*
0 Add four circle primitives for the rounded corners*
1,1,$1+$1,$2,$3*
1,1,$1+$1,$4,$5*
1,1,$1+$1,$6,$7*
1,1,$1+$1,$8,$9*
0 Add four rect primitives between the rounded corners*
20,1,$1+$1,$2,$3,$4,$5,0*
20,1,$1+$1,$4,$5,$6,$7,0*
20,1,$1+$1,$6,$7,$8,$9,0*
20,1,$1+$1,$8,$9,$2,$3,0*%
G04 Aperture macros list end*
%TA.AperFunction,ComponentPad*%
%ADD10C,1.100000*%
%TD*%
%TA.AperFunction,ComponentPad*%
%ADD11C,3.000000*%
%TD*%
%TA.AperFunction,ComponentPad*%
%ADD12R,3.000000X3.000000*%
%TD*%
%TA.AperFunction,ComponentPad*%
%ADD13RoundRect,1.000000X1.750000X1.000000X-1.750000X1.000000X-1.750000X-1.000000X1.750000X-1.000000X0*%
%TD*%
%TA.AperFunction,ComponentPad*%
%ADD14RoundRect,1.000000X-1.000000X1.750000X-1.000000X-1.750000X1.000000X-1.750000X1.000000X1.750000X0*%
%TD*%
%TA.AperFunction,ComponentPad*%
%ADD15C,2.000000*%
%TD*%
%TA.AperFunction,ComponentPad*%
%ADD16C,0.600000*%
%TD*%
%TA.AperFunction,SMDPad,CuDef*%
%ADD17R,4.500000X2.950000*%
%TD*%
%TA.AperFunction,ComponentPad*%
%ADD18RoundRect,0.250001X-0.949999X0.949999X-0.949999X-0.949999X0.949999X-0.949999X0.949999X0.949999X0*%
%TD*%
%TA.AperFunction,ComponentPad*%
%ADD19C,2.400000*%
%TD*%
%TA.AperFunction,ComponentPad*%
%ADD20C,7.000000*%
%TD*%
%TA.AperFunction,ViaPad*%
%ADD21C,0.500000*%
%TD*%
%TA.AperFunction,ViaPad*%
%ADD22C,0.800000*%
%TD*%
%TA.AperFunction,Conductor*%
%ADD23C,0.254000*%
%TD*%
%TA.AperFunction,Conductor*%
%ADD24C,0.300000*%
%TD*%
%TA.AperFunction,Conductor*%
%ADD25C,0.250000*%
%TD*%
%TA.AperFunction,Conductor*%
%ADD26C,0.200000*%
%TD*%
G04 APERTURE END LIST*
D10*
%TO.P,J8,S1,SHIELD*%
%TO.N,GNDS*%
X162550000Y-86100000D03*
X158250000Y-86100000D03*
X162550000Y-90900000D03*
X158250000Y-90900000D03*
%TD*%
D11*
%TO.P,J4,1*%
%TO.N,Net-(J4-Pad1)*%
X114600000Y-131500000D03*
%TO.P,J4,2*%
X107400000Y-131500000D03*
%TO.P,J4,3*%
X107400000Y-136500000D03*
%TO.P,J4,4*%
X114600000Y-136500000D03*
%TD*%
D12*
%TO.P,PS1,1,AC/N*%
%TO.N,AC_NEUTRAL_IN*%
X154042500Y-66100000D03*
D11*
%TO.P,PS1,2,AC/L*%
%TO.N,AC_LIVE_IN*%
X154042500Y-76850000D03*
%TO.P,PS1,3,-Vo*%
%TO.N,GNDA*%
X192542500Y-76850000D03*
%TO.P,PS1,4,+Vo*%
%TO.N,+12V*%
X192542500Y-68850000D03*
%TD*%
%TO.P,J7,1*%
%TO.N,Net-(J4-Pad1)*%
X114600000Y-140100000D03*
%TO.P,J7,2*%
X107400000Y-140100000D03*
%TO.P,J7,3*%
X107400000Y-145100000D03*
%TO.P,J7,4*%
X114600000Y-145100000D03*
%TD*%
D13*
%TO.P,K1,13*%
%TO.N,AC_SENSOR_LIVE_IN*%
X130220000Y-108407500D03*
D14*
%TO.P,K1,14*%
%TO.N,AC_LIVE_IN*%
X126790000Y-89657500D03*
D15*
%TO.P,K1,A1*%
%TO.N,Net-(D2-A)*%
X142230000Y-93457500D03*
%TO.P,K1,A2*%
%TO.N,+12V*%
X142230000Y-103627500D03*
%TD*%
D11*
%TO.P,J3,1*%
%TO.N,AC_NEUTRAL_IN*%
X107400000Y-62500000D03*
%TO.P,J3,2*%
X114600000Y-62500000D03*
%TO.P,J3,3*%
X114600000Y-57500000D03*
%TO.P,J3,4*%
X107400000Y-57500000D03*
%TD*%
%TO.P,J2,1*%
%TO.N,AC_LIVE_IN*%
X107400000Y-93500000D03*
%TO.P,J2,2*%
X114600000Y-93500000D03*
%TO.P,J2,3*%
X114600000Y-88500000D03*
%TO.P,J2,4*%
X107400000Y-88500000D03*
%TD*%
D16*
%TO.P,U4,9,GNDPAD*%
%TO.N,GNDA*%
X192200000Y-93575000D03*
X193400000Y-93575000D03*
X194700000Y-93575000D03*
X195800000Y-93575000D03*
D17*
X194000000Y-92975000D03*
D16*
X192200000Y-92375000D03*
X193400000Y-92375000D03*
X194700000Y-92375000D03*
X195800000Y-92375000D03*
%TD*%
D13*
%TO.P,K2,13*%
%TO.N,AC_NEUTRAL_OUT*%
X130220000Y-79407500D03*
D14*
%TO.P,K2,14*%
%TO.N,AC_NEUTRAL_IN*%
X126790000Y-60657500D03*
D15*
%TO.P,K2,A1*%
%TO.N,Net-(D3-A)*%
X142230000Y-64457500D03*
%TO.P,K2,A2*%
%TO.N,+12V*%
X142230000Y-74627500D03*
%TD*%
D18*
%TO.P,J1,1,Pin_1*%
%TO.N,Net-(J1-Pin_1)*%
X133400000Y-137200000D03*
D19*
%TO.P,J1,2,Pin_2*%
%TO.N,Net-(J1-Pin_2)*%
X133400000Y-141160000D03*
%TD*%
D11*
%TO.P,J5,1*%
%TO.N,AC_NEUTRAL_OUT*%
X107400000Y-78500000D03*
%TO.P,J5,2*%
X114600000Y-78500000D03*
%TO.P,J5,3*%
X114600000Y-73500000D03*
%TO.P,J5,4*%
X107400000Y-73500000D03*
%TD*%
D20*
%TO.P,U6,80,GND*%
%TO.N,GNDA*%
X157600000Y-122849000D03*
%TD*%
D11*
%TO.P,J6,1*%
%TO.N,AC_SENSOR_LIVE_OUT*%
X107400000Y-109500000D03*
%TO.P,J6,2*%
X114600000Y-109500000D03*
%TO.P,J6,3*%
X114600000Y-104500000D03*
%TO.P,J6,4*%
X107400000Y-104500000D03*
%TD*%
D21*
%TO.N,GNDA*%
X150700000Y-136900000D03*
X202250000Y-93250000D03*
X184500000Y-111000000D03*
X197200000Y-122100000D03*
X154500000Y-118500000D03*
X184750000Y-144250000D03*
X174000000Y-103500000D03*
X190000000Y-108500000D03*
X168910000Y-113030000D03*
X154000000Y-142500000D03*
X186500000Y-124000000D03*
X200400000Y-99800000D03*
X183750000Y-106500000D03*
X205000000Y-130800000D03*
X167300000Y-99500000D03*
X196900000Y-99800000D03*
X145500000Y-141500000D03*
X180500000Y-123500000D03*
X184000000Y-129500000D03*
X165000000Y-140000000D03*
X189000000Y-118500000D03*
X189250000Y-142250000D03*
X192000000Y-88250000D03*
X146950000Y-136900000D03*
X205000000Y-120900000D03*
X186500000Y-113000000D03*
X205000000Y-132300000D03*
X205500000Y-99750000D03*
X205000000Y-137900000D03*
X174000000Y-104500000D03*
X165500000Y-123000000D03*
X153100000Y-145300000D03*
X191000000Y-119500000D03*
X205000000Y-116100000D03*
X205000000Y-135600000D03*
X197200000Y-115900000D03*
X186500000Y-119500000D03*
X181750000Y-95500000D03*
X151500000Y-136900000D03*
X155300000Y-138600000D03*
X168900000Y-99500000D03*
X175500000Y-128500000D03*
X176500000Y-87000000D03*
X179000000Y-128500000D03*
X158000000Y-141000000D03*
X176750000Y-106500000D03*
X177000000Y-97000000D03*
X176500000Y-84000000D03*
X173000000Y-136500000D03*
X170000000Y-130000000D03*
X174250000Y-98600000D03*
X182750000Y-105500000D03*
X197200000Y-126700000D03*
X181750000Y-101750000D03*
X205500000Y-107750000D03*
X161750000Y-118750000D03*
X174949503Y-98600000D03*
X194400000Y-127600000D03*
X201400000Y-102000000D03*
X146600000Y-144000000D03*
X200000000Y-118300000D03*
X157000000Y-135855000D03*
X205500000Y-105750000D03*
X200000000Y-112000000D03*
X165750000Y-142250000D03*
X196200000Y-98400000D03*
X201400000Y-104800000D03*
X179000000Y-123500000D03*
X186750000Y-142250000D03*
X157992352Y-95992352D03*
X146800000Y-135800000D03*
X177800000Y-110490000D03*
X185000000Y-128000000D03*
X181250000Y-106500000D03*
X186100000Y-89450000D03*
X173000000Y-123500000D03*
X181500000Y-144250000D03*
X195100000Y-99800000D03*
X184750000Y-105500000D03*
X140200000Y-134300000D03*
X176500000Y-88000000D03*
X175300000Y-105500000D03*
X163000000Y-146000000D03*
X205500000Y-98000000D03*
X148000000Y-141600000D03*
X175500000Y-130000000D03*
X197200000Y-129300000D03*
X177800000Y-115570000D03*
X188200000Y-88250000D03*
X159700000Y-124600000D03*
X148500000Y-138000000D03*
X202250000Y-99750000D03*
X156500000Y-108000000D03*
X165750000Y-125000000D03*
X143800000Y-135000000D03*
X168250000Y-100250000D03*
X161750000Y-121250000D03*
X169000000Y-106500000D03*
X156500000Y-110000000D03*
X205000000Y-119800000D03*
X122750000Y-122950000D03*
X145500000Y-146000000D03*
X194400000Y-132200000D03*
X190000000Y-115500000D03*
X172000000Y-146500000D03*
X165000000Y-134500000D03*
X143800000Y-134300000D03*
X197200000Y-118800000D03*
X157550000Y-125350000D03*
X205500000Y-111750000D03*
X160100000Y-122050000D03*
X177800000Y-119380000D03*
X154500000Y-112000000D03*
X194550000Y-119550000D03*
X158000000Y-120350000D03*
X178500000Y-105750000D03*
X156500000Y-106500000D03*
X193500000Y-127500000D03*
X146500000Y-144770000D03*
X170000000Y-146000000D03*
X182000000Y-130500000D03*
X176500000Y-93000000D03*
X176500000Y-123500000D03*
X194400000Y-131000000D03*
X205500000Y-103750000D03*
X182500000Y-87500000D03*
X176500000Y-92000000D03*
X172720000Y-115570000D03*
X173000000Y-134500000D03*
X194400000Y-133400000D03*
X178000000Y-128500000D03*
X196300000Y-106100000D03*
X155500000Y-144000000D03*
X154500000Y-120000000D03*
X149900000Y-134300000D03*
X192250000Y-144250000D03*
X197200000Y-131000000D03*
X197200000Y-113950000D03*
X168500000Y-130500000D03*
X143850000Y-146000000D03*
X198450000Y-118800000D03*
X150700000Y-135800000D03*
X156600000Y-120400000D03*
X181300000Y-110450000D03*
X189500000Y-127500000D03*
X184750000Y-142250000D03*
X205000000Y-129400000D03*
X154800000Y-130200000D03*
X151600000Y-145300000D03*
X197200000Y-116800000D03*
X197200000Y-128500000D03*
X191150000Y-88250000D03*
X183750000Y-105500000D03*
X151500000Y-138600000D03*
X176000000Y-136500000D03*
X201400000Y-106300000D03*
X185750000Y-106500000D03*
X156100000Y-135855000D03*
X156500000Y-98500000D03*
X178000000Y-127500000D03*
X124350000Y-126200000D03*
X196900000Y-98400000D03*
X193500000Y-106500000D03*
X161750000Y-106500000D03*
X148400000Y-136900000D03*
X141800000Y-135000000D03*
X154500000Y-106500000D03*
X155600000Y-121200000D03*
X168500000Y-134500000D03*
X182900000Y-92650000D03*
X148500000Y-139000000D03*
X181250000Y-105500000D03*
X147600000Y-136900000D03*
X140200000Y-135000000D03*
X198100000Y-99800000D03*
X168250000Y-102250000D03*
X155300000Y-124100000D03*
X164250000Y-105000000D03*
X159000000Y-108000000D03*
X175000000Y-140000000D03*
X196923500Y-99100000D03*
X201400000Y-99800000D03*
X168250000Y-103250000D03*
X205500000Y-92250000D03*
X141000000Y-146000000D03*
X199000000Y-97250000D03*
X150800000Y-145300000D03*
X156500000Y-102500000D03*
X201400000Y-100800000D03*
X197200000Y-125800000D03*
X192300000Y-98800000D03*
X175500000Y-127500000D03*
X169600000Y-99500000D03*
X205000000Y-113600000D03*
X191000000Y-137250000D03*
X201400000Y-107800000D03*
X196200000Y-99100000D03*
X159000000Y-106500000D03*
X189000000Y-111000000D03*
X147500000Y-138000000D03*
X181750000Y-137250000D03*
X180340000Y-113030000D03*
X181750000Y-96500000D03*
X154500000Y-103500000D03*
X199000000Y-96000000D03*
X186750000Y-105500000D03*
X205000000Y-117900000D03*
X193000000Y-119500000D03*
X152500000Y-136900000D03*
X143000000Y-146000000D03*
X189250000Y-144250000D03*
X190000000Y-109500000D03*
X197200000Y-119550000D03*
X167000000Y-124000000D03*
X168250000Y-105500000D03*
X154400000Y-110600000D03*
X160000000Y-96000000D03*
X195100000Y-99100000D03*
X154500000Y-105000000D03*
X180340000Y-115570000D03*
X169000000Y-96000000D03*
X172720000Y-124460000D03*
X189250000Y-137250000D03*
X200500000Y-96000000D03*
X151500000Y-135800000D03*
X185000000Y-137250000D03*
X198100000Y-99075000D03*
X199500000Y-108600000D03*
X176500000Y-83000000D03*
X176500000Y-90000000D03*
X180340000Y-124460000D03*
X165000000Y-96000000D03*
X200000000Y-120100000D03*
X173000000Y-128500000D03*
X123250000Y-126250000D03*
X178250000Y-83000000D03*
X158750000Y-125300000D03*
X168910000Y-115570000D03*
X205500000Y-96000000D03*
X199200000Y-112000000D03*
X185500000Y-83000000D03*
X184000000Y-83000000D03*
X155050000Y-122600000D03*
X178000000Y-134500000D03*
X176503999Y-139991677D03*
X156500000Y-96000000D03*
D22*
X155600000Y-96000000D03*
D21*
X176500000Y-85000000D03*
X172720000Y-110490000D03*
X189000000Y-124000000D03*
X176250000Y-97000000D03*
X182000000Y-105500000D03*
X186750000Y-83000000D03*
X122700000Y-124900000D03*
X185750000Y-105500000D03*
X181750000Y-100500000D03*
X170400000Y-99500000D03*
X156500000Y-101500000D03*
X205000000Y-134000000D03*
X123400000Y-125150000D03*
X155300000Y-135855000D03*
X200000000Y-110600000D03*
X153500000Y-138500000D03*
X150600000Y-141800000D03*
X153500000Y-135855000D03*
X154400000Y-138600000D03*
X156600000Y-128900000D03*
X182500000Y-88750000D03*
X161750000Y-108000000D03*
X163750000Y-142250000D03*
X192900000Y-99700000D03*
X156500000Y-114250000D03*
X168500000Y-146000000D03*
X181750000Y-92750000D03*
X163500000Y-96000000D03*
X193000000Y-106250000D03*
X194250000Y-108500000D03*
X202250000Y-94250000D03*
X188000000Y-105500000D03*
X182500000Y-85250000D03*
X197200000Y-123900000D03*
X189450000Y-108700000D03*
X205500000Y-102000000D03*
X180000000Y-83000000D03*
X158500000Y-146000000D03*
X194400000Y-130200000D03*
X179070000Y-124460000D03*
D22*
X154700000Y-98000000D03*
D21*
X152400000Y-145300000D03*
X178500000Y-136500000D03*
X190200000Y-88250000D03*
X197200000Y-127600000D03*
X157000000Y-136900000D03*
X177000000Y-146500000D03*
X171250000Y-106500000D03*
X182500000Y-84250000D03*
X143000000Y-142500000D03*
X205500000Y-94250000D03*
X200000000Y-111300000D03*
X156500000Y-100000000D03*
X181750000Y-99586472D03*
X200000000Y-115700000D03*
X168250000Y-104250000D03*
X148500000Y-140000000D03*
X200400000Y-99100000D03*
X154700000Y-142500000D03*
X155500000Y-142500000D03*
X182750000Y-106500000D03*
X186000000Y-131000000D03*
X172720000Y-119380000D03*
X146600000Y-141600000D03*
X193500000Y-108500000D03*
X191600000Y-98800000D03*
X170000000Y-129000000D03*
X205000000Y-140000000D03*
D22*
X154800000Y-95600000D03*
D21*
X199000000Y-93250000D03*
X201800000Y-125900000D03*
X163500000Y-136000000D03*
X184500000Y-113000000D03*
X150000000Y-145300000D03*
X143000000Y-144500000D03*
X195600000Y-106100000D03*
X170000000Y-124000000D03*
X154500000Y-115000000D03*
X171000000Y-140000000D03*
D22*
X154800000Y-99700000D03*
D21*
X147200000Y-145400000D03*
X168000000Y-136500000D03*
X156200000Y-125050000D03*
X147300000Y-141600000D03*
X197500000Y-93250000D03*
X153500000Y-136900000D03*
X162000000Y-96000000D03*
X194000000Y-124000000D03*
X172500000Y-106500000D03*
X156100000Y-136900000D03*
X156500000Y-105000000D03*
X161750000Y-115000000D03*
X197200000Y-114950000D03*
X195100000Y-98400000D03*
X190000000Y-113000000D03*
X201900000Y-119800000D03*
X194400000Y-128500000D03*
X186750000Y-144250000D03*
X178500000Y-144250000D03*
X205000000Y-114700000D03*
X200000000Y-114600000D03*
X200000000Y-109200000D03*
X197500000Y-94250000D03*
X197200000Y-123000000D03*
X187300000Y-88250000D03*
X177800000Y-113030000D03*
X189000000Y-109500000D03*
X176500000Y-91000000D03*
X182000000Y-106500000D03*
X161750000Y-110000000D03*
X181750000Y-93500000D03*
X171800000Y-99500000D03*
X187250000Y-137250000D03*
X189000000Y-113000000D03*
X205500000Y-109750000D03*
X176500000Y-89000000D03*
X154500000Y-108000000D03*
X164250000Y-106500000D03*
X152550000Y-138450000D03*
X172720000Y-113030000D03*
X198100000Y-98400000D03*
X181750000Y-94500000D03*
X188000000Y-106500000D03*
X159500000Y-144000000D03*
X200500000Y-93250000D03*
X173500000Y-98600000D03*
X159000000Y-116000000D03*
X168910000Y-110490000D03*
X186750000Y-106500000D03*
X122750000Y-123850000D03*
X200000000Y-113400000D03*
X172700000Y-98600000D03*
X202250000Y-98000000D03*
X154800000Y-128800000D03*
X162000000Y-137500000D03*
X151000000Y-146000000D03*
X180500000Y-134500000D03*
X146500000Y-146000000D03*
X188000000Y-128500000D03*
X193500000Y-109250000D03*
X161750000Y-105000000D03*
X189000000Y-115500000D03*
X141800000Y-134300000D03*
X150700000Y-138600000D03*
X155300000Y-136900000D03*
X175250000Y-106500000D03*
X155500000Y-146000000D03*
X200500000Y-92250000D03*
X161000000Y-146000000D03*
X171100000Y-99500000D03*
X192000000Y-124000000D03*
X197500000Y-92250000D03*
X186500000Y-111000000D03*
X155800000Y-129600000D03*
X178500000Y-106500000D03*
X173000000Y-127500000D03*
X154500000Y-102500000D03*
X194400000Y-129300000D03*
X123750000Y-125750000D03*
X152400000Y-141900000D03*
X141000000Y-144500000D03*
X202250000Y-92250000D03*
X159250000Y-121000000D03*
X201900000Y-120900000D03*
X154500000Y-116500000D03*
X168250000Y-106500000D03*
X168500000Y-125500000D03*
X181000000Y-100500000D03*
X182000000Y-134500000D03*
X141000000Y-142500000D03*
X199000000Y-92250000D03*
X192900000Y-98800000D03*
X190500000Y-117500000D03*
D22*
X179037500Y-141437500D03*
D21*
X173000000Y-130000000D03*
X182750000Y-137250000D03*
X154800000Y-127300000D03*
X179750000Y-144250000D03*
X153100000Y-143850000D03*
X191500000Y-127500000D03*
X171000000Y-128000000D03*
X159000000Y-105000000D03*
X159000000Y-112250000D03*
X158000000Y-142500000D03*
X176750000Y-105750000D03*
X177500000Y-130000000D03*
X197200000Y-130200000D03*
X159000000Y-110000000D03*
X166500000Y-146000000D03*
X205000000Y-142000000D03*
X190000000Y-111000000D03*
X202250000Y-96000000D03*
X200500000Y-94250000D03*
X174000000Y-105500000D03*
X161750000Y-112250000D03*
X176530000Y-124460000D03*
X179000000Y-99000000D03*
X186500000Y-115500000D03*
X160000000Y-139500000D03*
X184500000Y-119500000D03*
X170250000Y-106500000D03*
X181750000Y-97500000D03*
X161750000Y-128000000D03*
X173750000Y-106500000D03*
X149900000Y-135100000D03*
X192250000Y-142250000D03*
X185400000Y-90150000D03*
X154300000Y-135855000D03*
X201850000Y-118900000D03*
X189300000Y-88250000D03*
X201400000Y-103300000D03*
X182500000Y-86250000D03*
X154500000Y-113500000D03*
X199000000Y-94250000D03*
X186750000Y-88750000D03*
X200000000Y-109900000D03*
X176500000Y-86000000D03*
X180340000Y-119380000D03*
X196200000Y-99800000D03*
X156500000Y-97000000D03*
X156200000Y-138600000D03*
X184500000Y-115500000D03*
X200400000Y-98400000D03*
X201900000Y-122300000D03*
X153100000Y-144400000D03*
X180000000Y-127500000D03*
X154300000Y-136900000D03*
X167000000Y-127500000D03*
X168250000Y-101250000D03*
X175500000Y-134500000D03*
X158000000Y-144000000D03*
X161750000Y-124750000D03*
X160100000Y-123350000D03*
X184750000Y-106500000D03*
X176500000Y-94000000D03*
X200000000Y-119050000D03*
D22*
%TO.N,Net-(U4-VIN)*%
X193365000Y-89200000D03*
X198400000Y-89100000D03*
%TO.N,Net-(D1-K)*%
X190600000Y-90300000D03*
X191100000Y-96500000D03*
%TO.N,+4V*%
X167600000Y-97200000D03*
X163750000Y-126750000D03*
X166500000Y-96700000D03*
X199250000Y-105500000D03*
X197500000Y-96900000D03*
X163750000Y-128000000D03*
X171500000Y-98395500D03*
X199200000Y-104600000D03*
%TO.N,+3.3VA*%
X146700000Y-134700000D03*
X149500000Y-144000000D03*
X147500000Y-144400000D03*
X151550000Y-141450000D03*
%TO.N,Net-(U5-FB)*%
X171400000Y-100594500D03*
X174700000Y-102800000D03*
%TO.N,+3V3*%
X180900000Y-88700000D03*
D21*
X193800000Y-116100000D03*
X183050000Y-114050000D03*
D22*
X192900000Y-140900000D03*
X144600000Y-136300000D03*
X158300000Y-97500000D03*
D21*
X205400000Y-127900000D03*
D22*
X120486286Y-129613714D03*
X168800000Y-144600000D03*
D21*
X205400000Y-121500000D03*
X182450000Y-114050000D03*
D22*
X160800000Y-141000000D03*
X186200000Y-138200000D03*
X180175000Y-99925000D03*
X182100000Y-83100000D03*
%TO.N,~{RESET}*%
X171800000Y-121500000D03*
X171800000Y-129013173D03*
%TO.N,GNDS*%
X165650000Y-87450000D03*
X162250000Y-92200000D03*
X165000000Y-93250000D03*
X165000000Y-84750000D03*
X165000000Y-82750000D03*
X165650000Y-85750000D03*
X157000000Y-92500000D03*
X159250000Y-93250000D03*
X156750000Y-87750000D03*
X171250000Y-88000000D03*
X162250000Y-93250000D03*
X167500000Y-93250000D03*
X171250000Y-91000000D03*
X171250000Y-82750000D03*
X163750000Y-93250000D03*
X171250000Y-85000000D03*
X157750000Y-93250000D03*
X166250000Y-93250000D03*
X170250000Y-82750000D03*
X156750000Y-86250000D03*
X171250000Y-89500000D03*
X171250000Y-83750000D03*
X171250000Y-86500000D03*
X171250000Y-92500000D03*
%TO.N,Net-(U7-VBUS1)*%
X160400000Y-86510000D03*
X160400000Y-90400000D03*
X167750000Y-82750000D03*
X169000000Y-82750000D03*
%TO.N,AC_LIVE_IN*%
X126500000Y-95500000D03*
X117000000Y-86500000D03*
X112500000Y-91000000D03*
X114000000Y-91000000D03*
X119000000Y-91000000D03*
X125000000Y-86500000D03*
X109500000Y-95500000D03*
X123000000Y-86500000D03*
X125000000Y-94000000D03*
X106500000Y-91000000D03*
X119000000Y-88000000D03*
X119000000Y-94000000D03*
X111500000Y-89500000D03*
X109500000Y-94000000D03*
X117000000Y-94000000D03*
X123000000Y-91000000D03*
X119000000Y-89500000D03*
X121000000Y-91000000D03*
X117000000Y-95500000D03*
X128000000Y-94000000D03*
X123000000Y-88000000D03*
X119000000Y-92500000D03*
X111500000Y-92500000D03*
X121000000Y-94000000D03*
X111500000Y-86500000D03*
X117000000Y-91000000D03*
X121000000Y-86500000D03*
X111500000Y-88000000D03*
X115500000Y-91000000D03*
X111000000Y-91000000D03*
X111500000Y-95500000D03*
X109500000Y-88000000D03*
X119000000Y-95500000D03*
X117000000Y-88000000D03*
X121000000Y-88000000D03*
X123000000Y-94000000D03*
X109500000Y-91000000D03*
X125000000Y-95500000D03*
X109500000Y-92500000D03*
X117000000Y-92500000D03*
X119000000Y-86500000D03*
X121000000Y-92500000D03*
X123000000Y-89500000D03*
X128000000Y-95500000D03*
X109500000Y-91000000D03*
X121000000Y-95500000D03*
X123000000Y-95500000D03*
X123000000Y-92500000D03*
X121000000Y-89500000D03*
X126500000Y-94000000D03*
X108000000Y-91000000D03*
X109500000Y-89500000D03*
X111500000Y-94000000D03*
X109500000Y-86500000D03*
X117000000Y-89500000D03*
%TO.N,AC_NEUTRAL_IN*%
X125000000Y-57500000D03*
X111500000Y-60500000D03*
X109500000Y-58500000D03*
X117500000Y-62500000D03*
X123500000Y-62500000D03*
X123500000Y-60500000D03*
X123500000Y-58500000D03*
X121500000Y-56500000D03*
X111500000Y-64000000D03*
X127000000Y-56000000D03*
X127000000Y-57500000D03*
X121500000Y-64000000D03*
X123500000Y-56500000D03*
X123500000Y-64000000D03*
X119500000Y-60500000D03*
X117500000Y-64000000D03*
X130000000Y-59500000D03*
X109500000Y-64000000D03*
X111500000Y-62500000D03*
X117500000Y-58500000D03*
X106500000Y-60000000D03*
X125000000Y-56000000D03*
X119500000Y-58500000D03*
X121500000Y-58500000D03*
X109500000Y-56500000D03*
X130000000Y-64000000D03*
X111500000Y-58500000D03*
X119500000Y-62500000D03*
X111500000Y-56500000D03*
X113500000Y-60000000D03*
X119500000Y-56500000D03*
X116000000Y-60000000D03*
X130000000Y-56000000D03*
X125500000Y-64000000D03*
X130000000Y-57500000D03*
X121500000Y-60500000D03*
X108500000Y-60000000D03*
X127500000Y-64000000D03*
X121500000Y-62500000D03*
X109500000Y-62500000D03*
X109500000Y-60500000D03*
X117500000Y-60500000D03*
X130000000Y-61500000D03*
X117500000Y-56500000D03*
X119500000Y-64000000D03*
%TO.N,Net-(J4-Pad1)*%
X111000000Y-132500000D03*
X111000000Y-137000000D03*
X111000000Y-131000000D03*
X111000000Y-146000000D03*
X111000000Y-140500000D03*
X111000000Y-142600000D03*
X111000000Y-144500000D03*
X111000000Y-135500000D03*
X111000000Y-139000000D03*
X111000000Y-134000000D03*
%TO.N,AC_NEUTRAL_OUT*%
X112000000Y-78000000D03*
X123500000Y-76000000D03*
X131500000Y-74000000D03*
X133500000Y-80000000D03*
X133500000Y-81500000D03*
X117500000Y-78000000D03*
X129500000Y-74000000D03*
X117500000Y-72000000D03*
X110000000Y-81500000D03*
X133500000Y-76000000D03*
X119500000Y-78000000D03*
X110000000Y-80000000D03*
X131500000Y-76000000D03*
X131500000Y-74000000D03*
X117500000Y-76000000D03*
X127500000Y-72000000D03*
X117500000Y-74000000D03*
X116000000Y-76000000D03*
X125500000Y-72000000D03*
X112000000Y-81500000D03*
X110000000Y-78000000D03*
X125500000Y-74000000D03*
X127500000Y-74000000D03*
X123500000Y-81500000D03*
X112000000Y-76000000D03*
X119500000Y-80000000D03*
X127500000Y-76000000D03*
X131500000Y-76000000D03*
X123500000Y-74000000D03*
X110000000Y-72000000D03*
X108000000Y-76000000D03*
X133500000Y-72000000D03*
X125500000Y-76000000D03*
X125500000Y-80000000D03*
X119500000Y-81500000D03*
X108000000Y-81500000D03*
X125500000Y-78000000D03*
X116000000Y-81500000D03*
X119500000Y-72000000D03*
X123500000Y-72000000D03*
X110000000Y-76000000D03*
X114000000Y-76000000D03*
X133500000Y-74000000D03*
X106500000Y-76000000D03*
X121500000Y-81500000D03*
X123500000Y-78000000D03*
X123500000Y-80000000D03*
X119500000Y-76000000D03*
X121500000Y-74000000D03*
X112000000Y-72000000D03*
X119500000Y-74000000D03*
X117500000Y-80000000D03*
X106500000Y-81500000D03*
X110000000Y-74000000D03*
X117500000Y-81500000D03*
X121500000Y-72000000D03*
X131500000Y-72000000D03*
X114000000Y-81500000D03*
X121500000Y-80000000D03*
X129500000Y-76000000D03*
X131500000Y-72000000D03*
X121500000Y-78000000D03*
X133500000Y-78000000D03*
X125500000Y-81500000D03*
X121500000Y-76000000D03*
X112000000Y-74000000D03*
X129500000Y-72000000D03*
X112000000Y-80000000D03*
%TO.N,AC_SENSOR_LIVE_OUT*%
X106000000Y-115000000D03*
X119500000Y-106000000D03*
X113500000Y-107500000D03*
X109500000Y-109000000D03*
X111500000Y-115000000D03*
X119500000Y-112000000D03*
X111500000Y-112000000D03*
X109500000Y-106000000D03*
X106000000Y-106000000D03*
X111500000Y-109000000D03*
X115500000Y-112000000D03*
X106000000Y-104500000D03*
X106000000Y-112000000D03*
X111500000Y-104500000D03*
X113500000Y-115000000D03*
X111500000Y-107500000D03*
X117500000Y-103000000D03*
X109500000Y-104500000D03*
X109500000Y-112000000D03*
X113500000Y-113500000D03*
X117500000Y-106000000D03*
X119500000Y-109000000D03*
X111500000Y-113500000D03*
X119500000Y-103000000D03*
X107500000Y-113500000D03*
X119500000Y-107500000D03*
X113500000Y-106000000D03*
X109500000Y-107500000D03*
X113500000Y-112000000D03*
X113500000Y-103000000D03*
X111500000Y-103000000D03*
X106000000Y-113500000D03*
X109500000Y-115000000D03*
X106000000Y-110500000D03*
X106000000Y-109000000D03*
X107500000Y-107500000D03*
X119500000Y-110500000D03*
X106000000Y-107500000D03*
X115500000Y-107500000D03*
X107500000Y-115000000D03*
X117500000Y-107500000D03*
X119500000Y-104500000D03*
X111500000Y-106000000D03*
X115500000Y-103000000D03*
X106000000Y-103000000D03*
X109500000Y-113500000D03*
X109500000Y-110500000D03*
X115500000Y-106000000D03*
X111500000Y-110500000D03*
X109500000Y-103000000D03*
X117500000Y-104500000D03*
X117500000Y-110500000D03*
X107500000Y-112000000D03*
X117500000Y-109000000D03*
X117500000Y-112000000D03*
%TO.N,Net-(J9-SWDIO{slash}TMS)*%
X199050000Y-127500000D03*
X199062299Y-125855500D03*
%TO.N,AC_SENSOR_LIVE_IN*%
X123000000Y-110500000D03*
X121000000Y-112000000D03*
X129000000Y-115000000D03*
X127000000Y-112000000D03*
X127000000Y-115000000D03*
X125000000Y-106000000D03*
X133000000Y-107500000D03*
X123000000Y-106000000D03*
X125000000Y-109000000D03*
X131000000Y-113500000D03*
X133000000Y-110500000D03*
X123000000Y-104500000D03*
X133000000Y-106000000D03*
X129000000Y-104500000D03*
X127000000Y-109000000D03*
X129000000Y-103000000D03*
X127000000Y-103000000D03*
X133000000Y-113500000D03*
X125000000Y-110500000D03*
X131000000Y-112000000D03*
X123000000Y-112000000D03*
X123000000Y-107500000D03*
X121000000Y-109000000D03*
X133000000Y-112000000D03*
X125000000Y-107500000D03*
X129000000Y-106000000D03*
X127000000Y-110500000D03*
X127000000Y-106000000D03*
X133000000Y-103000000D03*
X121000000Y-104500000D03*
X121000000Y-103000000D03*
X125000000Y-112000000D03*
X123000000Y-109000000D03*
X131000000Y-106000000D03*
X125000000Y-104500000D03*
X125000000Y-103000000D03*
X133000000Y-109000000D03*
X129000000Y-113500000D03*
X131000000Y-103000000D03*
X127000000Y-107500000D03*
X121000000Y-110500000D03*
X129000000Y-112000000D03*
X123000000Y-103000000D03*
X121000000Y-107500000D03*
X127000000Y-104500000D03*
X127000000Y-113500000D03*
X133000000Y-104500000D03*
X121000000Y-106000000D03*
X131000000Y-104500000D03*
%TO.N,DCDC_MODE*%
X201850000Y-118000000D03*
D21*
X170250000Y-96250000D03*
D22*
%TO.N,/MSOM/USB_P*%
X182960431Y-91698719D03*
X201327175Y-115805000D03*
%TO.N,/MSOM/USB_N*%
X201327175Y-116855000D03*
X183000000Y-90700000D03*
%TO.N,I2C_SCL*%
X193100000Y-118073500D03*
X118295000Y-124900000D03*
%TO.N,I2C_SDA*%
X194100000Y-118800000D03*
X119565000Y-125000000D03*
%TO.N,Net-(U6A-ADC6)*%
X117000000Y-126549500D03*
X201700000Y-123600000D03*
%TO.N,Net-(U6A-ADC7)*%
X115800000Y-126574500D03*
X201593822Y-124733606D03*
%TO.N,CURRENT_ADC*%
X204200000Y-120200000D03*
X145800000Y-143600000D03*
%TO.N,/MSOM/U_P*%
X164343405Y-91675000D03*
X163451673Y-88025501D03*
%TO.N,/MSOM/U_N*%
X159050000Y-88090000D03*
X163449957Y-89025002D03*
X164343405Y-90625000D03*
%TD*%
D23*
%TO.N,Net-(U4-VIN)*%
X193465000Y-89100000D02*
X193365000Y-89200000D01*
X198400000Y-89100000D02*
X193465000Y-89100000D01*
%TO.N,Net-(D1-K)*%
X190600000Y-96000000D02*
X190600000Y-90300000D01*
X191100000Y-96500000D02*
X190600000Y-96000000D01*
D24*
%TO.N,+4V*%
X170304500Y-97200000D02*
X171500000Y-98395500D01*
X167600000Y-97200000D02*
X170304500Y-97200000D01*
D23*
X197500000Y-96900000D02*
X197500000Y-102900000D01*
X197500000Y-102900000D02*
X199200000Y-104600000D01*
D24*
%TO.N,Net-(U5-FB)*%
X174700000Y-102800000D02*
X172400000Y-102800000D01*
X171400000Y-101800000D02*
X171400000Y-100594500D01*
X172400000Y-102800000D02*
X171400000Y-101800000D01*
D25*
%TO.N,~{RESET}*%
X171800000Y-129013173D02*
X171800000Y-121500000D01*
%TO.N,Net-(J9-SWDIO{slash}TMS)*%
X199050000Y-127500000D02*
X199062299Y-127487701D01*
X199062299Y-127487701D02*
X199062299Y-125855500D01*
D23*
%TO.N,DCDC_MODE*%
X192100000Y-108783998D02*
X179566002Y-96250000D01*
X200909868Y-117609868D02*
X201300000Y-118000000D01*
X179566002Y-96250000D02*
X170250000Y-96250000D01*
X201450000Y-117600000D02*
X196500000Y-117600000D01*
X192100000Y-113200000D02*
X192100000Y-108783998D01*
X201300000Y-118000000D02*
X201850000Y-118000000D01*
X200909868Y-117593866D02*
X200909868Y-117609868D01*
X196500000Y-117600000D02*
X192100000Y-113200000D01*
X201850000Y-118000000D02*
X201450000Y-117600000D01*
D26*
%TO.N,/MSOM/USB_P*%
X185825000Y-92043200D02*
X185825000Y-97293200D01*
X203175000Y-111193200D02*
X203175000Y-115356800D01*
X202426801Y-116104999D02*
X201627174Y-116104999D01*
X203175000Y-115356800D02*
X202426801Y-116104999D01*
X185825000Y-97293200D02*
X191206800Y-102675000D01*
X185206800Y-91425000D02*
X185825000Y-92043200D01*
X182960431Y-91698719D02*
X183234150Y-91425000D01*
X201627174Y-116104999D02*
X201327175Y-115805000D01*
X191206800Y-102675000D02*
X194656800Y-102675000D01*
X183234150Y-91425000D02*
X185206800Y-91425000D01*
X194656800Y-102675000D02*
X203175000Y-111193200D01*
%TO.N,/MSOM/USB_N*%
X185393200Y-90975000D02*
X186275000Y-91856800D01*
X186275000Y-91856800D02*
X186275000Y-97106800D01*
X186275000Y-97106800D02*
X191393200Y-102225000D01*
X183000000Y-90700000D02*
X183275000Y-90975000D01*
X202613199Y-116555001D02*
X201627174Y-116555001D01*
X191393200Y-102225000D02*
X194843200Y-102225000D01*
X203625000Y-111006800D02*
X203625000Y-115543200D01*
X194843200Y-102225000D02*
X203625000Y-111006800D01*
X201627174Y-116555001D02*
X201327175Y-116855000D01*
X203625000Y-115543200D02*
X202613199Y-116555001D01*
X183275000Y-90975000D02*
X185393200Y-90975000D01*
D23*
%TO.N,I2C_SCL*%
X126700000Y-131100000D02*
X177500000Y-131100000D01*
X118295000Y-124900000D02*
X118295000Y-124805000D01*
X118295000Y-124805000D02*
X118827000Y-124273000D01*
X190500000Y-118100000D02*
X193100000Y-118100000D01*
X119873000Y-124273000D02*
X126700000Y-131100000D01*
X193100000Y-118100000D02*
X193100000Y-118073500D01*
X177500000Y-131100000D02*
X190500000Y-118100000D01*
X118827000Y-124273000D02*
X119873000Y-124273000D01*
%TO.N,I2C_SDA*%
X177708000Y-131592000D02*
X190500000Y-118800000D01*
X119957948Y-125000000D02*
X126549948Y-131592000D01*
X190500000Y-118800000D02*
X194100000Y-118800000D01*
X119565000Y-125000000D02*
X119957948Y-125000000D01*
X126549948Y-131592000D02*
X177708000Y-131592000D01*
%TO.N,Net-(U6A-ADC6)*%
X190000000Y-124600000D02*
X182554000Y-132046000D01*
X126346000Y-132046000D02*
X121122500Y-126822500D01*
X182554000Y-132046000D02*
X126346000Y-132046000D01*
X117273000Y-126822500D02*
X117000000Y-126549500D01*
X200700000Y-124600000D02*
X190000000Y-124600000D01*
X201700000Y-123600000D02*
X200700000Y-124600000D01*
X121122500Y-126822500D02*
X117273000Y-126822500D01*
%TO.N,Net-(U6A-ADC7)*%
X116502000Y-127276500D02*
X115800000Y-126574500D01*
X120934448Y-127276500D02*
X116502000Y-127276500D01*
X126157948Y-132500000D02*
X120934448Y-127276500D01*
X190200000Y-125100000D02*
X182800000Y-132500000D01*
X201593822Y-124733606D02*
X201227428Y-125100000D01*
X182800000Y-132500000D02*
X126157948Y-132500000D01*
X115996866Y-126574500D02*
X115800000Y-126574500D01*
X201227428Y-125100000D02*
X190200000Y-125100000D01*
D25*
%TO.N,CURRENT_ADC*%
X146200000Y-143200000D02*
X145800000Y-143600000D01*
X204200000Y-140300000D02*
X201300000Y-143200000D01*
X201300000Y-143200000D02*
X146200000Y-143200000D01*
X204200000Y-120200000D02*
X204200000Y-140300000D01*
D26*
%TO.N,/MSOM/U_P*%
X166243200Y-91375000D02*
X164643405Y-91375000D01*
X166493200Y-88275000D02*
X167125000Y-88906800D01*
X167125000Y-90493200D02*
X166243200Y-91375000D01*
X163701172Y-88275000D02*
X166493200Y-88275000D01*
X164643405Y-91375000D02*
X164343405Y-91675000D01*
X167125000Y-88906800D02*
X167125000Y-90493200D01*
X163451673Y-88025501D02*
X163701172Y-88275000D01*
%TO.N,/MSOM/U_N*%
X159685001Y-88725001D02*
X163400000Y-88725001D01*
X166675000Y-90306800D02*
X166675000Y-89093200D01*
X166306800Y-88725000D02*
X163400000Y-88725001D01*
X166675000Y-89093200D02*
X166306800Y-88725000D01*
X159050000Y-88090000D02*
X159685001Y-88725001D01*
X163449957Y-89025002D02*
X163449957Y-88774958D01*
X164643405Y-90925000D02*
X166056800Y-90925000D01*
X163449957Y-88774958D02*
X163400000Y-88725001D01*
X164343405Y-90625000D02*
X164643405Y-90925000D01*
X166056800Y-90925000D02*
X166675000Y-90306800D01*
%TD*%
%TA.AperFunction,Conductor*%
%TO.N,AC_LIVE_IN*%
G36*
X129443039Y-86019685D02*
G01*
X129488794Y-86072489D01*
X129500000Y-86124000D01*
X129500000Y-96376000D01*
X129480315Y-96443039D01*
X129427511Y-96488794D01*
X129376000Y-96500000D01*
X105624000Y-96500000D01*
X105556961Y-96480315D01*
X105511206Y-96427511D01*
X105500000Y-96376000D01*
X105500000Y-86124000D01*
X105519685Y-86056961D01*
X105572489Y-86011206D01*
X105624000Y-86000000D01*
X129376000Y-86000000D01*
X129443039Y-86019685D01*
G37*
%TD.AperFunction*%
%TD*%
%TA.AperFunction,Conductor*%
%TO.N,AC_SENSOR_LIVE_OUT*%
G36*
X119937539Y-102519685D02*
G01*
X119983294Y-102572489D01*
X119994500Y-102624000D01*
X119994500Y-115876000D01*
X119974815Y-115943039D01*
X119922011Y-115988794D01*
X119870500Y-116000000D01*
X115524000Y-116000000D01*
X115456961Y-115980315D01*
X115411206Y-115927511D01*
X115400000Y-115876000D01*
X115400000Y-113200000D01*
X114600000Y-113200000D01*
X114600000Y-115876000D01*
X114580315Y-115943039D01*
X114527511Y-115988794D01*
X114476000Y-116000000D01*
X105624000Y-116000000D01*
X105556961Y-115980315D01*
X105511206Y-115927511D01*
X105500000Y-115876000D01*
X105500000Y-102624000D01*
X105519685Y-102556961D01*
X105572489Y-102511206D01*
X105624000Y-102500000D01*
X119870500Y-102500000D01*
X119937539Y-102519685D01*
G37*
%TD.AperFunction*%
%TD*%
%TA.AperFunction,Conductor*%
%TO.N,AC_NEUTRAL_IN*%
G36*
X130443039Y-55519685D02*
G01*
X130488794Y-55572489D01*
X130500000Y-55624000D01*
X130500000Y-64376000D01*
X130480315Y-64443039D01*
X130427511Y-64488794D01*
X130376000Y-64500000D01*
X105624000Y-64500000D01*
X105556961Y-64480315D01*
X105511206Y-64427511D01*
X105500000Y-64376000D01*
X105500000Y-55624000D01*
X105519685Y-55556961D01*
X105572489Y-55511206D01*
X105624000Y-55500000D01*
X130376000Y-55500000D01*
X130443039Y-55519685D01*
G37*
%TD.AperFunction*%
%TD*%
%TA.AperFunction,Conductor*%
%TO.N,Net-(J4-Pad1)*%
G36*
X117043039Y-129719685D02*
G01*
X117088794Y-129772489D01*
X117100000Y-129824000D01*
X117100000Y-146776000D01*
X117080315Y-146843039D01*
X117027511Y-146888794D01*
X116976000Y-146900000D01*
X105624000Y-146900000D01*
X105556961Y-146880315D01*
X105511206Y-146827511D01*
X105500000Y-146776000D01*
X105500000Y-129824000D01*
X105519685Y-129756961D01*
X105572489Y-129711206D01*
X105624000Y-129700000D01*
X116976000Y-129700000D01*
X117043039Y-129719685D01*
G37*
%TD.AperFunction*%
%TD*%
%TA.AperFunction,Conductor*%
%TO.N,GNDA*%
G36*
X206193039Y-82219685D02*
G01*
X206238794Y-82272489D01*
X206250000Y-82324000D01*
X206250000Y-142698638D01*
X206230315Y-142765677D01*
X206213681Y-142786319D01*
X202286319Y-146713681D01*
X202224996Y-146747166D01*
X202198638Y-146750000D01*
X154000000Y-146750000D01*
X154000000Y-144600001D01*
X168194318Y-144600001D01*
X168214955Y-144756760D01*
X168214956Y-144756762D01*
X168275464Y-144902841D01*
X168371718Y-145028282D01*
X168497159Y-145124536D01*
X168643238Y-145185044D01*
X168721619Y-145195363D01*
X168799999Y-145205682D01*
X168800000Y-145205682D01*
X168800001Y-145205682D01*
X168852254Y-145198802D01*
X168956762Y-145185044D01*
X169102841Y-145124536D01*
X169228282Y-145028282D01*
X169324536Y-144902841D01*
X169385044Y-144756762D01*
X169405682Y-144600000D01*
X169385044Y-144443238D01*
X169324536Y-144297159D01*
X169228282Y-144171718D01*
X169102841Y-144075464D01*
X168956762Y-144014956D01*
X168956760Y-144014955D01*
X168800001Y-143994318D01*
X168799999Y-143994318D01*
X168643239Y-144014955D01*
X168643237Y-144014956D01*
X168497160Y-144075463D01*
X168371718Y-144171718D01*
X168275463Y-144297160D01*
X168214956Y-144443237D01*
X168214955Y-144443239D01*
X168194318Y-144599998D01*
X168194318Y-144600001D01*
X154000000Y-144600001D01*
X154000000Y-143525500D01*
X201283078Y-143525500D01*
X201288481Y-143525735D01*
X201328807Y-143529264D01*
X201367940Y-143518777D01*
X201373162Y-143517619D01*
X201413045Y-143510588D01*
X201413050Y-143510584D01*
X201418099Y-143508747D01*
X201434824Y-143501819D01*
X201439681Y-143499554D01*
X201439684Y-143499554D01*
X201472841Y-143476335D01*
X201477390Y-143473438D01*
X201512455Y-143453194D01*
X201538481Y-143422176D01*
X201542122Y-143418202D01*
X204418210Y-140542115D01*
X204422172Y-140538484D01*
X204453194Y-140512455D01*
X204473444Y-140477379D01*
X204476328Y-140472852D01*
X204499554Y-140439684D01*
X204499554Y-140439681D01*
X204501819Y-140434824D01*
X204508747Y-140418099D01*
X204510587Y-140413046D01*
X204510588Y-140413045D01*
X204517621Y-140373150D01*
X204518777Y-140367937D01*
X204529263Y-140328807D01*
X204525735Y-140288489D01*
X204525500Y-140283086D01*
X204525500Y-127900000D01*
X204944867Y-127900000D01*
X204963302Y-128028225D01*
X204989251Y-128085044D01*
X205017118Y-128146063D01*
X205101951Y-128243967D01*
X205210931Y-128314004D01*
X205335225Y-128350499D01*
X205335227Y-128350500D01*
X205335228Y-128350500D01*
X205464773Y-128350500D01*
X205464773Y-128350499D01*
X205589069Y-128314004D01*
X205698049Y-128243967D01*
X205782882Y-128146063D01*
X205836697Y-128028226D01*
X205855133Y-127900000D01*
X205836697Y-127771774D01*
X205782882Y-127653937D01*
X205698049Y-127556033D01*
X205589069Y-127485996D01*
X205589065Y-127485994D01*
X205589064Y-127485994D01*
X205464774Y-127449500D01*
X205464772Y-127449500D01*
X205335228Y-127449500D01*
X205335226Y-127449500D01*
X205210935Y-127485994D01*
X205210932Y-127485995D01*
X205210931Y-127485996D01*
X205189139Y-127500001D01*
X205101950Y-127556033D01*
X205017118Y-127653937D01*
X205017117Y-127653938D01*
X204963302Y-127771774D01*
X204944867Y-127900000D01*
X204525500Y-127900000D01*
X204525500Y-121500000D01*
X204944867Y-121500000D01*
X204963302Y-121628225D01*
X204976334Y-121656760D01*
X205017118Y-121746063D01*
X205101951Y-121843967D01*
X205210931Y-121914004D01*
X205259559Y-121928282D01*
X205335225Y-121950499D01*
X205335227Y-121950500D01*
X205335228Y-121950500D01*
X205464773Y-121950500D01*
X205464773Y-121950499D01*
X205589069Y-121914004D01*
X205698049Y-121843967D01*
X205782882Y-121746063D01*
X205836697Y-121628226D01*
X205855133Y-121500000D01*
X205836697Y-121371774D01*
X205782882Y-121253937D01*
X205698049Y-121156033D01*
X205589069Y-121085996D01*
X205589065Y-121085994D01*
X205589064Y-121085994D01*
X205464774Y-121049500D01*
X205464772Y-121049500D01*
X205335228Y-121049500D01*
X205335226Y-121049500D01*
X205210935Y-121085994D01*
X205210932Y-121085995D01*
X205210931Y-121085996D01*
X205159677Y-121118934D01*
X205101950Y-121156033D01*
X205017118Y-121253937D01*
X205017117Y-121253938D01*
X204963302Y-121371774D01*
X204944867Y-121500000D01*
X204525500Y-121500000D01*
X204525500Y-120768298D01*
X204545185Y-120701259D01*
X204574010Y-120669925D01*
X204628282Y-120628282D01*
X204724536Y-120502841D01*
X204785044Y-120356762D01*
X204805682Y-120200000D01*
X204785044Y-120043238D01*
X204724536Y-119897159D01*
X204628282Y-119771718D01*
X204502841Y-119675464D01*
X204356762Y-119614956D01*
X204356760Y-119614955D01*
X204200001Y-119594318D01*
X204199999Y-119594318D01*
X204043239Y-119614955D01*
X204043237Y-119614956D01*
X203897160Y-119675463D01*
X203771718Y-119771718D01*
X203675463Y-119897160D01*
X203614956Y-120043237D01*
X203614955Y-120043239D01*
X203594318Y-120199998D01*
X203594318Y-120200001D01*
X203614955Y-120356760D01*
X203614956Y-120356762D01*
X203675464Y-120502841D01*
X203771718Y-120628282D01*
X203825987Y-120669924D01*
X203867189Y-120726349D01*
X203874500Y-120768298D01*
X203874500Y-140113811D01*
X203854815Y-140180850D01*
X203838181Y-140201492D01*
X201201493Y-142838181D01*
X201140170Y-142871666D01*
X201113812Y-142874500D01*
X154000000Y-142874500D01*
X154000000Y-141000001D01*
X160194318Y-141000001D01*
X160214955Y-141156760D01*
X160214956Y-141156762D01*
X160275464Y-141302841D01*
X160371718Y-141428282D01*
X160497159Y-141524536D01*
X160643238Y-141585044D01*
X160721619Y-141595363D01*
X160799999Y-141605682D01*
X160800000Y-141605682D01*
X160800001Y-141605682D01*
X160852254Y-141598802D01*
X160956762Y-141585044D01*
X161102841Y-141524536D01*
X161228282Y-141428282D01*
X161324536Y-141302841D01*
X161385044Y-141156762D01*
X161405682Y-141000000D01*
X161392517Y-140900001D01*
X192294318Y-140900001D01*
X192314955Y-141056760D01*
X192314956Y-141056762D01*
X192356376Y-141156760D01*
X192375464Y-141202841D01*
X192471718Y-141328282D01*
X192597159Y-141424536D01*
X192743238Y-141485044D01*
X192821619Y-141495363D01*
X192899999Y-141505682D01*
X192900000Y-141505682D01*
X192900001Y-141505682D01*
X192952254Y-141498802D01*
X193056762Y-141485044D01*
X193202841Y-141424536D01*
X193328282Y-141328282D01*
X193424536Y-141202841D01*
X193485044Y-141056762D01*
X193505682Y-140900000D01*
X193498887Y-140848390D01*
X193485044Y-140743239D01*
X193485044Y-140743238D01*
X193424536Y-140597159D01*
X193328282Y-140471718D01*
X193202841Y-140375464D01*
X193197341Y-140373186D01*
X193056762Y-140314956D01*
X193056760Y-140314955D01*
X192900001Y-140294318D01*
X192899999Y-140294318D01*
X192743239Y-140314955D01*
X192743237Y-140314956D01*
X192597160Y-140375463D01*
X192471718Y-140471718D01*
X192375463Y-140597160D01*
X192314956Y-140743237D01*
X192314955Y-140743239D01*
X192294318Y-140899998D01*
X192294318Y-140900001D01*
X161392517Y-140900001D01*
X161385044Y-140843238D01*
X161324536Y-140697159D01*
X161228282Y-140571718D01*
X161102841Y-140475464D01*
X161101858Y-140475057D01*
X160956762Y-140414956D01*
X160956760Y-140414955D01*
X160800001Y-140394318D01*
X160799999Y-140394318D01*
X160643239Y-140414955D01*
X160643237Y-140414956D01*
X160497160Y-140475463D01*
X160371718Y-140571718D01*
X160275463Y-140697160D01*
X160214956Y-140843237D01*
X160214955Y-140843239D01*
X160194318Y-140999998D01*
X160194318Y-141000001D01*
X154000000Y-141000001D01*
X154000000Y-140067763D01*
X197615787Y-140067763D01*
X197645413Y-140337013D01*
X197645415Y-140337024D01*
X197713424Y-140597160D01*
X197713928Y-140599088D01*
X197819870Y-140848390D01*
X197912397Y-141000000D01*
X197960979Y-141079605D01*
X197960986Y-141079615D01*
X198134253Y-141287819D01*
X198134259Y-141287824D01*
X198335998Y-141468582D01*
X198561910Y-141618044D01*
X198807176Y-141733020D01*
X198807183Y-141733022D01*
X198807185Y-141733023D01*
X199066557Y-141811057D01*
X199066564Y-141811058D01*
X199066569Y-141811060D01*
X199334561Y-141850500D01*
X199334566Y-141850500D01*
X199537636Y-141850500D01*
X199589133Y-141846730D01*
X199740156Y-141835677D01*
X199852758Y-141810593D01*
X200004546Y-141776782D01*
X200004548Y-141776781D01*
X200004553Y-141776780D01*
X200257558Y-141680014D01*
X200493777Y-141547441D01*
X200708177Y-141381888D01*
X200896186Y-141186881D01*
X201053799Y-140966579D01*
X201168626Y-140743239D01*
X201177649Y-140725690D01*
X201177651Y-140725684D01*
X201177656Y-140725675D01*
X201265118Y-140469305D01*
X201314319Y-140202933D01*
X201324212Y-139932235D01*
X201294586Y-139662982D01*
X201226072Y-139400912D01*
X201120130Y-139151610D01*
X200979018Y-138920390D01*
X200889747Y-138813119D01*
X200805746Y-138712180D01*
X200805740Y-138712175D01*
X200604002Y-138531418D01*
X200378092Y-138381957D01*
X200324342Y-138356760D01*
X200132824Y-138266980D01*
X200132819Y-138266978D01*
X200132814Y-138266976D01*
X199873442Y-138188942D01*
X199873428Y-138188939D01*
X199757791Y-138171921D01*
X199605439Y-138149500D01*
X199402369Y-138149500D01*
X199402364Y-138149500D01*
X199199844Y-138164323D01*
X199199831Y-138164325D01*
X198935453Y-138223217D01*
X198935446Y-138223220D01*
X198682439Y-138319987D01*
X198446226Y-138452557D01*
X198231822Y-138618112D01*
X198043822Y-138813109D01*
X198043816Y-138813116D01*
X197886202Y-139033419D01*
X197886199Y-139033424D01*
X197762350Y-139274309D01*
X197762343Y-139274327D01*
X197674884Y-139530685D01*
X197674881Y-139530699D01*
X197625681Y-139797068D01*
X197625680Y-139797075D01*
X197615787Y-140067763D01*
X154000000Y-140067763D01*
X154000000Y-138200001D01*
X185594318Y-138200001D01*
X185614955Y-138356760D01*
X185614956Y-138356762D01*
X185675464Y-138502841D01*
X185771718Y-138628282D01*
X185897159Y-138724536D01*
X186043238Y-138785044D01*
X186121619Y-138795363D01*
X186199999Y-138805682D01*
X186200000Y-138805682D01*
X186200001Y-138805682D01*
X186252254Y-138798802D01*
X186356762Y-138785044D01*
X186502841Y-138724536D01*
X186628282Y-138628282D01*
X186724536Y-138502841D01*
X186785044Y-138356762D01*
X186802625Y-138223220D01*
X186805682Y-138200001D01*
X186805682Y-138199998D01*
X186785044Y-138043239D01*
X186785044Y-138043238D01*
X186724536Y-137897159D01*
X186628282Y-137771718D01*
X186502841Y-137675464D01*
X186356762Y-137614956D01*
X186356760Y-137614955D01*
X186200001Y-137594318D01*
X186199999Y-137594318D01*
X186043239Y-137614955D01*
X186043237Y-137614956D01*
X185897160Y-137675463D01*
X185771718Y-137771718D01*
X185675463Y-137897160D01*
X185614956Y-138043237D01*
X185614955Y-138043239D01*
X185594318Y-138199998D01*
X185594318Y-138200001D01*
X154000000Y-138200001D01*
X154000000Y-132951500D01*
X154019685Y-132884461D01*
X154072489Y-132838706D01*
X154124000Y-132827500D01*
X182782995Y-132827500D01*
X182788398Y-132827735D01*
X182828984Y-132831287D01*
X182833786Y-132830000D01*
X197004417Y-132830000D01*
X197024699Y-133035932D01*
X197024700Y-133035934D01*
X197084768Y-133233954D01*
X197182315Y-133416450D01*
X197182317Y-133416452D01*
X197313589Y-133576410D01*
X197410209Y-133655702D01*
X197473550Y-133707685D01*
X197656046Y-133805232D01*
X197854066Y-133865300D01*
X197854065Y-133865300D01*
X197892647Y-133869100D01*
X198008392Y-133880500D01*
X198008395Y-133880500D01*
X198111605Y-133880500D01*
X198111608Y-133880500D01*
X198265934Y-133865300D01*
X198463954Y-133805232D01*
X198646450Y-133707685D01*
X198806410Y-133576410D01*
X198937685Y-133416450D01*
X199035232Y-133233954D01*
X199095300Y-133035934D01*
X199115583Y-132830000D01*
X199095300Y-132624066D01*
X199035232Y-132426046D01*
X198937685Y-132243550D01*
X198885702Y-132180209D01*
X198806410Y-132083589D01*
X198646452Y-131952317D01*
X198646453Y-131952317D01*
X198646450Y-131952315D01*
X198463954Y-131854768D01*
X198265934Y-131794700D01*
X198265932Y-131794699D01*
X198265934Y-131794699D01*
X198146805Y-131782966D01*
X198111608Y-131779500D01*
X198008392Y-131779500D01*
X197970298Y-131783251D01*
X197854067Y-131794699D01*
X197656043Y-131854769D01*
X197545898Y-131913643D01*
X197473550Y-131952315D01*
X197473548Y-131952316D01*
X197473547Y-131952317D01*
X197313589Y-132083589D01*
X197182317Y-132243547D01*
X197182315Y-132243550D01*
X197143643Y-132315898D01*
X197084769Y-132426043D01*
X197024699Y-132624067D01*
X197004417Y-132830000D01*
X182833786Y-132830000D01*
X182868368Y-132820732D01*
X182873586Y-132819576D01*
X182913739Y-132812497D01*
X182913744Y-132812493D01*
X182918531Y-132810752D01*
X182935919Y-132803549D01*
X182940537Y-132801395D01*
X182940543Y-132801394D01*
X182973937Y-132778009D01*
X182978451Y-132775134D01*
X183013760Y-132754750D01*
X183039966Y-132723517D01*
X183043597Y-132719555D01*
X190299336Y-125463819D01*
X190360659Y-125430334D01*
X190387017Y-125427500D01*
X198404026Y-125427500D01*
X198471065Y-125447185D01*
X198516820Y-125499989D01*
X198526764Y-125569147D01*
X198518587Y-125598952D01*
X198477256Y-125698734D01*
X198477254Y-125698739D01*
X198456617Y-125855498D01*
X198456617Y-125855501D01*
X198477254Y-126012260D01*
X198477255Y-126012262D01*
X198537763Y-126158341D01*
X198634017Y-126283782D01*
X198688286Y-126325424D01*
X198729488Y-126381849D01*
X198736799Y-126423798D01*
X198736799Y-126922262D01*
X198717114Y-126989301D01*
X198688287Y-127020637D01*
X198621719Y-127071717D01*
X198525463Y-127197160D01*
X198464956Y-127343237D01*
X198464955Y-127343239D01*
X198444318Y-127499998D01*
X198444318Y-127500001D01*
X198464955Y-127656760D01*
X198464956Y-127656762D01*
X198512595Y-127771774D01*
X198525464Y-127802841D01*
X198621718Y-127928282D01*
X198747159Y-128024536D01*
X198893238Y-128085044D01*
X198971619Y-128095363D01*
X199049999Y-128105682D01*
X199050000Y-128105682D01*
X199050001Y-128105682D01*
X199102254Y-128098802D01*
X199206762Y-128085044D01*
X199352841Y-128024536D01*
X199478282Y-127928282D01*
X199574536Y-127802841D01*
X199635044Y-127656762D01*
X199655682Y-127500000D01*
X199653838Y-127485996D01*
X199635044Y-127343239D01*
X199635044Y-127343238D01*
X199574536Y-127197159D01*
X199478282Y-127071718D01*
X199436312Y-127039513D01*
X199395110Y-126983085D01*
X199387799Y-126941138D01*
X199387799Y-126423798D01*
X199407484Y-126356759D01*
X199436309Y-126325425D01*
X199490581Y-126283782D01*
X199586835Y-126158341D01*
X199647343Y-126012262D01*
X199667981Y-125855500D01*
X199647343Y-125698738D01*
X199634722Y-125668270D01*
X199606011Y-125598952D01*
X199598542Y-125529483D01*
X199629818Y-125467004D01*
X199689907Y-125431352D01*
X199720572Y-125427500D01*
X201210423Y-125427500D01*
X201215826Y-125427735D01*
X201256412Y-125431287D01*
X201295796Y-125420732D01*
X201301014Y-125419576D01*
X201341167Y-125412497D01*
X201341172Y-125412493D01*
X201345959Y-125410752D01*
X201363347Y-125403549D01*
X201367963Y-125401395D01*
X201367971Y-125401394D01*
X201401350Y-125378020D01*
X201405880Y-125375134D01*
X201441188Y-125354750D01*
X201441188Y-125354748D01*
X201450586Y-125349324D01*
X201452148Y-125352030D01*
X201500011Y-125331076D01*
X201531911Y-125331137D01*
X201593821Y-125339288D01*
X201593822Y-125339288D01*
X201593823Y-125339288D01*
X201655735Y-125331137D01*
X201750584Y-125318650D01*
X201896663Y-125258142D01*
X202022104Y-125161888D01*
X202118358Y-125036447D01*
X202178866Y-124890368D01*
X202199504Y-124733606D01*
X202178866Y-124576844D01*
X202118358Y-124430765D01*
X202022104Y-124305324D01*
X202022101Y-124305321D01*
X202022099Y-124305319D01*
X202016357Y-124299577D01*
X202017448Y-124298485D01*
X201981670Y-124249485D01*
X201977516Y-124179739D01*
X202011730Y-124118819D01*
X202022862Y-124109173D01*
X202128282Y-124028282D01*
X202224536Y-123902841D01*
X202285044Y-123756762D01*
X202305682Y-123600000D01*
X202285044Y-123443238D01*
X202224536Y-123297159D01*
X202128282Y-123171718D01*
X202002841Y-123075464D01*
X201856762Y-123014956D01*
X201856760Y-123014955D01*
X201700001Y-122994318D01*
X201699999Y-122994318D01*
X201543239Y-123014955D01*
X201543237Y-123014956D01*
X201397160Y-123075463D01*
X201271718Y-123171718D01*
X201175463Y-123297160D01*
X201114956Y-123443237D01*
X201114955Y-123443239D01*
X201094318Y-123599998D01*
X201094318Y-123600001D01*
X201102917Y-123665319D01*
X201092151Y-123734354D01*
X201067659Y-123769185D01*
X200600665Y-124236181D01*
X200539342Y-124269666D01*
X200512984Y-124272500D01*
X190016997Y-124272500D01*
X190011595Y-124272264D01*
X190004263Y-124271622D01*
X189971016Y-124268713D01*
X189931670Y-124279255D01*
X189926390Y-124280426D01*
X189886265Y-124287502D01*
X189886263Y-124287502D01*
X189886261Y-124287503D01*
X189886258Y-124287504D01*
X189881521Y-124289228D01*
X189864028Y-124296473D01*
X189859456Y-124298605D01*
X189826087Y-124321970D01*
X189821527Y-124324875D01*
X189786242Y-124345247D01*
X189786239Y-124345250D01*
X189760053Y-124376457D01*
X189756398Y-124380446D01*
X182454665Y-131682181D01*
X182393342Y-131715666D01*
X182366984Y-131718500D01*
X178344016Y-131718500D01*
X178276977Y-131698815D01*
X178231222Y-131646011D01*
X178221278Y-131576853D01*
X178250303Y-131513297D01*
X178256335Y-131506819D01*
X184342415Y-125420740D01*
X190599336Y-119163819D01*
X190660659Y-119130334D01*
X190687017Y-119127500D01*
X193533235Y-119127500D01*
X193600274Y-119147185D01*
X193631610Y-119176013D01*
X193671718Y-119228282D01*
X193797159Y-119324536D01*
X193943238Y-119385044D01*
X194021619Y-119395363D01*
X194099999Y-119405682D01*
X194100000Y-119405682D01*
X194100001Y-119405682D01*
X194152254Y-119398802D01*
X194256762Y-119385044D01*
X194402841Y-119324536D01*
X194528282Y-119228282D01*
X194624536Y-119102841D01*
X194685044Y-118956762D01*
X194705682Y-118800000D01*
X194685044Y-118643238D01*
X194624536Y-118497159D01*
X194528282Y-118371718D01*
X194402841Y-118275464D01*
X194352823Y-118254746D01*
X194256762Y-118214956D01*
X194256760Y-118214955D01*
X194100001Y-118194318D01*
X194099999Y-118194318D01*
X193943239Y-118214955D01*
X193943238Y-118214956D01*
X193870706Y-118244999D01*
X193801237Y-118252466D01*
X193738758Y-118221191D01*
X193703106Y-118161101D01*
X193700316Y-118114255D01*
X193705682Y-118073500D01*
X193685044Y-117916738D01*
X193624536Y-117770659D01*
X193528282Y-117645218D01*
X193402841Y-117548964D01*
X193256762Y-117488456D01*
X193256760Y-117488455D01*
X193100001Y-117467818D01*
X193099999Y-117467818D01*
X192943239Y-117488455D01*
X192943237Y-117488456D01*
X192797160Y-117548963D01*
X192797159Y-117548964D01*
X192671718Y-117645218D01*
X192631863Y-117697159D01*
X192611277Y-117723987D01*
X192554849Y-117765189D01*
X192512901Y-117772500D01*
X190516996Y-117772500D01*
X190511594Y-117772264D01*
X190503696Y-117771573D01*
X190471014Y-117768713D01*
X190431671Y-117779255D01*
X190426391Y-117780426D01*
X190386260Y-117787503D01*
X190381528Y-117789225D01*
X190364028Y-117796473D01*
X190359456Y-117798605D01*
X190326087Y-117821970D01*
X190321527Y-117824875D01*
X190286242Y-117845247D01*
X190286239Y-117845250D01*
X190260053Y-117876457D01*
X190256398Y-117880446D01*
X177400665Y-130736181D01*
X177339342Y-130769666D01*
X177312984Y-130772500D01*
X154124000Y-130772500D01*
X154056961Y-130752815D01*
X154011206Y-130700011D01*
X154000000Y-130648500D01*
X154000000Y-129013174D01*
X171194318Y-129013174D01*
X171214955Y-129169933D01*
X171214956Y-129169935D01*
X171275464Y-129316014D01*
X171371718Y-129441455D01*
X171497159Y-129537709D01*
X171643238Y-129598217D01*
X171721619Y-129608536D01*
X171799999Y-129618855D01*
X171800000Y-129618855D01*
X171800001Y-129618855D01*
X171852254Y-129611975D01*
X171956762Y-129598217D01*
X172102841Y-129537709D01*
X172228282Y-129441455D01*
X172324536Y-129316014D01*
X172385044Y-129169935D01*
X172405682Y-129013173D01*
X172385044Y-128856411D01*
X172324536Y-128710332D01*
X172228282Y-128584891D01*
X172228280Y-128584889D01*
X172228279Y-128584888D01*
X172174012Y-128543247D01*
X172132810Y-128486819D01*
X172125500Y-128444872D01*
X172125500Y-122068298D01*
X172145185Y-122001259D01*
X172174010Y-121969925D01*
X172228282Y-121928282D01*
X172324536Y-121802841D01*
X172385044Y-121656762D01*
X172405682Y-121500000D01*
X172385044Y-121343238D01*
X172324536Y-121197159D01*
X172228282Y-121071718D01*
X172102841Y-120975464D01*
X171956762Y-120914956D01*
X171956760Y-120914955D01*
X171800001Y-120894318D01*
X171799999Y-120894318D01*
X171643239Y-120914955D01*
X171643237Y-120914956D01*
X171497160Y-120975463D01*
X171371718Y-121071718D01*
X171275463Y-121197160D01*
X171214956Y-121343237D01*
X171214955Y-121343239D01*
X171194318Y-121499998D01*
X171194318Y-121500001D01*
X171214955Y-121656760D01*
X171214956Y-121656762D01*
X171275464Y-121802841D01*
X171371718Y-121928282D01*
X171425987Y-121969924D01*
X171467189Y-122026349D01*
X171474500Y-122068298D01*
X171474500Y-128444872D01*
X171454815Y-128511911D01*
X171425988Y-128543247D01*
X171371720Y-128584888D01*
X171275463Y-128710333D01*
X171214956Y-128856410D01*
X171214955Y-128856412D01*
X171194318Y-129013171D01*
X171194318Y-129013174D01*
X154000000Y-129013174D01*
X154000000Y-128000001D01*
X163144318Y-128000001D01*
X163164955Y-128156760D01*
X163164956Y-128156762D01*
X163201077Y-128243967D01*
X163225464Y-128302841D01*
X163321718Y-128428282D01*
X163447159Y-128524536D01*
X163593238Y-128585044D01*
X163671619Y-128595363D01*
X163749999Y-128605682D01*
X163750000Y-128605682D01*
X163750001Y-128605682D01*
X163802254Y-128598802D01*
X163906762Y-128585044D01*
X164052841Y-128524536D01*
X164178282Y-128428282D01*
X164274536Y-128302841D01*
X164335044Y-128156762D01*
X164355682Y-128000000D01*
X164335044Y-127843238D01*
X164274536Y-127697159D01*
X164178282Y-127571718D01*
X164178280Y-127571717D01*
X164178280Y-127571716D01*
X164050120Y-127473376D01*
X164008917Y-127416948D01*
X164004762Y-127347202D01*
X164038974Y-127286282D01*
X164050120Y-127276624D01*
X164071824Y-127259969D01*
X164178282Y-127178282D01*
X164274536Y-127052841D01*
X164335044Y-126906762D01*
X164355682Y-126750000D01*
X164335044Y-126593238D01*
X164274536Y-126447159D01*
X164178282Y-126321718D01*
X164052841Y-126225464D01*
X163906762Y-126164956D01*
X163906760Y-126164955D01*
X163750001Y-126144318D01*
X163749999Y-126144318D01*
X163593239Y-126164955D01*
X163593237Y-126164956D01*
X163447160Y-126225463D01*
X163321718Y-126321718D01*
X163225463Y-126447160D01*
X163164956Y-126593237D01*
X163164955Y-126593239D01*
X163144318Y-126749998D01*
X163144318Y-126750001D01*
X163164955Y-126906760D01*
X163164956Y-126906762D01*
X163225464Y-127052841D01*
X163321718Y-127178282D01*
X163437282Y-127266957D01*
X163449880Y-127276624D01*
X163491082Y-127333053D01*
X163495237Y-127402799D01*
X163461024Y-127463719D01*
X163449880Y-127473376D01*
X163321718Y-127571718D01*
X163225463Y-127697160D01*
X163164956Y-127843237D01*
X163164955Y-127843239D01*
X163144318Y-127999998D01*
X163144318Y-128000001D01*
X154000000Y-128000001D01*
X154000000Y-114050000D01*
X181994867Y-114050000D01*
X182013302Y-114178225D01*
X182067117Y-114296061D01*
X182067118Y-114296063D01*
X182151951Y-114393967D01*
X182260931Y-114464004D01*
X182385225Y-114500499D01*
X182385227Y-114500500D01*
X182385228Y-114500500D01*
X182514773Y-114500500D01*
X182514773Y-114500499D01*
X182639069Y-114464004D01*
X182682962Y-114435795D01*
X182749999Y-114416111D01*
X182817034Y-114435793D01*
X182860931Y-114464004D01*
X182860933Y-114464004D01*
X182860934Y-114464005D01*
X182985225Y-114500499D01*
X182985227Y-114500500D01*
X182985228Y-114500500D01*
X183114773Y-114500500D01*
X183114773Y-114500499D01*
X183239069Y-114464004D01*
X183348049Y-114393967D01*
X183432882Y-114296063D01*
X183486697Y-114178226D01*
X183505133Y-114050000D01*
X183486697Y-113921774D01*
X183432882Y-113803937D01*
X183348049Y-113706033D01*
X183239069Y-113635996D01*
X183239065Y-113635994D01*
X183239064Y-113635994D01*
X183114774Y-113599500D01*
X183114772Y-113599500D01*
X182985228Y-113599500D01*
X182985226Y-113599500D01*
X182860935Y-113635994D01*
X182860932Y-113635995D01*
X182860931Y-113635996D01*
X182817037Y-113664204D01*
X182749999Y-113683888D01*
X182682962Y-113664204D01*
X182639069Y-113635996D01*
X182639065Y-113635994D01*
X182639064Y-113635994D01*
X182514774Y-113599500D01*
X182514772Y-113599500D01*
X182385228Y-113599500D01*
X182385226Y-113599500D01*
X182260935Y-113635994D01*
X182260932Y-113635995D01*
X182260931Y-113635996D01*
X182209677Y-113668934D01*
X182151950Y-113706033D01*
X182067118Y-113803937D01*
X182067117Y-113803938D01*
X182013302Y-113921774D01*
X181994867Y-114050000D01*
X154000000Y-114050000D01*
X154000000Y-100594501D01*
X170794318Y-100594501D01*
X170814955Y-100751260D01*
X170814956Y-100751262D01*
X170875464Y-100897341D01*
X170971718Y-101022782D01*
X171000987Y-101045240D01*
X171042189Y-101101665D01*
X171049500Y-101143615D01*
X171049500Y-101750788D01*
X171046861Y-101776232D01*
X171044957Y-101785311D01*
X171044957Y-101785317D01*
X171049023Y-101817937D01*
X171049500Y-101825614D01*
X171049500Y-101829038D01*
X171053087Y-101850541D01*
X171059427Y-101901393D01*
X171061520Y-101908426D01*
X171063908Y-101915381D01*
X171088295Y-101960444D01*
X171110801Y-102006483D01*
X171115065Y-102012455D01*
X171119580Y-102018256D01*
X171157275Y-102052958D01*
X172117362Y-103013044D01*
X172133489Y-103032902D01*
X172138563Y-103040669D01*
X172138565Y-103040671D01*
X172164505Y-103060860D01*
X172170268Y-103065950D01*
X172172694Y-103068376D01*
X172190441Y-103081047D01*
X172230874Y-103112517D01*
X172230875Y-103112517D01*
X172230876Y-103112518D01*
X172237332Y-103116012D01*
X172243930Y-103119238D01*
X172243932Y-103119238D01*
X172243934Y-103119240D01*
X172279832Y-103129927D01*
X172293042Y-103133860D01*
X172305160Y-103138020D01*
X172341512Y-103150500D01*
X172341515Y-103150500D01*
X172348754Y-103151708D01*
X172356047Y-103152617D01*
X172407242Y-103150500D01*
X174150884Y-103150500D01*
X174217923Y-103170185D01*
X174249257Y-103199010D01*
X174271718Y-103228282D01*
X174397159Y-103324536D01*
X174543238Y-103385044D01*
X174621619Y-103395363D01*
X174699999Y-103405682D01*
X174700000Y-103405682D01*
X174700001Y-103405682D01*
X174752254Y-103398802D01*
X174856762Y-103385044D01*
X175002841Y-103324536D01*
X175128282Y-103228282D01*
X175224536Y-103102841D01*
X175285044Y-102956762D01*
X175300014Y-102843053D01*
X175305682Y-102800001D01*
X175305682Y-102799998D01*
X175285044Y-102643239D01*
X175285044Y-102643238D01*
X175224536Y-102497159D01*
X175128282Y-102371718D01*
X175002841Y-102275464D01*
X174856762Y-102214956D01*
X174856760Y-102214955D01*
X174700001Y-102194318D01*
X174699999Y-102194318D01*
X174543239Y-102214955D01*
X174543237Y-102214956D01*
X174397160Y-102275463D01*
X174397159Y-102275464D01*
X174271718Y-102371718D01*
X174249258Y-102400988D01*
X174192832Y-102442189D01*
X174150884Y-102449500D01*
X172596543Y-102449500D01*
X172529504Y-102429815D01*
X172508862Y-102413181D01*
X171786819Y-101691137D01*
X171753334Y-101629814D01*
X171750500Y-101603456D01*
X171750500Y-101143615D01*
X171770185Y-101076576D01*
X171799011Y-101045242D01*
X171828282Y-101022782D01*
X171924536Y-100897341D01*
X171985044Y-100751262D01*
X172005682Y-100594500D01*
X171985044Y-100437738D01*
X171924536Y-100291659D01*
X171828282Y-100166218D01*
X171702841Y-100069964D01*
X171556762Y-100009456D01*
X171556760Y-100009455D01*
X171400001Y-99988818D01*
X171399999Y-99988818D01*
X171243239Y-100009455D01*
X171243237Y-100009456D01*
X171097160Y-100069963D01*
X170971718Y-100166218D01*
X170875463Y-100291660D01*
X170814956Y-100437737D01*
X170814955Y-100437739D01*
X170794318Y-100594498D01*
X170794318Y-100594501D01*
X154000000Y-100594501D01*
X154000000Y-99925001D01*
X179569318Y-99925001D01*
X179589955Y-100081760D01*
X179589956Y-100081762D01*
X179650464Y-100227841D01*
X179746718Y-100353282D01*
X179872159Y-100449536D01*
X180018238Y-100510044D01*
X180096619Y-100520363D01*
X180174999Y-100530682D01*
X180175000Y-100530682D01*
X180175001Y-100530682D01*
X180227254Y-100523802D01*
X180331762Y-100510044D01*
X180477841Y-100449536D01*
X180603282Y-100353282D01*
X180699536Y-100227841D01*
X180760044Y-100081762D01*
X180780682Y-99925000D01*
X180760044Y-99768238D01*
X180699536Y-99622159D01*
X180603282Y-99496718D01*
X180477841Y-99400464D01*
X180331762Y-99339956D01*
X180331760Y-99339955D01*
X180175001Y-99319318D01*
X180174999Y-99319318D01*
X180018239Y-99339955D01*
X180018237Y-99339956D01*
X179872160Y-99400463D01*
X179746718Y-99496718D01*
X179650463Y-99622160D01*
X179589956Y-99768237D01*
X179589955Y-99768239D01*
X179569318Y-99924998D01*
X179569318Y-99925001D01*
X154000000Y-99925001D01*
X154000000Y-97500001D01*
X157694318Y-97500001D01*
X157714955Y-97656760D01*
X157714956Y-97656762D01*
X157775464Y-97802841D01*
X157871718Y-97928282D01*
X157997159Y-98024536D01*
X158143238Y-98085044D01*
X158201080Y-98092659D01*
X158299999Y-98105682D01*
X158300000Y-98105682D01*
X158300001Y-98105682D01*
X158398912Y-98092660D01*
X158456762Y-98085044D01*
X158602841Y-98024536D01*
X158728282Y-97928282D01*
X158824536Y-97802841D01*
X158885044Y-97656762D01*
X158902992Y-97520433D01*
X158905682Y-97500001D01*
X158905682Y-97499998D01*
X158885044Y-97343239D01*
X158885044Y-97343238D01*
X158824536Y-97197159D01*
X158728282Y-97071718D01*
X158602841Y-96975464D01*
X158515154Y-96939143D01*
X158456762Y-96914956D01*
X158456760Y-96914955D01*
X158300001Y-96894318D01*
X158299999Y-96894318D01*
X158143239Y-96914955D01*
X158143237Y-96914956D01*
X157997160Y-96975463D01*
X157871718Y-97071718D01*
X157775463Y-97197160D01*
X157714956Y-97343237D01*
X157714955Y-97343239D01*
X157694318Y-97499998D01*
X157694318Y-97500001D01*
X154000000Y-97500001D01*
X154000000Y-96700001D01*
X165894318Y-96700001D01*
X165914955Y-96856760D01*
X165914956Y-96856762D01*
X165966967Y-96982329D01*
X165975464Y-97002841D01*
X166071718Y-97128282D01*
X166197159Y-97224536D01*
X166343238Y-97285044D01*
X166421619Y-97295363D01*
X166499999Y-97305682D01*
X166500000Y-97305682D01*
X166500001Y-97305682D01*
X166552965Y-97298709D01*
X166656762Y-97285044D01*
X166802841Y-97224536D01*
X166809291Y-97219586D01*
X166874459Y-97194392D01*
X166942904Y-97208430D01*
X166992895Y-97257243D01*
X167007716Y-97301775D01*
X167013175Y-97343237D01*
X167014956Y-97356761D01*
X167014956Y-97356762D01*
X167074287Y-97500001D01*
X167075464Y-97502841D01*
X167171718Y-97628282D01*
X167297159Y-97724536D01*
X167443238Y-97785044D01*
X167516074Y-97794633D01*
X167599999Y-97805682D01*
X167600000Y-97805682D01*
X167600001Y-97805682D01*
X167652254Y-97798802D01*
X167756762Y-97785044D01*
X167902841Y-97724536D01*
X168028282Y-97628282D01*
X168050741Y-97599011D01*
X168107168Y-97557811D01*
X168149116Y-97550500D01*
X170107956Y-97550500D01*
X170174995Y-97570185D01*
X170195637Y-97586819D01*
X170863875Y-98255057D01*
X170897360Y-98316380D01*
X170899133Y-98358922D01*
X170894318Y-98395498D01*
X170894318Y-98395501D01*
X170914955Y-98552260D01*
X170914956Y-98552262D01*
X170975464Y-98698341D01*
X171071718Y-98823782D01*
X171197159Y-98920036D01*
X171343238Y-98980544D01*
X171421619Y-98990863D01*
X171499999Y-99001182D01*
X171500000Y-99001182D01*
X171500001Y-99001182D01*
X171552254Y-98994302D01*
X171656762Y-98980544D01*
X171802841Y-98920036D01*
X171928282Y-98823782D01*
X172024536Y-98698341D01*
X172085044Y-98552262D01*
X172105682Y-98395500D01*
X172100866Y-98358922D01*
X172085044Y-98238739D01*
X172085044Y-98238738D01*
X172024536Y-98092659D01*
X171928282Y-97967218D01*
X171802841Y-97870964D01*
X171656762Y-97810456D01*
X171656760Y-97810455D01*
X171500002Y-97789818D01*
X171499998Y-97789818D01*
X171463422Y-97794633D01*
X171394387Y-97783867D01*
X171359557Y-97759375D01*
X170587137Y-96986955D01*
X170571011Y-96967098D01*
X170565937Y-96959331D01*
X170539987Y-96939133D01*
X170534241Y-96934059D01*
X170531807Y-96931625D01*
X170531806Y-96931624D01*
X170531805Y-96931623D01*
X170525348Y-96927013D01*
X170514061Y-96918955D01*
X170473626Y-96887483D01*
X170473622Y-96887481D01*
X170467161Y-96883984D01*
X170454578Y-96877832D01*
X170402997Y-96830703D01*
X170385084Y-96763169D01*
X170406526Y-96696671D01*
X170441998Y-96662121D01*
X170543042Y-96597185D01*
X170543044Y-96597184D01*
X170610082Y-96577500D01*
X179378986Y-96577500D01*
X179446025Y-96597185D01*
X179466667Y-96613819D01*
X191736181Y-108883333D01*
X191769666Y-108944656D01*
X191772500Y-108971014D01*
X191772500Y-113182994D01*
X191772264Y-113188401D01*
X191768712Y-113228983D01*
X191779257Y-113268335D01*
X191780428Y-113273618D01*
X191787503Y-113313740D01*
X191789232Y-113318491D01*
X191796468Y-113335959D01*
X191798606Y-113340544D01*
X191821972Y-113373914D01*
X191824879Y-113378478D01*
X191845247Y-113413757D01*
X191845251Y-113413761D01*
X191876463Y-113439951D01*
X191880442Y-113443596D01*
X192900850Y-114464004D01*
X193874665Y-115437819D01*
X193908150Y-115499142D01*
X193903166Y-115568834D01*
X193861294Y-115624767D01*
X193795830Y-115649184D01*
X193786984Y-115649500D01*
X193735226Y-115649500D01*
X193610935Y-115685994D01*
X193610932Y-115685995D01*
X193610931Y-115685996D01*
X193559677Y-115718934D01*
X193501950Y-115756033D01*
X193417118Y-115853937D01*
X193417117Y-115853938D01*
X193363302Y-115971774D01*
X193344867Y-116100000D01*
X193363302Y-116228225D01*
X193409570Y-116329536D01*
X193417118Y-116346063D01*
X193501951Y-116443967D01*
X193610931Y-116514004D01*
X193735225Y-116550499D01*
X193735227Y-116550500D01*
X193735228Y-116550500D01*
X193864773Y-116550500D01*
X193864773Y-116550499D01*
X193989069Y-116514004D01*
X194098049Y-116443967D01*
X194182882Y-116346063D01*
X194236697Y-116228226D01*
X194255133Y-116100000D01*
X194255132Y-116099998D01*
X194255291Y-116098899D01*
X194284316Y-116035343D01*
X194343094Y-115997568D01*
X194412963Y-115997568D01*
X194465708Y-116028863D01*
X195400161Y-116963316D01*
X196256391Y-117819546D01*
X196260046Y-117823535D01*
X196286240Y-117854750D01*
X196321516Y-117875116D01*
X196326082Y-117878025D01*
X196359455Y-117901394D01*
X196364058Y-117903540D01*
X196381482Y-117910757D01*
X196386254Y-117912493D01*
X196386261Y-117912497D01*
X196426401Y-117919574D01*
X196431655Y-117920739D01*
X196471016Y-117931287D01*
X196511601Y-117927735D01*
X196517005Y-117927500D01*
X200712984Y-117927500D01*
X200780023Y-117947185D01*
X200800665Y-117963819D01*
X201056391Y-118219546D01*
X201060046Y-118223535D01*
X201086236Y-118254746D01*
X201086238Y-118254747D01*
X201086240Y-118254750D01*
X201086242Y-118254751D01*
X201086243Y-118254752D01*
X201121521Y-118275120D01*
X201126085Y-118278027D01*
X201159455Y-118301393D01*
X201164073Y-118303546D01*
X201181489Y-118310759D01*
X201186259Y-118312496D01*
X201186261Y-118312497D01*
X201226405Y-118319575D01*
X201231637Y-118320734D01*
X201271016Y-118331287D01*
X201274714Y-118330963D01*
X201280422Y-118332109D01*
X201281828Y-118332233D01*
X201281814Y-118332389D01*
X201343214Y-118344724D01*
X201383906Y-118379004D01*
X201421117Y-118427500D01*
X201421718Y-118428282D01*
X201547159Y-118524536D01*
X201693238Y-118585044D01*
X201771619Y-118595363D01*
X201849999Y-118605682D01*
X201850000Y-118605682D01*
X201850001Y-118605682D01*
X201902254Y-118598802D01*
X202006762Y-118585044D01*
X202152841Y-118524536D01*
X202278282Y-118428282D01*
X202374536Y-118302841D01*
X202435044Y-118156762D01*
X202455682Y-118000000D01*
X202435044Y-117843238D01*
X202374536Y-117697159D01*
X202278282Y-117571718D01*
X202152841Y-117475464D01*
X202006762Y-117414956D01*
X202006760Y-117414955D01*
X201899684Y-117400859D01*
X201835787Y-117372593D01*
X201797316Y-117314268D01*
X201796485Y-117244403D01*
X201817494Y-117202433D01*
X201851710Y-117157842D01*
X201851709Y-117157842D01*
X201851711Y-117157841D01*
X201912219Y-117011762D01*
X201918597Y-116963316D01*
X201946864Y-116899419D01*
X202005188Y-116860948D01*
X202041536Y-116855501D01*
X202550358Y-116855501D01*
X202558932Y-116856096D01*
X202570960Y-116857773D01*
X202570960Y-116857772D01*
X202570964Y-116857774D01*
X202614119Y-116855779D01*
X202618709Y-116855567D01*
X202621572Y-116855501D01*
X202641042Y-116855501D01*
X202641043Y-116855501D01*
X202643668Y-116855010D01*
X202652220Y-116854017D01*
X202653444Y-116853960D01*
X202683191Y-116852586D01*
X202689521Y-116849790D01*
X202716828Y-116841333D01*
X202723632Y-116840062D01*
X202749996Y-116823737D01*
X202757591Y-116819734D01*
X202785964Y-116807207D01*
X202790860Y-116802310D01*
X202813268Y-116784562D01*
X202819151Y-116780920D01*
X202837848Y-116756159D01*
X202843465Y-116749704D01*
X203793059Y-115800110D01*
X203799532Y-115794479D01*
X203809224Y-115787159D01*
X203809228Y-115787158D01*
X203841459Y-115751800D01*
X203843367Y-115749802D01*
X203857174Y-115735997D01*
X203858684Y-115733792D01*
X203864023Y-115727051D01*
X203865489Y-115725442D01*
X203884916Y-115704133D01*
X203887416Y-115697678D01*
X203900750Y-115672383D01*
X203904656Y-115666681D01*
X203904655Y-115666681D01*
X203904657Y-115666680D01*
X203911757Y-115636491D01*
X203914291Y-115628306D01*
X203925500Y-115599373D01*
X203925500Y-115592448D01*
X203928795Y-115564055D01*
X203930378Y-115557323D01*
X203930379Y-115557319D01*
X203926095Y-115526608D01*
X203925500Y-115518033D01*
X203925500Y-111069639D01*
X203926095Y-111061063D01*
X203927771Y-111049040D01*
X203927773Y-111049036D01*
X203925566Y-111001291D01*
X203925500Y-110998428D01*
X203925500Y-110978959D01*
X203925499Y-110978953D01*
X203925009Y-110976333D01*
X203924016Y-110967780D01*
X203922585Y-110936809D01*
X203919788Y-110930476D01*
X203911332Y-110903170D01*
X203910061Y-110896367D01*
X203893738Y-110870005D01*
X203889731Y-110862402D01*
X203877207Y-110834037D01*
X203877206Y-110834036D01*
X203877206Y-110834035D01*
X203872309Y-110829138D01*
X203854563Y-110806734D01*
X203850918Y-110800847D01*
X203826172Y-110782160D01*
X203819694Y-110776523D01*
X199338419Y-106295248D01*
X199304934Y-106233925D01*
X199309918Y-106164233D01*
X199351790Y-106108300D01*
X199399386Y-106088919D01*
X199398912Y-106087147D01*
X199406754Y-106085044D01*
X199406762Y-106085044D01*
X199552841Y-106024536D01*
X199678282Y-105928282D01*
X199774536Y-105802841D01*
X199835044Y-105656762D01*
X199855682Y-105500000D01*
X199835044Y-105343238D01*
X199774536Y-105197159D01*
X199694537Y-105092903D01*
X199669345Y-105027736D01*
X199683383Y-104959292D01*
X199694533Y-104941941D01*
X199724536Y-104902841D01*
X199785044Y-104756762D01*
X199805682Y-104600000D01*
X199785044Y-104443238D01*
X199724536Y-104297159D01*
X199628282Y-104171718D01*
X199502841Y-104075464D01*
X199356762Y-104014956D01*
X199356760Y-104014955D01*
X199200001Y-103994318D01*
X199199997Y-103994318D01*
X199134678Y-104002917D01*
X199065643Y-103992151D01*
X199030813Y-103967659D01*
X197863819Y-102800665D01*
X197830334Y-102739342D01*
X197827500Y-102712984D01*
X197827500Y-97466764D01*
X197847185Y-97399725D01*
X197876014Y-97368388D01*
X197882787Y-97363191D01*
X197928282Y-97328282D01*
X198024536Y-97202841D01*
X198085044Y-97056762D01*
X198105682Y-96900000D01*
X198103573Y-96883984D01*
X198085044Y-96743239D01*
X198085044Y-96743238D01*
X198024536Y-96597159D01*
X197928282Y-96471718D01*
X197802841Y-96375464D01*
X197656762Y-96314956D01*
X197656760Y-96314955D01*
X197500001Y-96294318D01*
X197499999Y-96294318D01*
X197343239Y-96314955D01*
X197343237Y-96314956D01*
X197197160Y-96375463D01*
X197071718Y-96471718D01*
X196975463Y-96597160D01*
X196914956Y-96743237D01*
X196914955Y-96743239D01*
X196894318Y-96899998D01*
X196894318Y-96900001D01*
X196914955Y-97056760D01*
X196914956Y-97056762D01*
X196975464Y-97202841D01*
X197071435Y-97327913D01*
X197071719Y-97328283D01*
X197123986Y-97368388D01*
X197165189Y-97424816D01*
X197172500Y-97466764D01*
X197172500Y-102882994D01*
X197172264Y-102888401D01*
X197168712Y-102928983D01*
X197179257Y-102968335D01*
X197180428Y-102973618D01*
X197187503Y-103013740D01*
X197189232Y-103018491D01*
X197196468Y-103035959D01*
X197198606Y-103040544D01*
X197221972Y-103073914D01*
X197224879Y-103078478D01*
X197245247Y-103113757D01*
X197245251Y-103113761D01*
X197276463Y-103139951D01*
X197280442Y-103143596D01*
X198104505Y-103967659D01*
X198567659Y-104430813D01*
X198601144Y-104492136D01*
X198602917Y-104534678D01*
X198594318Y-104599997D01*
X198594318Y-104600001D01*
X198614955Y-104756760D01*
X198614956Y-104756762D01*
X198675464Y-104902842D01*
X198755460Y-105007094D01*
X198780654Y-105072263D01*
X198766616Y-105140708D01*
X198755461Y-105158065D01*
X198725464Y-105197158D01*
X198664956Y-105343237D01*
X198662853Y-105351088D01*
X198660754Y-105350525D01*
X198637099Y-105403988D01*
X198578771Y-105442455D01*
X198508906Y-105443281D01*
X198454751Y-105411580D01*
X195100122Y-102056951D01*
X195094478Y-102050465D01*
X195087156Y-102040770D01*
X195051824Y-102008560D01*
X195049773Y-102006602D01*
X195035997Y-101992826D01*
X195033786Y-101991311D01*
X195027053Y-101985978D01*
X195004133Y-101965084D01*
X194997670Y-101962580D01*
X194972392Y-101949256D01*
X194966681Y-101945344D01*
X194966678Y-101945343D01*
X194966679Y-101945343D01*
X194936502Y-101938244D01*
X194928294Y-101935703D01*
X194899373Y-101924500D01*
X194892449Y-101924500D01*
X194864058Y-101921206D01*
X194857319Y-101919621D01*
X194826609Y-101923905D01*
X194818034Y-101924500D01*
X191569033Y-101924500D01*
X191501994Y-101904815D01*
X191481352Y-101888181D01*
X186611819Y-97018648D01*
X186578334Y-96957325D01*
X186575500Y-96930967D01*
X186575500Y-91919646D01*
X186576095Y-91911070D01*
X186577772Y-91899040D01*
X186577774Y-91899036D01*
X186575761Y-91855481D01*
X186575566Y-91851268D01*
X186575500Y-91848406D01*
X186575500Y-91828959D01*
X186575500Y-91828956D01*
X186575009Y-91826332D01*
X186574018Y-91817795D01*
X186572586Y-91786809D01*
X186569787Y-91780472D01*
X186561331Y-91753167D01*
X186560061Y-91746367D01*
X186543736Y-91720002D01*
X186539730Y-91712400D01*
X186533689Y-91698719D01*
X186527206Y-91684035D01*
X186522309Y-91679138D01*
X186504563Y-91656734D01*
X186500918Y-91650847D01*
X186476172Y-91632160D01*
X186469694Y-91626523D01*
X185650122Y-90806951D01*
X185644478Y-90800465D01*
X185637156Y-90790770D01*
X185601824Y-90758560D01*
X185599773Y-90756602D01*
X185585997Y-90742826D01*
X185583786Y-90741311D01*
X185577053Y-90735978D01*
X185554133Y-90715084D01*
X185547670Y-90712580D01*
X185522392Y-90699256D01*
X185516681Y-90695344D01*
X185516678Y-90695343D01*
X185516679Y-90695343D01*
X185486502Y-90688244D01*
X185478294Y-90685703D01*
X185449373Y-90674500D01*
X185442449Y-90674500D01*
X185414058Y-90671206D01*
X185407319Y-90669621D01*
X185376609Y-90673905D01*
X185368034Y-90674500D01*
X183711070Y-90674500D01*
X183644031Y-90654815D01*
X183598276Y-90602011D01*
X183588131Y-90566686D01*
X183586824Y-90556762D01*
X183585044Y-90543238D01*
X183524536Y-90397159D01*
X183449984Y-90300001D01*
X189994318Y-90300001D01*
X190014955Y-90456760D01*
X190014956Y-90456762D01*
X190062817Y-90572310D01*
X190075464Y-90602841D01*
X190161591Y-90715084D01*
X190171719Y-90728283D01*
X190185526Y-90738877D01*
X190211177Y-90758560D01*
X190223986Y-90768388D01*
X190265189Y-90824816D01*
X190272500Y-90866764D01*
X190272500Y-95982994D01*
X190272264Y-95988401D01*
X190268712Y-96028983D01*
X190279257Y-96068335D01*
X190280428Y-96073618D01*
X190287503Y-96113740D01*
X190289232Y-96118491D01*
X190296468Y-96135959D01*
X190298606Y-96140544D01*
X190321972Y-96173914D01*
X190324879Y-96178478D01*
X190345247Y-96213757D01*
X190345251Y-96213761D01*
X190376463Y-96239951D01*
X190380442Y-96243596D01*
X190431164Y-96294318D01*
X190467659Y-96330813D01*
X190501144Y-96392136D01*
X190502917Y-96434678D01*
X190494318Y-96499997D01*
X190494318Y-96500001D01*
X190514955Y-96656760D01*
X190514956Y-96656762D01*
X190550775Y-96743238D01*
X190575464Y-96802841D01*
X190671718Y-96928282D01*
X190797159Y-97024536D01*
X190943238Y-97085044D01*
X191021619Y-97095363D01*
X191099999Y-97105682D01*
X191100000Y-97105682D01*
X191100001Y-97105682D01*
X191152254Y-97098802D01*
X191256762Y-97085044D01*
X191402841Y-97024536D01*
X191528282Y-96928282D01*
X191624536Y-96802841D01*
X191685044Y-96656762D01*
X191705682Y-96500000D01*
X191705163Y-96496061D01*
X191685044Y-96343239D01*
X191685044Y-96343238D01*
X191624536Y-96197159D01*
X191528282Y-96071718D01*
X191402841Y-95975464D01*
X191315369Y-95939232D01*
X191256762Y-95914956D01*
X191256760Y-95914955D01*
X191100001Y-95894318D01*
X191099999Y-95894318D01*
X191067685Y-95898572D01*
X190998649Y-95887806D01*
X190946394Y-95841426D01*
X190927500Y-95775633D01*
X190927500Y-90866764D01*
X190947185Y-90799725D01*
X190976014Y-90768388D01*
X191028282Y-90728282D01*
X191124536Y-90602841D01*
X191185044Y-90456762D01*
X191205682Y-90300000D01*
X191185044Y-90143238D01*
X191124536Y-89997159D01*
X191028282Y-89871718D01*
X190902841Y-89775464D01*
X190756762Y-89714956D01*
X190756760Y-89714955D01*
X190600001Y-89694318D01*
X190599999Y-89694318D01*
X190443239Y-89714955D01*
X190443237Y-89714956D01*
X190297160Y-89775463D01*
X190171718Y-89871718D01*
X190075463Y-89997160D01*
X190014956Y-90143237D01*
X190014955Y-90143239D01*
X189994318Y-90299998D01*
X189994318Y-90300001D01*
X183449984Y-90300001D01*
X183428282Y-90271718D01*
X183302841Y-90175464D01*
X183228693Y-90144751D01*
X183156762Y-90114956D01*
X183156760Y-90114955D01*
X183000001Y-90094318D01*
X182999999Y-90094318D01*
X182843239Y-90114955D01*
X182843237Y-90114956D01*
X182697160Y-90175463D01*
X182571718Y-90271718D01*
X182475463Y-90397160D01*
X182414956Y-90543237D01*
X182414955Y-90543239D01*
X182394318Y-90699998D01*
X182394318Y-90700001D01*
X182414955Y-90856760D01*
X182414956Y-90856762D01*
X182475464Y-91002841D01*
X182550223Y-91100270D01*
X182575417Y-91165438D01*
X182561379Y-91233883D01*
X182536508Y-91263295D01*
X182537899Y-91264686D01*
X182532155Y-91270430D01*
X182532150Y-91270435D01*
X182532149Y-91270437D01*
X182507285Y-91302841D01*
X182435894Y-91395879D01*
X182375387Y-91541956D01*
X182375386Y-91541958D01*
X182354749Y-91698717D01*
X182354749Y-91698720D01*
X182375386Y-91855479D01*
X182375387Y-91855481D01*
X182393428Y-91899037D01*
X182435895Y-92001560D01*
X182532149Y-92127001D01*
X182657590Y-92223255D01*
X182803669Y-92283763D01*
X182882050Y-92294082D01*
X182960430Y-92304401D01*
X182960431Y-92304401D01*
X182960432Y-92304401D01*
X183012685Y-92297521D01*
X183117193Y-92283763D01*
X183263272Y-92223255D01*
X183388713Y-92127001D01*
X183484967Y-92001560D01*
X183545475Y-91855481D01*
X183548393Y-91833314D01*
X183576659Y-91769418D01*
X183634984Y-91730947D01*
X183671332Y-91725500D01*
X185030967Y-91725500D01*
X185098006Y-91745185D01*
X185118648Y-91761819D01*
X185488181Y-92131352D01*
X185521666Y-92192675D01*
X185524500Y-92219033D01*
X185524500Y-97230358D01*
X185523905Y-97238932D01*
X185522227Y-97250963D01*
X185524434Y-97298709D01*
X185524500Y-97301572D01*
X185524500Y-97321045D01*
X185524993Y-97323682D01*
X185525982Y-97332215D01*
X185527415Y-97363191D01*
X185527416Y-97363197D01*
X185530214Y-97369534D01*
X185538664Y-97396820D01*
X185539937Y-97403629D01*
X185539937Y-97403630D01*
X185545050Y-97411888D01*
X185553054Y-97424816D01*
X185556260Y-97429993D01*
X185560263Y-97437586D01*
X185572794Y-97465965D01*
X185572795Y-97465966D01*
X185572796Y-97465968D01*
X185577689Y-97470861D01*
X185595435Y-97493265D01*
X185599077Y-97499148D01*
X185599080Y-97499151D01*
X185599081Y-97499152D01*
X185603966Y-97502841D01*
X185623826Y-97517839D01*
X185630311Y-97523482D01*
X190949881Y-102843053D01*
X190955523Y-102849537D01*
X190962839Y-102859224D01*
X190962840Y-102859225D01*
X190962842Y-102859228D01*
X190988527Y-102882644D01*
X190998164Y-102891429D01*
X191000212Y-102893384D01*
X191014003Y-102907175D01*
X191015463Y-102908175D01*
X191016219Y-102908693D01*
X191022958Y-102914031D01*
X191045863Y-102934913D01*
X191045865Y-102934914D01*
X191045867Y-102934916D01*
X191052323Y-102937417D01*
X191077607Y-102950743D01*
X191083320Y-102954657D01*
X191098014Y-102958112D01*
X191113498Y-102961755D01*
X191121711Y-102964298D01*
X191150626Y-102975500D01*
X191150627Y-102975500D01*
X191157553Y-102975500D01*
X191185941Y-102978793D01*
X191192682Y-102980379D01*
X191223394Y-102976094D01*
X191231968Y-102975500D01*
X194480967Y-102975500D01*
X194548006Y-102995185D01*
X194568648Y-103011819D01*
X202838181Y-111281352D01*
X202871666Y-111342675D01*
X202874500Y-111369033D01*
X202874500Y-115180967D01*
X202854815Y-115248006D01*
X202838181Y-115268648D01*
X202338649Y-115768180D01*
X202277326Y-115801665D01*
X202250968Y-115804499D01*
X202041536Y-115804499D01*
X201974497Y-115784814D01*
X201928742Y-115732010D01*
X201918597Y-115696684D01*
X201912219Y-115648238D01*
X201851711Y-115502159D01*
X201755457Y-115376718D01*
X201630016Y-115280464D01*
X201483937Y-115219956D01*
X201483935Y-115219955D01*
X201327176Y-115199318D01*
X201327174Y-115199318D01*
X201170414Y-115219955D01*
X201170412Y-115219956D01*
X201024335Y-115280463D01*
X200898893Y-115376718D01*
X200802638Y-115502160D01*
X200742131Y-115648237D01*
X200742131Y-115648238D01*
X200721493Y-115804998D01*
X200721493Y-115805001D01*
X200742130Y-115961760D01*
X200742131Y-115961762D01*
X200802639Y-116107841D01*
X200898893Y-116233282D01*
X200898895Y-116233283D01*
X200898897Y-116233286D01*
X200904640Y-116239029D01*
X200903195Y-116240473D01*
X200937938Y-116288060D01*
X200942088Y-116357806D01*
X200907872Y-116418724D01*
X200900492Y-116425118D01*
X200898897Y-116426713D01*
X200898893Y-116426717D01*
X200898893Y-116426718D01*
X200859189Y-116478461D01*
X200802638Y-116552160D01*
X200742131Y-116698237D01*
X200742130Y-116698239D01*
X200721493Y-116854998D01*
X200721493Y-116855001D01*
X200742130Y-117011760D01*
X200742132Y-117011765D01*
X200779114Y-117101048D01*
X200786583Y-117170517D01*
X200755308Y-117232996D01*
X200695219Y-117268648D01*
X200664553Y-117272500D01*
X196687017Y-117272500D01*
X196619978Y-117252815D01*
X196599336Y-117236181D01*
X192463819Y-113100664D01*
X192430334Y-113039341D01*
X192427500Y-113012983D01*
X192427500Y-112830003D01*
X197254435Y-112830003D01*
X197274630Y-113009249D01*
X197274631Y-113009254D01*
X197334211Y-113179523D01*
X197393335Y-113273618D01*
X197430184Y-113332262D01*
X197557738Y-113459816D01*
X197710478Y-113555789D01*
X197835397Y-113599500D01*
X197880745Y-113615368D01*
X197880750Y-113615369D01*
X197971246Y-113625565D01*
X198015040Y-113630499D01*
X198015043Y-113630500D01*
X198015046Y-113630500D01*
X198104957Y-113630500D01*
X198104958Y-113630499D01*
X198172104Y-113622934D01*
X198239249Y-113615369D01*
X198239252Y-113615368D01*
X198239255Y-113615368D01*
X198409522Y-113555789D01*
X198562262Y-113459816D01*
X198689816Y-113332262D01*
X198785789Y-113179522D01*
X198845368Y-113009255D01*
X198865565Y-112830000D01*
X198845368Y-112650745D01*
X198785789Y-112480478D01*
X198689816Y-112327738D01*
X198562262Y-112200184D01*
X198409523Y-112104211D01*
X198239254Y-112044631D01*
X198239249Y-112044630D01*
X198104960Y-112029500D01*
X198104954Y-112029500D01*
X198015046Y-112029500D01*
X198015039Y-112029500D01*
X197880750Y-112044630D01*
X197880745Y-112044631D01*
X197710476Y-112104211D01*
X197557737Y-112200184D01*
X197430184Y-112327737D01*
X197334211Y-112480476D01*
X197274631Y-112650745D01*
X197274630Y-112650750D01*
X197254435Y-112829996D01*
X197254435Y-112830003D01*
X192427500Y-112830003D01*
X192427500Y-108801003D01*
X192427736Y-108795596D01*
X192431287Y-108755012D01*
X192426010Y-108735323D01*
X192420739Y-108715652D01*
X192419575Y-108710403D01*
X192412497Y-108670259D01*
X192412496Y-108670257D01*
X192410759Y-108665487D01*
X192403546Y-108648071D01*
X192401393Y-108643453D01*
X192378027Y-108610083D01*
X192375120Y-108605519D01*
X192354752Y-108570241D01*
X192354751Y-108570240D01*
X192354750Y-108570238D01*
X192354747Y-108570236D01*
X192354746Y-108570234D01*
X192323535Y-108544044D01*
X192319546Y-108540389D01*
X189221612Y-105442455D01*
X179809598Y-96030442D01*
X179805953Y-96026463D01*
X179779763Y-95995251D01*
X179779759Y-95995247D01*
X179744480Y-95974879D01*
X179739916Y-95971972D01*
X179706546Y-95948606D01*
X179701961Y-95946468D01*
X179684493Y-95939232D01*
X179679742Y-95937503D01*
X179639620Y-95930428D01*
X179634337Y-95929257D01*
X179594983Y-95918712D01*
X179558893Y-95921871D01*
X179554400Y-95922264D01*
X179548997Y-95922500D01*
X170610082Y-95922500D01*
X170543043Y-95902816D01*
X170519687Y-95887806D01*
X170439069Y-95835996D01*
X170439065Y-95835994D01*
X170439064Y-95835994D01*
X170314774Y-95799500D01*
X170314772Y-95799500D01*
X170185228Y-95799500D01*
X170185226Y-95799500D01*
X170060935Y-95835994D01*
X170060932Y-95835995D01*
X170060931Y-95835996D01*
X170052482Y-95841426D01*
X169951950Y-95906033D01*
X169867118Y-96003937D01*
X169867117Y-96003938D01*
X169813302Y-96121774D01*
X169794867Y-96250000D01*
X169813302Y-96378225D01*
X169821950Y-96397160D01*
X169867118Y-96496063D01*
X169951951Y-96593967D01*
X169984609Y-96614955D01*
X169994302Y-96621184D01*
X170040057Y-96673988D01*
X170050001Y-96743147D01*
X170020976Y-96806702D01*
X169962198Y-96844477D01*
X169927263Y-96849500D01*
X168149116Y-96849500D01*
X168082077Y-96829815D01*
X168050742Y-96800989D01*
X168028282Y-96771718D01*
X167902841Y-96675464D01*
X167857690Y-96656762D01*
X167756762Y-96614956D01*
X167756760Y-96614955D01*
X167600001Y-96594318D01*
X167599999Y-96594318D01*
X167443239Y-96614955D01*
X167443237Y-96614956D01*
X167297156Y-96675465D01*
X167297153Y-96675466D01*
X167290700Y-96680418D01*
X167225529Y-96705608D01*
X167157085Y-96691564D01*
X167107099Y-96642747D01*
X167092283Y-96598224D01*
X167085044Y-96543238D01*
X167024536Y-96397159D01*
X166928282Y-96271718D01*
X166802841Y-96175464D01*
X166718534Y-96140543D01*
X166656762Y-96114956D01*
X166656760Y-96114955D01*
X166500001Y-96094318D01*
X166499999Y-96094318D01*
X166343239Y-96114955D01*
X166343237Y-96114956D01*
X166197160Y-96175463D01*
X166071718Y-96271718D01*
X165975463Y-96397160D01*
X165914956Y-96543237D01*
X165914955Y-96543239D01*
X165894318Y-96699998D01*
X165894318Y-96700001D01*
X154000000Y-96700001D01*
X154000000Y-95374000D01*
X154019685Y-95306961D01*
X154072489Y-95261206D01*
X154124000Y-95250000D01*
X175750000Y-95250000D01*
X175750000Y-88700001D01*
X180294318Y-88700001D01*
X180314955Y-88856760D01*
X180314956Y-88856762D01*
X180371228Y-88992616D01*
X180375464Y-89002841D01*
X180471718Y-89128282D01*
X180597159Y-89224536D01*
X180743238Y-89285044D01*
X180821619Y-89295363D01*
X180899999Y-89305682D01*
X180900000Y-89305682D01*
X180900001Y-89305682D01*
X180952254Y-89298802D01*
X181056762Y-89285044D01*
X181202841Y-89224536D01*
X181234816Y-89200001D01*
X192759318Y-89200001D01*
X192779955Y-89356760D01*
X192779956Y-89356762D01*
X192840464Y-89502841D01*
X192936718Y-89628282D01*
X193062159Y-89724536D01*
X193208238Y-89785044D01*
X193278681Y-89794318D01*
X193364999Y-89805682D01*
X193365000Y-89805682D01*
X193365001Y-89805682D01*
X193417254Y-89798802D01*
X193521762Y-89785044D01*
X193667841Y-89724536D01*
X193793282Y-89628282D01*
X193889536Y-89502841D01*
X193889536Y-89502838D01*
X193889539Y-89502836D01*
X193893599Y-89495804D01*
X193895019Y-89496624D01*
X193932872Y-89449647D01*
X193999165Y-89427579D01*
X194003597Y-89427500D01*
X197833235Y-89427500D01*
X197900274Y-89447185D01*
X197931610Y-89476013D01*
X197952195Y-89502839D01*
X197971718Y-89528282D01*
X198097159Y-89624536D01*
X198243238Y-89685044D01*
X198313681Y-89694318D01*
X198399999Y-89705682D01*
X198400000Y-89705682D01*
X198400001Y-89705682D01*
X198452254Y-89698802D01*
X198556762Y-89685044D01*
X198702841Y-89624536D01*
X198828282Y-89528282D01*
X198924536Y-89402841D01*
X198985044Y-89256762D01*
X199005682Y-89100000D01*
X198985044Y-88943238D01*
X198924536Y-88797159D01*
X198828282Y-88671718D01*
X198702841Y-88575464D01*
X198556762Y-88514956D01*
X198556760Y-88514955D01*
X198400001Y-88494318D01*
X198399999Y-88494318D01*
X198243239Y-88514955D01*
X198243237Y-88514956D01*
X198097160Y-88575463D01*
X198097159Y-88575464D01*
X197971718Y-88671718D01*
X197971717Y-88671719D01*
X197971716Y-88671720D01*
X197931610Y-88723987D01*
X197875182Y-88765189D01*
X197833235Y-88772500D01*
X193836393Y-88772500D01*
X193769354Y-88752815D01*
X193760920Y-88746885D01*
X193667841Y-88675464D01*
X193664485Y-88674074D01*
X193521762Y-88614956D01*
X193521760Y-88614955D01*
X193365001Y-88594318D01*
X193364999Y-88594318D01*
X193208239Y-88614955D01*
X193208237Y-88614956D01*
X193062160Y-88675463D01*
X192936718Y-88771718D01*
X192840463Y-88897160D01*
X192779956Y-89043237D01*
X192779955Y-89043239D01*
X192759318Y-89199998D01*
X192759318Y-89200001D01*
X181234816Y-89200001D01*
X181328282Y-89128282D01*
X181424536Y-89002841D01*
X181485044Y-88856762D01*
X181505682Y-88700000D01*
X181502396Y-88675044D01*
X181485044Y-88543239D01*
X181485044Y-88543238D01*
X181424536Y-88397159D01*
X181328282Y-88271718D01*
X181202841Y-88175464D01*
X181157690Y-88156762D01*
X181056762Y-88114956D01*
X181056760Y-88114955D01*
X180900001Y-88094318D01*
X180899999Y-88094318D01*
X180743239Y-88114955D01*
X180743237Y-88114956D01*
X180597160Y-88175463D01*
X180471718Y-88271718D01*
X180375463Y-88397160D01*
X180314956Y-88543237D01*
X180314955Y-88543239D01*
X180294318Y-88699998D01*
X180294318Y-88700001D01*
X175750000Y-88700001D01*
X175750000Y-83100001D01*
X181494318Y-83100001D01*
X181514955Y-83256760D01*
X181514956Y-83256762D01*
X181547381Y-83335044D01*
X181575464Y-83402841D01*
X181671718Y-83528282D01*
X181797159Y-83624536D01*
X181943238Y-83685044D01*
X182021619Y-83695363D01*
X182099999Y-83705682D01*
X182100000Y-83705682D01*
X182100001Y-83705682D01*
X182152254Y-83698802D01*
X182256762Y-83685044D01*
X182402841Y-83624536D01*
X182528282Y-83528282D01*
X182624536Y-83402841D01*
X182685044Y-83256762D01*
X182705682Y-83100000D01*
X182699473Y-83052841D01*
X182685044Y-82943239D01*
X182685044Y-82943238D01*
X182624536Y-82797159D01*
X182528282Y-82671718D01*
X182402841Y-82575464D01*
X182256762Y-82514956D01*
X182256760Y-82514955D01*
X182100001Y-82494318D01*
X182099999Y-82494318D01*
X181943239Y-82514955D01*
X181943237Y-82514956D01*
X181797160Y-82575463D01*
X181671718Y-82671718D01*
X181575463Y-82797160D01*
X181514956Y-82943237D01*
X181514955Y-82943239D01*
X181494318Y-83099998D01*
X181494318Y-83100001D01*
X175750000Y-83100001D01*
X175750000Y-82324000D01*
X175769685Y-82256961D01*
X175822489Y-82211206D01*
X175874000Y-82200000D01*
X206126000Y-82200000D01*
X206193039Y-82219685D01*
G37*
%TD.AperFunction*%
%TD*%
%TA.AperFunction,Conductor*%
%TO.N,GNDA*%
G36*
X154000000Y-142874500D02*
G01*
X146216910Y-142874500D01*
X146211506Y-142874264D01*
X146205993Y-142873781D01*
X146171192Y-142870736D01*
X146132105Y-142881210D01*
X146126825Y-142882381D01*
X146086957Y-142889411D01*
X146081983Y-142891221D01*
X146065118Y-142898207D01*
X146060313Y-142900447D01*
X146027162Y-142923659D01*
X146022603Y-142926563D01*
X145987545Y-142946805D01*
X145987544Y-142946806D01*
X145976709Y-142959718D01*
X145918536Y-142998417D01*
X145865539Y-143002946D01*
X145800001Y-142994318D01*
X145799999Y-142994318D01*
X145643239Y-143014955D01*
X145643237Y-143014956D01*
X145497160Y-143075463D01*
X145371718Y-143171718D01*
X145275463Y-143297160D01*
X145214956Y-143443237D01*
X145214955Y-143443239D01*
X145194318Y-143599998D01*
X145194318Y-143600001D01*
X145214955Y-143756760D01*
X145214956Y-143756762D01*
X145250775Y-143843238D01*
X145275464Y-143902841D01*
X145371718Y-144028282D01*
X145497159Y-144124536D01*
X145643238Y-144185044D01*
X145721619Y-144195363D01*
X145799999Y-144205682D01*
X145800000Y-144205682D01*
X145800001Y-144205682D01*
X145852254Y-144198802D01*
X145956762Y-144185044D01*
X146102841Y-144124536D01*
X146228282Y-144028282D01*
X146324536Y-143902841D01*
X146385044Y-143756762D01*
X146401296Y-143633314D01*
X146429562Y-143569418D01*
X146487887Y-143530947D01*
X146524235Y-143525500D01*
X148860988Y-143525500D01*
X148928027Y-143545185D01*
X148973782Y-143597989D01*
X148983726Y-143667147D01*
X148975549Y-143696952D01*
X148914957Y-143843234D01*
X148914955Y-143843239D01*
X148894318Y-143999998D01*
X148894318Y-144000001D01*
X148914955Y-144156760D01*
X148914956Y-144156762D01*
X148950775Y-144243238D01*
X148975464Y-144302841D01*
X149071718Y-144428282D01*
X149197159Y-144524536D01*
X149343238Y-144585044D01*
X149421619Y-144595363D01*
X149499999Y-144605682D01*
X149500000Y-144605682D01*
X149500001Y-144605682D01*
X149552254Y-144598802D01*
X149656762Y-144585044D01*
X149802841Y-144524536D01*
X149928282Y-144428282D01*
X150024536Y-144302841D01*
X150085044Y-144156762D01*
X150105682Y-144000000D01*
X150085044Y-143843238D01*
X150064781Y-143794318D01*
X150024451Y-143696952D01*
X150016982Y-143627483D01*
X150048257Y-143565004D01*
X150108346Y-143529352D01*
X150139012Y-143525500D01*
X154000000Y-143525500D01*
X154000000Y-146750000D01*
X140024000Y-146750000D01*
X139956961Y-146730315D01*
X139911206Y-146677511D01*
X139900000Y-146626000D01*
X139900000Y-144400001D01*
X146894318Y-144400001D01*
X146914955Y-144556760D01*
X146914956Y-144556762D01*
X146975464Y-144702841D01*
X147071718Y-144828282D01*
X147197159Y-144924536D01*
X147343238Y-144985044D01*
X147421619Y-144995363D01*
X147499999Y-145005682D01*
X147500000Y-145005682D01*
X147500001Y-145005682D01*
X147552254Y-144998802D01*
X147656762Y-144985044D01*
X147802841Y-144924536D01*
X147928282Y-144828282D01*
X148024536Y-144702841D01*
X148085044Y-144556762D01*
X148105682Y-144400000D01*
X148085044Y-144243238D01*
X148024536Y-144097159D01*
X147928282Y-143971718D01*
X147802841Y-143875464D01*
X147656762Y-143814956D01*
X147656760Y-143814955D01*
X147500001Y-143794318D01*
X147499999Y-143794318D01*
X147343239Y-143814955D01*
X147343237Y-143814956D01*
X147197160Y-143875463D01*
X147071718Y-143971718D01*
X146975463Y-144097160D01*
X146914956Y-144243237D01*
X146914955Y-144243239D01*
X146894318Y-144399998D01*
X146894318Y-144400001D01*
X139900000Y-144400001D01*
X139900000Y-141450001D01*
X150944318Y-141450001D01*
X150964955Y-141606760D01*
X150964956Y-141606762D01*
X151025464Y-141752841D01*
X151121718Y-141878282D01*
X151247159Y-141974536D01*
X151393238Y-142035044D01*
X151471619Y-142045363D01*
X151549999Y-142055682D01*
X151550000Y-142055682D01*
X151550001Y-142055682D01*
X151602254Y-142048802D01*
X151706762Y-142035044D01*
X151852841Y-141974536D01*
X151978282Y-141878282D01*
X152074536Y-141752841D01*
X152135044Y-141606762D01*
X152155682Y-141450000D01*
X152135044Y-141293238D01*
X152074536Y-141147159D01*
X151978282Y-141021718D01*
X151852841Y-140925464D01*
X151706762Y-140864956D01*
X151706760Y-140864955D01*
X151550001Y-140844318D01*
X151549999Y-140844318D01*
X151393239Y-140864955D01*
X151393237Y-140864956D01*
X151247160Y-140925463D01*
X151121718Y-141021718D01*
X151025463Y-141147160D01*
X150964956Y-141293237D01*
X150964955Y-141293239D01*
X150944318Y-141449998D01*
X150944318Y-141450001D01*
X139900000Y-141450001D01*
X139900000Y-136300001D01*
X143994318Y-136300001D01*
X144014955Y-136456760D01*
X144014956Y-136456762D01*
X144075464Y-136602841D01*
X144171718Y-136728282D01*
X144297159Y-136824536D01*
X144443238Y-136885044D01*
X144521619Y-136895363D01*
X144599999Y-136905682D01*
X144600000Y-136905682D01*
X144600001Y-136905682D01*
X144652254Y-136898802D01*
X144756762Y-136885044D01*
X144902841Y-136824536D01*
X145028282Y-136728282D01*
X145124536Y-136602841D01*
X145185044Y-136456762D01*
X145205682Y-136300000D01*
X145185044Y-136143238D01*
X145124536Y-135997159D01*
X145028282Y-135871718D01*
X144902841Y-135775464D01*
X144756762Y-135714956D01*
X144756760Y-135714955D01*
X144600001Y-135694318D01*
X144599999Y-135694318D01*
X144443239Y-135714955D01*
X144443237Y-135714956D01*
X144297160Y-135775463D01*
X144171718Y-135871718D01*
X144075463Y-135997160D01*
X144014956Y-136143237D01*
X144014955Y-136143239D01*
X143994318Y-136299998D01*
X143994318Y-136300001D01*
X139900000Y-136300001D01*
X139900000Y-134700001D01*
X146094318Y-134700001D01*
X146114955Y-134856760D01*
X146114956Y-134856762D01*
X146175464Y-135002841D01*
X146271718Y-135128282D01*
X146397159Y-135224536D01*
X146543238Y-135285044D01*
X146621619Y-135295363D01*
X146699999Y-135305682D01*
X146700000Y-135305682D01*
X146700001Y-135305682D01*
X146752254Y-135298802D01*
X146856762Y-135285044D01*
X147002841Y-135224536D01*
X147128282Y-135128282D01*
X147224536Y-135002841D01*
X147285044Y-134856762D01*
X147305682Y-134700000D01*
X147285044Y-134543238D01*
X147224536Y-134397159D01*
X147128282Y-134271718D01*
X147002841Y-134175464D01*
X146856762Y-134114956D01*
X146856760Y-134114955D01*
X146700001Y-134094318D01*
X146699999Y-134094318D01*
X146543239Y-134114955D01*
X146543237Y-134114956D01*
X146397160Y-134175463D01*
X146271718Y-134271718D01*
X146175463Y-134397160D01*
X146114956Y-134543237D01*
X146114955Y-134543239D01*
X146094318Y-134699998D01*
X146094318Y-134700001D01*
X139900000Y-134700001D01*
X139900000Y-133951362D01*
X139919685Y-133884323D01*
X139936319Y-133863681D01*
X139963681Y-133836319D01*
X140025004Y-133802834D01*
X140051362Y-133800000D01*
X154000000Y-133800000D01*
X154000000Y-142874500D01*
G37*
%TD.AperFunction*%
%TD*%
%TA.AperFunction,Conductor*%
%TO.N,AC_SENSOR_LIVE_IN*%
G36*
X133943039Y-102519685D02*
G01*
X133988794Y-102572489D01*
X134000000Y-102624000D01*
X134000000Y-115876000D01*
X133980315Y-115943039D01*
X133927511Y-115988794D01*
X133876000Y-116000000D01*
X125924000Y-116000000D01*
X125856961Y-115980315D01*
X125811206Y-115927511D01*
X125800000Y-115876000D01*
X125800000Y-113200000D01*
X125000000Y-113200000D01*
X125000000Y-115876000D01*
X124980315Y-115943039D01*
X124927511Y-115988794D01*
X124876000Y-116000000D01*
X120624000Y-116000000D01*
X120556961Y-115980315D01*
X120511206Y-115927511D01*
X120500000Y-115876000D01*
X120500000Y-102624000D01*
X120519685Y-102556961D01*
X120572489Y-102511206D01*
X120624000Y-102500000D01*
X133876000Y-102500000D01*
X133943039Y-102519685D01*
G37*
%TD.AperFunction*%
%TD*%
%TA.AperFunction,Conductor*%
%TO.N,AC_NEUTRAL_OUT*%
G36*
X133943039Y-71519685D02*
G01*
X133988794Y-71572489D01*
X134000000Y-71624000D01*
X134000000Y-81876000D01*
X133980315Y-81943039D01*
X133927511Y-81988794D01*
X133876000Y-82000000D01*
X105624000Y-82000000D01*
X105556961Y-81980315D01*
X105511206Y-81927511D01*
X105500000Y-81876000D01*
X105500000Y-71624000D01*
X105519685Y-71556961D01*
X105572489Y-71511206D01*
X105624000Y-71500000D01*
X133876000Y-71500000D01*
X133943039Y-71519685D01*
G37*
%TD.AperFunction*%
%TD*%
%TA.AperFunction,Conductor*%
%TO.N,GNDS*%
G36*
X171702935Y-81829685D02*
G01*
X171748690Y-81882489D01*
X171759896Y-81934104D01*
X171750747Y-92858736D01*
X171750104Y-93626104D01*
X171730363Y-93693127D01*
X171677521Y-93738837D01*
X171626104Y-93750000D01*
X156124000Y-93750000D01*
X156056961Y-93730315D01*
X156011206Y-93677511D01*
X156000000Y-93626000D01*
X156000000Y-92496974D01*
X159859500Y-92496974D01*
X159874649Y-92607193D01*
X159874650Y-92607196D01*
X159933844Y-92743476D01*
X159983336Y-92804310D01*
X160027610Y-92858730D01*
X160027617Y-92858736D01*
X160148994Y-92944413D01*
X160148997Y-92944414D01*
X160288998Y-92994171D01*
X160437232Y-93004310D01*
X160582704Y-92974081D01*
X160714626Y-92905724D01*
X160823214Y-92804310D01*
X160900414Y-92677360D01*
X160940500Y-92534290D01*
X160940500Y-92003026D01*
X160925350Y-91892804D01*
X160866156Y-91756524D01*
X160772389Y-91641269D01*
X160772382Y-91641263D01*
X160651005Y-91555586D01*
X160511003Y-91505829D01*
X160362770Y-91495690D01*
X160362769Y-91495690D01*
X160362768Y-91495690D01*
X160265786Y-91515842D01*
X160217295Y-91525919D01*
X160217293Y-91525920D01*
X160085375Y-91594275D01*
X160085369Y-91594279D01*
X159976785Y-91695690D01*
X159976785Y-91695691D01*
X159899587Y-91822637D01*
X159859500Y-91965711D01*
X159859500Y-92496974D01*
X156000000Y-92496974D01*
X156000000Y-90400001D01*
X159794318Y-90400001D01*
X159814955Y-90556760D01*
X159814956Y-90556762D01*
X159874613Y-90700788D01*
X159875464Y-90702841D01*
X159971718Y-90828282D01*
X160097159Y-90924536D01*
X160243238Y-90985044D01*
X160321619Y-90995363D01*
X160399999Y-91005682D01*
X160400000Y-91005682D01*
X160400001Y-91005682D01*
X160452254Y-90998802D01*
X160556762Y-90985044D01*
X160702841Y-90924536D01*
X160828282Y-90828282D01*
X160924536Y-90702841D01*
X160985044Y-90556762D01*
X161005682Y-90400000D01*
X160985044Y-90243238D01*
X160924536Y-90097159D01*
X160828282Y-89971718D01*
X160702841Y-89875464D01*
X160556762Y-89814956D01*
X160556760Y-89814955D01*
X160400001Y-89794318D01*
X160399999Y-89794318D01*
X160243239Y-89814955D01*
X160243237Y-89814956D01*
X160097160Y-89875463D01*
X159971718Y-89971718D01*
X159875463Y-90097160D01*
X159814956Y-90243237D01*
X159814955Y-90243239D01*
X159794318Y-90399998D01*
X159794318Y-90400001D01*
X156000000Y-90400001D01*
X156000000Y-88090001D01*
X158444318Y-88090001D01*
X158464955Y-88246760D01*
X158464956Y-88246762D01*
X158525464Y-88392841D01*
X158621718Y-88518282D01*
X158747159Y-88614536D01*
X158893238Y-88675044D01*
X158947290Y-88682160D01*
X159049999Y-88695682D01*
X159050000Y-88695682D01*
X159149061Y-88682640D01*
X159218096Y-88693405D01*
X159252927Y-88717898D01*
X159428079Y-88893050D01*
X159433722Y-88899534D01*
X159441042Y-88909227D01*
X159441043Y-88909229D01*
X159465660Y-88931670D01*
X159476376Y-88941440D01*
X159478424Y-88943395D01*
X159492204Y-88957175D01*
X159494414Y-88958689D01*
X159501144Y-88964019D01*
X159507308Y-88969638D01*
X159524065Y-88984915D01*
X159524066Y-88984915D01*
X159524068Y-88984917D01*
X159530531Y-88987420D01*
X159555808Y-89000744D01*
X159561520Y-89004657D01*
X159591703Y-89011755D01*
X159599904Y-89014295D01*
X159628828Y-89025501D01*
X159635752Y-89025501D01*
X159664142Y-89028794D01*
X159670882Y-89030380D01*
X159701592Y-89026096D01*
X159710167Y-89025501D01*
X162735596Y-89025501D01*
X162802635Y-89045186D01*
X162848390Y-89097990D01*
X162858535Y-89133316D01*
X162864912Y-89181762D01*
X162864913Y-89181764D01*
X162925421Y-89327843D01*
X163021675Y-89453284D01*
X163147116Y-89549538D01*
X163293195Y-89610046D01*
X163371576Y-89620365D01*
X163449956Y-89630684D01*
X163449957Y-89630684D01*
X163449958Y-89630684D01*
X163502211Y-89623804D01*
X163606719Y-89610046D01*
X163752798Y-89549538D01*
X163878239Y-89453284D01*
X163974493Y-89327843D01*
X164035001Y-89181764D01*
X164041379Y-89133314D01*
X164069645Y-89069419D01*
X164127969Y-89030947D01*
X164164318Y-89025500D01*
X166130967Y-89025500D01*
X166198006Y-89045185D01*
X166218648Y-89061819D01*
X166338181Y-89181352D01*
X166371666Y-89242675D01*
X166374500Y-89269033D01*
X166374500Y-90130967D01*
X166354815Y-90198006D01*
X166338181Y-90218648D01*
X165968648Y-90588181D01*
X165907325Y-90621666D01*
X165880967Y-90624500D01*
X165057766Y-90624500D01*
X164990727Y-90604815D01*
X164944972Y-90552011D01*
X164934827Y-90516685D01*
X164928449Y-90468239D01*
X164928449Y-90468238D01*
X164867941Y-90322159D01*
X164771687Y-90196718D01*
X164646246Y-90100464D01*
X164638269Y-90097160D01*
X164500167Y-90039956D01*
X164500165Y-90039955D01*
X164343406Y-90019318D01*
X164343404Y-90019318D01*
X164186644Y-90039955D01*
X164186642Y-90039956D01*
X164040565Y-90100463D01*
X163915123Y-90196718D01*
X163818868Y-90322160D01*
X163758361Y-90468237D01*
X163758360Y-90468239D01*
X163737723Y-90624998D01*
X163737723Y-90625001D01*
X163758360Y-90781760D01*
X163758361Y-90781762D01*
X163818869Y-90927841D01*
X163915123Y-91053282D01*
X163915125Y-91053283D01*
X163915127Y-91053286D01*
X163920870Y-91059029D01*
X163919425Y-91060473D01*
X163954168Y-91108060D01*
X163958318Y-91177806D01*
X163924102Y-91238724D01*
X163916722Y-91245118D01*
X163915127Y-91246713D01*
X163818868Y-91372160D01*
X163758361Y-91518237D01*
X163758360Y-91518239D01*
X163737723Y-91674998D01*
X163737723Y-91675001D01*
X163758360Y-91831760D01*
X163758361Y-91831762D01*
X163813844Y-91965711D01*
X163818869Y-91977841D01*
X163915123Y-92103282D01*
X164040564Y-92199536D01*
X164186643Y-92260044D01*
X164265024Y-92270363D01*
X164343404Y-92280682D01*
X164343405Y-92280682D01*
X164343406Y-92280682D01*
X164395659Y-92273802D01*
X164500167Y-92260044D01*
X164646246Y-92199536D01*
X164771687Y-92103282D01*
X164867941Y-91977841D01*
X164928449Y-91831762D01*
X164934827Y-91783314D01*
X164963093Y-91719418D01*
X165021418Y-91680947D01*
X165057766Y-91675500D01*
X166180359Y-91675500D01*
X166188933Y-91676095D01*
X166200961Y-91677772D01*
X166200961Y-91677771D01*
X166200965Y-91677773D01*
X166244120Y-91675778D01*
X166248710Y-91675566D01*
X166251573Y-91675500D01*
X166271043Y-91675500D01*
X166271044Y-91675500D01*
X166273669Y-91675009D01*
X166282221Y-91674016D01*
X166283445Y-91673959D01*
X166313192Y-91672585D01*
X166319522Y-91669789D01*
X166346829Y-91661332D01*
X166353633Y-91660061D01*
X166379997Y-91643736D01*
X166387592Y-91639733D01*
X166415965Y-91627206D01*
X166420861Y-91622309D01*
X166443269Y-91604561D01*
X166449152Y-91600919D01*
X166467849Y-91576158D01*
X166473466Y-91569703D01*
X167293063Y-90750107D01*
X167299536Y-90744476D01*
X167309224Y-90737159D01*
X167309228Y-90737158D01*
X167341449Y-90701811D01*
X167343357Y-90699813D01*
X167357175Y-90685997D01*
X167358692Y-90683781D01*
X167364017Y-90677056D01*
X167384916Y-90654133D01*
X167387415Y-90647680D01*
X167400750Y-90622383D01*
X167401241Y-90621666D01*
X167404657Y-90616680D01*
X167411757Y-90586485D01*
X167414294Y-90578294D01*
X167425500Y-90549373D01*
X167425500Y-90542447D01*
X167428794Y-90514055D01*
X167430379Y-90507318D01*
X167426094Y-90476605D01*
X167425500Y-90468031D01*
X167425500Y-88969638D01*
X167426095Y-88961062D01*
X167427771Y-88949039D01*
X167427773Y-88949035D01*
X167425566Y-88901290D01*
X167425500Y-88898427D01*
X167425500Y-88878959D01*
X167425499Y-88878953D01*
X167425009Y-88876333D01*
X167424016Y-88867780D01*
X167422585Y-88836808D01*
X167419788Y-88830475D01*
X167411332Y-88803168D01*
X167410061Y-88796367D01*
X167393736Y-88770002D01*
X167389735Y-88762412D01*
X167377206Y-88734035D01*
X167372309Y-88729138D01*
X167354563Y-88706734D01*
X167350918Y-88700847D01*
X167326172Y-88682160D01*
X167319694Y-88676523D01*
X166750122Y-88106951D01*
X166744478Y-88100465D01*
X166737156Y-88090770D01*
X166701824Y-88058560D01*
X166699773Y-88056602D01*
X166685997Y-88042826D01*
X166683786Y-88041311D01*
X166677053Y-88035978D01*
X166654133Y-88015084D01*
X166647670Y-88012580D01*
X166622392Y-87999256D01*
X166616681Y-87995344D01*
X166616678Y-87995343D01*
X166616679Y-87995343D01*
X166586502Y-87988244D01*
X166578294Y-87985703D01*
X166549373Y-87974500D01*
X166542449Y-87974500D01*
X166514058Y-87971206D01*
X166507319Y-87969621D01*
X166476609Y-87973905D01*
X166468034Y-87974500D01*
X164159385Y-87974500D01*
X164092346Y-87954815D01*
X164046591Y-87902011D01*
X164039257Y-87876471D01*
X164038820Y-87876589D01*
X164036717Y-87868740D01*
X164036717Y-87868739D01*
X163976209Y-87722660D01*
X163879955Y-87597219D01*
X163754514Y-87500965D01*
X163608435Y-87440457D01*
X163608433Y-87440456D01*
X163451674Y-87419819D01*
X163451672Y-87419819D01*
X163294912Y-87440456D01*
X163294910Y-87440457D01*
X163148833Y-87500964D01*
X163023391Y-87597219D01*
X162927136Y-87722661D01*
X162866629Y-87868738D01*
X162866628Y-87868740D01*
X162845991Y-88025499D01*
X162845991Y-88025502D01*
X162866628Y-88182261D01*
X162866630Y-88182266D01*
X162895949Y-88253049D01*
X162903418Y-88322518D01*
X162872143Y-88384997D01*
X162812053Y-88420649D01*
X162781388Y-88424501D01*
X159860834Y-88424501D01*
X159793795Y-88404816D01*
X159773153Y-88388182D01*
X159677898Y-88292927D01*
X159644413Y-88231604D01*
X159642640Y-88189063D01*
X159655682Y-88090000D01*
X159651282Y-88056581D01*
X159635044Y-87933239D01*
X159635044Y-87933238D01*
X159574536Y-87787159D01*
X159478282Y-87661718D01*
X159352841Y-87565464D01*
X159206762Y-87504956D01*
X159206760Y-87504955D01*
X159050001Y-87484318D01*
X159049999Y-87484318D01*
X158893239Y-87504955D01*
X158893237Y-87504956D01*
X158747160Y-87565463D01*
X158621718Y-87661718D01*
X158525463Y-87787160D01*
X158464956Y-87933237D01*
X158464955Y-87933239D01*
X158444318Y-88089998D01*
X158444318Y-88090001D01*
X156000000Y-88090001D01*
X156000000Y-86510001D01*
X159794318Y-86510001D01*
X159814955Y-86666760D01*
X159814956Y-86666762D01*
X159875464Y-86812841D01*
X159971718Y-86938282D01*
X160097159Y-87034536D01*
X160243238Y-87095044D01*
X160321619Y-87105363D01*
X160399999Y-87115682D01*
X160400000Y-87115682D01*
X160400001Y-87115682D01*
X160452254Y-87108802D01*
X160556762Y-87095044D01*
X160702841Y-87034536D01*
X160828282Y-86938282D01*
X160924536Y-86812841D01*
X160985044Y-86666762D01*
X161005682Y-86510000D01*
X160985044Y-86353238D01*
X160924536Y-86207159D01*
X160828282Y-86081718D01*
X160702841Y-85985464D01*
X160556762Y-85924956D01*
X160556760Y-85924955D01*
X160400001Y-85904318D01*
X160399999Y-85904318D01*
X160243239Y-85924955D01*
X160243237Y-85924956D01*
X160097160Y-85985463D01*
X159971718Y-86081718D01*
X159875463Y-86207160D01*
X159814956Y-86353237D01*
X159814955Y-86353239D01*
X159794318Y-86509998D01*
X159794318Y-86510001D01*
X156000000Y-86510001D01*
X156000000Y-85374000D01*
X156019685Y-85306961D01*
X156072489Y-85261206D01*
X156124000Y-85250000D01*
X160065522Y-85250000D01*
X160112974Y-85259439D01*
X160185769Y-85289591D01*
X160248459Y-85315558D01*
X160361953Y-85330500D01*
X160361960Y-85330500D01*
X160438040Y-85330500D01*
X160438047Y-85330500D01*
X160551541Y-85315558D01*
X160640317Y-85278785D01*
X160687026Y-85259439D01*
X160734478Y-85250000D01*
X164500000Y-85250000D01*
X164505743Y-83274536D01*
X164507268Y-82750001D01*
X167144318Y-82750001D01*
X167164955Y-82906760D01*
X167164956Y-82906762D01*
X167225464Y-83052841D01*
X167321718Y-83178282D01*
X167447159Y-83274536D01*
X167593238Y-83335044D01*
X167671619Y-83345363D01*
X167749999Y-83355682D01*
X167750000Y-83355682D01*
X167750001Y-83355682D01*
X167802254Y-83348802D01*
X167906762Y-83335044D01*
X168052841Y-83274536D01*
X168178282Y-83178282D01*
X168274536Y-83052841D01*
X168274535Y-83052841D01*
X168276624Y-83050120D01*
X168333052Y-83008917D01*
X168402798Y-83004762D01*
X168463718Y-83038974D01*
X168473376Y-83050120D01*
X168475464Y-83052841D01*
X168571718Y-83178282D01*
X168697159Y-83274536D01*
X168843238Y-83335044D01*
X168921619Y-83345363D01*
X168999999Y-83355682D01*
X169000000Y-83355682D01*
X169000001Y-83355682D01*
X169052254Y-83348802D01*
X169156762Y-83335044D01*
X169302841Y-83274536D01*
X169428282Y-83178282D01*
X169524536Y-83052841D01*
X169585044Y-82906762D01*
X169605682Y-82750000D01*
X169585044Y-82593238D01*
X169524536Y-82447159D01*
X169428282Y-82321718D01*
X169302841Y-82225464D01*
X169156762Y-82164956D01*
X169156760Y-82164955D01*
X169000001Y-82144318D01*
X168999999Y-82144318D01*
X168843239Y-82164955D01*
X168843237Y-82164956D01*
X168697160Y-82225463D01*
X168571718Y-82321718D01*
X168473376Y-82449880D01*
X168416947Y-82491082D01*
X168347201Y-82495237D01*
X168286281Y-82461024D01*
X168276624Y-82449880D01*
X168266957Y-82437282D01*
X168178282Y-82321718D01*
X168052841Y-82225464D01*
X167906762Y-82164956D01*
X167906760Y-82164955D01*
X167750001Y-82144318D01*
X167749999Y-82144318D01*
X167593239Y-82164955D01*
X167593237Y-82164956D01*
X167447160Y-82225463D01*
X167321718Y-82321718D01*
X167225463Y-82447160D01*
X167164956Y-82593237D01*
X167164955Y-82593239D01*
X167144318Y-82749998D01*
X167144318Y-82750001D01*
X164507268Y-82750001D01*
X164509641Y-81933640D01*
X164529520Y-81866658D01*
X164582457Y-81821056D01*
X164633640Y-81810000D01*
X171635896Y-81810000D01*
X171702935Y-81829685D01*
G37*
%TD.AperFunction*%
%TD*%
M02*
