%TF.GenerationSoftware,KiCad,Pcbnew,7.0.9*%
%TF.CreationDate,2024-05-06T20:13:39+08:00*%
%TF.ProjectId,power_monitor_v0.1,706f7765-725f-46d6-9f6e-69746f725f76,rev?*%
%TF.SameCoordinates,Original*%
%TF.FileFunction,Soldermask,Bot*%
%TF.FilePolarity,Negative*%
%FSLAX46Y46*%
G04 Gerber Fmt 4.6, Leading zero omitted, Abs format (unit mm)*
G04 Created by KiCad (PCBNEW 7.0.9) date 2024-05-06 20:13:39*
%MOMM*%
%LPD*%
G01*
G04 APERTURE LIST*
G04 Aperture macros list*
%AMRoundRect*
0 Rectangle with rounded corners*
0 $1 Rounding radius*
0 $2 $3 $4 $5 $6 $7 $8 $9 X,Y pos of 4 corners*
0 Add a 4 corners polygon primitive as box body*
4,1,4,$2,$3,$4,$5,$6,$7,$8,$9,$2,$3,0*
0 Add four circle primitives for the rounded corners*
1,1,$1+$1,$2,$3*
1,1,$1+$1,$4,$5*
1,1,$1+$1,$6,$7*
1,1,$1+$1,$8,$9*
0 Add four rect primitives between the rounded corners*
20,1,$1+$1,$2,$3,$4,$5,0*
20,1,$1+$1,$4,$5,$6,$7,0*
20,1,$1+$1,$6,$7,$8,$9,0*
20,1,$1+$1,$8,$9,$2,$3,0*%
G04 Aperture macros list end*
%ADD10C,0.660000*%
%ADD11O,0.580000X1.000000*%
%ADD12C,1.100000*%
%ADD13C,3.000000*%
%ADD14R,3.000000X3.000000*%
%ADD15RoundRect,1.000000X1.750000X1.000000X-1.750000X1.000000X-1.750000X-1.000000X1.750000X-1.000000X0*%
%ADD16RoundRect,1.000000X-1.000000X1.750000X-1.000000X-1.750000X1.000000X-1.750000X1.000000X1.750000X0*%
%ADD17C,2.000000*%
%ADD18RoundRect,0.250001X-0.949999X0.949999X-0.949999X-0.949999X0.949999X-0.949999X0.949999X0.949999X0*%
%ADD19C,2.400000*%
%ADD20C,4.000000*%
%ADD21C,1.600000*%
%ADD22C,7.204000*%
G04 APERTURE END LIST*
D10*
%TO.C,J8*%
X160400000Y-84750000D03*
D11*
X160400000Y-92250000D03*
D12*
X162550000Y-86100000D03*
X158250000Y-86100000D03*
X162550000Y-90900000D03*
X158250000Y-90900000D03*
%TD*%
D13*
%TO.C,J4*%
X114600000Y-131500000D03*
X107400000Y-131500000D03*
X107400000Y-136500000D03*
X114600000Y-136500000D03*
%TD*%
D14*
%TO.C,PS1*%
X154042500Y-66100000D03*
D13*
X154042500Y-76850000D03*
X192542500Y-76850000D03*
X192542500Y-68850000D03*
%TD*%
%TO.C,J7*%
X114600000Y-140100000D03*
X107400000Y-140100000D03*
X107400000Y-145100000D03*
X114600000Y-145100000D03*
%TD*%
D15*
%TO.C,K1*%
X130220000Y-108407500D03*
D16*
X126790000Y-89657500D03*
D17*
X142230000Y-93457500D03*
X142230000Y-103627500D03*
%TD*%
D13*
%TO.C,J3*%
X107400000Y-62500000D03*
X114600000Y-62500000D03*
X114600000Y-57500000D03*
X107400000Y-57500000D03*
%TD*%
%TO.C,J2*%
X107400000Y-93500000D03*
X114600000Y-93500000D03*
X114600000Y-88500000D03*
X107400000Y-88500000D03*
%TD*%
D15*
%TO.C,K2*%
X130220000Y-79407500D03*
D16*
X126790000Y-60657500D03*
D17*
X142230000Y-64457500D03*
X142230000Y-74627500D03*
%TD*%
D18*
%TO.C,J1*%
X133400000Y-137200000D03*
D19*
X133400000Y-141160000D03*
%TD*%
D13*
%TO.C,J5*%
X107400000Y-78500000D03*
X114600000Y-78500000D03*
X114600000Y-73500000D03*
X107400000Y-73500000D03*
%TD*%
D20*
%TO.C,U8*%
X101000000Y-61600000D03*
X101000000Y-140000000D03*
X199470000Y-140000000D03*
X199700000Y-61600000D03*
%TD*%
D12*
%TO.C,U6*%
X198060000Y-112830000D03*
D21*
X198060000Y-132830000D03*
D22*
X157600000Y-122849000D03*
%TD*%
D13*
%TO.C,J6*%
X107400000Y-109500000D03*
X114600000Y-109500000D03*
X114600000Y-104500000D03*
X107400000Y-104500000D03*
%TD*%
M02*
