%TF.GenerationSoftware,KiCad,Pcbnew,7.0.9*%
%TF.CreationDate,2024-05-06T20:13:39+08:00*%
%TF.ProjectId,power_monitor_v0.1,706f7765-725f-46d6-9f6e-69746f725f76,rev?*%
%TF.SameCoordinates,Original*%
%TF.FileFunction,Copper,L3,Inr*%
%TF.FilePolarity,Positive*%
%FSLAX46Y46*%
G04 Gerber Fmt 4.6, Leading zero omitted, Abs format (unit mm)*
G04 Created by KiCad (PCBNEW 7.0.9) date 2024-05-06 20:13:39*
%MOMM*%
%LPD*%
G01*
G04 APERTURE LIST*
G04 Aperture macros list*
%AMRoundRect*
0 Rectangle with rounded corners*
0 $1 Rounding radius*
0 $2 $3 $4 $5 $6 $7 $8 $9 X,Y pos of 4 corners*
0 Add a 4 corners polygon primitive as box body*
4,1,4,$2,$3,$4,$5,$6,$7,$8,$9,$2,$3,0*
0 Add four circle primitives for the rounded corners*
1,1,$1+$1,$2,$3*
1,1,$1+$1,$4,$5*
1,1,$1+$1,$6,$7*
1,1,$1+$1,$8,$9*
0 Add four rect primitives between the rounded corners*
20,1,$1+$1,$2,$3,$4,$5,0*
20,1,$1+$1,$4,$5,$6,$7,0*
20,1,$1+$1,$6,$7,$8,$9,0*
20,1,$1+$1,$8,$9,$2,$3,0*%
G04 Aperture macros list end*
%TA.AperFunction,ComponentPad*%
%ADD10C,1.100000*%
%TD*%
%TA.AperFunction,ComponentPad*%
%ADD11C,3.000000*%
%TD*%
%TA.AperFunction,ComponentPad*%
%ADD12R,3.000000X3.000000*%
%TD*%
%TA.AperFunction,ComponentPad*%
%ADD13RoundRect,1.000000X1.750000X1.000000X-1.750000X1.000000X-1.750000X-1.000000X1.750000X-1.000000X0*%
%TD*%
%TA.AperFunction,ComponentPad*%
%ADD14RoundRect,1.000000X-1.000000X1.750000X-1.000000X-1.750000X1.000000X-1.750000X1.000000X1.750000X0*%
%TD*%
%TA.AperFunction,ComponentPad*%
%ADD15C,2.000000*%
%TD*%
%TA.AperFunction,ComponentPad*%
%ADD16C,0.600000*%
%TD*%
%TA.AperFunction,ComponentPad*%
%ADD17RoundRect,0.250001X-0.949999X0.949999X-0.949999X-0.949999X0.949999X-0.949999X0.949999X0.949999X0*%
%TD*%
%TA.AperFunction,ComponentPad*%
%ADD18C,2.400000*%
%TD*%
%TA.AperFunction,ComponentPad*%
%ADD19C,7.000000*%
%TD*%
%TA.AperFunction,ViaPad*%
%ADD20C,0.500000*%
%TD*%
%TA.AperFunction,ViaPad*%
%ADD21C,0.800000*%
%TD*%
%TA.AperFunction,Conductor*%
%ADD22C,1.000000*%
%TD*%
%TA.AperFunction,Conductor*%
%ADD23C,0.500000*%
%TD*%
%TA.AperFunction,Conductor*%
%ADD24C,0.254000*%
%TD*%
%TA.AperFunction,Conductor*%
%ADD25C,0.300000*%
%TD*%
%TA.AperFunction,Conductor*%
%ADD26C,2.000000*%
%TD*%
G04 APERTURE END LIST*
D10*
%TO.N,GNDS*%
%TO.C,J8*%
X162550000Y-86100000D03*
X158250000Y-86100000D03*
X162550000Y-90900000D03*
X158250000Y-90900000D03*
%TD*%
D11*
%TO.N,Net-(J4-Pad1)*%
%TO.C,J4*%
X114600000Y-131500000D03*
X107400000Y-131500000D03*
X107400000Y-136500000D03*
X114600000Y-136500000D03*
%TD*%
D12*
%TO.N,AC_NEUTRAL_IN*%
%TO.C,PS1*%
X154042500Y-66100000D03*
D11*
%TO.N,AC_LIVE_IN*%
X154042500Y-76850000D03*
%TO.N,GNDA*%
X192542500Y-76850000D03*
%TO.N,+12V*%
X192542500Y-68850000D03*
%TD*%
%TO.N,Net-(J4-Pad1)*%
%TO.C,J7*%
X114600000Y-140100000D03*
X107400000Y-140100000D03*
X107400000Y-145100000D03*
X114600000Y-145100000D03*
%TD*%
D13*
%TO.N,AC_SENSOR_LIVE_IN*%
%TO.C,K1*%
X130220000Y-108407500D03*
D14*
%TO.N,AC_LIVE_IN*%
X126790000Y-89657500D03*
D15*
%TO.N,Net-(D2-A)*%
X142230000Y-93457500D03*
%TO.N,+12V*%
X142230000Y-103627500D03*
%TD*%
D11*
%TO.N,AC_NEUTRAL_IN*%
%TO.C,J3*%
X107400000Y-62500000D03*
X114600000Y-62500000D03*
X114600000Y-57500000D03*
X107400000Y-57500000D03*
%TD*%
%TO.N,AC_LIVE_IN*%
%TO.C,J2*%
X107400000Y-93500000D03*
X114600000Y-93500000D03*
X114600000Y-88500000D03*
X107400000Y-88500000D03*
%TD*%
D16*
%TO.N,GNDA*%
%TO.C,U4*%
X192200000Y-93575000D03*
X193400000Y-93575000D03*
X194700000Y-93575000D03*
X195800000Y-93575000D03*
X192200000Y-92375000D03*
X193400000Y-92375000D03*
X194700000Y-92375000D03*
X195800000Y-92375000D03*
%TD*%
D13*
%TO.N,AC_NEUTRAL_OUT*%
%TO.C,K2*%
X130220000Y-79407500D03*
D14*
%TO.N,AC_NEUTRAL_IN*%
X126790000Y-60657500D03*
D15*
%TO.N,Net-(D3-A)*%
X142230000Y-64457500D03*
%TO.N,+12V*%
X142230000Y-74627500D03*
%TD*%
D17*
%TO.N,Net-(J1-Pin_1)*%
%TO.C,J1*%
X133400000Y-137200000D03*
D18*
%TO.N,Net-(J1-Pin_2)*%
X133400000Y-141160000D03*
%TD*%
D11*
%TO.N,AC_NEUTRAL_OUT*%
%TO.C,J5*%
X107400000Y-78500000D03*
X114600000Y-78500000D03*
X114600000Y-73500000D03*
X107400000Y-73500000D03*
%TD*%
D19*
%TO.N,GNDA*%
%TO.C,U6*%
X157600000Y-122849000D03*
%TD*%
D11*
%TO.N,AC_SENSOR_LIVE_OUT*%
%TO.C,J6*%
X107400000Y-109500000D03*
X114600000Y-109500000D03*
X114600000Y-104500000D03*
X107400000Y-104500000D03*
%TD*%
D20*
%TO.N,GNDA*%
X150700000Y-136900000D03*
X202250000Y-93250000D03*
X184500000Y-111000000D03*
X197200000Y-122100000D03*
X154500000Y-118500000D03*
X184750000Y-144250000D03*
X174000000Y-103500000D03*
X190000000Y-108500000D03*
X168910000Y-113030000D03*
X154000000Y-142500000D03*
X186500000Y-124000000D03*
X200400000Y-99800000D03*
X183750000Y-106500000D03*
X205000000Y-130800000D03*
X167300000Y-99500000D03*
X196900000Y-99800000D03*
X145500000Y-141500000D03*
X180500000Y-123500000D03*
X184000000Y-129500000D03*
X165000000Y-140000000D03*
X189000000Y-118500000D03*
X189250000Y-142250000D03*
X192000000Y-88250000D03*
X146950000Y-136900000D03*
X205000000Y-120900000D03*
X186500000Y-113000000D03*
X205000000Y-132300000D03*
X205500000Y-99750000D03*
X205000000Y-137900000D03*
X174000000Y-104500000D03*
X165500000Y-123000000D03*
X153100000Y-145300000D03*
X191000000Y-119500000D03*
X205000000Y-116100000D03*
X205000000Y-135600000D03*
X197200000Y-115900000D03*
X186500000Y-119500000D03*
X181750000Y-95500000D03*
X151500000Y-136900000D03*
X155300000Y-138600000D03*
X168900000Y-99500000D03*
X175500000Y-128500000D03*
X176500000Y-87000000D03*
X179000000Y-128500000D03*
X158000000Y-141000000D03*
X176750000Y-106500000D03*
X177000000Y-97000000D03*
X176500000Y-84000000D03*
X173000000Y-136500000D03*
X170000000Y-130000000D03*
X174250000Y-98600000D03*
X182750000Y-105500000D03*
X197200000Y-126700000D03*
X181750000Y-101750000D03*
X205500000Y-107750000D03*
X161750000Y-118750000D03*
X174949503Y-98600000D03*
X194400000Y-127600000D03*
X201400000Y-102000000D03*
X146600000Y-144000000D03*
X200000000Y-118300000D03*
X157000000Y-135855000D03*
X205500000Y-105750000D03*
X200000000Y-112000000D03*
X165750000Y-142250000D03*
X196200000Y-98400000D03*
X201400000Y-104800000D03*
X179000000Y-123500000D03*
X186750000Y-142250000D03*
X157992352Y-95992352D03*
X146800000Y-135800000D03*
X177800000Y-110490000D03*
X185000000Y-128000000D03*
X181250000Y-106500000D03*
X186100000Y-89450000D03*
X173000000Y-123500000D03*
X181500000Y-144250000D03*
X195100000Y-99800000D03*
X184750000Y-105500000D03*
X140200000Y-134300000D03*
X176500000Y-88000000D03*
X175300000Y-105500000D03*
X163000000Y-146000000D03*
X205500000Y-98000000D03*
X148000000Y-141600000D03*
X175500000Y-130000000D03*
X197200000Y-129300000D03*
X177800000Y-115570000D03*
X188200000Y-88250000D03*
X159700000Y-124600000D03*
X148500000Y-138000000D03*
X202250000Y-99750000D03*
X156500000Y-108000000D03*
X165750000Y-125000000D03*
X143800000Y-135000000D03*
X168250000Y-100250000D03*
X161750000Y-121250000D03*
X169000000Y-106500000D03*
X156500000Y-110000000D03*
X205000000Y-119800000D03*
X122750000Y-122950000D03*
X145500000Y-146000000D03*
X194400000Y-132200000D03*
X190000000Y-115500000D03*
X172000000Y-146500000D03*
X165000000Y-134500000D03*
X143800000Y-134300000D03*
X197200000Y-118800000D03*
X157550000Y-125350000D03*
X205500000Y-111750000D03*
X160100000Y-122050000D03*
X177800000Y-119380000D03*
X154500000Y-112000000D03*
X194550000Y-119550000D03*
X158000000Y-120350000D03*
X178500000Y-105750000D03*
X156500000Y-106500000D03*
X193500000Y-127500000D03*
X146500000Y-144770000D03*
X170000000Y-146000000D03*
X182000000Y-130500000D03*
X176500000Y-93000000D03*
X176500000Y-123500000D03*
X194400000Y-131000000D03*
X205500000Y-103750000D03*
X182500000Y-87500000D03*
X176500000Y-92000000D03*
X172720000Y-115570000D03*
X173000000Y-134500000D03*
X194400000Y-133400000D03*
X178000000Y-128500000D03*
X196300000Y-106100000D03*
X155500000Y-144000000D03*
X154500000Y-120000000D03*
X149900000Y-134300000D03*
X192250000Y-144250000D03*
X197200000Y-131000000D03*
X197200000Y-113950000D03*
X168500000Y-130500000D03*
X143850000Y-146000000D03*
X198450000Y-118800000D03*
X150700000Y-135800000D03*
X156600000Y-120400000D03*
X181300000Y-110450000D03*
X189500000Y-127500000D03*
X184750000Y-142250000D03*
X205000000Y-129400000D03*
X154800000Y-130200000D03*
X151600000Y-145300000D03*
X197200000Y-116800000D03*
X197200000Y-128500000D03*
X191150000Y-88250000D03*
X183750000Y-105500000D03*
X151500000Y-138600000D03*
X176000000Y-136500000D03*
X201400000Y-106300000D03*
X185750000Y-106500000D03*
X156100000Y-135855000D03*
X156500000Y-98500000D03*
X178000000Y-127500000D03*
X124350000Y-126200000D03*
X196900000Y-98400000D03*
X193500000Y-106500000D03*
X161750000Y-106500000D03*
X148400000Y-136900000D03*
X141800000Y-135000000D03*
X154500000Y-106500000D03*
X155600000Y-121200000D03*
X168500000Y-134500000D03*
X182900000Y-92650000D03*
X148500000Y-139000000D03*
X181250000Y-105500000D03*
X147600000Y-136900000D03*
X140200000Y-135000000D03*
X198100000Y-99800000D03*
X168250000Y-102250000D03*
X155300000Y-124100000D03*
X164250000Y-105000000D03*
X159000000Y-108000000D03*
X175000000Y-140000000D03*
X196923500Y-99100000D03*
X201400000Y-99800000D03*
X168250000Y-103250000D03*
X205500000Y-92250000D03*
X141000000Y-146000000D03*
X199000000Y-97250000D03*
X150800000Y-145300000D03*
X156500000Y-102500000D03*
X201400000Y-100800000D03*
X197200000Y-125800000D03*
X192300000Y-98800000D03*
X175500000Y-127500000D03*
X169600000Y-99500000D03*
X205000000Y-113600000D03*
X191000000Y-137250000D03*
X201400000Y-107800000D03*
X196200000Y-99100000D03*
X159000000Y-106500000D03*
X189000000Y-111000000D03*
X147500000Y-138000000D03*
X181750000Y-137250000D03*
X180340000Y-113030000D03*
X181750000Y-96500000D03*
X154500000Y-103500000D03*
X199000000Y-96000000D03*
X186750000Y-105500000D03*
X205000000Y-117900000D03*
X193000000Y-119500000D03*
X152500000Y-136900000D03*
X143000000Y-146000000D03*
X189250000Y-144250000D03*
X190000000Y-109500000D03*
X197200000Y-119550000D03*
X167000000Y-124000000D03*
X168250000Y-105500000D03*
X154400000Y-110600000D03*
X160000000Y-96000000D03*
X195100000Y-99100000D03*
X154500000Y-105000000D03*
X180340000Y-115570000D03*
X169000000Y-96000000D03*
X172720000Y-124460000D03*
X189250000Y-137250000D03*
X200500000Y-96000000D03*
X151500000Y-135800000D03*
X185000000Y-137250000D03*
X198100000Y-99075000D03*
X199500000Y-108600000D03*
X176500000Y-83000000D03*
X176500000Y-90000000D03*
X180340000Y-124460000D03*
X165000000Y-96000000D03*
X200000000Y-120100000D03*
X173000000Y-128500000D03*
X123250000Y-126250000D03*
X178250000Y-83000000D03*
X158750000Y-125300000D03*
X168910000Y-115570000D03*
X205500000Y-96000000D03*
X199200000Y-112000000D03*
X185500000Y-83000000D03*
X184000000Y-83000000D03*
X155050000Y-122600000D03*
X178000000Y-134500000D03*
X176503999Y-139991677D03*
X156500000Y-96000000D03*
D21*
X155600000Y-96000000D03*
D20*
X176500000Y-85000000D03*
X172720000Y-110490000D03*
X189000000Y-124000000D03*
X176250000Y-97000000D03*
X182000000Y-105500000D03*
X186750000Y-83000000D03*
X122700000Y-124900000D03*
X185750000Y-105500000D03*
X181750000Y-100500000D03*
X170400000Y-99500000D03*
X156500000Y-101500000D03*
X205000000Y-134000000D03*
X123400000Y-125150000D03*
X155300000Y-135855000D03*
X200000000Y-110600000D03*
X153500000Y-138500000D03*
X150600000Y-141800000D03*
X153500000Y-135855000D03*
X154400000Y-138600000D03*
X156600000Y-128900000D03*
X182500000Y-88750000D03*
X161750000Y-108000000D03*
X163750000Y-142250000D03*
X192900000Y-99700000D03*
X156500000Y-114250000D03*
X168500000Y-146000000D03*
X181750000Y-92750000D03*
X163500000Y-96000000D03*
X193000000Y-106250000D03*
X194250000Y-108500000D03*
X202250000Y-94250000D03*
X188000000Y-105500000D03*
X182500000Y-85250000D03*
X197200000Y-123900000D03*
X189450000Y-108700000D03*
X205500000Y-102000000D03*
X180000000Y-83000000D03*
X158500000Y-146000000D03*
X194400000Y-130200000D03*
X179070000Y-124460000D03*
D21*
X154700000Y-98000000D03*
D20*
X152400000Y-145300000D03*
X178500000Y-136500000D03*
X190200000Y-88250000D03*
X197200000Y-127600000D03*
X157000000Y-136900000D03*
X177000000Y-146500000D03*
X171250000Y-106500000D03*
X182500000Y-84250000D03*
X143000000Y-142500000D03*
X205500000Y-94250000D03*
X200000000Y-111300000D03*
X156500000Y-100000000D03*
X181750000Y-99586472D03*
X200000000Y-115700000D03*
X168250000Y-104250000D03*
X148500000Y-140000000D03*
X200400000Y-99100000D03*
X154700000Y-142500000D03*
X155500000Y-142500000D03*
X182750000Y-106500000D03*
X186000000Y-131000000D03*
X172720000Y-119380000D03*
X146600000Y-141600000D03*
X193500000Y-108500000D03*
X191600000Y-98800000D03*
X170000000Y-129000000D03*
X205000000Y-140000000D03*
D21*
X154800000Y-95600000D03*
D20*
X199000000Y-93250000D03*
X201800000Y-125900000D03*
X163500000Y-136000000D03*
X184500000Y-113000000D03*
X150000000Y-145300000D03*
X143000000Y-144500000D03*
X195600000Y-106100000D03*
X170000000Y-124000000D03*
X154500000Y-115000000D03*
X171000000Y-140000000D03*
D21*
X154800000Y-99700000D03*
D20*
X147200000Y-145400000D03*
X168000000Y-136500000D03*
X156200000Y-125050000D03*
X147300000Y-141600000D03*
X197500000Y-93250000D03*
X153500000Y-136900000D03*
X162000000Y-96000000D03*
X194000000Y-124000000D03*
X172500000Y-106500000D03*
X156100000Y-136900000D03*
X156500000Y-105000000D03*
X161750000Y-115000000D03*
X197200000Y-114950000D03*
X195100000Y-98400000D03*
X190000000Y-113000000D03*
X201900000Y-119800000D03*
X194400000Y-128500000D03*
X186750000Y-144250000D03*
X178500000Y-144250000D03*
X205000000Y-114700000D03*
X200000000Y-114600000D03*
X200000000Y-109200000D03*
X197500000Y-94250000D03*
X197200000Y-123000000D03*
X187300000Y-88250000D03*
X177800000Y-113030000D03*
X189000000Y-109500000D03*
X176500000Y-91000000D03*
X182000000Y-106500000D03*
X161750000Y-110000000D03*
X181750000Y-93500000D03*
X171800000Y-99500000D03*
X187250000Y-137250000D03*
X189000000Y-113000000D03*
X205500000Y-109750000D03*
X176500000Y-89000000D03*
X154500000Y-108000000D03*
X164250000Y-106500000D03*
X152550000Y-138450000D03*
X172720000Y-113030000D03*
X198100000Y-98400000D03*
X181750000Y-94500000D03*
X188000000Y-106500000D03*
X159500000Y-144000000D03*
X200500000Y-93250000D03*
X173500000Y-98600000D03*
X159000000Y-116000000D03*
X168910000Y-110490000D03*
X186750000Y-106500000D03*
X122750000Y-123850000D03*
X200000000Y-113400000D03*
X172700000Y-98600000D03*
X202250000Y-98000000D03*
X154800000Y-128800000D03*
X162000000Y-137500000D03*
X151000000Y-146000000D03*
X180500000Y-134500000D03*
X146500000Y-146000000D03*
X188000000Y-128500000D03*
X193500000Y-109250000D03*
X161750000Y-105000000D03*
X189000000Y-115500000D03*
X141800000Y-134300000D03*
X150700000Y-138600000D03*
X155300000Y-136900000D03*
X175250000Y-106500000D03*
X155500000Y-146000000D03*
X200500000Y-92250000D03*
X161000000Y-146000000D03*
X171100000Y-99500000D03*
X192000000Y-124000000D03*
X197500000Y-92250000D03*
X186500000Y-111000000D03*
X155800000Y-129600000D03*
X178500000Y-106500000D03*
X173000000Y-127500000D03*
X154500000Y-102500000D03*
X194400000Y-129300000D03*
X123750000Y-125750000D03*
X152400000Y-141900000D03*
X141000000Y-144500000D03*
X202250000Y-92250000D03*
X159250000Y-121000000D03*
X201900000Y-120900000D03*
X154500000Y-116500000D03*
X168250000Y-106500000D03*
X168500000Y-125500000D03*
X181000000Y-100500000D03*
X182000000Y-134500000D03*
X141000000Y-142500000D03*
X199000000Y-92250000D03*
X192900000Y-98800000D03*
X190500000Y-117500000D03*
D21*
X179037500Y-141437500D03*
D20*
X173000000Y-130000000D03*
X182750000Y-137250000D03*
X154800000Y-127300000D03*
X179750000Y-144250000D03*
X153100000Y-143850000D03*
X191500000Y-127500000D03*
X171000000Y-128000000D03*
X159000000Y-105000000D03*
X159000000Y-112250000D03*
X158000000Y-142500000D03*
X176750000Y-105750000D03*
X177500000Y-130000000D03*
X197200000Y-130200000D03*
X159000000Y-110000000D03*
X166500000Y-146000000D03*
X205000000Y-142000000D03*
X190000000Y-111000000D03*
X202250000Y-96000000D03*
X200500000Y-94250000D03*
X174000000Y-105500000D03*
X161750000Y-112250000D03*
X176530000Y-124460000D03*
X179000000Y-99000000D03*
X186500000Y-115500000D03*
X160000000Y-139500000D03*
X184500000Y-119500000D03*
X170250000Y-106500000D03*
X181750000Y-97500000D03*
X161750000Y-128000000D03*
X173750000Y-106500000D03*
X149900000Y-135100000D03*
X192250000Y-142250000D03*
X185400000Y-90150000D03*
X154300000Y-135855000D03*
X201850000Y-118900000D03*
X189300000Y-88250000D03*
X201400000Y-103300000D03*
X182500000Y-86250000D03*
X154500000Y-113500000D03*
X199000000Y-94250000D03*
X186750000Y-88750000D03*
X200000000Y-109900000D03*
X176500000Y-86000000D03*
X180340000Y-119380000D03*
X196200000Y-99800000D03*
X156500000Y-97000000D03*
X156200000Y-138600000D03*
X184500000Y-115500000D03*
X200400000Y-98400000D03*
X201900000Y-122300000D03*
X153100000Y-144400000D03*
X180000000Y-127500000D03*
X154300000Y-136900000D03*
X167000000Y-127500000D03*
X168250000Y-101250000D03*
X175500000Y-134500000D03*
X158000000Y-144000000D03*
X161750000Y-124750000D03*
X160100000Y-123350000D03*
X184750000Y-106500000D03*
X176500000Y-94000000D03*
X200000000Y-119050000D03*
D21*
%TO.N,Net-(U4-VIN)*%
X193365000Y-89200000D03*
X198400000Y-89100000D03*
%TO.N,Net-(D1-K)*%
X190600000Y-90300000D03*
X191100000Y-96500000D03*
%TO.N,+4V*%
X167600000Y-97200000D03*
X163750000Y-126750000D03*
X166500000Y-96700000D03*
X199250000Y-105500000D03*
X197500000Y-96900000D03*
X163750000Y-128000000D03*
X171500000Y-98395500D03*
X199200000Y-104600000D03*
%TO.N,+3.3VA*%
X146700000Y-134700000D03*
X149500000Y-144000000D03*
X147500000Y-144400000D03*
X151550000Y-141450000D03*
%TO.N,Net-(U5-FB)*%
X171400000Y-100594500D03*
X174700000Y-102800000D03*
%TO.N,+3V3*%
X180900000Y-88700000D03*
D20*
X193800000Y-116100000D03*
X183050000Y-114050000D03*
D21*
X192900000Y-140900000D03*
X144600000Y-136300000D03*
X158300000Y-97500000D03*
D20*
X205400000Y-127900000D03*
D21*
X120486286Y-129613714D03*
X168800000Y-144600000D03*
D20*
X205400000Y-121500000D03*
X182450000Y-114050000D03*
D21*
X160800000Y-141000000D03*
X186200000Y-138200000D03*
X180175000Y-99925000D03*
X182100000Y-83100000D03*
%TO.N,~{RESET}*%
X171800000Y-121500000D03*
X171800000Y-129013173D03*
%TO.N,GNDS*%
X165650000Y-87450000D03*
X162250000Y-92200000D03*
X165000000Y-93250000D03*
X165000000Y-84750000D03*
X165000000Y-82750000D03*
X165650000Y-85750000D03*
X157000000Y-92500000D03*
X159250000Y-93250000D03*
X156750000Y-87750000D03*
X171250000Y-88000000D03*
X162250000Y-93250000D03*
X167500000Y-93250000D03*
X171250000Y-91000000D03*
X171250000Y-82750000D03*
X163750000Y-93250000D03*
X171250000Y-85000000D03*
X157750000Y-93250000D03*
X166250000Y-93250000D03*
X170250000Y-82750000D03*
X156750000Y-86250000D03*
X171250000Y-89500000D03*
X171250000Y-83750000D03*
X171250000Y-86500000D03*
X171250000Y-92500000D03*
%TO.N,Net-(U7-VBUS1)*%
X160400000Y-86510000D03*
X160400000Y-90400000D03*
X167750000Y-82750000D03*
X169000000Y-82750000D03*
%TO.N,AC_LIVE_IN*%
X126500000Y-95500000D03*
X117000000Y-86500000D03*
X112500000Y-91000000D03*
X114000000Y-91000000D03*
X119000000Y-91000000D03*
X125000000Y-86500000D03*
X109500000Y-95500000D03*
X123000000Y-86500000D03*
X125000000Y-94000000D03*
X106500000Y-91000000D03*
X119000000Y-88000000D03*
X119000000Y-94000000D03*
X111500000Y-89500000D03*
X109500000Y-94000000D03*
X117000000Y-94000000D03*
X123000000Y-91000000D03*
X119000000Y-89500000D03*
X121000000Y-91000000D03*
X117000000Y-95500000D03*
X128000000Y-94000000D03*
X123000000Y-88000000D03*
X119000000Y-92500000D03*
X111500000Y-92500000D03*
X121000000Y-94000000D03*
X111500000Y-86500000D03*
X117000000Y-91000000D03*
X121000000Y-86500000D03*
X111500000Y-88000000D03*
X115500000Y-91000000D03*
X111000000Y-91000000D03*
X111500000Y-95500000D03*
X109500000Y-88000000D03*
X119000000Y-95500000D03*
X117000000Y-88000000D03*
X121000000Y-88000000D03*
X123000000Y-94000000D03*
X109500000Y-91000000D03*
X125000000Y-95500000D03*
X109500000Y-92500000D03*
X117000000Y-92500000D03*
X119000000Y-86500000D03*
X121000000Y-92500000D03*
X123000000Y-89500000D03*
X128000000Y-95500000D03*
X109500000Y-91000000D03*
X121000000Y-95500000D03*
X123000000Y-95500000D03*
X123000000Y-92500000D03*
X121000000Y-89500000D03*
X126500000Y-94000000D03*
X108000000Y-91000000D03*
X109500000Y-89500000D03*
X111500000Y-94000000D03*
X109500000Y-86500000D03*
X117000000Y-89500000D03*
%TO.N,AC_NEUTRAL_IN*%
X125000000Y-57500000D03*
X111500000Y-60500000D03*
X109500000Y-58500000D03*
X117500000Y-62500000D03*
X123500000Y-62500000D03*
X123500000Y-60500000D03*
X123500000Y-58500000D03*
X121500000Y-56500000D03*
X111500000Y-64000000D03*
X127000000Y-56000000D03*
X127000000Y-57500000D03*
X121500000Y-64000000D03*
X123500000Y-56500000D03*
X123500000Y-64000000D03*
X119500000Y-60500000D03*
X117500000Y-64000000D03*
X130000000Y-59500000D03*
X109500000Y-64000000D03*
X111500000Y-62500000D03*
X117500000Y-58500000D03*
X106500000Y-60000000D03*
X125000000Y-56000000D03*
X119500000Y-58500000D03*
X121500000Y-58500000D03*
X109500000Y-56500000D03*
X130000000Y-64000000D03*
X111500000Y-58500000D03*
X119500000Y-62500000D03*
X111500000Y-56500000D03*
X113500000Y-60000000D03*
X119500000Y-56500000D03*
X116000000Y-60000000D03*
X130000000Y-56000000D03*
X125500000Y-64000000D03*
X130000000Y-57500000D03*
X121500000Y-60500000D03*
X108500000Y-60000000D03*
X127500000Y-64000000D03*
X121500000Y-62500000D03*
X109500000Y-62500000D03*
X109500000Y-60500000D03*
X117500000Y-60500000D03*
X130000000Y-61500000D03*
X117500000Y-56500000D03*
X119500000Y-64000000D03*
%TO.N,Net-(J4-Pad1)*%
X111000000Y-132500000D03*
X111000000Y-137000000D03*
X111000000Y-131000000D03*
X111000000Y-146000000D03*
X111000000Y-140500000D03*
X111000000Y-142600000D03*
X111000000Y-144500000D03*
X111000000Y-135500000D03*
X111000000Y-139000000D03*
X111000000Y-134000000D03*
%TO.N,AC_NEUTRAL_OUT*%
X112000000Y-78000000D03*
X123500000Y-76000000D03*
X131500000Y-74000000D03*
X133500000Y-80000000D03*
X133500000Y-81500000D03*
X117500000Y-78000000D03*
X129500000Y-74000000D03*
X117500000Y-72000000D03*
X110000000Y-81500000D03*
X133500000Y-76000000D03*
X119500000Y-78000000D03*
X110000000Y-80000000D03*
X131500000Y-76000000D03*
X131500000Y-74000000D03*
X117500000Y-76000000D03*
X127500000Y-72000000D03*
X117500000Y-74000000D03*
X116000000Y-76000000D03*
X125500000Y-72000000D03*
X112000000Y-81500000D03*
X110000000Y-78000000D03*
X125500000Y-74000000D03*
X127500000Y-74000000D03*
X123500000Y-81500000D03*
X112000000Y-76000000D03*
X119500000Y-80000000D03*
X127500000Y-76000000D03*
X131500000Y-76000000D03*
X123500000Y-74000000D03*
X110000000Y-72000000D03*
X108000000Y-76000000D03*
X133500000Y-72000000D03*
X125500000Y-76000000D03*
X125500000Y-80000000D03*
X119500000Y-81500000D03*
X108000000Y-81500000D03*
X125500000Y-78000000D03*
X116000000Y-81500000D03*
X119500000Y-72000000D03*
X123500000Y-72000000D03*
X110000000Y-76000000D03*
X114000000Y-76000000D03*
X133500000Y-74000000D03*
X106500000Y-76000000D03*
X121500000Y-81500000D03*
X123500000Y-78000000D03*
X123500000Y-80000000D03*
X119500000Y-76000000D03*
X121500000Y-74000000D03*
X112000000Y-72000000D03*
X119500000Y-74000000D03*
X117500000Y-80000000D03*
X106500000Y-81500000D03*
X110000000Y-74000000D03*
X117500000Y-81500000D03*
X121500000Y-72000000D03*
X131500000Y-72000000D03*
X114000000Y-81500000D03*
X121500000Y-80000000D03*
X129500000Y-76000000D03*
X131500000Y-72000000D03*
X121500000Y-78000000D03*
X133500000Y-78000000D03*
X125500000Y-81500000D03*
X121500000Y-76000000D03*
X112000000Y-74000000D03*
X129500000Y-72000000D03*
X112000000Y-80000000D03*
%TO.N,AC_SENSOR_LIVE_OUT*%
X106000000Y-115000000D03*
X119500000Y-106000000D03*
X113500000Y-107500000D03*
X109500000Y-109000000D03*
X111500000Y-115000000D03*
X119500000Y-112000000D03*
X111500000Y-112000000D03*
X109500000Y-106000000D03*
X106000000Y-106000000D03*
X111500000Y-109000000D03*
X115500000Y-112000000D03*
X106000000Y-104500000D03*
X106000000Y-112000000D03*
X111500000Y-104500000D03*
X113500000Y-115000000D03*
X111500000Y-107500000D03*
X117500000Y-103000000D03*
X109500000Y-104500000D03*
X109500000Y-112000000D03*
X113500000Y-113500000D03*
X117500000Y-106000000D03*
X119500000Y-109000000D03*
X111500000Y-113500000D03*
X119500000Y-103000000D03*
X107500000Y-113500000D03*
X119500000Y-107500000D03*
X113500000Y-106000000D03*
X109500000Y-107500000D03*
X113500000Y-112000000D03*
X113500000Y-103000000D03*
X111500000Y-103000000D03*
X106000000Y-113500000D03*
X109500000Y-115000000D03*
X106000000Y-110500000D03*
X106000000Y-109000000D03*
X107500000Y-107500000D03*
X119500000Y-110500000D03*
X106000000Y-107500000D03*
X115500000Y-107500000D03*
X107500000Y-115000000D03*
X117500000Y-107500000D03*
X119500000Y-104500000D03*
X111500000Y-106000000D03*
X115500000Y-103000000D03*
X106000000Y-103000000D03*
X109500000Y-113500000D03*
X109500000Y-110500000D03*
X115500000Y-106000000D03*
X111500000Y-110500000D03*
X109500000Y-103000000D03*
X117500000Y-104500000D03*
X117500000Y-110500000D03*
X107500000Y-112000000D03*
X117500000Y-109000000D03*
X117500000Y-112000000D03*
%TO.N,Net-(J9-SWDIO{slash}TMS)*%
X199050000Y-127500000D03*
X199062299Y-125855500D03*
%TO.N,AC_SENSOR_LIVE_IN*%
X123000000Y-110500000D03*
X121000000Y-112000000D03*
X129000000Y-115000000D03*
X127000000Y-112000000D03*
X127000000Y-115000000D03*
X125000000Y-106000000D03*
X133000000Y-107500000D03*
X123000000Y-106000000D03*
X125000000Y-109000000D03*
X131000000Y-113500000D03*
X133000000Y-110500000D03*
X123000000Y-104500000D03*
X133000000Y-106000000D03*
X129000000Y-104500000D03*
X127000000Y-109000000D03*
X129000000Y-103000000D03*
X127000000Y-103000000D03*
X133000000Y-113500000D03*
X125000000Y-110500000D03*
X131000000Y-112000000D03*
X123000000Y-112000000D03*
X123000000Y-107500000D03*
X121000000Y-109000000D03*
X133000000Y-112000000D03*
X125000000Y-107500000D03*
X129000000Y-106000000D03*
X127000000Y-110500000D03*
X127000000Y-106000000D03*
X133000000Y-103000000D03*
X121000000Y-104500000D03*
X121000000Y-103000000D03*
X125000000Y-112000000D03*
X123000000Y-109000000D03*
X131000000Y-106000000D03*
X125000000Y-104500000D03*
X125000000Y-103000000D03*
X133000000Y-109000000D03*
X129000000Y-113500000D03*
X131000000Y-103000000D03*
X127000000Y-107500000D03*
X121000000Y-110500000D03*
X129000000Y-112000000D03*
X123000000Y-103000000D03*
X121000000Y-107500000D03*
X127000000Y-104500000D03*
X127000000Y-113500000D03*
X133000000Y-104500000D03*
X121000000Y-106000000D03*
X131000000Y-104500000D03*
%TO.N,DCDC_MODE*%
X201850000Y-118000000D03*
D20*
X170250000Y-96250000D03*
D21*
%TO.N,/MSOM/USB_P*%
X182960431Y-91698719D03*
X201327175Y-115805000D03*
%TO.N,/MSOM/USB_N*%
X201327175Y-116855000D03*
X183000000Y-90700000D03*
%TO.N,I2C_SCL*%
X193100000Y-118073500D03*
X118295000Y-124900000D03*
%TO.N,I2C_SDA*%
X194100000Y-118800000D03*
X119565000Y-125000000D03*
%TO.N,Net-(U6A-ADC6)*%
X117000000Y-126549500D03*
X201700000Y-123600000D03*
%TO.N,Net-(U6A-ADC7)*%
X115800000Y-126574500D03*
X201593822Y-124733606D03*
%TO.N,CURRENT_ADC*%
X204200000Y-120200000D03*
X145800000Y-143600000D03*
%TO.N,/MSOM/U_P*%
X164343405Y-91675000D03*
X163451673Y-88025501D03*
%TO.N,/MSOM/U_N*%
X159050000Y-88090000D03*
X163449957Y-89025002D03*
X164343405Y-90625000D03*
%TD*%
D22*
%TO.N,+12V*%
X163450000Y-79550000D02*
X166950000Y-79550000D01*
X175200000Y-71300000D02*
X190092500Y-71300000D01*
X149072500Y-103627500D02*
X152300000Y-100400000D01*
X145107500Y-71750000D02*
X142230000Y-74627500D01*
X152300000Y-100400000D02*
X152300000Y-86950000D01*
X174650000Y-68850000D02*
X171750000Y-71750000D01*
X192542500Y-68850000D02*
X174650000Y-68850000D01*
X159950000Y-83050000D02*
X156200000Y-83050000D01*
X163450000Y-79550000D02*
X159950000Y-83050000D01*
X190092500Y-71300000D02*
X192542500Y-68850000D01*
X152300000Y-86950000D02*
X156200000Y-83050000D01*
X166950000Y-79550000D02*
X175200000Y-71300000D01*
X171750000Y-71750000D02*
X145107500Y-71750000D01*
X142230000Y-103627500D02*
X149072500Y-103627500D01*
%TO.N,+4V*%
X163750000Y-108750000D02*
X165000000Y-107500000D01*
X165000000Y-107500000D02*
X197750000Y-107500000D01*
X197750000Y-107500000D02*
X199200000Y-106050000D01*
X199200000Y-106050000D02*
X199200000Y-104600000D01*
X167000000Y-97200000D02*
X166500000Y-96700000D01*
X182421752Y-104550000D02*
X175071752Y-97200000D01*
X163750000Y-128000000D02*
X163750000Y-108750000D01*
X199150000Y-104550000D02*
X182421752Y-104550000D01*
X175071752Y-97200000D02*
X167000000Y-97200000D01*
X199200000Y-104600000D02*
X199150000Y-104550000D01*
D23*
%TO.N,+3.3VA*%
X151550000Y-141950000D02*
X149500000Y-144000000D01*
X149500000Y-142000000D02*
X149500000Y-136700000D01*
X147500000Y-134700000D02*
X146700000Y-134700000D01*
X149500000Y-136700000D02*
X147500000Y-134700000D01*
X149500000Y-142000000D02*
X149500000Y-142400000D01*
X149500000Y-142400000D02*
X147500000Y-144400000D01*
X151550000Y-141450000D02*
X151550000Y-141950000D01*
X149500000Y-142000000D02*
X149500000Y-141600000D01*
D24*
%TO.N,+3V3*%
X205400000Y-127900000D02*
X205400000Y-121500000D01*
D23*
X192900000Y-139000000D02*
X192100000Y-138200000D01*
D24*
X159700000Y-95100000D02*
X158300000Y-96500000D01*
D23*
X144600000Y-134500000D02*
X144600000Y-136300000D01*
X120486286Y-129613714D02*
X124372572Y-133500000D01*
X147200000Y-133500000D02*
X145600000Y-133500000D01*
X183200000Y-134600000D02*
X183200000Y-114000000D01*
D24*
X180175000Y-99925000D02*
X180175000Y-98375000D01*
D23*
X124372572Y-133500000D02*
X147200000Y-133500000D01*
X145600000Y-133500000D02*
X144600000Y-134500000D01*
X176800000Y-141000000D02*
X168900000Y-141000000D01*
X180175000Y-99925000D02*
X180400000Y-99700000D01*
X177700000Y-133500000D02*
X147200000Y-133500000D01*
D24*
X197828134Y-121500000D02*
X205400000Y-121500000D01*
D23*
X186200000Y-135400000D02*
X186200000Y-138200000D01*
X185400000Y-134600000D02*
X186200000Y-135400000D01*
D25*
X168800000Y-141100000D02*
X168900000Y-141000000D01*
D23*
X168900000Y-141000000D02*
X160800000Y-141000000D01*
X180400000Y-99700000D02*
X180400000Y-89200000D01*
X180400000Y-89200000D02*
X180900000Y-88700000D01*
D24*
X193800000Y-116100000D02*
X193800000Y-117471866D01*
D23*
X182300000Y-114000000D02*
X182300000Y-128900000D01*
X183200000Y-134600000D02*
X185400000Y-134600000D01*
D24*
X158300000Y-96500000D02*
X158300000Y-97500000D01*
D23*
X192900000Y-140900000D02*
X192900000Y-139000000D01*
X182300000Y-128900000D02*
X177700000Y-133500000D01*
D24*
X180175000Y-98375000D02*
X176900000Y-95100000D01*
D25*
X168800000Y-144600000D02*
X168800000Y-141100000D01*
D23*
X182300000Y-114000000D02*
X183200000Y-114000000D01*
D24*
X193800000Y-117471866D02*
X197828134Y-121500000D01*
D23*
X181200000Y-83100000D02*
X182100000Y-83100000D01*
X180400000Y-83900000D02*
X181200000Y-83100000D01*
X180400000Y-89200000D02*
X180400000Y-83900000D01*
X192100000Y-138200000D02*
X186200000Y-138200000D01*
X183200000Y-134600000D02*
X176800000Y-141000000D01*
D24*
X176900000Y-95100000D02*
X159700000Y-95100000D01*
D23*
%TO.N,Net-(U7-VBUS1)*%
X160400000Y-86500000D02*
X160400000Y-87300000D01*
X160400000Y-87300000D02*
X160400000Y-90400000D01*
X163100000Y-83800000D02*
X160400000Y-86500000D01*
X166750000Y-82750000D02*
X169000000Y-82750000D01*
X165700000Y-83800000D02*
X166750000Y-82750000D01*
X165700000Y-83800000D02*
X163100000Y-83800000D01*
X160400000Y-86510000D02*
X160400000Y-87300000D01*
D26*
%TO.N,AC_LIVE_IN*%
X137500000Y-84900000D02*
X142700000Y-84900000D01*
X132742500Y-89657500D02*
X137500000Y-84900000D01*
X126790000Y-89657500D02*
X132742500Y-89657500D01*
X150750000Y-76850000D02*
X154042500Y-76850000D01*
X142700000Y-84900000D02*
X150750000Y-76850000D01*
%TD*%
%TA.AperFunction,Conductor*%
%TO.N,AC_LIVE_IN*%
G36*
X129443039Y-86019685D02*
G01*
X129488794Y-86072489D01*
X129500000Y-86124000D01*
X129500000Y-96376000D01*
X129480315Y-96443039D01*
X129427511Y-96488794D01*
X129376000Y-96500000D01*
X105624000Y-96500000D01*
X105556961Y-96480315D01*
X105511206Y-96427511D01*
X105500000Y-96376000D01*
X105500000Y-86124000D01*
X105519685Y-86056961D01*
X105572489Y-86011206D01*
X105624000Y-86000000D01*
X129376000Y-86000000D01*
X129443039Y-86019685D01*
G37*
%TD.AperFunction*%
%TD*%
%TA.AperFunction,Conductor*%
%TO.N,AC_SENSOR_LIVE_OUT*%
G36*
X119937539Y-102519685D02*
G01*
X119983294Y-102572489D01*
X119994500Y-102624000D01*
X119994500Y-115876000D01*
X119974815Y-115943039D01*
X119922011Y-115988794D01*
X119870500Y-116000000D01*
X115524000Y-116000000D01*
X115456961Y-115980315D01*
X115411206Y-115927511D01*
X115400000Y-115876000D01*
X115400000Y-113200000D01*
X114600000Y-113200000D01*
X114600000Y-115876000D01*
X114580315Y-115943039D01*
X114527511Y-115988794D01*
X114476000Y-116000000D01*
X105624000Y-116000000D01*
X105556961Y-115980315D01*
X105511206Y-115927511D01*
X105500000Y-115876000D01*
X105500000Y-102624000D01*
X105519685Y-102556961D01*
X105572489Y-102511206D01*
X105624000Y-102500000D01*
X119870500Y-102500000D01*
X119937539Y-102519685D01*
G37*
%TD.AperFunction*%
%TD*%
%TA.AperFunction,Conductor*%
%TO.N,AC_NEUTRAL_IN*%
G36*
X130443039Y-55519685D02*
G01*
X130488794Y-55572489D01*
X130500000Y-55624000D01*
X130500000Y-64376000D01*
X130480315Y-64443039D01*
X130427511Y-64488794D01*
X130376000Y-64500000D01*
X105624000Y-64500000D01*
X105556961Y-64480315D01*
X105511206Y-64427511D01*
X105500000Y-64376000D01*
X105500000Y-55624000D01*
X105519685Y-55556961D01*
X105572489Y-55511206D01*
X105624000Y-55500000D01*
X130376000Y-55500000D01*
X130443039Y-55519685D01*
G37*
%TD.AperFunction*%
%TD*%
%TA.AperFunction,Conductor*%
%TO.N,Net-(J4-Pad1)*%
G36*
X117043039Y-129719685D02*
G01*
X117088794Y-129772489D01*
X117100000Y-129824000D01*
X117100000Y-146776000D01*
X117080315Y-146843039D01*
X117027511Y-146888794D01*
X116976000Y-146900000D01*
X105624000Y-146900000D01*
X105556961Y-146880315D01*
X105511206Y-146827511D01*
X105500000Y-146776000D01*
X105500000Y-129824000D01*
X105519685Y-129756961D01*
X105572489Y-129711206D01*
X105624000Y-129700000D01*
X116976000Y-129700000D01*
X117043039Y-129719685D01*
G37*
%TD.AperFunction*%
%TD*%
%TA.AperFunction,Conductor*%
%TO.N,GNDA*%
G36*
X206193039Y-82219685D02*
G01*
X206238794Y-82272489D01*
X206250000Y-82324000D01*
X206250000Y-142698638D01*
X206230315Y-142765677D01*
X206213681Y-142786319D01*
X202286319Y-146713681D01*
X202224996Y-146747166D01*
X202198638Y-146750000D01*
X154000000Y-146750000D01*
X154000000Y-133950500D01*
X177671217Y-133950500D01*
X177678155Y-133950889D01*
X177710050Y-133954483D01*
X177717034Y-133955270D01*
X177717034Y-133955269D01*
X177717035Y-133955270D01*
X177775479Y-133944211D01*
X177834287Y-133935348D01*
X177834290Y-133935346D01*
X177842447Y-133932830D01*
X177850469Y-133930023D01*
X177850472Y-133930023D01*
X177903072Y-133902222D01*
X177956642Y-133876425D01*
X177956642Y-133876424D01*
X177956644Y-133876424D01*
X177963695Y-133871616D01*
X177970538Y-133866566D01*
X178012600Y-133824503D01*
X178056194Y-133784055D01*
X178056196Y-133784050D01*
X178061987Y-133776790D01*
X178062643Y-133777313D01*
X178072032Y-133765070D01*
X182537819Y-129299284D01*
X182599142Y-129265799D01*
X182668834Y-129270783D01*
X182724767Y-129312655D01*
X182749184Y-129378119D01*
X182749500Y-129386965D01*
X182749500Y-134362035D01*
X182729815Y-134429074D01*
X182713181Y-134449716D01*
X176649716Y-140513181D01*
X176588393Y-140546666D01*
X176562035Y-140549500D01*
X161241419Y-140549500D01*
X161174380Y-140529815D01*
X161165933Y-140523876D01*
X161102842Y-140475464D01*
X160956762Y-140414956D01*
X160956760Y-140414955D01*
X160800001Y-140394318D01*
X160799999Y-140394318D01*
X160643239Y-140414955D01*
X160643237Y-140414956D01*
X160497160Y-140475463D01*
X160371718Y-140571718D01*
X160275463Y-140697160D01*
X160214956Y-140843237D01*
X160214955Y-140843239D01*
X160194318Y-140999998D01*
X160194318Y-141000001D01*
X160214955Y-141156760D01*
X160214956Y-141156762D01*
X160267682Y-141284055D01*
X160275464Y-141302841D01*
X160371718Y-141428282D01*
X160497159Y-141524536D01*
X160643238Y-141585044D01*
X160721619Y-141595363D01*
X160799999Y-141605682D01*
X160800000Y-141605682D01*
X160800001Y-141605682D01*
X160852254Y-141598802D01*
X160956762Y-141585044D01*
X161102841Y-141524536D01*
X161165933Y-141476123D01*
X161231102Y-141450930D01*
X161241419Y-141450500D01*
X168325500Y-141450500D01*
X168392539Y-141470185D01*
X168438294Y-141522989D01*
X168449500Y-141574500D01*
X168449500Y-144050883D01*
X168429815Y-144117922D01*
X168400987Y-144149258D01*
X168371721Y-144171714D01*
X168275463Y-144297160D01*
X168214956Y-144443237D01*
X168214955Y-144443239D01*
X168194318Y-144599998D01*
X168194318Y-144600001D01*
X168214955Y-144756760D01*
X168214956Y-144756762D01*
X168275464Y-144902841D01*
X168371718Y-145028282D01*
X168497159Y-145124536D01*
X168643238Y-145185044D01*
X168721619Y-145195363D01*
X168799999Y-145205682D01*
X168800000Y-145205682D01*
X168800001Y-145205682D01*
X168852254Y-145198802D01*
X168956762Y-145185044D01*
X169102841Y-145124536D01*
X169228282Y-145028282D01*
X169324536Y-144902841D01*
X169385044Y-144756762D01*
X169405682Y-144600000D01*
X169385044Y-144443238D01*
X169324536Y-144297159D01*
X169228282Y-144171718D01*
X169228279Y-144171716D01*
X169228278Y-144171714D01*
X169199013Y-144149258D01*
X169157811Y-144092830D01*
X169150500Y-144050883D01*
X169150500Y-141574500D01*
X169170185Y-141507461D01*
X169222989Y-141461706D01*
X169274500Y-141450500D01*
X176771217Y-141450500D01*
X176778155Y-141450889D01*
X176810050Y-141454483D01*
X176817034Y-141455270D01*
X176817034Y-141455269D01*
X176817035Y-141455270D01*
X176875479Y-141444211D01*
X176934287Y-141435348D01*
X176934290Y-141435346D01*
X176942447Y-141432830D01*
X176950469Y-141430023D01*
X176950472Y-141430023D01*
X177003072Y-141402222D01*
X177056642Y-141376425D01*
X177056642Y-141376424D01*
X177056644Y-141376424D01*
X177063695Y-141371616D01*
X177070538Y-141366566D01*
X177112600Y-141324503D01*
X177156194Y-141284055D01*
X177156196Y-141284050D01*
X177161987Y-141276790D01*
X177162643Y-141277313D01*
X177172032Y-141265070D01*
X183350284Y-135086819D01*
X183411607Y-135053334D01*
X183437965Y-135050500D01*
X185162034Y-135050500D01*
X185229073Y-135070185D01*
X185249715Y-135086819D01*
X185713181Y-135550284D01*
X185746666Y-135611607D01*
X185749500Y-135637965D01*
X185749500Y-137758580D01*
X185729815Y-137825619D01*
X185723876Y-137834066D01*
X185675464Y-137897157D01*
X185614956Y-138043237D01*
X185614955Y-138043239D01*
X185594318Y-138199998D01*
X185594318Y-138200001D01*
X185614955Y-138356760D01*
X185614956Y-138356762D01*
X185675464Y-138502841D01*
X185771718Y-138628282D01*
X185897159Y-138724536D01*
X186043238Y-138785044D01*
X186121619Y-138795363D01*
X186199999Y-138805682D01*
X186200000Y-138805682D01*
X186200001Y-138805682D01*
X186252254Y-138798802D01*
X186356762Y-138785044D01*
X186502841Y-138724536D01*
X186565933Y-138676123D01*
X186631102Y-138650930D01*
X186641419Y-138650500D01*
X191862034Y-138650500D01*
X191929073Y-138670185D01*
X191949715Y-138686819D01*
X192413181Y-139150284D01*
X192446666Y-139211607D01*
X192449500Y-139237965D01*
X192449500Y-140458580D01*
X192429815Y-140525619D01*
X192423876Y-140534066D01*
X192375464Y-140597157D01*
X192314956Y-140743237D01*
X192314955Y-140743239D01*
X192294318Y-140899998D01*
X192294318Y-140900001D01*
X192314955Y-141056760D01*
X192314956Y-141056762D01*
X192356376Y-141156760D01*
X192375464Y-141202841D01*
X192471718Y-141328282D01*
X192597159Y-141424536D01*
X192743238Y-141485044D01*
X192821619Y-141495363D01*
X192899999Y-141505682D01*
X192900000Y-141505682D01*
X192900001Y-141505682D01*
X192952254Y-141498802D01*
X193056762Y-141485044D01*
X193202841Y-141424536D01*
X193328282Y-141328282D01*
X193424536Y-141202841D01*
X193485044Y-141056762D01*
X193505682Y-140900000D01*
X193498887Y-140848390D01*
X193485044Y-140743239D01*
X193485044Y-140743238D01*
X193424536Y-140597159D01*
X193424535Y-140597158D01*
X193424535Y-140597157D01*
X193376124Y-140534066D01*
X193350930Y-140468896D01*
X193350500Y-140458580D01*
X193350500Y-140067763D01*
X197615787Y-140067763D01*
X197645413Y-140337013D01*
X197645415Y-140337024D01*
X197713926Y-140599082D01*
X197713928Y-140599088D01*
X197819870Y-140848390D01*
X197912397Y-141000000D01*
X197960979Y-141079605D01*
X197960986Y-141079615D01*
X198134253Y-141287819D01*
X198134259Y-141287824D01*
X198179412Y-141328281D01*
X198335998Y-141468582D01*
X198561910Y-141618044D01*
X198807176Y-141733020D01*
X198807183Y-141733022D01*
X198807185Y-141733023D01*
X199066557Y-141811057D01*
X199066564Y-141811058D01*
X199066569Y-141811060D01*
X199334561Y-141850500D01*
X199334566Y-141850500D01*
X199537636Y-141850500D01*
X199589133Y-141846730D01*
X199740156Y-141835677D01*
X199852758Y-141810593D01*
X200004546Y-141776782D01*
X200004548Y-141776781D01*
X200004553Y-141776780D01*
X200257558Y-141680014D01*
X200493777Y-141547441D01*
X200708177Y-141381888D01*
X200896186Y-141186881D01*
X201053799Y-140966579D01*
X201168626Y-140743239D01*
X201177649Y-140725690D01*
X201177651Y-140725684D01*
X201177656Y-140725675D01*
X201265118Y-140469305D01*
X201314319Y-140202933D01*
X201324212Y-139932235D01*
X201294586Y-139662982D01*
X201226072Y-139400912D01*
X201120130Y-139151610D01*
X200979018Y-138920390D01*
X200933516Y-138865713D01*
X200805746Y-138712180D01*
X200805740Y-138712175D01*
X200604002Y-138531418D01*
X200378092Y-138381957D01*
X200324342Y-138356760D01*
X200132824Y-138266980D01*
X200132819Y-138266978D01*
X200132814Y-138266976D01*
X199873442Y-138188942D01*
X199873428Y-138188939D01*
X199757791Y-138171921D01*
X199605439Y-138149500D01*
X199402369Y-138149500D01*
X199402364Y-138149500D01*
X199199844Y-138164323D01*
X199199831Y-138164325D01*
X198935453Y-138223217D01*
X198935446Y-138223220D01*
X198682439Y-138319987D01*
X198446226Y-138452557D01*
X198231822Y-138618112D01*
X198043822Y-138813109D01*
X198043816Y-138813116D01*
X197886202Y-139033419D01*
X197886199Y-139033424D01*
X197762350Y-139274309D01*
X197762343Y-139274327D01*
X197674884Y-139530685D01*
X197674881Y-139530699D01*
X197625681Y-139797068D01*
X197625680Y-139797075D01*
X197615787Y-140067763D01*
X193350500Y-140067763D01*
X193350500Y-139028781D01*
X193350889Y-139021844D01*
X193355270Y-138982965D01*
X193344210Y-138924508D01*
X193335348Y-138865713D01*
X193335347Y-138865711D01*
X193335347Y-138865709D01*
X193332829Y-138857545D01*
X193330024Y-138849532D01*
X193330024Y-138849528D01*
X193302216Y-138796915D01*
X193276425Y-138743358D01*
X193271620Y-138736310D01*
X193266567Y-138729465D01*
X193266566Y-138729462D01*
X193224504Y-138687400D01*
X193184055Y-138643806D01*
X193184054Y-138643805D01*
X193184053Y-138643804D01*
X193176790Y-138638012D01*
X193177310Y-138637359D01*
X193165070Y-138627966D01*
X192438908Y-137901805D01*
X192434271Y-137896617D01*
X192409878Y-137866029D01*
X192360728Y-137832519D01*
X192312882Y-137797207D01*
X192305297Y-137793198D01*
X192297677Y-137789529D01*
X192273161Y-137781967D01*
X192240822Y-137771992D01*
X192220154Y-137764760D01*
X192184695Y-137752352D01*
X192176326Y-137750768D01*
X192167904Y-137749500D01*
X192167902Y-137749500D01*
X192108426Y-137749500D01*
X192048990Y-137747275D01*
X192039756Y-137748316D01*
X192039662Y-137747486D01*
X192024364Y-137749500D01*
X186774500Y-137749500D01*
X186707461Y-137729815D01*
X186661706Y-137677011D01*
X186650500Y-137625500D01*
X186650500Y-135428781D01*
X186650889Y-135421844D01*
X186655270Y-135382965D01*
X186644210Y-135324508D01*
X186635348Y-135265713D01*
X186635347Y-135265711D01*
X186635347Y-135265709D01*
X186632829Y-135257545D01*
X186630024Y-135249532D01*
X186630024Y-135249528D01*
X186602216Y-135196915D01*
X186576425Y-135143358D01*
X186571620Y-135136310D01*
X186566567Y-135129465D01*
X186566566Y-135129462D01*
X186524504Y-135087400D01*
X186484055Y-135043806D01*
X186484054Y-135043805D01*
X186484053Y-135043804D01*
X186476790Y-135038012D01*
X186477310Y-135037359D01*
X186465070Y-135027966D01*
X185738908Y-134301805D01*
X185734271Y-134296617D01*
X185709878Y-134266029D01*
X185660728Y-134232519D01*
X185612882Y-134197207D01*
X185605297Y-134193198D01*
X185597677Y-134189529D01*
X185573161Y-134181967D01*
X185540822Y-134171992D01*
X185520154Y-134164760D01*
X185484695Y-134152352D01*
X185476326Y-134150768D01*
X185467904Y-134149500D01*
X185467902Y-134149500D01*
X185408426Y-134149500D01*
X185348990Y-134147275D01*
X185339756Y-134148316D01*
X185339662Y-134147486D01*
X185324364Y-134149500D01*
X183774500Y-134149500D01*
X183707461Y-134129815D01*
X183661706Y-134077011D01*
X183650500Y-134025500D01*
X183650500Y-132830000D01*
X197004417Y-132830000D01*
X197024699Y-133035932D01*
X197024700Y-133035934D01*
X197084768Y-133233954D01*
X197182315Y-133416450D01*
X197182317Y-133416452D01*
X197313589Y-133576410D01*
X197410209Y-133655702D01*
X197473550Y-133707685D01*
X197656046Y-133805232D01*
X197854066Y-133865300D01*
X197854065Y-133865300D01*
X197892647Y-133869100D01*
X198008392Y-133880500D01*
X198008395Y-133880500D01*
X198111605Y-133880500D01*
X198111608Y-133880500D01*
X198265934Y-133865300D01*
X198463954Y-133805232D01*
X198646450Y-133707685D01*
X198806410Y-133576410D01*
X198937685Y-133416450D01*
X199035232Y-133233954D01*
X199095300Y-133035934D01*
X199115583Y-132830000D01*
X199095300Y-132624066D01*
X199035232Y-132426046D01*
X198937685Y-132243550D01*
X198885702Y-132180209D01*
X198806410Y-132083589D01*
X198646452Y-131952317D01*
X198646453Y-131952317D01*
X198646450Y-131952315D01*
X198463954Y-131854768D01*
X198265934Y-131794700D01*
X198265932Y-131794699D01*
X198265934Y-131794699D01*
X198146805Y-131782966D01*
X198111608Y-131779500D01*
X198008392Y-131779500D01*
X197970298Y-131783251D01*
X197854067Y-131794699D01*
X197656043Y-131854769D01*
X197545898Y-131913643D01*
X197473550Y-131952315D01*
X197473548Y-131952316D01*
X197473547Y-131952317D01*
X197313589Y-132083589D01*
X197182317Y-132243547D01*
X197084769Y-132426043D01*
X197024699Y-132624067D01*
X197004417Y-132830000D01*
X183650500Y-132830000D01*
X183650500Y-127500001D01*
X198444318Y-127500001D01*
X198464955Y-127656760D01*
X198464956Y-127656762D01*
X198512595Y-127771774D01*
X198525464Y-127802841D01*
X198621718Y-127928282D01*
X198747159Y-128024536D01*
X198893238Y-128085044D01*
X198971619Y-128095363D01*
X199049999Y-128105682D01*
X199050000Y-128105682D01*
X199050001Y-128105682D01*
X199102254Y-128098802D01*
X199206762Y-128085044D01*
X199352841Y-128024536D01*
X199478282Y-127928282D01*
X199574536Y-127802841D01*
X199635044Y-127656762D01*
X199655682Y-127500000D01*
X199635044Y-127343238D01*
X199574536Y-127197159D01*
X199478282Y-127071718D01*
X199352841Y-126975464D01*
X199206762Y-126914956D01*
X199206760Y-126914955D01*
X199050001Y-126894318D01*
X199049999Y-126894318D01*
X198893239Y-126914955D01*
X198893237Y-126914956D01*
X198747160Y-126975463D01*
X198621718Y-127071718D01*
X198525463Y-127197160D01*
X198464956Y-127343237D01*
X198464955Y-127343239D01*
X198444318Y-127499998D01*
X198444318Y-127500001D01*
X183650500Y-127500001D01*
X183650500Y-125855501D01*
X198456617Y-125855501D01*
X198477254Y-126012260D01*
X198477255Y-126012262D01*
X198537763Y-126158341D01*
X198634017Y-126283782D01*
X198759458Y-126380036D01*
X198905537Y-126440544D01*
X198983918Y-126450863D01*
X199062298Y-126461182D01*
X199062299Y-126461182D01*
X199062300Y-126461182D01*
X199114553Y-126454302D01*
X199219061Y-126440544D01*
X199365140Y-126380036D01*
X199490581Y-126283782D01*
X199586835Y-126158341D01*
X199647343Y-126012262D01*
X199667981Y-125855500D01*
X199647343Y-125698738D01*
X199586835Y-125552659D01*
X199490581Y-125427218D01*
X199365140Y-125330964D01*
X199335411Y-125318650D01*
X199219061Y-125270456D01*
X199219059Y-125270455D01*
X199062300Y-125249818D01*
X199062298Y-125249818D01*
X198905538Y-125270455D01*
X198905536Y-125270456D01*
X198759459Y-125330963D01*
X198634017Y-125427218D01*
X198537762Y-125552660D01*
X198477255Y-125698737D01*
X198477254Y-125698739D01*
X198456617Y-125855498D01*
X198456617Y-125855501D01*
X183650500Y-125855501D01*
X183650500Y-124733607D01*
X200988140Y-124733607D01*
X201008777Y-124890366D01*
X201008778Y-124890368D01*
X201069286Y-125036447D01*
X201165540Y-125161888D01*
X201290981Y-125258142D01*
X201437060Y-125318650D01*
X201515441Y-125328969D01*
X201593821Y-125339288D01*
X201593822Y-125339288D01*
X201593823Y-125339288D01*
X201657057Y-125330963D01*
X201750584Y-125318650D01*
X201896663Y-125258142D01*
X202022104Y-125161888D01*
X202118358Y-125036447D01*
X202178866Y-124890368D01*
X202199504Y-124733606D01*
X202178866Y-124576844D01*
X202118358Y-124430765D01*
X202022104Y-124305324D01*
X202022101Y-124305321D01*
X202022099Y-124305319D01*
X202016357Y-124299577D01*
X202017448Y-124298485D01*
X201981670Y-124249485D01*
X201977516Y-124179739D01*
X202011730Y-124118819D01*
X202022862Y-124109173D01*
X202128282Y-124028282D01*
X202224536Y-123902841D01*
X202285044Y-123756762D01*
X202305682Y-123600000D01*
X202285044Y-123443238D01*
X202224536Y-123297159D01*
X202128282Y-123171718D01*
X202002841Y-123075464D01*
X201856762Y-123014956D01*
X201856760Y-123014955D01*
X201700001Y-122994318D01*
X201699999Y-122994318D01*
X201543239Y-123014955D01*
X201543237Y-123014956D01*
X201397160Y-123075463D01*
X201271718Y-123171718D01*
X201175463Y-123297160D01*
X201114956Y-123443237D01*
X201114955Y-123443239D01*
X201094318Y-123599998D01*
X201094318Y-123600001D01*
X201114955Y-123756760D01*
X201114956Y-123756762D01*
X201175464Y-123902841D01*
X201271718Y-124028282D01*
X201271720Y-124028283D01*
X201271722Y-124028286D01*
X201277465Y-124034029D01*
X201276372Y-124035121D01*
X201312150Y-124084117D01*
X201316305Y-124153863D01*
X201282094Y-124214783D01*
X201270948Y-124224442D01*
X201165540Y-124305324D01*
X201069285Y-124430766D01*
X201008778Y-124576843D01*
X201008777Y-124576845D01*
X200988140Y-124733604D01*
X200988140Y-124733607D01*
X183650500Y-124733607D01*
X183650500Y-118073501D01*
X192494318Y-118073501D01*
X192514955Y-118230260D01*
X192514956Y-118230262D01*
X192575464Y-118376341D01*
X192671718Y-118501782D01*
X192797159Y-118598036D01*
X192943238Y-118658544D01*
X193021619Y-118668863D01*
X193099999Y-118679182D01*
X193100000Y-118679182D01*
X193100001Y-118679182D01*
X193152254Y-118672302D01*
X193256762Y-118658544D01*
X193329292Y-118628500D01*
X193398760Y-118621032D01*
X193461240Y-118652307D01*
X193496892Y-118712396D01*
X193499683Y-118759247D01*
X193494318Y-118799998D01*
X193494318Y-118800001D01*
X193514955Y-118956760D01*
X193514956Y-118956762D01*
X193575464Y-119102841D01*
X193671718Y-119228282D01*
X193797159Y-119324536D01*
X193943238Y-119385044D01*
X194021619Y-119395363D01*
X194099999Y-119405682D01*
X194100000Y-119405682D01*
X194100001Y-119405682D01*
X194152254Y-119398802D01*
X194256762Y-119385044D01*
X194402841Y-119324536D01*
X194528282Y-119228282D01*
X194624536Y-119102841D01*
X194654065Y-119031550D01*
X194697903Y-118977152D01*
X194764197Y-118955086D01*
X194831896Y-118972365D01*
X194856305Y-118991326D01*
X197584525Y-121719546D01*
X197588180Y-121723535D01*
X197614374Y-121754750D01*
X197649650Y-121775116D01*
X197654216Y-121778025D01*
X197687589Y-121801394D01*
X197692192Y-121803540D01*
X197709616Y-121810757D01*
X197714388Y-121812493D01*
X197714395Y-121812497D01*
X197754535Y-121819574D01*
X197759789Y-121820739D01*
X197799150Y-121831287D01*
X197839735Y-121827735D01*
X197845139Y-121827500D01*
X204948500Y-121827500D01*
X205015539Y-121847185D01*
X205061294Y-121899989D01*
X205072500Y-121951500D01*
X205072500Y-127543772D01*
X205052815Y-127610811D01*
X205042215Y-127624972D01*
X205017119Y-127653935D01*
X205017116Y-127653939D01*
X204963302Y-127771774D01*
X204944867Y-127900000D01*
X204963302Y-128028225D01*
X204989251Y-128085044D01*
X205017118Y-128146063D01*
X205101951Y-128243967D01*
X205210931Y-128314004D01*
X205335225Y-128350499D01*
X205335227Y-128350500D01*
X205335228Y-128350500D01*
X205464773Y-128350500D01*
X205464773Y-128350499D01*
X205589069Y-128314004D01*
X205698049Y-128243967D01*
X205782882Y-128146063D01*
X205836697Y-128028226D01*
X205855133Y-127900000D01*
X205836697Y-127771774D01*
X205782882Y-127653937D01*
X205775345Y-127645238D01*
X205757785Y-127624972D01*
X205728762Y-127561416D01*
X205727500Y-127543772D01*
X205727500Y-121856226D01*
X205747185Y-121789187D01*
X205757780Y-121775032D01*
X205782882Y-121746063D01*
X205836697Y-121628226D01*
X205855133Y-121500000D01*
X205836697Y-121371774D01*
X205782882Y-121253937D01*
X205698049Y-121156033D01*
X205589069Y-121085996D01*
X205589065Y-121085994D01*
X205589064Y-121085994D01*
X205464774Y-121049500D01*
X205464772Y-121049500D01*
X205335228Y-121049500D01*
X205335226Y-121049500D01*
X205210935Y-121085994D01*
X205210932Y-121085995D01*
X205210931Y-121085996D01*
X205106957Y-121152816D01*
X205039918Y-121172500D01*
X198015151Y-121172500D01*
X197948112Y-121152815D01*
X197927470Y-121136181D01*
X196991290Y-120200001D01*
X203594318Y-120200001D01*
X203614955Y-120356760D01*
X203614956Y-120356762D01*
X203675464Y-120502841D01*
X203771718Y-120628282D01*
X203897159Y-120724536D01*
X204043238Y-120785044D01*
X204121619Y-120795363D01*
X204199999Y-120805682D01*
X204200000Y-120805682D01*
X204200001Y-120805682D01*
X204252254Y-120798802D01*
X204356762Y-120785044D01*
X204502841Y-120724536D01*
X204628282Y-120628282D01*
X204724536Y-120502841D01*
X204785044Y-120356762D01*
X204805682Y-120200000D01*
X204785044Y-120043238D01*
X204724536Y-119897159D01*
X204628282Y-119771718D01*
X204502841Y-119675464D01*
X204356762Y-119614956D01*
X204356760Y-119614955D01*
X204200001Y-119594318D01*
X204199999Y-119594318D01*
X204043239Y-119614955D01*
X204043237Y-119614956D01*
X203897160Y-119675463D01*
X203771718Y-119771718D01*
X203675463Y-119897160D01*
X203614956Y-120043237D01*
X203614955Y-120043239D01*
X203594318Y-120199998D01*
X203594318Y-120200001D01*
X196991290Y-120200001D01*
X194163819Y-117372530D01*
X194130334Y-117311207D01*
X194127500Y-117284849D01*
X194127500Y-116855001D01*
X200721493Y-116855001D01*
X200742130Y-117011760D01*
X200742131Y-117011762D01*
X200802639Y-117157841D01*
X200898893Y-117283282D01*
X201024334Y-117379536D01*
X201170413Y-117440044D01*
X201277491Y-117454141D01*
X201341386Y-117482406D01*
X201379858Y-117540730D01*
X201380690Y-117610595D01*
X201359682Y-117652564D01*
X201325464Y-117697158D01*
X201264956Y-117843237D01*
X201264955Y-117843239D01*
X201244318Y-117999998D01*
X201244318Y-118000001D01*
X201264955Y-118156760D01*
X201264956Y-118156762D01*
X201282473Y-118199053D01*
X201325464Y-118302841D01*
X201421718Y-118428282D01*
X201547159Y-118524536D01*
X201693238Y-118585044D01*
X201771619Y-118595363D01*
X201849999Y-118605682D01*
X201850000Y-118605682D01*
X201850001Y-118605682D01*
X201908077Y-118598036D01*
X202006762Y-118585044D01*
X202152841Y-118524536D01*
X202278282Y-118428282D01*
X202374536Y-118302841D01*
X202435044Y-118156762D01*
X202455682Y-118000000D01*
X202435044Y-117843238D01*
X202374536Y-117697159D01*
X202278282Y-117571718D01*
X202152841Y-117475464D01*
X202101360Y-117454140D01*
X202006762Y-117414956D01*
X202006760Y-117414955D01*
X201899684Y-117400859D01*
X201835787Y-117372593D01*
X201797316Y-117314268D01*
X201796485Y-117244403D01*
X201817494Y-117202433D01*
X201851710Y-117157842D01*
X201851709Y-117157842D01*
X201851711Y-117157841D01*
X201912219Y-117011762D01*
X201932857Y-116855000D01*
X201912219Y-116698238D01*
X201851711Y-116552159D01*
X201755457Y-116426718D01*
X201755454Y-116426715D01*
X201755452Y-116426713D01*
X201749710Y-116420971D01*
X201751155Y-116419525D01*
X201716416Y-116371953D01*
X201712258Y-116302207D01*
X201746467Y-116241285D01*
X201753855Y-116234883D01*
X201755452Y-116233286D01*
X201755452Y-116233285D01*
X201755457Y-116233282D01*
X201851711Y-116107841D01*
X201912219Y-115961762D01*
X201932857Y-115805000D01*
X201926410Y-115756033D01*
X201912219Y-115648238D01*
X201851711Y-115502159D01*
X201755457Y-115376718D01*
X201630016Y-115280464D01*
X201483937Y-115219956D01*
X201483935Y-115219955D01*
X201327176Y-115199318D01*
X201327174Y-115199318D01*
X201170414Y-115219955D01*
X201170412Y-115219956D01*
X201024335Y-115280463D01*
X200898893Y-115376718D01*
X200802638Y-115502160D01*
X200742131Y-115648237D01*
X200742131Y-115648238D01*
X200721493Y-115804998D01*
X200721493Y-115805001D01*
X200742130Y-115961760D01*
X200742131Y-115961762D01*
X200802639Y-116107841D01*
X200898893Y-116233282D01*
X200898895Y-116233283D01*
X200898897Y-116233286D01*
X200904640Y-116239029D01*
X200903195Y-116240473D01*
X200937938Y-116288060D01*
X200942088Y-116357806D01*
X200907872Y-116418724D01*
X200900492Y-116425118D01*
X200898897Y-116426713D01*
X200802638Y-116552160D01*
X200742131Y-116698237D01*
X200742130Y-116698239D01*
X200721493Y-116854998D01*
X200721493Y-116855001D01*
X194127500Y-116855001D01*
X194127500Y-116456226D01*
X194147185Y-116389187D01*
X194157780Y-116375032D01*
X194182882Y-116346063D01*
X194236697Y-116228226D01*
X194255133Y-116100000D01*
X194236697Y-115971774D01*
X194182882Y-115853937D01*
X194098049Y-115756033D01*
X193989069Y-115685996D01*
X193989065Y-115685994D01*
X193989064Y-115685994D01*
X193864774Y-115649500D01*
X193864772Y-115649500D01*
X193735228Y-115649500D01*
X193735226Y-115649500D01*
X193610935Y-115685994D01*
X193610932Y-115685995D01*
X193610931Y-115685996D01*
X193559677Y-115718934D01*
X193501950Y-115756033D01*
X193417118Y-115853937D01*
X193417117Y-115853938D01*
X193363302Y-115971774D01*
X193344867Y-116100000D01*
X193363302Y-116228225D01*
X193397089Y-116302207D01*
X193417118Y-116346063D01*
X193442213Y-116375024D01*
X193471238Y-116438577D01*
X193472500Y-116456226D01*
X193472500Y-117392238D01*
X193452815Y-117459277D01*
X193400011Y-117505032D01*
X193330853Y-117514976D01*
X193301049Y-117506800D01*
X193282251Y-117499014D01*
X193256762Y-117488456D01*
X193256760Y-117488455D01*
X193100001Y-117467818D01*
X193099999Y-117467818D01*
X192943239Y-117488455D01*
X192943237Y-117488456D01*
X192797160Y-117548963D01*
X192671718Y-117645218D01*
X192575463Y-117770660D01*
X192514956Y-117916737D01*
X192514955Y-117916739D01*
X192494318Y-118073498D01*
X192494318Y-118073501D01*
X183650500Y-118073501D01*
X183650500Y-114064733D01*
X183653609Y-114037139D01*
X183654315Y-114034045D01*
X183652853Y-114014541D01*
X183650672Y-113985439D01*
X183650500Y-113980821D01*
X183650500Y-113966240D01*
X183650500Y-113966238D01*
X183648325Y-113951815D01*
X183647806Y-113947206D01*
X183644166Y-113898620D01*
X183643009Y-113895672D01*
X183635819Y-113868840D01*
X183635348Y-113865716D01*
X183635348Y-113865713D01*
X183614209Y-113821818D01*
X183612355Y-113817567D01*
X183602764Y-113793131D01*
X183594552Y-113772206D01*
X183592569Y-113769719D01*
X183577801Y-113746216D01*
X183576425Y-113743358D01*
X183543280Y-113707637D01*
X183540259Y-113704125D01*
X183509878Y-113666029D01*
X183509877Y-113666028D01*
X183507253Y-113664239D01*
X183486214Y-113646133D01*
X183484056Y-113643807D01*
X183484052Y-113643804D01*
X183441857Y-113619442D01*
X183437930Y-113616975D01*
X183435574Y-113615369D01*
X183397673Y-113589528D01*
X183397672Y-113589527D01*
X183397666Y-113589525D01*
X183394630Y-113588588D01*
X183369195Y-113577490D01*
X183366452Y-113575907D01*
X183366447Y-113575905D01*
X183366446Y-113575904D01*
X183366445Y-113575904D01*
X183338305Y-113569481D01*
X183318936Y-113565060D01*
X183314457Y-113563860D01*
X183267902Y-113549500D01*
X183267900Y-113549500D01*
X183264732Y-113549500D01*
X183237140Y-113546391D01*
X183234046Y-113545685D01*
X183234042Y-113545684D01*
X183202709Y-113548033D01*
X183185438Y-113549327D01*
X183180822Y-113549500D01*
X182364732Y-113549500D01*
X182337140Y-113546391D01*
X182334046Y-113545685D01*
X182334042Y-113545684D01*
X182302709Y-113548033D01*
X182285438Y-113549327D01*
X182280822Y-113549500D01*
X182266234Y-113549500D01*
X182251817Y-113551673D01*
X182247210Y-113552192D01*
X182198622Y-113555833D01*
X182198619Y-113555834D01*
X182195664Y-113556994D01*
X182168860Y-113564177D01*
X182165713Y-113564651D01*
X182165712Y-113564651D01*
X182121814Y-113585791D01*
X182117565Y-113587645D01*
X182072206Y-113605447D01*
X182069716Y-113607433D01*
X182046221Y-113622195D01*
X182043363Y-113623571D01*
X182043359Y-113623573D01*
X182007643Y-113656712D01*
X182004130Y-113659735D01*
X181966029Y-113690121D01*
X181964235Y-113692753D01*
X181946139Y-113713780D01*
X181943806Y-113715944D01*
X181919447Y-113758135D01*
X181916980Y-113762061D01*
X181889528Y-113802326D01*
X181889526Y-113802331D01*
X181888589Y-113805368D01*
X181877495Y-113830797D01*
X181875908Y-113833545D01*
X181875902Y-113833560D01*
X181865062Y-113881055D01*
X181863862Y-113885531D01*
X181849500Y-113932095D01*
X181849500Y-113935268D01*
X181846391Y-113962860D01*
X181845684Y-113965954D01*
X181847803Y-113994217D01*
X181849327Y-114014560D01*
X181849500Y-114019177D01*
X181849500Y-128662035D01*
X181829815Y-128729074D01*
X181813181Y-128749716D01*
X177549716Y-133013181D01*
X177488393Y-133046666D01*
X177462035Y-133049500D01*
X154124000Y-133049500D01*
X154056961Y-133029815D01*
X154011206Y-132977011D01*
X154000000Y-132925500D01*
X154000000Y-129013174D01*
X171194318Y-129013174D01*
X171214955Y-129169933D01*
X171214956Y-129169935D01*
X171274072Y-129312655D01*
X171275464Y-129316014D01*
X171371718Y-129441455D01*
X171497159Y-129537709D01*
X171643238Y-129598217D01*
X171721619Y-129608536D01*
X171799999Y-129618855D01*
X171800000Y-129618855D01*
X171800001Y-129618855D01*
X171852254Y-129611975D01*
X171956762Y-129598217D01*
X172102841Y-129537709D01*
X172228282Y-129441455D01*
X172324536Y-129316014D01*
X172385044Y-129169935D01*
X172405682Y-129013173D01*
X172401933Y-128984700D01*
X172385044Y-128856412D01*
X172385044Y-128856411D01*
X172324536Y-128710332D01*
X172228282Y-128584891D01*
X172102841Y-128488637D01*
X171956762Y-128428129D01*
X171956760Y-128428128D01*
X171800001Y-128407491D01*
X171799999Y-128407491D01*
X171643239Y-128428128D01*
X171643237Y-128428129D01*
X171497160Y-128488636D01*
X171371718Y-128584891D01*
X171275463Y-128710333D01*
X171214956Y-128856410D01*
X171214955Y-128856412D01*
X171194318Y-129013171D01*
X171194318Y-129013174D01*
X154000000Y-129013174D01*
X154000000Y-108707395D01*
X163045642Y-108707395D01*
X163049387Y-108769302D01*
X163049500Y-108773047D01*
X163049500Y-128042374D01*
X163064859Y-128168868D01*
X163064860Y-128168874D01*
X163125182Y-128327931D01*
X163140760Y-128350499D01*
X163221817Y-128467929D01*
X163327505Y-128561560D01*
X163349150Y-128580736D01*
X163499773Y-128659789D01*
X163499775Y-128659790D01*
X163664944Y-128700500D01*
X163835056Y-128700500D01*
X164000225Y-128659790D01*
X164142932Y-128584891D01*
X164150849Y-128580736D01*
X164150850Y-128580734D01*
X164150852Y-128580734D01*
X164278183Y-128467929D01*
X164374818Y-128327930D01*
X164435140Y-128168872D01*
X164450500Y-128042372D01*
X164450500Y-121500001D01*
X171194318Y-121500001D01*
X171214955Y-121656760D01*
X171214956Y-121656762D01*
X171274864Y-121801394D01*
X171275464Y-121802841D01*
X171371718Y-121928282D01*
X171497159Y-122024536D01*
X171643238Y-122085044D01*
X171721619Y-122095363D01*
X171799999Y-122105682D01*
X171800000Y-122105682D01*
X171800001Y-122105682D01*
X171852254Y-122098802D01*
X171956762Y-122085044D01*
X172102841Y-122024536D01*
X172228282Y-121928282D01*
X172324536Y-121802841D01*
X172385044Y-121656762D01*
X172405682Y-121500000D01*
X172385044Y-121343238D01*
X172324536Y-121197159D01*
X172228282Y-121071718D01*
X172102841Y-120975464D01*
X171956762Y-120914956D01*
X171956760Y-120914955D01*
X171800001Y-120894318D01*
X171799999Y-120894318D01*
X171643239Y-120914955D01*
X171643237Y-120914956D01*
X171497160Y-120975463D01*
X171371718Y-121071718D01*
X171275463Y-121197160D01*
X171214956Y-121343237D01*
X171214955Y-121343239D01*
X171194318Y-121499998D01*
X171194318Y-121500001D01*
X164450500Y-121500001D01*
X164450500Y-112830003D01*
X197254435Y-112830003D01*
X197274630Y-113009249D01*
X197274631Y-113009254D01*
X197334211Y-113179523D01*
X197430184Y-113332262D01*
X197557738Y-113459816D01*
X197648080Y-113516582D01*
X197700193Y-113549327D01*
X197710478Y-113555789D01*
X197852395Y-113605448D01*
X197880745Y-113615368D01*
X197880750Y-113615369D01*
X197971246Y-113625565D01*
X198015040Y-113630499D01*
X198015043Y-113630500D01*
X198015046Y-113630500D01*
X198104957Y-113630500D01*
X198104958Y-113630499D01*
X198172104Y-113622934D01*
X198239249Y-113615369D01*
X198239252Y-113615368D01*
X198239255Y-113615368D01*
X198409522Y-113555789D01*
X198562262Y-113459816D01*
X198689816Y-113332262D01*
X198785789Y-113179522D01*
X198845368Y-113009255D01*
X198865565Y-112830000D01*
X198845368Y-112650745D01*
X198785789Y-112480478D01*
X198689816Y-112327738D01*
X198562262Y-112200184D01*
X198409523Y-112104211D01*
X198239254Y-112044631D01*
X198239249Y-112044630D01*
X198104960Y-112029500D01*
X198104954Y-112029500D01*
X198015046Y-112029500D01*
X198015039Y-112029500D01*
X197880750Y-112044630D01*
X197880745Y-112044631D01*
X197710476Y-112104211D01*
X197557737Y-112200184D01*
X197430184Y-112327737D01*
X197334211Y-112480476D01*
X197274631Y-112650745D01*
X197274630Y-112650750D01*
X197254435Y-112829996D01*
X197254435Y-112830003D01*
X164450500Y-112830003D01*
X164450500Y-109091519D01*
X164470185Y-109024480D01*
X164486819Y-109003838D01*
X165253838Y-108236819D01*
X165315161Y-108203334D01*
X165341519Y-108200500D01*
X197726952Y-108200500D01*
X197730697Y-108200613D01*
X197738042Y-108201057D01*
X197792606Y-108204358D01*
X197830314Y-108197447D01*
X197853621Y-108193177D01*
X197857325Y-108192613D01*
X197875170Y-108190446D01*
X197918872Y-108185140D01*
X197928335Y-108181550D01*
X197949961Y-108175522D01*
X197950893Y-108175351D01*
X197959932Y-108173695D01*
X198016512Y-108148229D01*
X198019942Y-108146809D01*
X198077930Y-108124818D01*
X198086266Y-108119062D01*
X198105821Y-108108034D01*
X198115057Y-108103878D01*
X198163896Y-108065613D01*
X198166876Y-108063421D01*
X198217929Y-108028183D01*
X198259065Y-107981748D01*
X198261599Y-107979056D01*
X199679056Y-106561599D01*
X199681748Y-106559065D01*
X199728183Y-106517929D01*
X199763417Y-106466883D01*
X199765620Y-106463887D01*
X199803878Y-106415056D01*
X199808037Y-106405813D01*
X199819061Y-106386268D01*
X199824818Y-106377930D01*
X199846810Y-106319939D01*
X199848232Y-106316503D01*
X199873695Y-106259931D01*
X199875522Y-106249959D01*
X199881546Y-106228347D01*
X199885140Y-106218872D01*
X199892613Y-106157324D01*
X199893177Y-106153619D01*
X199896535Y-106135289D01*
X199904358Y-106092606D01*
X199900613Y-106030696D01*
X199900500Y-106026951D01*
X199900500Y-104623047D01*
X199900613Y-104619302D01*
X199904358Y-104557394D01*
X199893175Y-104496371D01*
X199892613Y-104492674D01*
X199890618Y-104476251D01*
X199885140Y-104431128D01*
X199881548Y-104421656D01*
X199875521Y-104400034D01*
X199873695Y-104390071D01*
X199873695Y-104390069D01*
X199848224Y-104333476D01*
X199846817Y-104330079D01*
X199824818Y-104272070D01*
X199824816Y-104272068D01*
X199824816Y-104272066D01*
X199819062Y-104263731D01*
X199808034Y-104244177D01*
X199803880Y-104234947D01*
X199803878Y-104234944D01*
X199765621Y-104186112D01*
X199763427Y-104183130D01*
X199728183Y-104132071D01*
X199681750Y-104090935D01*
X199679056Y-104088399D01*
X199661598Y-104070941D01*
X199659064Y-104068250D01*
X199617929Y-104021817D01*
X199617928Y-104021816D01*
X199617924Y-104021812D01*
X199566896Y-103986591D01*
X199563887Y-103984377D01*
X199515060Y-103946124D01*
X199515055Y-103946120D01*
X199505813Y-103941961D01*
X199486266Y-103930936D01*
X199477931Y-103925183D01*
X199477932Y-103925183D01*
X199477930Y-103925182D01*
X199419941Y-103903189D01*
X199416490Y-103901759D01*
X199359930Y-103876304D01*
X199349946Y-103874474D01*
X199328343Y-103868451D01*
X199318874Y-103864860D01*
X199318870Y-103864859D01*
X199257313Y-103857384D01*
X199253612Y-103856821D01*
X199192608Y-103845642D01*
X199192603Y-103845642D01*
X199130697Y-103849387D01*
X199126952Y-103849500D01*
X182763271Y-103849500D01*
X182696232Y-103829815D01*
X182675590Y-103813181D01*
X179154068Y-100291659D01*
X175583350Y-96720941D01*
X175580816Y-96718250D01*
X175539681Y-96671817D01*
X175539680Y-96671816D01*
X175539676Y-96671812D01*
X175488648Y-96636591D01*
X175485639Y-96634377D01*
X175436812Y-96596124D01*
X175436807Y-96596120D01*
X175427565Y-96591961D01*
X175408018Y-96580936D01*
X175399683Y-96575183D01*
X175399684Y-96575183D01*
X175399682Y-96575182D01*
X175341693Y-96553189D01*
X175338242Y-96551759D01*
X175281682Y-96526304D01*
X175271698Y-96524474D01*
X175250095Y-96518451D01*
X175240626Y-96514860D01*
X175240622Y-96514859D01*
X175179065Y-96507384D01*
X175175364Y-96506821D01*
X175114360Y-96495642D01*
X175114355Y-96495642D01*
X175052449Y-96499387D01*
X175048704Y-96499500D01*
X170812364Y-96499500D01*
X170745325Y-96479815D01*
X170699570Y-96427011D01*
X170689626Y-96357853D01*
X170691727Y-96343238D01*
X170705133Y-96250000D01*
X170686697Y-96121774D01*
X170632882Y-96003937D01*
X170548049Y-95906033D01*
X170439069Y-95835996D01*
X170439065Y-95835994D01*
X170439064Y-95835994D01*
X170314774Y-95799500D01*
X170314772Y-95799500D01*
X170185228Y-95799500D01*
X170185226Y-95799500D01*
X170060935Y-95835994D01*
X170060932Y-95835995D01*
X170060931Y-95835996D01*
X170009677Y-95868934D01*
X169951950Y-95906033D01*
X169867118Y-96003937D01*
X169867117Y-96003938D01*
X169813302Y-96121774D01*
X169802464Y-96197159D01*
X169794867Y-96250000D01*
X169808272Y-96343237D01*
X169810374Y-96357853D01*
X169800430Y-96427011D01*
X169754675Y-96479815D01*
X169687636Y-96499500D01*
X167341519Y-96499500D01*
X167274480Y-96479815D01*
X167253838Y-96463181D01*
X166965370Y-96174712D01*
X166897799Y-96121774D01*
X166865057Y-96096122D01*
X166865055Y-96096121D01*
X166709935Y-96026306D01*
X166709931Y-96026304D01*
X166542607Y-95995642D01*
X166542603Y-95995642D01*
X166415254Y-96003346D01*
X166372804Y-96005914D01*
X166291599Y-96031218D01*
X166210393Y-96056522D01*
X166064811Y-96144530D01*
X165944530Y-96264811D01*
X165856522Y-96410393D01*
X165851344Y-96427011D01*
X165820404Y-96526305D01*
X165805914Y-96572805D01*
X165795642Y-96742603D01*
X165795642Y-96742605D01*
X165826304Y-96909931D01*
X165826306Y-96909935D01*
X165892388Y-97056760D01*
X165896122Y-97065057D01*
X165901341Y-97071718D01*
X165974712Y-97165370D01*
X166137624Y-97328281D01*
X166488399Y-97679056D01*
X166490935Y-97681750D01*
X166532071Y-97728183D01*
X166583130Y-97763427D01*
X166586112Y-97765621D01*
X166634944Y-97803878D01*
X166634947Y-97803880D01*
X166634946Y-97803880D01*
X166644177Y-97808034D01*
X166663731Y-97819062D01*
X166672066Y-97824816D01*
X166672068Y-97824816D01*
X166672070Y-97824818D01*
X166730079Y-97846817D01*
X166733476Y-97848224D01*
X166780770Y-97869509D01*
X166790064Y-97873693D01*
X166790065Y-97873693D01*
X166790069Y-97873695D01*
X166800034Y-97875521D01*
X166821656Y-97881548D01*
X166824777Y-97882731D01*
X166831128Y-97885140D01*
X166876251Y-97890618D01*
X166892674Y-97892613D01*
X166896371Y-97893175D01*
X166957394Y-97904358D01*
X167012752Y-97901009D01*
X167019303Y-97900613D01*
X167023048Y-97900500D01*
X170871633Y-97900500D01*
X170938672Y-97920185D01*
X170984427Y-97972989D01*
X170994371Y-98042147D01*
X170979020Y-98086501D01*
X170975462Y-98092662D01*
X170914956Y-98238737D01*
X170914955Y-98238739D01*
X170894318Y-98395498D01*
X170894318Y-98395501D01*
X170914955Y-98552260D01*
X170914956Y-98552262D01*
X170975464Y-98698341D01*
X171071718Y-98823782D01*
X171197159Y-98920036D01*
X171343238Y-98980544D01*
X171421619Y-98990863D01*
X171499999Y-99001182D01*
X171500000Y-99001182D01*
X171500001Y-99001182D01*
X171552254Y-98994302D01*
X171656762Y-98980544D01*
X171802841Y-98920036D01*
X171928282Y-98823782D01*
X172024536Y-98698341D01*
X172085044Y-98552262D01*
X172105682Y-98395500D01*
X172085044Y-98238738D01*
X172024536Y-98092659D01*
X172024533Y-98092655D01*
X172020980Y-98086501D01*
X172004507Y-98018601D01*
X172027359Y-97952574D01*
X172082280Y-97909383D01*
X172128367Y-97900500D01*
X174730233Y-97900500D01*
X174797272Y-97920185D01*
X174817914Y-97936819D01*
X181910151Y-105029056D01*
X181912687Y-105031750D01*
X181953823Y-105078183D01*
X182004882Y-105113427D01*
X182007864Y-105115621D01*
X182056696Y-105153878D01*
X182056699Y-105153880D01*
X182056698Y-105153880D01*
X182065929Y-105158034D01*
X182085483Y-105169062D01*
X182093818Y-105174816D01*
X182093820Y-105174816D01*
X182093822Y-105174818D01*
X182151831Y-105196817D01*
X182155228Y-105198224D01*
X182202522Y-105219509D01*
X182211816Y-105223693D01*
X182211817Y-105223693D01*
X182211821Y-105223695D01*
X182221786Y-105225521D01*
X182243408Y-105231548D01*
X182246529Y-105232731D01*
X182252880Y-105235140D01*
X182298003Y-105240618D01*
X182314426Y-105242613D01*
X182318123Y-105243175D01*
X182379146Y-105254358D01*
X182434504Y-105251009D01*
X182441055Y-105250613D01*
X182444800Y-105250500D01*
X198375500Y-105250500D01*
X198442539Y-105270185D01*
X198488294Y-105322989D01*
X198499500Y-105374500D01*
X198499500Y-105708481D01*
X198479815Y-105775520D01*
X198463181Y-105796162D01*
X197496162Y-106763181D01*
X197434839Y-106796666D01*
X197408481Y-106799500D01*
X165023048Y-106799500D01*
X165019303Y-106799387D01*
X164957396Y-106795642D01*
X164957389Y-106795642D01*
X164896386Y-106806821D01*
X164892685Y-106807384D01*
X164831128Y-106814859D01*
X164831121Y-106814861D01*
X164821647Y-106818454D01*
X164800049Y-106824475D01*
X164790068Y-106826305D01*
X164790063Y-106826306D01*
X164733505Y-106851761D01*
X164730046Y-106853193D01*
X164672070Y-106875181D01*
X164672066Y-106875184D01*
X164663723Y-106880942D01*
X164644188Y-106891960D01*
X164634948Y-106896119D01*
X164634939Y-106896124D01*
X164586124Y-106934368D01*
X164583109Y-106936586D01*
X164532068Y-106971818D01*
X164490942Y-107018240D01*
X164488375Y-107020966D01*
X163270966Y-108238375D01*
X163268240Y-108240942D01*
X163221818Y-108282068D01*
X163186586Y-108333109D01*
X163184368Y-108336124D01*
X163146124Y-108384939D01*
X163146119Y-108384948D01*
X163141960Y-108394188D01*
X163130942Y-108413723D01*
X163125187Y-108422061D01*
X163125183Y-108422067D01*
X163125182Y-108422070D01*
X163125180Y-108422074D01*
X163125179Y-108422077D01*
X163103189Y-108480055D01*
X163101757Y-108483513D01*
X163076305Y-108540068D01*
X163074477Y-108550042D01*
X163068453Y-108571653D01*
X163064860Y-108581127D01*
X163064859Y-108581128D01*
X163057384Y-108642685D01*
X163056821Y-108646386D01*
X163045642Y-108707390D01*
X163045642Y-108707395D01*
X154000000Y-108707395D01*
X154000000Y-102800001D01*
X174094318Y-102800001D01*
X174114955Y-102956760D01*
X174114956Y-102956762D01*
X174175464Y-103102841D01*
X174271718Y-103228282D01*
X174397159Y-103324536D01*
X174543238Y-103385044D01*
X174621619Y-103395363D01*
X174699999Y-103405682D01*
X174700000Y-103405682D01*
X174700001Y-103405682D01*
X174752254Y-103398802D01*
X174856762Y-103385044D01*
X175002841Y-103324536D01*
X175128282Y-103228282D01*
X175224536Y-103102841D01*
X175285044Y-102956762D01*
X175305682Y-102800000D01*
X175285044Y-102643238D01*
X175224536Y-102497159D01*
X175128282Y-102371718D01*
X175002841Y-102275464D01*
X174856762Y-102214956D01*
X174856760Y-102214955D01*
X174700001Y-102194318D01*
X174699999Y-102194318D01*
X174543239Y-102214955D01*
X174543237Y-102214956D01*
X174397160Y-102275463D01*
X174271718Y-102371718D01*
X174175463Y-102497160D01*
X174114956Y-102643237D01*
X174114955Y-102643239D01*
X174094318Y-102799998D01*
X174094318Y-102800001D01*
X154000000Y-102800001D01*
X154000000Y-100594501D01*
X170794318Y-100594501D01*
X170814955Y-100751260D01*
X170814956Y-100751262D01*
X170875464Y-100897341D01*
X170971718Y-101022782D01*
X171097159Y-101119036D01*
X171243238Y-101179544D01*
X171321619Y-101189863D01*
X171399999Y-101200182D01*
X171400000Y-101200182D01*
X171400001Y-101200182D01*
X171452254Y-101193302D01*
X171556762Y-101179544D01*
X171702841Y-101119036D01*
X171828282Y-101022782D01*
X171924536Y-100897341D01*
X171985044Y-100751262D01*
X172005682Y-100594500D01*
X171985044Y-100437738D01*
X171924536Y-100291659D01*
X171828282Y-100166218D01*
X171702841Y-100069964D01*
X171556762Y-100009456D01*
X171556760Y-100009455D01*
X171400001Y-99988818D01*
X171399999Y-99988818D01*
X171243239Y-100009455D01*
X171243237Y-100009456D01*
X171097160Y-100069963D01*
X170971718Y-100166218D01*
X170875463Y-100291660D01*
X170814956Y-100437737D01*
X170814955Y-100437739D01*
X170794318Y-100594498D01*
X170794318Y-100594501D01*
X154000000Y-100594501D01*
X154000000Y-95374000D01*
X154019685Y-95306961D01*
X154072489Y-95261206D01*
X154124000Y-95250000D01*
X158787482Y-95250000D01*
X158854521Y-95269685D01*
X158900276Y-95322489D01*
X158910220Y-95391647D01*
X158881195Y-95455203D01*
X158875163Y-95461681D01*
X158080451Y-96256393D01*
X158076462Y-96260049D01*
X158045250Y-96286239D01*
X158045248Y-96286241D01*
X158024876Y-96321526D01*
X158021971Y-96326087D01*
X157998604Y-96359459D01*
X157996473Y-96364028D01*
X157989225Y-96381528D01*
X157987502Y-96386264D01*
X157980427Y-96426383D01*
X157979256Y-96431662D01*
X157968712Y-96471016D01*
X157972264Y-96511598D01*
X157972500Y-96517005D01*
X157972500Y-96933234D01*
X157952815Y-97000273D01*
X157923988Y-97031608D01*
X157871721Y-97071715D01*
X157871719Y-97071716D01*
X157871718Y-97071718D01*
X157861493Y-97085044D01*
X157775463Y-97197160D01*
X157714956Y-97343237D01*
X157714955Y-97343239D01*
X157694318Y-97499998D01*
X157694318Y-97500001D01*
X157714955Y-97656760D01*
X157714956Y-97656762D01*
X157759133Y-97763416D01*
X157775464Y-97802841D01*
X157871718Y-97928282D01*
X157997159Y-98024536D01*
X158143238Y-98085044D01*
X158201080Y-98092659D01*
X158299999Y-98105682D01*
X158300000Y-98105682D01*
X158300001Y-98105682D01*
X158352254Y-98098802D01*
X158456762Y-98085044D01*
X158602841Y-98024536D01*
X158728282Y-97928282D01*
X158824536Y-97802841D01*
X158885044Y-97656762D01*
X158905682Y-97500000D01*
X158902346Y-97474664D01*
X158885044Y-97343239D01*
X158885044Y-97343238D01*
X158824536Y-97197159D01*
X158728282Y-97071718D01*
X158726216Y-97070132D01*
X158676012Y-97031608D01*
X158634810Y-96975180D01*
X158627500Y-96933234D01*
X158627500Y-96687016D01*
X158647185Y-96619977D01*
X158663819Y-96599335D01*
X159799336Y-95463819D01*
X159860659Y-95430334D01*
X159887017Y-95427500D01*
X176712984Y-95427500D01*
X176780023Y-95447185D01*
X176800665Y-95463819D01*
X179811181Y-98474335D01*
X179844666Y-98535658D01*
X179847500Y-98562016D01*
X179847500Y-99358234D01*
X179827815Y-99425273D01*
X179798988Y-99456608D01*
X179746721Y-99496715D01*
X179746719Y-99496716D01*
X179746718Y-99496718D01*
X179674527Y-99590798D01*
X179650463Y-99622160D01*
X179589956Y-99768237D01*
X179589955Y-99768239D01*
X179569318Y-99924998D01*
X179569318Y-99925001D01*
X179589955Y-100081760D01*
X179589956Y-100081762D01*
X179650464Y-100227841D01*
X179746718Y-100353282D01*
X179872159Y-100449536D01*
X180018238Y-100510044D01*
X180096619Y-100520363D01*
X180174999Y-100530682D01*
X180175000Y-100530682D01*
X180175001Y-100530682D01*
X180227254Y-100523802D01*
X180331762Y-100510044D01*
X180477841Y-100449536D01*
X180603282Y-100353282D01*
X180699536Y-100227841D01*
X180760044Y-100081762D01*
X180773648Y-99978425D01*
X180796819Y-99920976D01*
X180802793Y-99912882D01*
X180802794Y-99912878D01*
X180806786Y-99905325D01*
X180810470Y-99897676D01*
X180810470Y-99897675D01*
X180810472Y-99897673D01*
X180828007Y-99840822D01*
X180847646Y-99784699D01*
X180849232Y-99776311D01*
X180850500Y-99767904D01*
X180850500Y-99708426D01*
X180852724Y-99648992D01*
X180851684Y-99639761D01*
X180852513Y-99639667D01*
X180850500Y-99624366D01*
X180850500Y-96500001D01*
X190494318Y-96500001D01*
X190514955Y-96656760D01*
X190514956Y-96656762D01*
X190550775Y-96743238D01*
X190575464Y-96802841D01*
X190671718Y-96928282D01*
X190797159Y-97024536D01*
X190943238Y-97085044D01*
X191021619Y-97095363D01*
X191099999Y-97105682D01*
X191100000Y-97105682D01*
X191100001Y-97105682D01*
X191152254Y-97098802D01*
X191256762Y-97085044D01*
X191402841Y-97024536D01*
X191528282Y-96928282D01*
X191549983Y-96900001D01*
X196894318Y-96900001D01*
X196914955Y-97056760D01*
X196914956Y-97056762D01*
X196975464Y-97202841D01*
X197071718Y-97328282D01*
X197197159Y-97424536D01*
X197343238Y-97485044D01*
X197421619Y-97495363D01*
X197499999Y-97505682D01*
X197500000Y-97505682D01*
X197500001Y-97505682D01*
X197552254Y-97498802D01*
X197656762Y-97485044D01*
X197802841Y-97424536D01*
X197928282Y-97328282D01*
X198024536Y-97202841D01*
X198085044Y-97056762D01*
X198104374Y-96909935D01*
X198105682Y-96900001D01*
X198105682Y-96899998D01*
X198085044Y-96743239D01*
X198085044Y-96743238D01*
X198024536Y-96597159D01*
X197928282Y-96471718D01*
X197802841Y-96375464D01*
X197760324Y-96357853D01*
X197656762Y-96314956D01*
X197656760Y-96314955D01*
X197500001Y-96294318D01*
X197499999Y-96294318D01*
X197343239Y-96314955D01*
X197343237Y-96314956D01*
X197197160Y-96375463D01*
X197071718Y-96471718D01*
X196975463Y-96597160D01*
X196914956Y-96743237D01*
X196914955Y-96743239D01*
X196894318Y-96899998D01*
X196894318Y-96900001D01*
X191549983Y-96900001D01*
X191624536Y-96802841D01*
X191685044Y-96656762D01*
X191705682Y-96500000D01*
X191705601Y-96499387D01*
X191687781Y-96364028D01*
X191685044Y-96343238D01*
X191624536Y-96197159D01*
X191528282Y-96071718D01*
X191402841Y-95975464D01*
X191256762Y-95914956D01*
X191256760Y-95914955D01*
X191100001Y-95894318D01*
X191099999Y-95894318D01*
X190943239Y-95914955D01*
X190943237Y-95914956D01*
X190797160Y-95975463D01*
X190671718Y-96071718D01*
X190575463Y-96197160D01*
X190514956Y-96343237D01*
X190514955Y-96343239D01*
X190494318Y-96499998D01*
X190494318Y-96500001D01*
X180850500Y-96500001D01*
X180850500Y-91698720D01*
X182354749Y-91698720D01*
X182375386Y-91855479D01*
X182375387Y-91855481D01*
X182435895Y-92001560D01*
X182532149Y-92127001D01*
X182657590Y-92223255D01*
X182803669Y-92283763D01*
X182882050Y-92294082D01*
X182960430Y-92304401D01*
X182960431Y-92304401D01*
X182960432Y-92304401D01*
X183012685Y-92297521D01*
X183117193Y-92283763D01*
X183263272Y-92223255D01*
X183388713Y-92127001D01*
X183484967Y-92001560D01*
X183545475Y-91855481D01*
X183566113Y-91698719D01*
X183563051Y-91675464D01*
X183545475Y-91541958D01*
X183545475Y-91541957D01*
X183484967Y-91395878D01*
X183410205Y-91298447D01*
X183385013Y-91233281D01*
X183399051Y-91164836D01*
X183423931Y-91135434D01*
X183422531Y-91134034D01*
X183428275Y-91128288D01*
X183428276Y-91128286D01*
X183428282Y-91128282D01*
X183524536Y-91002841D01*
X183585044Y-90856762D01*
X183605682Y-90700000D01*
X183585044Y-90543238D01*
X183524536Y-90397159D01*
X183449984Y-90300001D01*
X189994318Y-90300001D01*
X190014955Y-90456760D01*
X190014956Y-90456762D01*
X190062817Y-90572310D01*
X190075464Y-90602841D01*
X190171718Y-90728282D01*
X190297159Y-90824536D01*
X190443238Y-90885044D01*
X190521619Y-90895363D01*
X190599999Y-90905682D01*
X190600000Y-90905682D01*
X190600001Y-90905682D01*
X190652254Y-90898802D01*
X190756762Y-90885044D01*
X190902841Y-90824536D01*
X191028282Y-90728282D01*
X191124536Y-90602841D01*
X191185044Y-90456762D01*
X191205682Y-90300000D01*
X191185044Y-90143238D01*
X191124536Y-89997159D01*
X191028282Y-89871718D01*
X190902841Y-89775464D01*
X190756762Y-89714956D01*
X190756760Y-89714955D01*
X190600001Y-89694318D01*
X190599999Y-89694318D01*
X190443239Y-89714955D01*
X190443237Y-89714956D01*
X190297160Y-89775463D01*
X190171718Y-89871718D01*
X190075463Y-89997160D01*
X190014956Y-90143237D01*
X190014955Y-90143239D01*
X189994318Y-90299998D01*
X189994318Y-90300001D01*
X183449984Y-90300001D01*
X183428282Y-90271718D01*
X183302841Y-90175464D01*
X183228693Y-90144751D01*
X183156762Y-90114956D01*
X183156760Y-90114955D01*
X183000001Y-90094318D01*
X182999999Y-90094318D01*
X182843239Y-90114955D01*
X182843237Y-90114956D01*
X182697160Y-90175463D01*
X182571718Y-90271718D01*
X182475463Y-90397160D01*
X182414956Y-90543237D01*
X182414955Y-90543239D01*
X182394318Y-90699998D01*
X182394318Y-90700001D01*
X182414955Y-90856760D01*
X182414956Y-90856762D01*
X182475464Y-91002841D01*
X182550223Y-91100270D01*
X182575417Y-91165438D01*
X182561379Y-91233883D01*
X182536508Y-91263295D01*
X182537899Y-91264686D01*
X182532155Y-91270430D01*
X182532150Y-91270435D01*
X182532149Y-91270437D01*
X182510654Y-91298450D01*
X182435894Y-91395879D01*
X182375387Y-91541956D01*
X182375386Y-91541958D01*
X182354749Y-91698717D01*
X182354749Y-91698720D01*
X180850500Y-91698720D01*
X180850500Y-89437965D01*
X180870185Y-89370926D01*
X180886817Y-89350286D01*
X180893865Y-89343238D01*
X180906421Y-89330681D01*
X180967741Y-89297196D01*
X180977898Y-89295426D01*
X181056762Y-89285044D01*
X181202841Y-89224536D01*
X181234816Y-89200001D01*
X192759318Y-89200001D01*
X192779955Y-89356760D01*
X192779956Y-89356762D01*
X192840464Y-89502841D01*
X192936718Y-89628282D01*
X193062159Y-89724536D01*
X193208238Y-89785044D01*
X193286619Y-89795363D01*
X193364999Y-89805682D01*
X193365000Y-89805682D01*
X193365001Y-89805682D01*
X193417254Y-89798802D01*
X193521762Y-89785044D01*
X193667841Y-89724536D01*
X193793282Y-89628282D01*
X193889536Y-89502841D01*
X193950044Y-89356762D01*
X193970682Y-89200000D01*
X193957517Y-89100001D01*
X197794318Y-89100001D01*
X197814955Y-89256760D01*
X197814956Y-89256762D01*
X197856376Y-89356760D01*
X197875464Y-89402841D01*
X197971718Y-89528282D01*
X198097159Y-89624536D01*
X198243238Y-89685044D01*
X198313681Y-89694318D01*
X198399999Y-89705682D01*
X198400000Y-89705682D01*
X198400001Y-89705682D01*
X198452254Y-89698802D01*
X198556762Y-89685044D01*
X198702841Y-89624536D01*
X198828282Y-89528282D01*
X198924536Y-89402841D01*
X198985044Y-89256762D01*
X199005682Y-89100000D01*
X198985044Y-88943238D01*
X198924536Y-88797159D01*
X198828282Y-88671718D01*
X198702841Y-88575464D01*
X198556762Y-88514956D01*
X198556760Y-88514955D01*
X198400001Y-88494318D01*
X198399999Y-88494318D01*
X198243239Y-88514955D01*
X198243237Y-88514956D01*
X198097160Y-88575463D01*
X197971718Y-88671718D01*
X197875463Y-88797160D01*
X197814956Y-88943237D01*
X197814955Y-88943239D01*
X197794318Y-89099998D01*
X197794318Y-89100001D01*
X193957517Y-89100001D01*
X193950044Y-89043238D01*
X193889536Y-88897159D01*
X193793282Y-88771718D01*
X193667841Y-88675464D01*
X193658797Y-88671718D01*
X193521762Y-88614956D01*
X193521760Y-88614955D01*
X193365001Y-88594318D01*
X193364999Y-88594318D01*
X193208239Y-88614955D01*
X193208237Y-88614956D01*
X193062160Y-88675463D01*
X192936718Y-88771718D01*
X192840463Y-88897160D01*
X192779956Y-89043237D01*
X192779955Y-89043239D01*
X192759318Y-89199998D01*
X192759318Y-89200001D01*
X181234816Y-89200001D01*
X181328282Y-89128282D01*
X181424536Y-89002841D01*
X181485044Y-88856762D01*
X181498802Y-88752254D01*
X181505682Y-88700001D01*
X181505682Y-88699998D01*
X181485044Y-88543239D01*
X181485044Y-88543238D01*
X181424536Y-88397159D01*
X181328282Y-88271718D01*
X181202841Y-88175464D01*
X181056762Y-88114956D01*
X181009616Y-88108749D01*
X180958314Y-88101995D01*
X180894418Y-88073728D01*
X180855947Y-88015404D01*
X180850500Y-87979056D01*
X180850500Y-84137965D01*
X180870185Y-84070926D01*
X180886819Y-84050284D01*
X181350284Y-83586819D01*
X181411607Y-83553334D01*
X181437965Y-83550500D01*
X181658581Y-83550500D01*
X181725620Y-83570185D01*
X181734067Y-83576124D01*
X181797157Y-83624535D01*
X181797158Y-83624535D01*
X181797159Y-83624536D01*
X181943238Y-83685044D01*
X181958992Y-83687118D01*
X182099999Y-83705682D01*
X182100000Y-83705682D01*
X182100001Y-83705682D01*
X182152254Y-83698802D01*
X182256762Y-83685044D01*
X182402841Y-83624536D01*
X182528282Y-83528282D01*
X182624536Y-83402841D01*
X182685044Y-83256762D01*
X182705682Y-83100000D01*
X182699473Y-83052841D01*
X182685044Y-82943239D01*
X182685044Y-82943238D01*
X182624536Y-82797159D01*
X182528282Y-82671718D01*
X182402841Y-82575464D01*
X182388766Y-82569634D01*
X182256762Y-82514956D01*
X182256760Y-82514955D01*
X182100001Y-82494318D01*
X182099999Y-82494318D01*
X181943239Y-82514955D01*
X181943237Y-82514956D01*
X181797157Y-82575464D01*
X181734067Y-82623876D01*
X181668898Y-82649070D01*
X181658581Y-82649500D01*
X181228783Y-82649500D01*
X181221844Y-82649110D01*
X181209545Y-82647724D01*
X181182966Y-82644729D01*
X181124508Y-82655789D01*
X181065708Y-82664652D01*
X181057550Y-82667168D01*
X181049529Y-82669975D01*
X181049528Y-82669976D01*
X181049526Y-82669976D01*
X181049523Y-82669978D01*
X180996915Y-82697783D01*
X180943358Y-82723575D01*
X180936310Y-82728379D01*
X180929459Y-82733435D01*
X180901420Y-82761474D01*
X180887400Y-82775495D01*
X180867176Y-82794260D01*
X180843807Y-82815943D01*
X180838015Y-82823207D01*
X180837363Y-82822687D01*
X180827969Y-82834925D01*
X180101804Y-83561092D01*
X180096617Y-83565727D01*
X180066033Y-83590117D01*
X180066029Y-83590121D01*
X180032519Y-83639271D01*
X179997206Y-83687118D01*
X179993216Y-83694667D01*
X179989528Y-83702326D01*
X179971992Y-83759177D01*
X179952353Y-83815301D01*
X179950771Y-83823659D01*
X179949500Y-83832100D01*
X179949500Y-83891573D01*
X179947275Y-83951009D01*
X179948316Y-83960243D01*
X179947485Y-83960336D01*
X179949500Y-83975635D01*
X179949500Y-89191573D01*
X179947275Y-89251009D01*
X179948316Y-89260243D01*
X179947485Y-89260336D01*
X179949500Y-89275635D01*
X179949500Y-97386983D01*
X179929815Y-97454022D01*
X179877011Y-97499777D01*
X179807853Y-97509721D01*
X179744297Y-97480696D01*
X179737819Y-97474664D01*
X179163153Y-96899998D01*
X177143596Y-94880442D01*
X177139951Y-94876463D01*
X177113761Y-94845251D01*
X177113757Y-94845247D01*
X177078478Y-94824879D01*
X177073914Y-94821972D01*
X177040544Y-94798606D01*
X177035959Y-94796468D01*
X177018491Y-94789232D01*
X177013740Y-94787503D01*
X176973618Y-94780428D01*
X176968335Y-94779257D01*
X176928981Y-94768712D01*
X176892891Y-94771871D01*
X176888398Y-94772264D01*
X176882995Y-94772500D01*
X175874000Y-94772500D01*
X175806961Y-94752815D01*
X175761206Y-94700011D01*
X175750000Y-94648500D01*
X175750000Y-82324000D01*
X175769685Y-82256961D01*
X175822489Y-82211206D01*
X175874000Y-82200000D01*
X206126000Y-82200000D01*
X206193039Y-82219685D01*
G37*
%TD.AperFunction*%
%TD*%
%TA.AperFunction,Conductor*%
%TO.N,GNDA*%
G36*
X144279172Y-133970185D02*
G01*
X144324927Y-134022989D01*
X144334871Y-134092147D01*
X144305846Y-134155703D01*
X144289453Y-134171440D01*
X144266030Y-134190121D01*
X144266029Y-134190122D01*
X144232519Y-134239271D01*
X144197206Y-134287118D01*
X144193216Y-134294667D01*
X144189528Y-134302326D01*
X144171992Y-134359177D01*
X144152353Y-134415301D01*
X144150771Y-134423659D01*
X144149500Y-134432100D01*
X144149500Y-134491573D01*
X144147275Y-134551009D01*
X144148316Y-134560243D01*
X144147485Y-134560336D01*
X144149500Y-134575635D01*
X144149500Y-135858580D01*
X144129815Y-135925619D01*
X144123876Y-135934066D01*
X144075464Y-135997157D01*
X144014956Y-136143237D01*
X144014955Y-136143239D01*
X143994318Y-136299998D01*
X143994318Y-136300001D01*
X144014955Y-136456760D01*
X144014956Y-136456762D01*
X144056712Y-136557571D01*
X144075464Y-136602841D01*
X144171718Y-136728282D01*
X144297159Y-136824536D01*
X144443238Y-136885044D01*
X144521619Y-136895363D01*
X144599999Y-136905682D01*
X144600000Y-136905682D01*
X144600001Y-136905682D01*
X144652254Y-136898802D01*
X144756762Y-136885044D01*
X144902841Y-136824536D01*
X145028282Y-136728282D01*
X145124536Y-136602841D01*
X145185044Y-136456762D01*
X145200763Y-136337361D01*
X145205682Y-136300001D01*
X145205682Y-136299998D01*
X145185044Y-136143239D01*
X145185044Y-136143238D01*
X145124536Y-135997159D01*
X145124535Y-135997158D01*
X145124535Y-135997157D01*
X145076124Y-135934066D01*
X145050930Y-135868896D01*
X145050500Y-135858580D01*
X145050500Y-134737965D01*
X145070185Y-134670926D01*
X145086819Y-134650284D01*
X145750284Y-133986819D01*
X145811607Y-133953334D01*
X145837965Y-133950500D01*
X146325045Y-133950500D01*
X146392084Y-133970185D01*
X146437839Y-134022989D01*
X146447783Y-134092147D01*
X146418758Y-134155703D01*
X146400532Y-134172876D01*
X146271718Y-134271718D01*
X146175463Y-134397160D01*
X146114956Y-134543237D01*
X146114955Y-134543239D01*
X146094318Y-134699998D01*
X146094318Y-134700001D01*
X146114955Y-134856760D01*
X146114956Y-134856762D01*
X146175464Y-135002841D01*
X146271718Y-135128282D01*
X146397159Y-135224536D01*
X146543238Y-135285044D01*
X146621619Y-135295363D01*
X146699999Y-135305682D01*
X146700000Y-135305682D01*
X146700001Y-135305682D01*
X146752254Y-135298802D01*
X146856762Y-135285044D01*
X147002841Y-135224536D01*
X147065933Y-135176123D01*
X147131102Y-135150930D01*
X147141419Y-135150500D01*
X147262034Y-135150500D01*
X147329073Y-135170185D01*
X147349715Y-135186819D01*
X149013181Y-136850284D01*
X149046666Y-136911607D01*
X149049500Y-136937965D01*
X149049500Y-142162034D01*
X149029815Y-142229073D01*
X149013181Y-142249715D01*
X147493578Y-143769317D01*
X147432255Y-143802802D01*
X147422084Y-143804575D01*
X147343238Y-143814956D01*
X147197160Y-143875463D01*
X147071718Y-143971718D01*
X146975463Y-144097160D01*
X146914956Y-144243237D01*
X146914955Y-144243239D01*
X146894318Y-144399998D01*
X146894318Y-144400001D01*
X146914955Y-144556760D01*
X146914956Y-144556762D01*
X146975464Y-144702841D01*
X147071718Y-144828282D01*
X147197159Y-144924536D01*
X147343238Y-144985044D01*
X147421619Y-144995363D01*
X147499999Y-145005682D01*
X147500000Y-145005682D01*
X147500001Y-145005682D01*
X147552254Y-144998802D01*
X147656762Y-144985044D01*
X147802841Y-144924536D01*
X147928282Y-144828282D01*
X148024536Y-144702841D01*
X148085044Y-144556762D01*
X148095424Y-144477915D01*
X148123688Y-144414021D01*
X148130669Y-144406433D01*
X148690177Y-143846925D01*
X148751499Y-143813441D01*
X148821191Y-143818425D01*
X148877124Y-143860297D01*
X148901541Y-143925761D01*
X148900796Y-143950792D01*
X148894318Y-143999998D01*
X148894318Y-144000001D01*
X148914955Y-144156760D01*
X148914956Y-144156762D01*
X148950775Y-144243238D01*
X148975464Y-144302841D01*
X149071718Y-144428282D01*
X149197159Y-144524536D01*
X149343238Y-144585044D01*
X149421619Y-144595363D01*
X149499999Y-144605682D01*
X149500000Y-144605682D01*
X149500001Y-144605682D01*
X149552254Y-144598802D01*
X149656762Y-144585044D01*
X149802841Y-144524536D01*
X149928282Y-144428282D01*
X150024536Y-144302841D01*
X150085044Y-144156762D01*
X150095424Y-144077915D01*
X150123688Y-144014021D01*
X150130669Y-144006433D01*
X151848205Y-142288896D01*
X151853373Y-142284277D01*
X151883970Y-142259879D01*
X151917480Y-142210728D01*
X151952793Y-142162882D01*
X151952794Y-142162879D01*
X151956787Y-142155324D01*
X151960470Y-142147676D01*
X151960470Y-142147675D01*
X151960472Y-142147673D01*
X151978007Y-142090822D01*
X151997646Y-142034699D01*
X151999228Y-142026336D01*
X152000500Y-142017899D01*
X152000500Y-141958441D01*
X152003073Y-141889703D01*
X152005449Y-141889791D01*
X152015208Y-141834042D01*
X152028005Y-141813481D01*
X152074535Y-141752842D01*
X152074534Y-141752842D01*
X152074536Y-141752841D01*
X152135044Y-141606762D01*
X152155682Y-141450000D01*
X152135044Y-141293238D01*
X152074536Y-141147159D01*
X151978282Y-141021718D01*
X151852841Y-140925464D01*
X151706762Y-140864956D01*
X151706760Y-140864955D01*
X151550001Y-140844318D01*
X151549999Y-140844318D01*
X151393239Y-140864955D01*
X151393237Y-140864956D01*
X151247160Y-140925463D01*
X151121718Y-141021718D01*
X151025463Y-141147160D01*
X150964956Y-141293237D01*
X150964955Y-141293239D01*
X150944318Y-141449998D01*
X150944318Y-141450001D01*
X150964955Y-141606760D01*
X150964957Y-141606765D01*
X151018532Y-141736109D01*
X151026001Y-141805579D01*
X150994725Y-141868058D01*
X150991652Y-141871242D01*
X150094597Y-142768297D01*
X150033274Y-142801782D01*
X149963582Y-142796798D01*
X149907649Y-142754926D01*
X149883232Y-142689462D01*
X149898084Y-142621189D01*
X149899938Y-142618284D01*
X149906787Y-142605324D01*
X149910470Y-142597676D01*
X149910470Y-142597675D01*
X149910472Y-142597673D01*
X149928007Y-142540822D01*
X149947646Y-142484699D01*
X149949232Y-142476311D01*
X149950500Y-142467904D01*
X149950500Y-142408426D01*
X149952724Y-142348992D01*
X149951684Y-142339761D01*
X149952513Y-142339667D01*
X149950500Y-142324366D01*
X149950500Y-136728782D01*
X149950889Y-136721843D01*
X149955270Y-136682965D01*
X149944211Y-136624520D01*
X149935348Y-136565713D01*
X149935347Y-136565711D01*
X149932836Y-136557571D01*
X149930024Y-136549533D01*
X149930023Y-136549528D01*
X149902226Y-136496936D01*
X149876425Y-136443358D01*
X149876422Y-136443355D01*
X149876421Y-136443352D01*
X149871642Y-136436342D01*
X149866568Y-136429469D01*
X149866565Y-136429462D01*
X149824516Y-136387413D01*
X149784055Y-136343806D01*
X149776792Y-136338014D01*
X149777312Y-136337361D01*
X149765067Y-136327964D01*
X147838908Y-134401805D01*
X147834271Y-134396617D01*
X147809878Y-134366029D01*
X147760728Y-134332519D01*
X147712882Y-134297207D01*
X147705297Y-134293198D01*
X147697677Y-134289529D01*
X147673161Y-134281967D01*
X147640822Y-134271992D01*
X147620154Y-134264760D01*
X147584695Y-134252352D01*
X147576326Y-134250768D01*
X147567904Y-134249500D01*
X147567902Y-134249500D01*
X147508426Y-134249500D01*
X147448990Y-134247275D01*
X147439756Y-134248316D01*
X147439662Y-134247486D01*
X147424364Y-134249500D01*
X147141419Y-134249500D01*
X147074380Y-134229815D01*
X147065944Y-134223884D01*
X147002841Y-134175464D01*
X147002840Y-134175463D01*
X146999468Y-134172876D01*
X146958266Y-134116448D01*
X146954111Y-134046701D01*
X146988324Y-133985781D01*
X147050041Y-133953029D01*
X147074955Y-133950500D01*
X154000000Y-133950500D01*
X154000000Y-146750000D01*
X140024000Y-146750000D01*
X139956961Y-146730315D01*
X139911206Y-146677511D01*
X139900000Y-146626000D01*
X139900000Y-143600001D01*
X145194318Y-143600001D01*
X145214955Y-143756760D01*
X145214956Y-143756762D01*
X145250775Y-143843238D01*
X145275464Y-143902841D01*
X145371718Y-144028282D01*
X145497159Y-144124536D01*
X145643238Y-144185044D01*
X145721619Y-144195363D01*
X145799999Y-144205682D01*
X145800000Y-144205682D01*
X145800001Y-144205682D01*
X145852254Y-144198802D01*
X145956762Y-144185044D01*
X146102841Y-144124536D01*
X146228282Y-144028282D01*
X146324536Y-143902841D01*
X146385044Y-143756762D01*
X146405682Y-143600000D01*
X146385044Y-143443238D01*
X146324536Y-143297159D01*
X146228282Y-143171718D01*
X146102841Y-143075464D01*
X145956762Y-143014956D01*
X145956760Y-143014955D01*
X145800001Y-142994318D01*
X145799999Y-142994318D01*
X145643239Y-143014955D01*
X145643237Y-143014956D01*
X145497160Y-143075463D01*
X145371718Y-143171718D01*
X145275463Y-143297160D01*
X145214956Y-143443237D01*
X145214955Y-143443239D01*
X145194318Y-143599998D01*
X145194318Y-143600001D01*
X139900000Y-143600001D01*
X139900000Y-134074500D01*
X139919685Y-134007461D01*
X139972489Y-133961706D01*
X140024000Y-133950500D01*
X144212133Y-133950500D01*
X144279172Y-133970185D01*
G37*
%TD.AperFunction*%
%TD*%
%TA.AperFunction,Conductor*%
%TO.N,AC_SENSOR_LIVE_IN*%
G36*
X133943039Y-102519685D02*
G01*
X133988794Y-102572489D01*
X134000000Y-102624000D01*
X134000000Y-115876000D01*
X133980315Y-115943039D01*
X133927511Y-115988794D01*
X133876000Y-116000000D01*
X125924000Y-116000000D01*
X125856961Y-115980315D01*
X125811206Y-115927511D01*
X125800000Y-115876000D01*
X125800000Y-113200000D01*
X125000000Y-113200000D01*
X125000000Y-115876000D01*
X124980315Y-115943039D01*
X124927511Y-115988794D01*
X124876000Y-116000000D01*
X120624000Y-116000000D01*
X120556961Y-115980315D01*
X120511206Y-115927511D01*
X120500000Y-115876000D01*
X120500000Y-102624000D01*
X120519685Y-102556961D01*
X120572489Y-102511206D01*
X120624000Y-102500000D01*
X133876000Y-102500000D01*
X133943039Y-102519685D01*
G37*
%TD.AperFunction*%
%TD*%
%TA.AperFunction,Conductor*%
%TO.N,AC_NEUTRAL_OUT*%
G36*
X133943039Y-71519685D02*
G01*
X133988794Y-71572489D01*
X134000000Y-71624000D01*
X134000000Y-81876000D01*
X133980315Y-81943039D01*
X133927511Y-81988794D01*
X133876000Y-82000000D01*
X105624000Y-82000000D01*
X105556961Y-81980315D01*
X105511206Y-81927511D01*
X105500000Y-81876000D01*
X105500000Y-71624000D01*
X105519685Y-71556961D01*
X105572489Y-71511206D01*
X105624000Y-71500000D01*
X133876000Y-71500000D01*
X133943039Y-71519685D01*
G37*
%TD.AperFunction*%
%TD*%
%TA.AperFunction,Conductor*%
%TO.N,GNDS*%
G36*
X171702935Y-81829685D02*
G01*
X171748690Y-81882489D01*
X171759896Y-81934104D01*
X171759466Y-82447160D01*
X171750747Y-92858736D01*
X171750104Y-93626104D01*
X171730363Y-93693127D01*
X171677521Y-93738837D01*
X171626104Y-93750000D01*
X156124000Y-93750000D01*
X156056961Y-93730315D01*
X156011206Y-93677511D01*
X156000000Y-93626000D01*
X156000000Y-92496974D01*
X159859500Y-92496974D01*
X159874649Y-92607193D01*
X159874650Y-92607196D01*
X159933844Y-92743476D01*
X159983336Y-92804310D01*
X160027610Y-92858730D01*
X160027617Y-92858736D01*
X160148994Y-92944413D01*
X160148997Y-92944414D01*
X160288998Y-92994171D01*
X160437232Y-93004310D01*
X160582704Y-92974081D01*
X160714626Y-92905724D01*
X160823214Y-92804310D01*
X160900414Y-92677360D01*
X160940500Y-92534290D01*
X160940500Y-92003026D01*
X160925350Y-91892804D01*
X160866156Y-91756524D01*
X160799832Y-91675001D01*
X163737723Y-91675001D01*
X163758360Y-91831760D01*
X163758361Y-91831762D01*
X163813844Y-91965711D01*
X163818869Y-91977841D01*
X163915123Y-92103282D01*
X164040564Y-92199536D01*
X164186643Y-92260044D01*
X164265024Y-92270363D01*
X164343404Y-92280682D01*
X164343405Y-92280682D01*
X164343406Y-92280682D01*
X164395659Y-92273802D01*
X164500167Y-92260044D01*
X164646246Y-92199536D01*
X164771687Y-92103282D01*
X164867941Y-91977841D01*
X164928449Y-91831762D01*
X164945964Y-91698719D01*
X164949087Y-91675001D01*
X164949087Y-91674998D01*
X164928449Y-91518239D01*
X164928449Y-91518238D01*
X164867941Y-91372159D01*
X164771687Y-91246718D01*
X164771684Y-91246715D01*
X164771682Y-91246713D01*
X164765940Y-91240971D01*
X164767385Y-91239525D01*
X164732646Y-91191953D01*
X164728488Y-91122207D01*
X164762697Y-91061285D01*
X164770085Y-91054883D01*
X164771682Y-91053286D01*
X164771682Y-91053285D01*
X164771687Y-91053282D01*
X164867941Y-90927841D01*
X164928449Y-90781762D01*
X164949087Y-90625000D01*
X164945385Y-90596884D01*
X164928449Y-90468239D01*
X164928449Y-90468238D01*
X164867941Y-90322159D01*
X164771687Y-90196718D01*
X164646246Y-90100464D01*
X164638262Y-90097157D01*
X164500167Y-90039956D01*
X164500165Y-90039955D01*
X164343406Y-90019318D01*
X164343404Y-90019318D01*
X164186644Y-90039955D01*
X164186642Y-90039956D01*
X164040565Y-90100463D01*
X163915123Y-90196718D01*
X163818868Y-90322160D01*
X163758361Y-90468237D01*
X163758360Y-90468239D01*
X163737723Y-90624998D01*
X163737723Y-90625001D01*
X163758360Y-90781760D01*
X163758361Y-90781762D01*
X163807007Y-90899205D01*
X163818869Y-90927841D01*
X163915123Y-91053282D01*
X163915125Y-91053283D01*
X163915127Y-91053286D01*
X163920870Y-91059029D01*
X163919425Y-91060473D01*
X163954168Y-91108060D01*
X163958318Y-91177806D01*
X163924102Y-91238724D01*
X163916722Y-91245118D01*
X163915127Y-91246713D01*
X163818868Y-91372160D01*
X163758361Y-91518237D01*
X163758360Y-91518239D01*
X163737723Y-91674998D01*
X163737723Y-91675001D01*
X160799832Y-91675001D01*
X160772389Y-91641269D01*
X160772382Y-91641263D01*
X160651005Y-91555586D01*
X160511003Y-91505829D01*
X160362770Y-91495690D01*
X160362769Y-91495690D01*
X160362768Y-91495690D01*
X160265786Y-91515842D01*
X160217295Y-91525919D01*
X160217293Y-91525920D01*
X160085375Y-91594275D01*
X160085369Y-91594279D01*
X159976785Y-91695690D01*
X159976785Y-91695691D01*
X159899587Y-91822637D01*
X159859500Y-91965711D01*
X159859500Y-92496974D01*
X156000000Y-92496974D01*
X156000000Y-88090001D01*
X158444318Y-88090001D01*
X158464955Y-88246760D01*
X158464956Y-88246762D01*
X158525464Y-88392841D01*
X158621718Y-88518282D01*
X158747159Y-88614536D01*
X158893238Y-88675044D01*
X158971619Y-88685363D01*
X159049999Y-88695682D01*
X159050000Y-88695682D01*
X159050001Y-88695682D01*
X159102254Y-88688802D01*
X159206762Y-88675044D01*
X159352841Y-88614536D01*
X159478282Y-88518282D01*
X159574536Y-88392841D01*
X159635044Y-88246762D01*
X159655682Y-88090000D01*
X159635044Y-87933238D01*
X159574536Y-87787159D01*
X159478282Y-87661718D01*
X159352841Y-87565464D01*
X159206762Y-87504956D01*
X159206760Y-87504955D01*
X159050001Y-87484318D01*
X159049999Y-87484318D01*
X158893239Y-87504955D01*
X158893237Y-87504956D01*
X158747160Y-87565463D01*
X158621718Y-87661718D01*
X158525463Y-87787160D01*
X158464956Y-87933237D01*
X158464955Y-87933239D01*
X158444318Y-88089998D01*
X158444318Y-88090001D01*
X156000000Y-88090001D01*
X156000000Y-85374000D01*
X156019685Y-85306961D01*
X156072489Y-85261206D01*
X156124000Y-85250000D01*
X160065522Y-85250000D01*
X160112974Y-85259439D01*
X160130695Y-85266779D01*
X160248459Y-85315558D01*
X160361953Y-85330500D01*
X160361960Y-85330500D01*
X160438040Y-85330500D01*
X160438047Y-85330500D01*
X160551541Y-85315558D01*
X160651273Y-85274247D01*
X160720740Y-85266779D01*
X160783220Y-85298054D01*
X160818872Y-85358143D01*
X160816378Y-85427968D01*
X160786405Y-85476490D01*
X160382062Y-85880833D01*
X160320739Y-85914318D01*
X160310568Y-85916091D01*
X160243238Y-85924956D01*
X160097160Y-85985463D01*
X159971718Y-86081718D01*
X159875463Y-86207160D01*
X159814956Y-86353237D01*
X159814955Y-86353239D01*
X159794318Y-86509998D01*
X159794318Y-86510001D01*
X159814955Y-86666760D01*
X159814957Y-86666765D01*
X159875461Y-86812836D01*
X159875464Y-86812841D01*
X159923876Y-86875933D01*
X159949070Y-86941102D01*
X159949500Y-86951419D01*
X159949500Y-89958580D01*
X159929815Y-90025619D01*
X159923876Y-90034066D01*
X159875464Y-90097157D01*
X159814956Y-90243237D01*
X159814955Y-90243239D01*
X159794318Y-90399998D01*
X159794318Y-90400001D01*
X159814955Y-90556760D01*
X159814956Y-90556762D01*
X159843221Y-90625001D01*
X159875464Y-90702841D01*
X159971718Y-90828282D01*
X160097159Y-90924536D01*
X160243238Y-90985044D01*
X160321619Y-90995363D01*
X160399999Y-91005682D01*
X160400000Y-91005682D01*
X160400001Y-91005682D01*
X160452254Y-90998802D01*
X160556762Y-90985044D01*
X160702841Y-90924536D01*
X160828282Y-90828282D01*
X160924536Y-90702841D01*
X160985044Y-90556762D01*
X161005682Y-90400000D01*
X160999753Y-90354968D01*
X160985044Y-90243239D01*
X160985044Y-90243238D01*
X160924536Y-90097159D01*
X160924535Y-90097158D01*
X160924535Y-90097157D01*
X160876124Y-90034066D01*
X160850930Y-89968896D01*
X160850500Y-89958580D01*
X160850500Y-89025003D01*
X162844275Y-89025003D01*
X162864912Y-89181762D01*
X162864913Y-89181764D01*
X162925421Y-89327843D01*
X163021675Y-89453284D01*
X163147116Y-89549538D01*
X163293195Y-89610046D01*
X163371576Y-89620365D01*
X163449956Y-89630684D01*
X163449957Y-89630684D01*
X163449958Y-89630684D01*
X163502211Y-89623804D01*
X163606719Y-89610046D01*
X163752798Y-89549538D01*
X163878239Y-89453284D01*
X163974493Y-89327843D01*
X164035001Y-89181764D01*
X164055639Y-89025002D01*
X164035001Y-88868240D01*
X163974493Y-88722161D01*
X163882178Y-88601853D01*
X163856985Y-88536686D01*
X163871023Y-88468242D01*
X163882174Y-88450890D01*
X163976209Y-88328342D01*
X164036717Y-88182263D01*
X164057355Y-88025501D01*
X164051240Y-87979056D01*
X164036717Y-87868740D01*
X164036717Y-87868739D01*
X163976209Y-87722660D01*
X163879955Y-87597219D01*
X163754514Y-87500965D01*
X163608435Y-87440457D01*
X163608433Y-87440456D01*
X163451674Y-87419819D01*
X163451672Y-87419819D01*
X163294912Y-87440456D01*
X163294910Y-87440457D01*
X163148833Y-87500964D01*
X163023391Y-87597219D01*
X162927136Y-87722661D01*
X162866629Y-87868738D01*
X162866628Y-87868740D01*
X162845991Y-88025499D01*
X162845991Y-88025502D01*
X162866628Y-88182261D01*
X162866629Y-88182263D01*
X162927137Y-88328343D01*
X163019450Y-88448647D01*
X163044644Y-88513816D01*
X163030606Y-88582261D01*
X163019450Y-88599619D01*
X162925421Y-88722159D01*
X162864913Y-88868239D01*
X162864912Y-88868241D01*
X162844275Y-89025000D01*
X162844275Y-89025003D01*
X160850500Y-89025003D01*
X160850500Y-86951419D01*
X160870185Y-86884380D01*
X160876124Y-86875933D01*
X160892092Y-86855121D01*
X160924536Y-86812841D01*
X160985044Y-86666762D01*
X160996940Y-86576399D01*
X161025205Y-86512505D01*
X161032185Y-86504917D01*
X162250784Y-85286319D01*
X162312107Y-85252834D01*
X162338465Y-85250000D01*
X164500000Y-85250000D01*
X164500008Y-85247155D01*
X164502547Y-84374139D01*
X164522426Y-84307157D01*
X164575363Y-84261556D01*
X164626546Y-84250500D01*
X165671217Y-84250500D01*
X165678155Y-84250889D01*
X165710050Y-84254483D01*
X165717034Y-84255270D01*
X165717034Y-84255269D01*
X165717035Y-84255270D01*
X165775479Y-84244211D01*
X165834287Y-84235348D01*
X165834290Y-84235346D01*
X165842447Y-84232830D01*
X165850469Y-84230023D01*
X165850472Y-84230023D01*
X165903072Y-84202222D01*
X165956642Y-84176425D01*
X165956642Y-84176424D01*
X165956644Y-84176424D01*
X165963695Y-84171616D01*
X165970538Y-84166566D01*
X166012599Y-84124504D01*
X166056194Y-84084055D01*
X166056196Y-84084050D01*
X166061987Y-84076790D01*
X166062643Y-84077313D01*
X166072032Y-84065070D01*
X166900284Y-83236819D01*
X166961607Y-83203334D01*
X166987965Y-83200500D01*
X167308581Y-83200500D01*
X167375620Y-83220185D01*
X167384067Y-83226124D01*
X167447157Y-83274535D01*
X167447158Y-83274535D01*
X167447159Y-83274536D01*
X167593238Y-83335044D01*
X167666811Y-83344730D01*
X167749999Y-83355682D01*
X167750000Y-83355682D01*
X167750001Y-83355682D01*
X167802254Y-83348802D01*
X167906762Y-83335044D01*
X168052841Y-83274536D01*
X168115933Y-83226123D01*
X168181102Y-83200930D01*
X168191419Y-83200500D01*
X168558581Y-83200500D01*
X168625620Y-83220185D01*
X168634067Y-83226124D01*
X168697157Y-83274535D01*
X168697158Y-83274535D01*
X168697159Y-83274536D01*
X168843238Y-83335044D01*
X168916811Y-83344730D01*
X168999999Y-83355682D01*
X169000000Y-83355682D01*
X169000001Y-83355682D01*
X169052254Y-83348802D01*
X169156762Y-83335044D01*
X169302841Y-83274536D01*
X169428282Y-83178282D01*
X169524536Y-83052841D01*
X169585044Y-82906762D01*
X169605682Y-82750000D01*
X169585044Y-82593238D01*
X169524536Y-82447159D01*
X169428282Y-82321718D01*
X169302841Y-82225464D01*
X169239103Y-82199063D01*
X169156762Y-82164956D01*
X169156760Y-82164955D01*
X169000001Y-82144318D01*
X168999999Y-82144318D01*
X168843239Y-82164955D01*
X168843237Y-82164956D01*
X168697157Y-82225464D01*
X168634067Y-82273876D01*
X168568898Y-82299070D01*
X168558581Y-82299500D01*
X168191419Y-82299500D01*
X168124380Y-82279815D01*
X168115933Y-82273876D01*
X168052842Y-82225464D01*
X167906762Y-82164956D01*
X167906760Y-82164955D01*
X167750001Y-82144318D01*
X167749999Y-82144318D01*
X167593239Y-82164955D01*
X167593237Y-82164956D01*
X167447157Y-82225464D01*
X167384067Y-82273876D01*
X167318898Y-82299070D01*
X167308581Y-82299500D01*
X166778783Y-82299500D01*
X166771844Y-82299110D01*
X166757569Y-82297502D01*
X166732964Y-82294729D01*
X166682543Y-82304270D01*
X166674520Y-82305788D01*
X166661832Y-82307700D01*
X166615716Y-82314651D01*
X166607532Y-82317175D01*
X166599528Y-82319976D01*
X166546936Y-82347773D01*
X166493357Y-82373574D01*
X166486338Y-82378359D01*
X166479461Y-82383435D01*
X166437413Y-82425483D01*
X166393803Y-82465947D01*
X166388013Y-82473208D01*
X166387362Y-82472688D01*
X166377967Y-82484928D01*
X165549716Y-83313181D01*
X165488393Y-83346666D01*
X165462035Y-83349500D01*
X164629885Y-83349500D01*
X164562846Y-83329815D01*
X164517091Y-83277011D01*
X164505886Y-83225139D01*
X164505901Y-83220185D01*
X164508437Y-82347773D01*
X164509641Y-81933639D01*
X164529520Y-81866658D01*
X164582457Y-81821056D01*
X164633640Y-81810000D01*
X171635896Y-81810000D01*
X171702935Y-81829685D01*
G37*
%TD.AperFunction*%
%TD*%
M02*
