%TF.GenerationSoftware,KiCad,Pcbnew,7.0.9*%
%TF.CreationDate,2024-05-06T20:13:39+08:00*%
%TF.ProjectId,power_monitor_v0.1,706f7765-725f-46d6-9f6e-69746f725f76,rev?*%
%TF.SameCoordinates,Original*%
%TF.FileFunction,Profile,NP*%
%FSLAX46Y46*%
G04 Gerber Fmt 4.6, Leading zero omitted, Abs format (unit mm)*
G04 Created by KiCad (PCBNEW 7.0.9) date 2024-05-06 20:13:39*
%MOMM*%
%LPD*%
G01*
G04 APERTURE LIST*
%TA.AperFunction,Profile*%
%ADD10C,0.100000*%
%TD*%
G04 APERTURE END LIST*
D10*
X140500000Y-81100000D02*
X140500000Y-60500000D01*
X147400000Y-113300000D02*
X147400000Y-129300000D01*
X149400000Y-113300000D02*
G75*
G03*
X147400000Y-113300000I-1000000J0D01*
G01*
X159500000Y-70250000D02*
X148500000Y-70250000D01*
X148500000Y-68250000D02*
G75*
G03*
X148500000Y-70250000I0J-1000000D01*
G01*
X140700000Y-88700000D02*
G75*
G03*
X138700000Y-88700000I-1000000J0D01*
G01*
X206700000Y-144000000D02*
G75*
G03*
X203700000Y-147000000I0J-3000000D01*
G01*
X140700000Y-109300000D02*
X140700000Y-88700000D01*
X149400000Y-129300000D02*
X149400000Y-113300000D01*
X147400000Y-129300000D02*
G75*
G03*
X149400000Y-129300000I1000000J0D01*
G01*
X138500000Y-81100000D02*
G75*
G03*
X140500000Y-81100000I1000000J0D01*
G01*
X148500000Y-72750000D02*
X159500000Y-72750000D01*
X148500000Y-72750000D02*
G75*
G03*
X148500000Y-74750000I0J-1000000D01*
G01*
X97000000Y-147000000D02*
G75*
G03*
X94000000Y-144000000I-3000000J0D01*
G01*
X127200000Y-119800000D02*
X113600000Y-119800000D01*
X94000000Y-57600000D02*
X94000000Y-144000000D01*
X159500000Y-70250000D02*
G75*
G03*
X159500000Y-68250000I0J1000000D01*
G01*
X140500000Y-60500000D02*
G75*
G03*
X138500000Y-60500000I-1000000J0D01*
G01*
X138700000Y-109300000D02*
G75*
G03*
X140700000Y-109300000I1000000J0D01*
G01*
X159500000Y-74750000D02*
G75*
G03*
X159500000Y-72750000I0J1000000D01*
G01*
X138500000Y-60500000D02*
X138500000Y-81100000D01*
X127200000Y-119800000D02*
G75*
G03*
X127200000Y-118200000I0J800000D01*
G01*
X97000000Y-147000000D02*
X203700000Y-147000000D01*
X159500000Y-74750000D02*
X148500000Y-74750000D01*
X113600000Y-118200000D02*
G75*
G03*
X113600000Y-119800000I0J-800000D01*
G01*
X94000000Y-57600000D02*
G75*
G03*
X97000000Y-54600000I0J3000000D01*
G01*
X148500000Y-68250000D02*
X159500000Y-68250000D01*
X138700000Y-88700000D02*
X138700000Y-109300000D01*
X203700000Y-54600000D02*
G75*
G03*
X206700000Y-57600000I3000000J0D01*
G01*
X113600000Y-118200000D02*
X127200000Y-118200000D01*
X206700000Y-144000000D02*
X206700000Y-57600000D01*
X203700000Y-54600000D02*
X97000000Y-54600000D01*
M02*
