%TF.GenerationSoftware,KiCad,Pcbnew,7.0.9*%
%TF.CreationDate,2024-05-06T20:13:39+08:00*%
%TF.ProjectId,power_monitor_v0.1,706f7765-725f-46d6-9f6e-69746f725f76,rev?*%
%TF.SameCoordinates,Original*%
%TF.FileFunction,Paste,Top*%
%TF.FilePolarity,Positive*%
%FSLAX46Y46*%
G04 Gerber Fmt 4.6, Leading zero omitted, Abs format (unit mm)*
G04 Created by KiCad (PCBNEW 7.0.9) date 2024-05-06 20:13:39*
%MOMM*%
%LPD*%
G01*
G04 APERTURE LIST*
G04 Aperture macros list*
%AMRoundRect*
0 Rectangle with rounded corners*
0 $1 Rounding radius*
0 $2 $3 $4 $5 $6 $7 $8 $9 X,Y pos of 4 corners*
0 Add a 4 corners polygon primitive as box body*
4,1,4,$2,$3,$4,$5,$6,$7,$8,$9,$2,$3,0*
0 Add four circle primitives for the rounded corners*
1,1,$1+$1,$2,$3*
1,1,$1+$1,$4,$5*
1,1,$1+$1,$6,$7*
1,1,$1+$1,$8,$9*
0 Add four rect primitives between the rounded corners*
20,1,$1+$1,$2,$3,$4,$5,0*
20,1,$1+$1,$4,$5,$6,$7,0*
20,1,$1+$1,$6,$7,$8,$9,0*
20,1,$1+$1,$8,$9,$2,$3,0*%
G04 Aperture macros list end*
%ADD10RoundRect,0.225000X-0.250000X0.225000X-0.250000X-0.225000X0.250000X-0.225000X0.250000X0.225000X0*%
%ADD11RoundRect,0.200000X-0.200000X-0.800000X0.200000X-0.800000X0.200000X0.800000X-0.200000X0.800000X0*%
%ADD12RoundRect,0.200000X0.200000X0.275000X-0.200000X0.275000X-0.200000X-0.275000X0.200000X-0.275000X0*%
%ADD13RoundRect,0.200000X-0.275000X0.200000X-0.275000X-0.200000X0.275000X-0.200000X0.275000X0.200000X0*%
%ADD14RoundRect,0.200000X0.275000X-0.200000X0.275000X0.200000X-0.275000X0.200000X-0.275000X-0.200000X0*%
%ADD15RoundRect,0.225000X-0.225000X-0.250000X0.225000X-0.250000X0.225000X0.250000X-0.225000X0.250000X0*%
%ADD16RoundRect,0.075000X-0.425000X0.075000X-0.425000X-0.075000X0.425000X-0.075000X0.425000X0.075000X0*%
%ADD17C,1.100000*%
%ADD18RoundRect,0.150000X0.150000X-0.587500X0.150000X0.587500X-0.150000X0.587500X-0.150000X-0.587500X0*%
%ADD19RoundRect,0.200000X-0.200000X-0.275000X0.200000X-0.275000X0.200000X0.275000X-0.200000X0.275000X0*%
%ADD20RoundRect,0.250000X-1.075000X0.312500X-1.075000X-0.312500X1.075000X-0.312500X1.075000X0.312500X0*%
%ADD21R,1.000000X0.800000*%
%ADD22RoundRect,0.135000X-0.135000X-0.185000X0.135000X-0.185000X0.135000X0.185000X-0.135000X0.185000X0*%
%ADD23RoundRect,0.250000X0.550000X-1.050000X0.550000X1.050000X-0.550000X1.050000X-0.550000X-1.050000X0*%
%ADD24RoundRect,0.250000X-0.250000X-0.475000X0.250000X-0.475000X0.250000X0.475000X-0.250000X0.475000X0*%
%ADD25RoundRect,0.225000X0.250000X-0.225000X0.250000X0.225000X-0.250000X0.225000X-0.250000X-0.225000X0*%
%ADD26RoundRect,0.250000X-0.450000X-0.425000X0.450000X-0.425000X0.450000X0.425000X-0.450000X0.425000X0*%
%ADD27R,2.400000X0.740000*%
%ADD28RoundRect,0.150000X-0.150000X0.587500X-0.150000X-0.587500X0.150000X-0.587500X0.150000X0.587500X0*%
%ADD29R,0.650000X0.750000*%
%ADD30R,0.250000X0.500000*%
%ADD31R,2.350000X5.100000*%
%ADD32RoundRect,0.225000X0.225000X0.250000X-0.225000X0.250000X-0.225000X-0.250000X0.225000X-0.250000X0*%
%ADD33RoundRect,0.150000X-0.875000X-0.150000X0.875000X-0.150000X0.875000X0.150000X-0.875000X0.150000X0*%
%ADD34RoundRect,0.250000X-0.300000X0.300000X-0.300000X-0.300000X0.300000X-0.300000X0.300000X0.300000X0*%
%ADD35R,1.500000X3.600000*%
%ADD36R,0.600000X1.550000*%
%ADD37R,3.100000X2.600000*%
%ADD38RoundRect,0.250000X-0.625000X0.312500X-0.625000X-0.312500X0.625000X-0.312500X0.625000X0.312500X0*%
%ADD39RoundRect,0.150000X0.150000X0.700000X-0.150000X0.700000X-0.150000X-0.700000X0.150000X-0.700000X0*%
%ADD40RoundRect,0.250000X0.250000X1.150000X-0.250000X1.150000X-0.250000X-1.150000X0.250000X-1.150000X0*%
%ADD41RoundRect,0.250000X-0.700000X0.275000X-0.700000X-0.275000X0.700000X-0.275000X0.700000X0.275000X0*%
%ADD42RoundRect,0.007500X0.267500X0.117500X-0.267500X0.117500X-0.267500X-0.117500X0.267500X-0.117500X0*%
%ADD43RoundRect,0.006000X0.269000X0.094000X-0.269000X0.094000X-0.269000X-0.094000X0.269000X-0.094000X0*%
%ADD44RoundRect,0.012000X-0.138000X0.288000X-0.138000X-0.288000X0.138000X-0.288000X0.138000X0.288000X0*%
%ADD45RoundRect,0.250000X-0.900000X1.000000X-0.900000X-1.000000X0.900000X-1.000000X0.900000X1.000000X0*%
%ADD46RoundRect,0.036000X-0.739000X0.114000X-0.739000X-0.114000X0.739000X-0.114000X0.739000X0.114000X0*%
%ADD47C,2.000000*%
%ADD48RoundRect,0.252000X-1.123000X0.348000X-1.123000X-0.348000X1.123000X-0.348000X1.123000X0.348000X0*%
%ADD49RoundRect,0.250000X0.300000X-0.300000X0.300000X0.300000X-0.300000X0.300000X-0.300000X-0.300000X0*%
%ADD50RoundRect,0.042000X-0.258000X0.988000X-0.258000X-0.988000X0.258000X-0.988000X0.258000X0.988000X0*%
G04 APERTURE END LIST*
D10*
%TO.C,C26*%
X181100000Y-83125000D03*
X181100000Y-84675000D03*
%TD*%
D11*
%TO.C,RESET1*%
X162400000Y-143000000D03*
X166600000Y-143000000D03*
%TD*%
D12*
%TO.C,R2*%
X197525000Y-97375000D03*
X195875000Y-97375000D03*
%TD*%
D13*
%TO.C,R37*%
X115800000Y-125575000D03*
X115800000Y-127225000D03*
%TD*%
%TO.C,R15*%
X146025000Y-137355000D03*
X146025000Y-139005000D03*
%TD*%
D14*
%TO.C,R13*%
X143025000Y-139030000D03*
X143025000Y-137380000D03*
%TD*%
D15*
%TO.C,C4*%
X190825000Y-97375000D03*
X192375000Y-97375000D03*
%TD*%
D16*
%TO.C,J8*%
X161160000Y-85720000D03*
X161160000Y-86510000D03*
X161160000Y-87300000D03*
X161160000Y-88090000D03*
X161160000Y-88880000D03*
X161160000Y-89670000D03*
X161160000Y-90460000D03*
X161160000Y-91250000D03*
X159640000Y-91250000D03*
X159640000Y-90460000D03*
X159640000Y-89670000D03*
X159640000Y-88880000D03*
X159640000Y-88090000D03*
X159640000Y-87300000D03*
X159640000Y-86510000D03*
X159640000Y-85720000D03*
D17*
X162550000Y-86100000D03*
X158250000Y-86100000D03*
X162550000Y-90900000D03*
X158250000Y-90900000D03*
%TD*%
D18*
%TO.C,Q2*%
X150450000Y-94237500D03*
X152350000Y-94237500D03*
X151400000Y-92362500D03*
%TD*%
D14*
%TO.C,R12*%
X143015000Y-136105000D03*
X143015000Y-134455000D03*
%TD*%
D19*
%TO.C,R6*%
X170175000Y-97100000D03*
X171825000Y-97100000D03*
%TD*%
D14*
%TO.C,R34*%
X156400000Y-91325000D03*
X156400000Y-89675000D03*
%TD*%
D20*
%TO.C,R21*%
X143500000Y-120137500D03*
X143500000Y-123062500D03*
%TD*%
D21*
%TO.C,D4*%
X171250000Y-143700000D03*
X168750000Y-143700000D03*
X168750000Y-142300000D03*
X171250000Y-142300000D03*
%TD*%
D10*
%TO.C,C7*%
X190700000Y-98800000D03*
X190700000Y-100350000D03*
%TD*%
D22*
%TO.C,R9*%
X152515000Y-141080000D03*
X153535000Y-141080000D03*
%TD*%
D19*
%TO.C,R38*%
X178075000Y-143100000D03*
X179725000Y-143100000D03*
%TD*%
D23*
%TO.C,C5*%
X193900000Y-102675000D03*
X193900000Y-99075000D03*
%TD*%
D12*
%TO.C,R23*%
X152225000Y-96100000D03*
X150575000Y-96100000D03*
%TD*%
D13*
%TO.C,R36*%
X117000000Y-125550000D03*
X117000000Y-127200000D03*
%TD*%
D24*
%TO.C,C1*%
X193250000Y-81800000D03*
X195150000Y-81800000D03*
%TD*%
D15*
%TO.C,C25*%
X163925000Y-145400000D03*
X165475000Y-145400000D03*
%TD*%
D13*
%TO.C,R39*%
X181200000Y-139475000D03*
X181200000Y-141125000D03*
%TD*%
D19*
%TO.C,R33*%
X165675000Y-90500000D03*
X167325000Y-90500000D03*
%TD*%
D23*
%TO.C,C6*%
X199200000Y-102675000D03*
X199200000Y-99075000D03*
%TD*%
D25*
%TO.C,C8*%
X152425000Y-135855000D03*
X152425000Y-134305000D03*
%TD*%
D13*
%TO.C,R41*%
X144500000Y-140575000D03*
X144500000Y-142225000D03*
%TD*%
D24*
%TO.C,C2*%
X195460000Y-86390000D03*
X197360000Y-86390000D03*
%TD*%
D14*
%TO.C,R7*%
X205400000Y-124225000D03*
X205400000Y-122575000D03*
%TD*%
D13*
%TO.C,R42*%
X205400000Y-125375000D03*
X205400000Y-127025000D03*
%TD*%
D25*
%TO.C,C14*%
X168000000Y-99475000D03*
X168000000Y-97925000D03*
%TD*%
D19*
%TO.C,R28*%
X180375000Y-90600000D03*
X182025000Y-90600000D03*
%TD*%
D26*
%TO.C,C20*%
X121400000Y-127250000D03*
X124100000Y-127250000D03*
%TD*%
D10*
%TO.C,C13*%
X174100000Y-99450000D03*
X174100000Y-101000000D03*
%TD*%
D14*
%TO.C,R32*%
X160900000Y-143925000D03*
X160900000Y-142275000D03*
%TD*%
D27*
%TO.C,J9*%
X158450000Y-98460000D03*
X162350000Y-98460000D03*
X158450000Y-99730000D03*
X162350000Y-99730000D03*
X158450000Y-101000000D03*
X162350000Y-101000000D03*
X158450000Y-102270000D03*
X162350000Y-102270000D03*
X158450000Y-103540000D03*
X162350000Y-103540000D03*
%TD*%
D28*
%TO.C,U3*%
X150875000Y-134342500D03*
X148975000Y-134342500D03*
X149925000Y-136217500D03*
%TD*%
D26*
%TO.C,C16*%
X148650000Y-144500000D03*
X151350000Y-144500000D03*
%TD*%
D13*
%TO.C,R30*%
X119600000Y-125575000D03*
X119600000Y-127225000D03*
%TD*%
D15*
%TO.C,C24*%
X197625000Y-110800000D03*
X199175000Y-110800000D03*
%TD*%
D24*
%TO.C,C3*%
X193350000Y-88300000D03*
X195250000Y-88300000D03*
%TD*%
D29*
%TO.C,U5*%
X169580000Y-99495000D03*
X170380000Y-99495000D03*
D30*
X169230000Y-100445000D03*
X169730000Y-100445000D03*
X170230000Y-100445000D03*
X170730000Y-100445000D03*
X170730000Y-98545000D03*
X170230000Y-98545000D03*
X169730000Y-98545000D03*
X169230000Y-98545000D03*
%TD*%
D13*
%TO.C,R40*%
X192300000Y-139275000D03*
X192300000Y-140925000D03*
%TD*%
D31*
%TO.C,L1*%
X184325000Y-99750000D03*
X188475000Y-99750000D03*
%TD*%
D28*
%TO.C,Q1*%
X152350000Y-99062500D03*
X150450000Y-99062500D03*
X151400000Y-100937500D03*
%TD*%
D32*
%TO.C,C17*%
X150200000Y-142480000D03*
X148650000Y-142480000D03*
%TD*%
D18*
%TO.C,Q3*%
X177950000Y-141437500D03*
X179850000Y-141437500D03*
X178900000Y-139562500D03*
%TD*%
D13*
%TO.C,R4*%
X176700000Y-103075000D03*
X176700000Y-104725000D03*
%TD*%
D15*
%TO.C,C22*%
X197625000Y-109400000D03*
X199175000Y-109400000D03*
%TD*%
D13*
%TO.C,R14*%
X144525000Y-137355000D03*
X144525000Y-139005000D03*
%TD*%
D33*
%TO.C,U7*%
X169350000Y-84155000D03*
X169350000Y-85425000D03*
X169350000Y-86695000D03*
X169350000Y-87965000D03*
X169350000Y-89235000D03*
X169350000Y-90505000D03*
X169350000Y-91775000D03*
X169350000Y-93045000D03*
X178650000Y-93045000D03*
X178650000Y-91775000D03*
X178650000Y-90505000D03*
X178650000Y-89235000D03*
X178650000Y-87965000D03*
X178650000Y-86695000D03*
X178650000Y-85425000D03*
X178650000Y-84155000D03*
%TD*%
D13*
%TO.C,R1*%
X197400000Y-89150000D03*
X197400000Y-90800000D03*
%TD*%
D10*
%TO.C,C18*%
X141025000Y-134505000D03*
X141025000Y-136055000D03*
%TD*%
D32*
%TO.C,C31*%
X147275000Y-142500000D03*
X145725000Y-142500000D03*
%TD*%
D34*
%TO.C,D3*%
X151400000Y-86500000D03*
X151400000Y-89300000D03*
%TD*%
D25*
%TO.C,C27*%
X166900000Y-87375000D03*
X166900000Y-85825000D03*
%TD*%
D32*
%TO.C,C30*%
X153100000Y-142480000D03*
X151550000Y-142480000D03*
%TD*%
D35*
%TO.C,L2*%
X169575000Y-104100000D03*
X172625000Y-104100000D03*
%TD*%
D36*
%TO.C,U4*%
X192095000Y-95675000D03*
X193365000Y-95675000D03*
X194635000Y-95675000D03*
X195905000Y-95675000D03*
X195905000Y-90275000D03*
X194635000Y-90275000D03*
X193365000Y-90275000D03*
X192095000Y-90275000D03*
D37*
X194000000Y-92975000D03*
%TD*%
D25*
%TO.C,C15*%
X166600000Y-99475000D03*
X166600000Y-97925000D03*
%TD*%
D13*
%TO.C,R29*%
X118200000Y-125575000D03*
X118200000Y-127225000D03*
%TD*%
D38*
%TO.C,R11*%
X141125000Y-137617500D03*
X141125000Y-140542500D03*
%TD*%
D10*
%TO.C,C12*%
X175500000Y-99425000D03*
X175500000Y-100975000D03*
%TD*%
D22*
%TO.C,R10*%
X152515000Y-139280000D03*
X153535000Y-139280000D03*
%TD*%
D19*
%TO.C,R26*%
X173975000Y-144200000D03*
X175625000Y-144200000D03*
%TD*%
D39*
%TO.C,J10*%
X188675000Y-139750000D03*
X187425000Y-139750000D03*
X186175000Y-139750000D03*
X184925000Y-139750000D03*
D40*
X190525000Y-143100000D03*
X183075000Y-143100000D03*
%TD*%
D19*
%TO.C,R16*%
X144500000Y-140580000D03*
X146150000Y-140580000D03*
%TD*%
D20*
%TO.C,R17*%
X132700000Y-115437500D03*
X132700000Y-118362500D03*
%TD*%
D10*
%TO.C,C29*%
X147525000Y-139005000D03*
X147525000Y-140555000D03*
%TD*%
D32*
%TO.C,C19*%
X122675000Y-125600000D03*
X121125000Y-125600000D03*
%TD*%
D19*
%TO.C,R31*%
X165675000Y-91800000D03*
X167325000Y-91800000D03*
%TD*%
D41*
%TO.C,FB1*%
X193400000Y-83425000D03*
X193400000Y-86575000D03*
%TD*%
D19*
%TO.C,R24*%
X180375000Y-91750000D03*
X182025000Y-91750000D03*
%TD*%
D20*
%TO.C,R20*%
X143500000Y-115437500D03*
X143500000Y-118362500D03*
%TD*%
D42*
%TO.C,U2*%
X150600000Y-141080000D03*
D43*
X150600000Y-140580000D03*
D42*
X150600000Y-140080000D03*
D44*
X149925000Y-139930000D03*
D42*
X149250000Y-140080000D03*
D43*
X149250000Y-140580000D03*
D42*
X149250000Y-141080000D03*
D44*
X149925000Y-141230000D03*
%TD*%
D22*
%TO.C,R8*%
X152515000Y-140180000D03*
X153535000Y-140180000D03*
%TD*%
D25*
%TO.C,C21*%
X181100000Y-87375000D03*
X181100000Y-85825000D03*
%TD*%
D20*
%TO.C,R19*%
X132700000Y-124737500D03*
X132700000Y-127662500D03*
%TD*%
D14*
%TO.C,R3*%
X197400000Y-95700000D03*
X197400000Y-94050000D03*
%TD*%
D45*
%TO.C,D1*%
X189095000Y-90625000D03*
X189095000Y-94925000D03*
%TD*%
D46*
%TO.C,U6*%
X203335000Y-113580000D03*
X195785000Y-113830000D03*
X203335000Y-114080000D03*
X195785000Y-114330000D03*
X203335000Y-114580000D03*
X195785000Y-114830000D03*
X203335000Y-115080000D03*
X195785000Y-115330000D03*
X203335000Y-115580000D03*
X195785000Y-115830000D03*
X203335000Y-116080000D03*
X195785000Y-116330000D03*
X203335000Y-116580000D03*
X195785000Y-116830000D03*
X203335000Y-117080000D03*
X195785000Y-117330000D03*
X203335000Y-117580000D03*
X195785000Y-117830000D03*
X203335000Y-118080000D03*
X195785000Y-118330000D03*
X203335000Y-118580000D03*
X195785000Y-118830000D03*
X203335000Y-119080000D03*
X195785000Y-121330000D03*
X203335000Y-121580000D03*
X195785000Y-121830000D03*
X203335000Y-122080000D03*
X195785000Y-122330000D03*
X203335000Y-122580000D03*
X195785000Y-122830000D03*
X203335000Y-123080000D03*
X195785000Y-123330000D03*
X203335000Y-123580000D03*
X195785000Y-123830000D03*
X203335000Y-124080000D03*
X195785000Y-124330000D03*
X203335000Y-124580000D03*
X195785000Y-124830000D03*
X203335000Y-125080000D03*
X195785000Y-125330000D03*
X203335000Y-125580000D03*
X195785000Y-125830000D03*
X203335000Y-126080000D03*
X195785000Y-126330000D03*
X203335000Y-126580000D03*
X195785000Y-126830000D03*
X203335000Y-127080000D03*
X195785000Y-127330000D03*
X203335000Y-127580000D03*
X195785000Y-127830000D03*
X203335000Y-128080000D03*
X195785000Y-128330000D03*
X203335000Y-128580000D03*
X195785000Y-128830000D03*
X203335000Y-129080000D03*
X195785000Y-129330000D03*
X203335000Y-129580000D03*
X195785000Y-129830000D03*
X203335000Y-130080000D03*
X195785000Y-130330000D03*
X203335000Y-130580000D03*
X195785000Y-130830000D03*
X203335000Y-131080000D03*
X195785000Y-131330000D03*
X203335000Y-131580000D03*
X195785000Y-131830000D03*
X203335000Y-132080000D03*
D47*
X192100000Y-133200000D03*
X189600000Y-133200000D03*
X187100000Y-133200000D03*
X184600000Y-133200000D03*
D48*
X202560000Y-112480000D03*
X202560000Y-133180000D03*
%TD*%
D20*
%TO.C,R18*%
X132700000Y-120137500D03*
X132700000Y-123062500D03*
%TD*%
D19*
%TO.C,R25*%
X173950000Y-142900000D03*
X175600000Y-142900000D03*
%TD*%
D10*
%TO.C,C11*%
X172700000Y-99425000D03*
X172700000Y-100975000D03*
%TD*%
D25*
%TO.C,C10*%
X178100000Y-104675000D03*
X178100000Y-103125000D03*
%TD*%
D49*
%TO.C,D2*%
X151400000Y-105900000D03*
X151400000Y-103100000D03*
%TD*%
D13*
%TO.C,R5*%
X175300000Y-103075000D03*
X175300000Y-104725000D03*
%TD*%
D26*
%TO.C,C23*%
X191850000Y-106600000D03*
X194550000Y-106600000D03*
%TD*%
D50*
%TO.C,U1*%
X124645000Y-114360000D03*
X123375000Y-114360000D03*
X122105000Y-114360000D03*
X120835000Y-114360000D03*
X119565000Y-114360000D03*
X118295000Y-114360000D03*
X117025000Y-114360000D03*
X115755000Y-114360000D03*
X115755000Y-123640000D03*
X117025000Y-123640000D03*
X118295000Y-123640000D03*
X119565000Y-123640000D03*
X120835000Y-123640000D03*
X122105000Y-123640000D03*
X123375000Y-123640000D03*
X124645000Y-123640000D03*
%TD*%
D10*
%TO.C,C28*%
X166900000Y-83025000D03*
X166900000Y-84575000D03*
%TD*%
D13*
%TO.C,R35*%
X164400000Y-85675000D03*
X164400000Y-87325000D03*
%TD*%
D19*
%TO.C,R27*%
X173975000Y-145600000D03*
X175625000Y-145600000D03*
%TD*%
D14*
%TO.C,R22*%
X153800000Y-100625000D03*
X153800000Y-98975000D03*
%TD*%
D25*
%TO.C,C9*%
X147625000Y-135855000D03*
X147625000Y-134305000D03*
%TD*%
M02*
