M48
; DRILL file {KiCad 7.0.9} date Mon May  6 20:13:29 2024
; FORMAT={-:-/ absolute / inch / decimal}
; #@! TF.CreationDate,2024-05-06T20:13:29+08:00
; #@! TF.GenerationSoftware,Kicad,Pcbnew,7.0.9
; #@! TF.FileFunction,Plated,1,4,PTH
FMAT,2
INCH
; #@! TA.AperFunction,Plated,PTH,ViaDrill
T1C0.0118
; #@! TA.AperFunction,Plated,PTH,ComponentDrill
T2C0.0118
; #@! TA.AperFunction,Plated,PTH,ViaDrill
T3C0.0157
; #@! TA.AperFunction,Plated,PTH,ComponentDrill
T4C0.0276
; #@! TA.AperFunction,Plated,PTH,ComponentDrill
T5C0.0433
; #@! TA.AperFunction,Plated,PTH,ComponentDrill
T6C0.0551
; #@! TA.AperFunction,Plated,PTH,ComponentDrill
T7C0.0591
; #@! TA.AperFunction,Plated,PTH,ComponentDrill
T8C0.0709
; #@! TA.AperFunction,Plated,PTH,ComponentDrill
T9C0.0787
; #@! TA.AperFunction,Plated,PTH,ComponentDrill
T10C0.1437
%
G90
G05
T1
X4.8307Y-4.9173
X4.8327Y-4.8406
X4.8327Y-4.876
X4.8524Y-4.9705
X4.8583Y-4.9272
X4.872Y-4.9508
X4.8957Y-4.9685
X5.5197Y-5.2874
X5.5197Y-5.315
X5.5512Y-5.6102
X5.5512Y-5.689
X5.5512Y-5.748
X5.5827Y-5.2874
X5.5827Y-5.315
X5.6299Y-5.6102
X5.6299Y-5.689
X5.6299Y-5.748
X5.6614Y-5.2874
X5.6614Y-5.315
X5.6634Y-5.748
X5.7283Y-5.5709
X5.7283Y-5.748
X5.7677Y-5.6996
X5.7677Y-5.748
X5.7717Y-5.5748
X5.7717Y-5.6693
X5.7795Y-5.3465
X5.7854Y-5.3898
X5.7953Y-5.7244
X5.7992Y-5.5748
X5.8071Y-5.4331
X5.811Y-5.3898
X5.8268Y-5.5748
X5.8425Y-5.3898
X5.8465Y-5.4331
X5.8465Y-5.4724
X5.8465Y-5.5118
X5.9016Y-5.2874
X5.9016Y-5.3189
X5.9055Y-5.7205
X5.9291Y-5.5827
X5.9331Y-5.3465
X5.9331Y-5.3898
X5.9331Y-5.4567
X5.937Y-5.7205
X5.9449Y-5.748
X5.9646Y-5.3465
X5.9646Y-5.3898
X5.9646Y-5.4567
X5.9685Y-5.7205
X6.0Y-5.5866
X6.0Y-5.7205
X6.0039Y-5.3898
X6.0059Y-5.4508
X6.0276Y-5.6634
X6.0276Y-5.685
X6.0276Y-5.7205
X6.0433Y-5.3486
X6.0433Y-5.3898
X6.0433Y-5.4528
X6.063Y-5.6102
X6.0748Y-5.3486
X6.0748Y-5.3898
X6.0787Y-4.3543
X6.0787Y-5.4567
X6.0827Y-4.0354
X6.0827Y-4.0748
X6.0827Y-4.1339
X6.0827Y-4.1929
X6.0827Y-4.252
X6.0827Y-4.4094
X6.0827Y-4.4685
X6.0827Y-4.5276
X6.0827Y-4.5866
X6.0827Y-4.6654
X6.0827Y-4.7244
X6.0906Y-5.6102
X6.0945Y-5.0118
X6.0945Y-5.0709
X6.0945Y-5.126
X6.1043Y-4.8268
X6.1142Y-4.8858
X6.1142Y-5.3486
X6.1142Y-5.3898
X6.1142Y-5.4567
X6.122Y-5.6102
X6.122Y-5.6693
X6.122Y-5.748
X6.126Y-4.7717
X6.1339Y-5.1024
X6.1457Y-5.3486
X6.1457Y-5.3898
X6.1496Y-4.9232
X6.1496Y-5.4567
X6.1614Y-3.7795
X6.1614Y-3.8189
X6.1614Y-3.878
X6.1614Y-3.937
X6.1614Y-3.9961
X6.1614Y-4.0354
X6.1614Y-4.1339
X6.1614Y-4.1929
X6.1614Y-4.252
X6.1614Y-4.3307
X6.1614Y-4.498
X6.1654Y-4.7402
X6.1654Y-5.0748
X6.1811Y-5.3486
X6.1811Y-5.3898
X6.2028Y-4.935
X6.2202Y-3.7792
X6.2205Y-4.7382
X6.2205Y-5.5512
X6.2205Y-5.6102
X6.2205Y-5.6693
X6.2402Y-5.748
X6.25Y-4.9331
X6.2598Y-4.1339
X6.2598Y-4.1929
X6.2598Y-4.252
X6.2598Y-4.3307
X6.2598Y-4.4193
X6.2598Y-4.5669
X6.2697Y-4.7638
X6.2795Y-5.6693
X6.2874Y-4.9055
X6.2992Y-3.7795
X6.2992Y-5.4921
X6.3031Y-4.8051
X6.3031Y-4.8563
X6.3386Y-5.748
X6.3681Y-4.1339
X6.3681Y-4.1929
X6.3681Y-4.252
X6.3681Y-4.3307
X6.3681Y-4.4193
X6.3681Y-4.5276
X6.3681Y-4.6752
X6.3681Y-4.7736
X6.3681Y-4.9114
X6.3681Y-5.0394
X6.378Y-3.7795
X6.378Y-5.4134
X6.4173Y-5.748
X6.437Y-3.7795
X6.437Y-5.3543
X6.4469Y-5.6004
X6.4665Y-4.1339
X6.4665Y-4.1929
X6.4961Y-3.7795
X6.4961Y-5.2953
X6.4961Y-5.5118
X6.5157Y-4.8425
X6.5256Y-4.9213
X6.5256Y-5.6004
X6.5551Y-5.748
X6.5748Y-4.8819
X6.5748Y-5.0197
X6.5866Y-3.9173
X6.6142Y-5.374
X6.624Y-3.9469
X6.624Y-3.9862
X6.624Y-4.0256
X6.624Y-4.065
X6.624Y-4.1043
X6.624Y-4.1535
X6.624Y-4.1929
X6.6339Y-4.9409
X6.6339Y-5.1378
X6.6339Y-5.2953
X6.6339Y-5.748
X6.6496Y-3.9173
X6.65Y-4.35
X6.65Y-4.45
X6.65Y-4.55
X6.6535Y-3.7795
X6.6535Y-4.1929
X6.6772Y-3.9173
X6.6929Y-4.8819
X6.6929Y-5.0787
X6.6929Y-5.1181
X6.6929Y-5.748
X6.7028Y-3.7894
X6.7028Y-4.1929
X6.7087Y-3.9173
X6.7323Y-5.0394
X6.7323Y-5.5118
X6.7362Y-3.9173
X6.7421Y-4.1929
X6.7638Y-3.9173
X6.7717Y-5.7677
X6.7913Y-4.1929
X6.7992Y-3.8819
X6.8Y-4.35
X6.8Y-4.45
X6.8Y-4.55
X6.8Y-4.7
X6.8Y-4.9
X6.811Y-4.8622
X6.811Y-5.0197
X6.811Y-5.0591
X6.811Y-5.1181
X6.811Y-5.2953
X6.811Y-5.374
X6.8307Y-3.8819
X6.8406Y-4.1929
X6.8504Y-4.0748
X6.8504Y-4.1142
X6.8504Y-4.1535
X6.8602Y-3.8819
X6.8878Y-3.8819
X6.8898Y-5.5118
X6.8996Y-4.1929
X6.9016Y-4.1535
X6.9094Y-5.0197
X6.9094Y-5.0591
X6.9094Y-5.1181
X6.9094Y-5.2953
X6.9291Y-5.374
X6.939Y-3.8189
X6.9488Y-3.2677
X6.9488Y-3.3071
X6.9488Y-3.3465
X6.9488Y-3.3858
X6.9488Y-3.4252
X6.9488Y-3.4646
X6.9488Y-3.5039
X6.9488Y-3.5433
X6.9488Y-3.5827
X6.9488Y-3.622
X6.9488Y-3.6614
X6.9488Y-3.7008
X6.9488Y-4.8622
X6.949Y-5.5115
X6.95Y-4.9
X6.9587Y-4.1634
X6.9587Y-4.1929
X6.9685Y-3.8189
X6.9685Y-5.7677
X6.9882Y-5.1181
X7.0Y-4.35
X7.0Y-4.45
X7.0Y-4.55
X7.0Y-4.7
X7.0079Y-5.0197
X7.0079Y-5.0591
X7.0079Y-5.2953
X7.0177Y-3.2677
X7.0276Y-4.1634
X7.0276Y-4.1929
X7.0276Y-5.374
X7.0276Y-5.6791
X7.0472Y-3.8976
X7.0472Y-4.8622
X7.0472Y-5.0591
X7.05Y-4.9
X7.0768Y-5.6791
X7.0866Y-3.2677
X7.0866Y-5.0197
X7.1Y-4.45
X7.1Y-4.55
X7.1Y-4.7
X7.1Y-4.9
X7.1063Y-4.8622
X7.1063Y-5.2953
X7.126Y-3.9567
X7.1358Y-4.1535
X7.1358Y-4.1929
X7.1378Y-4.3484
X7.1457Y-5.6791
X7.1555Y-3.6516
X7.1555Y-3.6811
X7.1555Y-3.7205
X7.1555Y-3.7598
X7.1555Y-3.7992
X7.1555Y-3.8386
X7.1555Y-3.9207
X7.1555Y-3.9567
X7.1555Y-4.0059
X7.1555Y-5.4035
X7.1654Y-4.1535
X7.1654Y-4.1929
X7.1654Y-5.1378
X7.1654Y-5.2953
X7.1831Y-4.4902
X7.185Y-3.3169
X7.185Y-3.3563
X7.185Y-3.3957
X7.185Y-3.4449
X7.185Y-3.4941
X7.1949Y-4.1535
X7.1949Y-4.1929
X7.1949Y-5.4035
X7.2008Y-3.6476
X7.2067Y-4.4902
X7.2343Y-4.1535
X7.2343Y-4.1929
X7.2441Y-3.2677
X7.2441Y-5.0984
X7.2638Y-4.3701
X7.2638Y-4.4488
X7.2638Y-4.5472
X7.2638Y-4.7047
X7.2736Y-4.1535
X7.2736Y-4.1929
X7.2736Y-5.6004
X7.2736Y-5.6791
X7.2835Y-5.0394
X7.2835Y-5.4035
X7.2992Y-3.5492
X7.3031Y-3.2677
X7.313Y-4.1535
X7.313Y-4.1929
X7.3228Y-5.1575
X7.3268Y-3.5217
X7.3425Y-4.3701
X7.3425Y-4.4488
X7.3425Y-4.5472
X7.3425Y-4.7047
X7.3425Y-4.8819
X7.3524Y-3.2677
X7.3524Y-3.4941
X7.3524Y-4.1535
X7.3524Y-4.1929
X7.3524Y-5.6004
X7.3524Y-5.6791
X7.372Y-5.4035
X7.374Y-3.4744
X7.4016Y-4.1535
X7.4016Y-4.1929
X7.4016Y-5.0591
X7.4094Y-3.4744
X7.4409Y-4.311
X7.4409Y-4.3701
X7.4409Y-4.4488
X7.4409Y-4.5472
X7.4409Y-4.6654
X7.4409Y-4.8819
X7.4508Y-5.4035
X7.4508Y-5.6004
X7.4508Y-5.6791
X7.4528Y-3.4744
X7.4587Y-4.2795
X7.4606Y-5.0197
X7.4803Y-4.2717
X7.4803Y-4.311
X7.4803Y-4.3701
X7.4803Y-4.4488
X7.4803Y-4.5472
X7.4882Y-3.4744
X7.5Y-4.626
X7.5197Y-4.7047
X7.5197Y-5.4035
X7.5256Y-3.4744
X7.5394Y-5.0197
X7.5433Y-3.8898
X7.5591Y-3.4744
X7.5591Y-4.8819
X7.5689Y-5.6004
X7.5689Y-5.6791
X7.5709Y-3.8898
X7.5945Y-3.8898
X7.5945Y-3.9252
X7.5984Y-4.1831
X7.5984Y-4.7047
X7.6181Y-4.1929
X7.6181Y-4.2717
X7.6181Y-4.3012
X7.6181Y-5.0197
X7.6299Y-4.5709
X7.6378Y-4.8819
X7.6476Y-4.2717
X7.6535Y-5.0236
X7.6535Y-5.0591
X7.6535Y-5.0906
X7.6535Y-5.126
X7.6535Y-5.1575
X7.6535Y-5.2047
X7.6535Y-5.252
X7.6594Y-4.7067
X7.6811Y-3.874
X7.6811Y-3.9016
X7.6811Y-3.9291
X7.7008Y-4.1772
X7.7244Y-3.874
X7.7244Y-3.9016
X7.7244Y-3.9291
X7.7283Y-4.1772
X7.752Y-3.874
X7.752Y-3.9291
X7.7529Y-3.9016
X7.7638Y-4.4862
X7.7638Y-4.5256
X7.7638Y-4.563
X7.7638Y-4.5984
X7.7638Y-4.6772
X7.7638Y-4.7067
X7.7638Y-4.8071
X7.7638Y-4.8425
X7.7638Y-4.878
X7.7638Y-4.9528
X7.7638Y-4.9882
X7.7638Y-5.0236
X7.7638Y-5.0591
X7.7638Y-5.0906
X7.7638Y-5.126
X7.7638Y-5.1575
X7.7756Y-3.6319
X7.7756Y-3.6713
X7.7756Y-3.7106
X7.7992Y-3.874
X7.7992Y-3.9006
X7.7992Y-3.9291
X7.813Y-4.6772
X7.8346Y-3.6319
X7.8346Y-3.6713
X7.8346Y-3.7106
X7.8346Y-3.7795
X7.8346Y-3.8287
X7.8425Y-4.4094
X7.8543Y-4.2756
X7.874Y-4.2992
X7.874Y-4.3268
X7.874Y-4.3543
X7.874Y-4.3819
X7.874Y-4.4094
X7.874Y-4.4646
X7.874Y-4.5118
X7.874Y-4.5551
X7.874Y-4.6575
X7.874Y-4.687
X7.874Y-4.7283
X7.8898Y-3.874
X7.8898Y-3.9016
X7.8898Y-3.9291
X7.8937Y-3.6319
X7.8937Y-3.6713
X7.8937Y-3.7106
X7.8937Y-3.7795
X7.9291Y-3.9291
X7.9291Y-3.9685
X7.9291Y-4.0157
X7.9291Y-4.0669
X7.9291Y-4.126
X7.9291Y-4.185
X7.9291Y-4.2441
X7.9449Y-4.9567
X7.9469Y-4.6811
X7.9488Y-4.7165
X7.9488Y-4.7598
X7.9488Y-4.815
X7.9626Y-3.6319
X7.9626Y-3.6713
X7.9626Y-3.7106
X7.9626Y-3.7795
X7.9626Y-3.8583
X7.9626Y-3.9272
X8.0709Y-4.4724
X8.0709Y-4.5157
X8.0709Y-4.5709
X8.0709Y-4.6417
X8.0709Y-4.7165
X8.0709Y-4.7598
X8.0709Y-5.0945
X8.0709Y-5.1496
X8.0709Y-5.2087
X8.0709Y-5.2756
X8.0709Y-5.3386
X8.0709Y-5.4291
X8.0709Y-5.5118
X8.0709Y-5.5906
X8.0866Y-4.7835
X8.0866Y-5.0354
X8.0906Y-3.6319
X8.0906Y-3.7106
X8.0906Y-3.7795
X8.0906Y-3.8583
X8.0906Y-3.9272
X8.0906Y-4.0157
X8.0906Y-4.0846
X8.0906Y-4.1634
X8.0906Y-4.2421
X8.0906Y-4.3209
X8.0906Y-4.3996
T2
X7.5669Y-3.6368
X7.5669Y-3.6841
X7.6142Y-3.6368
X7.6142Y-3.6841
X7.6654Y-3.6368
X7.6654Y-3.6841
X7.7087Y-3.6368
X7.7087Y-3.6841
T3
X4.1732Y-4.0551
X4.1732Y-4.1142
X4.1732Y-4.1732
X4.1732Y-4.2323
X4.1732Y-4.2913
X4.1732Y-4.3504
X4.1732Y-4.4094
X4.1732Y-4.4685
X4.1732Y-4.5276
X4.1929Y-2.3622
X4.1929Y-2.9921
X4.1929Y-3.2087
X4.1929Y-3.5827
X4.2323Y-4.2323
X4.2323Y-4.4094
X4.2323Y-4.4685
X4.2323Y-4.5276
X4.252Y-2.9921
X4.252Y-3.2087
X4.252Y-3.5827
X4.2717Y-2.3622
X4.311Y-2.2244
X4.311Y-2.3031
X4.311Y-2.3819
X4.311Y-2.4606
X4.311Y-2.5197
X4.311Y-3.4055
X4.311Y-3.4646
X4.311Y-3.5236
X4.311Y-3.5827
X4.311Y-3.5827
X4.311Y-3.6417
X4.311Y-3.7008
X4.311Y-3.7598
X4.311Y-4.0551
X4.311Y-4.1142
X4.311Y-4.1732
X4.311Y-4.2323
X4.311Y-4.2913
X4.311Y-4.3504
X4.311Y-4.4094
X4.311Y-4.4685
X4.311Y-4.5276
X4.3307Y-2.8346
X4.3307Y-2.9134
X4.3307Y-2.9921
X4.3307Y-3.0709
X4.3307Y-3.1496
X4.3307Y-3.2087
X4.3701Y-3.5827
X4.3701Y-5.1575
X4.3701Y-5.2165
X4.3701Y-5.2756
X4.3701Y-5.3346
X4.3701Y-5.3937
X4.3701Y-5.4724
X4.3701Y-5.5315
X4.3701Y-5.6142
X4.3701Y-5.689
X4.3701Y-5.748
X4.3898Y-2.2244
X4.3898Y-2.3031
X4.3898Y-2.3819
X4.3898Y-2.4606
X4.3898Y-2.5197
X4.3898Y-3.4055
X4.3898Y-3.4646
X4.3898Y-3.5236
X4.3898Y-3.6417
X4.3898Y-3.7008
X4.3898Y-3.7598
X4.3898Y-4.0551
X4.3898Y-4.1142
X4.3898Y-4.1732
X4.3898Y-4.2323
X4.3898Y-4.2913
X4.3898Y-4.3504
X4.3898Y-4.4094
X4.3898Y-4.4685
X4.3898Y-4.5276
X4.4094Y-2.8346
X4.4094Y-2.9134
X4.4094Y-2.9921
X4.4094Y-3.0709
X4.4094Y-3.1496
X4.4094Y-3.2087
X4.4291Y-3.5827
X4.4685Y-2.3622
X4.4685Y-4.0551
X4.4685Y-4.1732
X4.4685Y-4.2323
X4.4685Y-4.4094
X4.4685Y-4.4685
X4.4685Y-4.5276
X4.4882Y-2.9921
X4.4882Y-3.2087
X4.4882Y-3.5827
X4.5472Y-3.5827
X4.5472Y-4.0551
X4.5472Y-4.1732
X4.5472Y-4.2323
X4.5472Y-4.4094
X4.5591Y-4.9832
X4.5669Y-2.3622
X4.5669Y-2.9921
X4.5669Y-3.2087
X4.6063Y-3.4055
X4.6063Y-3.4646
X4.6063Y-3.5236
X4.6063Y-3.5827
X4.6063Y-3.6417
X4.6063Y-3.7008
X4.6063Y-3.7598
X4.6063Y-4.9823
X4.626Y-2.2244
X4.626Y-2.3031
X4.626Y-2.3819
X4.626Y-2.4606
X4.626Y-2.5197
X4.626Y-2.8346
X4.626Y-2.9134
X4.626Y-2.9921
X4.626Y-3.0709
X4.626Y-3.1496
X4.626Y-3.2087
X4.626Y-4.0551
X4.626Y-4.1142
X4.626Y-4.1732
X4.626Y-4.2323
X4.626Y-4.2913
X4.626Y-4.3504
X4.626Y-4.4094
X4.6573Y-4.9173
X4.685Y-3.4055
X4.685Y-3.4646
X4.685Y-3.5236
X4.685Y-3.5827
X4.685Y-3.6417
X4.685Y-3.7008
X4.685Y-3.7598
X4.7047Y-2.2244
X4.7047Y-2.3031
X4.7047Y-2.3819
X4.7047Y-2.4606
X4.7047Y-2.5197
X4.7047Y-2.8346
X4.7047Y-2.9134
X4.7047Y-2.9921
X4.7047Y-3.0709
X4.7047Y-3.1496
X4.7047Y-3.2087
X4.7047Y-4.0551
X4.7047Y-4.1142
X4.7047Y-4.1732
X4.7047Y-4.2323
X4.7047Y-4.2913
X4.7047Y-4.3504
X4.7047Y-4.4094
X4.7073Y-4.9213
X4.7436Y-5.1029
X4.7638Y-3.4055
X4.7638Y-3.4646
X4.7638Y-3.5236
X4.7638Y-3.5827
X4.7638Y-3.6417
X4.7638Y-3.7008
X4.7638Y-3.7598
X4.7638Y-4.0551
X4.7638Y-4.1142
X4.7638Y-4.1732
X4.7638Y-4.2323
X4.7638Y-4.2913
X4.7638Y-4.3504
X4.7638Y-4.4094
X4.7835Y-2.2244
X4.7835Y-2.3031
X4.7835Y-2.3819
X4.7835Y-2.4606
X4.7835Y-2.5197
X4.7835Y-2.8346
X4.7835Y-2.9134
X4.7835Y-2.9921
X4.7835Y-3.0709
X4.7835Y-3.1496
X4.7835Y-3.2087
X4.8425Y-3.4055
X4.8425Y-3.4646
X4.8425Y-3.5236
X4.8425Y-3.5827
X4.8425Y-3.6417
X4.8425Y-3.7008
X4.8425Y-3.7598
X4.8425Y-4.0551
X4.8425Y-4.1142
X4.8425Y-4.1732
X4.8425Y-4.2323
X4.8425Y-4.2913
X4.8425Y-4.3504
X4.8425Y-4.4094
X4.8622Y-2.2244
X4.8622Y-2.3031
X4.8622Y-2.3819
X4.8622Y-2.4606
X4.8622Y-2.5197
X4.8622Y-2.8346
X4.8622Y-2.9134
X4.8622Y-2.9921
X4.8622Y-3.0709
X4.8622Y-3.1496
X4.8622Y-3.2087
X4.9213Y-2.2047
X4.9213Y-2.2638
X4.9213Y-3.4055
X4.9213Y-3.7008
X4.9213Y-3.7598
X4.9213Y-4.0551
X4.9213Y-4.1142
X4.9213Y-4.1732
X4.9213Y-4.2323
X4.9213Y-4.2913
X4.9213Y-4.3504
X4.9213Y-4.4094
X4.9409Y-2.5197
X4.9409Y-2.8346
X4.9409Y-2.9134
X4.9409Y-2.9921
X4.9409Y-3.0709
X4.9409Y-3.1496
X4.9409Y-3.2087
X4.9803Y-3.7008
X4.9803Y-3.7598
X5.0Y-2.2047
X5.0Y-2.2638
X5.0Y-4.0551
X5.0Y-4.1142
X5.0Y-4.1732
X5.0Y-4.2323
X5.0Y-4.2913
X5.0Y-4.3504
X5.0Y-4.4094
X5.0Y-4.4685
X5.0Y-4.5276
X5.0197Y-2.5197
X5.0197Y-2.8346
X5.0197Y-2.9134
X5.0197Y-2.9921
X5.0394Y-3.7008
X5.0394Y-3.7598
X5.0787Y-4.0551
X5.0787Y-4.1142
X5.0787Y-4.1732
X5.0787Y-4.4094
X5.0787Y-4.4685
X5.0787Y-4.5276
X5.0984Y-2.8346
X5.0984Y-2.9134
X5.0984Y-2.9921
X5.1181Y-2.2047
X5.1181Y-2.2638
X5.1181Y-2.3425
X5.1181Y-2.4213
X5.1181Y-2.5197
X5.1575Y-4.0551
X5.1575Y-4.1142
X5.1575Y-4.1732
X5.1575Y-4.4094
X5.1575Y-4.4685
X5.1772Y-2.8346
X5.1772Y-2.8346
X5.1772Y-2.9134
X5.1772Y-2.9134
X5.1772Y-2.9921
X5.1772Y-2.9921
X5.2362Y-4.0551
X5.2362Y-4.1142
X5.2362Y-4.1732
X5.2362Y-4.2323
X5.2362Y-4.2913
X5.2362Y-4.3504
X5.2362Y-4.4094
X5.2362Y-4.4685
X5.2559Y-2.8346
X5.2559Y-2.9134
X5.2559Y-2.9921
X5.2559Y-3.0709
X5.2559Y-3.1496
X5.2559Y-3.2087
X5.6929Y-5.3661
X5.7402Y-5.6535
X5.7756Y-5.3031
X5.8071Y-5.685
X5.8858Y-5.6693
X5.9665Y-5.5689
X6.0906Y-3.8583
X6.0945Y-3.7638
X6.0945Y-3.9252
X6.126Y-3.7795
X6.1713Y-3.3957
X6.1713Y-3.4547
X6.1811Y-3.6417
X6.2106Y-3.6713
X6.2323Y-3.8386
X6.2618Y-3.4681
X6.2697Y-3.6713
X6.315Y-3.4059
X6.315Y-3.5591
X6.3307Y-5.5512
X6.3878Y-3.6299
X6.3878Y-3.6713
X6.435Y-3.5049
X6.4351Y-3.4656
X6.4469Y-3.6713
X6.4469Y-4.9902
X6.4469Y-5.0394
X6.4702Y-3.5679
X6.4702Y-3.6093
X6.4961Y-3.2579
X6.4961Y-3.3366
X6.4961Y-3.6713
X6.5217Y-3.376
X6.5217Y-3.4429
X6.5453Y-3.6713
X6.5551Y-3.8071
X6.5945Y-3.6713
X6.5984Y-3.8268
X6.6043Y-3.2579
X6.6457Y-5.6929
X6.6535Y-3.2579
X6.7028Y-3.2579
X6.7421Y-3.2579
X6.7421Y-3.2972
X6.7421Y-3.3465
X6.7421Y-3.4055
X6.7421Y-3.4646
X6.7421Y-3.5236
X6.7421Y-3.5827
X6.7421Y-3.6417
X6.748Y-3.9604
X6.752Y-3.8738
X6.7638Y-4.7835
X6.7638Y-5.0793
X6.878Y-4.0472
X7.0487Y-5.5684
X7.0935Y-3.9341
X7.122Y-3.4921
X7.1693Y-3.2717
X7.2032Y-3.6102
X7.2047Y-3.5709
X7.3307Y-5.4409
X7.5039Y-3.5551
X7.5236Y-3.7992
X7.5945Y-5.5472
X7.6024Y-4.6486
X7.6128Y-3.5118
X7.6417Y-4.6772
X7.7756Y-3.815
X7.811Y-3.5079
X7.8366Y-5.0197
X7.8371Y-4.9549
X7.8425Y-4.1181
X7.8445Y-4.1535
X7.9263Y-4.5593
X7.9263Y-4.6006
X7.9368Y-4.9108
X7.9409Y-4.8661
X7.9469Y-4.6457
X8.0394Y-4.7323
T4
X6.2303Y-3.3898
X6.2303Y-3.5787
X6.3996Y-3.3898
X6.3996Y-3.5787
T5
X5.5996Y-2.5377
X5.5996Y-2.9381
X5.5996Y-3.6794
X5.5996Y-4.0798
T6
X5.252Y-5.4016
X5.252Y-5.5575
T7
X6.0647Y-2.6024
X6.0647Y-3.0256
X7.5804Y-2.7106
X7.5804Y-3.0256
T8
X4.2283Y-2.2638
X4.2283Y-2.4606
X4.2283Y-2.8937
X4.2283Y-3.0906
X4.2283Y-3.4843
X4.2283Y-3.6811
X4.2283Y-4.1142
X4.2283Y-4.311
X4.2283Y-5.1772
X4.2283Y-5.374
X4.2283Y-5.5157
X4.2283Y-5.7126
X4.5118Y-2.2638
X4.5118Y-2.4606
X4.5118Y-2.8937
X4.5118Y-3.0906
X4.5118Y-3.4843
X4.5118Y-3.6811
X4.5118Y-4.1142
X4.5118Y-4.311
X4.5118Y-5.1772
X4.5118Y-5.374
X4.5118Y-5.5157
X4.5118Y-5.7126
T10
X6.2047Y-4.8366
T9
G00X4.9917Y-2.3487
M15
G01X4.9917Y-2.4275
M16
G05
G00X4.9917Y-3.4905
M15
G01X4.9917Y-3.5692
M16
G05
G00X5.1563Y-3.1263
M15
G01X5.0972Y-3.1263
M16
G05
G00X5.1563Y-4.268
M15
G01X5.0972Y-4.268
M16
G05
T0
M30
