%TF.GenerationSoftware,KiCad,Pcbnew,7.0.10*%
%TF.CreationDate,2024-03-08T14:55:51+08:00*%
%TF.ProjectId,solar_board,736f6c61-725f-4626-9f61-72642e6b6963,rev?*%
%TF.SameCoordinates,Original*%
%TF.FileFunction,Profile,NP*%
%FSLAX46Y46*%
G04 Gerber Fmt 4.6, Leading zero omitted, Abs format (unit mm)*
G04 Created by KiCad (PCBNEW 7.0.10) date 2024-03-08 14:55:51*
%MOMM*%
%LPD*%
G01*
G04 APERTURE LIST*
%TA.AperFunction,Profile*%
%ADD10C,0.050000*%
%TD*%
G04 APERTURE END LIST*
D10*
X140280000Y-75340001D02*
X143280000Y-75340001D01*
X67780000Y-29340001D02*
X72280000Y-29340001D01*
X141780000Y-183340000D02*
X67780000Y-183340000D01*
X135779999Y-22340001D02*
G75*
G03*
X134280000Y-20840001I-1499999J1D01*
G01*
X138779999Y-30840001D02*
G75*
G03*
X137280000Y-29340001I-1499999J1D01*
G01*
X144779999Y-76840001D02*
G75*
G03*
X143280000Y-75340001I-1499999J1D01*
G01*
X72280000Y-29340000D02*
G75*
G03*
X73780000Y-27840001I0J1500000D01*
G01*
X64780001Y-131241214D02*
X66980000Y-131241214D01*
X142580000Y-121441186D02*
G75*
G03*
X142580000Y-131241214I0J-4900014D01*
G01*
X64780000Y-180340001D02*
G75*
G03*
X67780000Y-183340000I3000000J1D01*
G01*
X135780000Y-27840001D02*
X135780000Y-22340001D01*
X66980000Y-121441214D02*
X64780001Y-121441214D01*
X144780000Y-76840001D02*
X144780000Y-121441214D01*
X138780000Y-46740001D02*
X138130000Y-46740001D01*
X64780001Y-180340001D02*
X64780001Y-131241214D01*
X67780000Y-29340001D02*
G75*
G03*
X64780001Y-32340002I0J-2999999D01*
G01*
X64780001Y-121441214D02*
X64780001Y-32340001D01*
X138780000Y-30840001D02*
X138780000Y-46740001D01*
X138130001Y-46740000D02*
G75*
G03*
X137430001Y-47440003I-300001J-400000D01*
G01*
X141780000Y-183340000D02*
G75*
G03*
X144780000Y-180340000I0J3000000D01*
G01*
X137430000Y-49840001D02*
G75*
G03*
X138130000Y-50540000I400000J-299999D01*
G01*
X142580000Y-131241214D02*
X144780000Y-131241214D01*
X138780000Y-50540001D02*
X138780000Y-73840001D01*
X73780000Y-22340001D02*
X73780000Y-27840001D01*
X144780000Y-121441214D02*
X142580000Y-121441214D01*
X134280000Y-20840001D02*
X75280000Y-20840001D01*
X137430000Y-47440001D02*
X137430000Y-49840001D01*
X144780000Y-131241214D02*
X144780000Y-180340001D01*
X135779999Y-27840001D02*
G75*
G03*
X137280000Y-29340001I1500001J1D01*
G01*
X138779999Y-73840001D02*
G75*
G03*
X140280000Y-75340001I1500001J1D01*
G01*
X66980000Y-131241206D02*
G75*
G03*
X66979998Y-121441214I0J4899996D01*
G01*
X138130000Y-50540001D02*
X138780000Y-50540001D01*
X75280000Y-20840000D02*
G75*
G03*
X73780000Y-22340001I0J-1500000D01*
G01*
M02*
