%TF.GenerationSoftware,KiCad,Pcbnew,7.0.10*%
%TF.CreationDate,2024-03-08T14:55:51+08:00*%
%TF.ProjectId,solar_board,736f6c61-725f-4626-9f61-72642e6b6963,rev?*%
%TF.SameCoordinates,Original*%
%TF.FileFunction,Soldermask,Top*%
%TF.FilePolarity,Negative*%
%FSLAX46Y46*%
G04 Gerber Fmt 4.6, Leading zero omitted, Abs format (unit mm)*
G04 Created by KiCad (PCBNEW 7.0.10) date 2024-03-08 14:55:51*
%MOMM*%
%LPD*%
G01*
G04 APERTURE LIST*
G04 Aperture macros list*
%AMRoundRect*
0 Rectangle with rounded corners*
0 $1 Rounding radius*
0 $2 $3 $4 $5 $6 $7 $8 $9 X,Y pos of 4 corners*
0 Add a 4 corners polygon primitive as box body*
4,1,4,$2,$3,$4,$5,$6,$7,$8,$9,$2,$3,0*
0 Add four circle primitives for the rounded corners*
1,1,$1+$1,$2,$3*
1,1,$1+$1,$4,$5*
1,1,$1+$1,$6,$7*
1,1,$1+$1,$8,$9*
0 Add four rect primitives between the rounded corners*
20,1,$1+$1,$2,$3,$4,$5,0*
20,1,$1+$1,$4,$5,$6,$7,0*
20,1,$1+$1,$6,$7,$8,$9,0*
20,1,$1+$1,$8,$9,$2,$3,0*%
%AMFreePoly0*
4,1,5,0.300000,-0.300000,-0.300000,-0.300000,-0.300000,0.300000,0.300000,0.300000,0.300000,-0.300000,0.300000,-0.300000,$1*%
%AMFreePoly1*
4,1,5,0.500000,-1.750000,-0.500000,-1.750000,-0.500000,1.750000,0.500000,1.750000,0.500000,-1.750000,0.500000,-1.750000,$1*%
%AMFreePoly2*
4,1,17,1.395000,0.765000,0.855000,0.765000,0.855000,0.535000,1.395000,0.535000,1.395000,0.115000,0.855000,0.115000,0.855000,-0.115000,1.395000,-0.115000,1.395000,-0.535000,0.855000,-0.535000,0.855000,-0.765000,1.395000,-0.765000,1.395000,-1.185000,-0.855000,-1.185000,-0.855000,1.185000,1.395000,1.185000,1.395000,0.765000,1.395000,0.765000,$1*%
G04 Aperture macros list end*
%ADD10C,0.010000*%
%ADD11RoundRect,0.135000X0.185000X-0.135000X0.185000X0.135000X-0.185000X0.135000X-0.185000X-0.135000X0*%
%ADD12RoundRect,0.147500X0.172500X-0.147500X0.172500X0.147500X-0.172500X0.147500X-0.172500X-0.147500X0*%
%ADD13C,1.100000*%
%ADD14C,1.600000*%
%ADD15RoundRect,0.060480X-0.816520X0.191520X-0.816520X-0.191520X0.816520X-0.191520X0.816520X0.191520X0*%
%ADD16C,2.204000*%
%ADD17C,7.204000*%
%ADD18RoundRect,0.294840X-1.182160X0.407160X-1.182160X-0.407160X1.182160X-0.407160X1.182160X0.407160X0*%
%ADD19RoundRect,0.200000X-0.200000X-0.275000X0.200000X-0.275000X0.200000X0.275000X-0.200000X0.275000X0*%
%ADD20RoundRect,0.200000X-0.275000X0.200000X-0.275000X-0.200000X0.275000X-0.200000X0.275000X0.200000X0*%
%ADD21RoundRect,0.200000X0.200000X0.275000X-0.200000X0.275000X-0.200000X-0.275000X0.200000X-0.275000X0*%
%ADD22RoundRect,0.225000X0.250000X-0.225000X0.250000X0.225000X-0.250000X0.225000X-0.250000X-0.225000X0*%
%ADD23R,1.000000X1.000000*%
%ADD24O,1.000000X1.000000*%
%ADD25RoundRect,0.200000X0.275000X-0.200000X0.275000X0.200000X-0.275000X0.200000X-0.275000X-0.200000X0*%
%ADD26C,3.200000*%
%ADD27RoundRect,0.250000X0.625000X-0.375000X0.625000X0.375000X-0.625000X0.375000X-0.625000X-0.375000X0*%
%ADD28RoundRect,0.250000X0.325000X0.650000X-0.325000X0.650000X-0.325000X-0.650000X0.325000X-0.650000X0*%
%ADD29RoundRect,0.225000X-0.225000X-0.250000X0.225000X-0.250000X0.225000X0.250000X-0.225000X0.250000X0*%
%ADD30RoundRect,0.250000X-0.250000X-0.475000X0.250000X-0.475000X0.250000X0.475000X-0.250000X0.475000X0*%
%ADD31FreePoly0,180.000000*%
%ADD32FreePoly1,270.000000*%
%ADD33R,0.700000X0.420000*%
%ADD34FreePoly2,180.000000*%
%ADD35RoundRect,0.150000X-0.200000X0.150000X-0.200000X-0.150000X0.200000X-0.150000X0.200000X0.150000X0*%
%ADD36RoundRect,0.250000X-0.475000X0.250000X-0.475000X-0.250000X0.475000X-0.250000X0.475000X0.250000X0*%
%ADD37RoundRect,0.147500X0.147500X0.172500X-0.147500X0.172500X-0.147500X-0.172500X0.147500X-0.172500X0*%
%ADD38RoundRect,0.112500X-0.187500X-0.112500X0.187500X-0.112500X0.187500X0.112500X-0.187500X0.112500X0*%
%ADD39R,1.000000X0.900000*%
%ADD40RoundRect,0.150000X-0.587500X-0.150000X0.587500X-0.150000X0.587500X0.150000X-0.587500X0.150000X0*%
%ADD41RoundRect,0.250000X0.250000X1.200000X-0.250000X1.200000X-0.250000X-1.200000X0.250000X-1.200000X0*%
%ADD42RoundRect,0.250000X0.650000X1.550000X-0.650000X1.550000X-0.650000X-1.550000X0.650000X-1.550000X0*%
%ADD43RoundRect,0.225000X-0.250000X0.225000X-0.250000X-0.225000X0.250000X-0.225000X0.250000X0.225000X0*%
%ADD44RoundRect,0.200000X-0.700000X-0.200000X0.700000X-0.200000X0.700000X0.200000X-0.700000X0.200000X0*%
%ADD45R,0.250000X0.675000*%
%ADD46R,0.675000X0.250000*%
%ADD47RoundRect,0.250000X0.275000X0.250000X-0.275000X0.250000X-0.275000X-0.250000X0.275000X-0.250000X0*%
%ADD48RoundRect,0.250000X0.850000X0.275000X-0.850000X0.275000X-0.850000X-0.275000X0.850000X-0.275000X0*%
%ADD49RoundRect,0.150000X0.200000X-0.150000X0.200000X0.150000X-0.200000X0.150000X-0.200000X-0.150000X0*%
%ADD50RoundRect,0.218750X-0.218750X-0.256250X0.218750X-0.256250X0.218750X0.256250X-0.218750X0.256250X0*%
%ADD51RoundRect,0.150000X-0.512500X-0.150000X0.512500X-0.150000X0.512500X0.150000X-0.512500X0.150000X0*%
%ADD52RoundRect,0.250000X1.330000X1.800000X-1.330000X1.800000X-1.330000X-1.800000X1.330000X-1.800000X0*%
%ADD53O,3.160000X4.100000*%
%ADD54RoundRect,0.250000X-0.412500X-0.925000X0.412500X-0.925000X0.412500X0.925000X-0.412500X0.925000X0*%
%ADD55RoundRect,0.147500X-0.147500X-0.172500X0.147500X-0.172500X0.147500X0.172500X-0.147500X0.172500X0*%
%ADD56R,1.500000X3.600000*%
%ADD57RoundRect,0.250000X0.450000X-0.262500X0.450000X0.262500X-0.450000X0.262500X-0.450000X-0.262500X0*%
%ADD58RoundRect,0.250000X-0.550000X1.250000X-0.550000X-1.250000X0.550000X-1.250000X0.550000X1.250000X0*%
%ADD59RoundRect,0.250000X0.650000X-1.000000X0.650000X1.000000X-0.650000X1.000000X-0.650000X-1.000000X0*%
%ADD60RoundRect,0.075000X0.150000X-0.075000X0.150000X0.075000X-0.150000X0.075000X-0.150000X-0.075000X0*%
%ADD61RoundRect,0.250000X0.250000X0.550000X-0.250000X0.550000X-0.250000X-0.550000X0.250000X-0.550000X0*%
%ADD62RoundRect,0.150000X0.512500X0.150000X-0.512500X0.150000X-0.512500X-0.150000X0.512500X-0.150000X0*%
%ADD63C,0.660000*%
%ADD64O,0.580000X1.000000*%
%ADD65RoundRect,0.075000X0.425000X-0.075000X0.425000X0.075000X-0.425000X0.075000X-0.425000X-0.075000X0*%
%ADD66RoundRect,0.250000X-0.450000X-0.425000X0.450000X-0.425000X0.450000X0.425000X-0.450000X0.425000X0*%
%ADD67RoundRect,0.062500X0.062500X-0.117500X0.062500X0.117500X-0.062500X0.117500X-0.062500X-0.117500X0*%
%ADD68R,0.500000X0.200000*%
%ADD69R,1.200000X0.200000*%
%ADD70R,0.200000X0.500000*%
%ADD71R,0.200000X0.800000*%
%ADD72R,1.000000X0.800000*%
%ADD73R,1.400000X0.800000*%
%ADD74RoundRect,0.700000X0.250000X0.000000X0.250000X0.000000X-0.250000X0.000000X-0.250000X0.000000X0*%
%ADD75RoundRect,0.250000X0.475000X-0.250000X0.475000X0.250000X-0.475000X0.250000X-0.475000X-0.250000X0*%
%ADD76RoundRect,0.225000X0.225000X0.375000X-0.225000X0.375000X-0.225000X-0.375000X0.225000X-0.375000X0*%
%ADD77RoundRect,0.225000X0.225000X0.250000X-0.225000X0.250000X-0.225000X-0.250000X0.225000X-0.250000X0*%
%ADD78R,3.700000X1.100000*%
%ADD79R,2.400000X0.740000*%
%ADD80FreePoly2,0.000000*%
%ADD81C,3.450000*%
%ADD82C,2.390000*%
G04 APERTURE END LIST*
%TO.C,C22*%
D10*
X113680000Y-92790001D02*
X113680000Y-91540001D01*
X114930000Y-91540001D01*
X113680000Y-92790001D01*
G36*
X113680000Y-92790001D02*
G01*
X113680000Y-91540001D01*
X114930000Y-91540001D01*
X113680000Y-92790001D01*
G37*
%TO.C,U2*%
G36*
X106999350Y-39108703D02*
G01*
X106773950Y-39108703D01*
X106773950Y-38608703D01*
X106673950Y-38608703D01*
X106673950Y-38283703D01*
X106173950Y-38283703D01*
X106173950Y-38058303D01*
X106999350Y-38058303D01*
X106999350Y-39108703D01*
G37*
G36*
X109699350Y-35483300D02*
G01*
X109799350Y-35483300D01*
X109799350Y-35808300D01*
X110299350Y-35808300D01*
X110299350Y-36033700D01*
X109473950Y-36033700D01*
X109473950Y-34983300D01*
X109699350Y-34983300D01*
X109699350Y-35483300D01*
G37*
G36*
X110299350Y-38283703D02*
G01*
X109799350Y-38283703D01*
X109799350Y-38608706D01*
X109699350Y-38608706D01*
X109699350Y-39108703D01*
X109473950Y-39108703D01*
X109473950Y-38058306D01*
X110299350Y-38058306D01*
X110299350Y-38283703D01*
G37*
G36*
X106998072Y-35876447D02*
G01*
X106840632Y-36033883D01*
X106172672Y-36033883D01*
X106172672Y-35808486D01*
X106672672Y-35808486D01*
X106672672Y-35483483D01*
X106772672Y-35483483D01*
X106772672Y-34983486D01*
X106998072Y-34983486D01*
X106998072Y-35876447D01*
G37*
%TD*%
D11*
%TO.C,R55*%
X95551600Y-97503201D03*
X95551600Y-96483201D03*
%TD*%
D12*
%TO.C,L3*%
X95551600Y-99307001D03*
X95551600Y-98337001D03*
%TD*%
D13*
%TO.C,U1*%
X122949000Y-55813001D03*
D14*
X122949000Y-75813001D03*
D15*
X128224000Y-56563001D03*
X120674000Y-56813001D03*
X128224000Y-57063001D03*
X120674000Y-57313001D03*
X128224000Y-57563001D03*
X120674000Y-57813001D03*
X128224000Y-58063001D03*
X120674000Y-58313001D03*
X128224000Y-58563001D03*
X120674000Y-58813001D03*
X128224000Y-59063001D03*
X120674000Y-59313001D03*
X128224000Y-59563001D03*
X120674000Y-59813001D03*
X128224000Y-60063001D03*
X120674000Y-60313001D03*
X128224000Y-60563001D03*
X120674000Y-60813001D03*
X128224000Y-61063001D03*
X120674000Y-61313001D03*
X128224000Y-61563001D03*
X120674000Y-61813001D03*
X128224000Y-62063001D03*
X120674000Y-64313001D03*
X128224000Y-64563001D03*
X120674000Y-64813001D03*
X128224000Y-65063001D03*
X120674000Y-65313001D03*
X128224000Y-65563001D03*
X120674000Y-65813001D03*
X128224000Y-66063001D03*
X120674000Y-66313001D03*
X128224000Y-66563001D03*
X120674000Y-66813001D03*
X128224000Y-67063001D03*
X120674000Y-67313001D03*
X128224000Y-67563001D03*
X120674000Y-67813001D03*
X128224000Y-68063001D03*
X120674000Y-68313001D03*
X128224000Y-68563001D03*
X120674000Y-68813001D03*
X128224000Y-69063001D03*
X120674000Y-69313001D03*
X128224000Y-69563001D03*
X120674000Y-69813001D03*
X128224000Y-70063001D03*
X120674000Y-70313001D03*
X128224000Y-70563001D03*
X120674000Y-70813001D03*
X128224000Y-71063001D03*
X120674000Y-71313001D03*
X128224000Y-71563001D03*
X120674000Y-71813001D03*
X128224000Y-72063001D03*
X120674000Y-72313001D03*
X128224000Y-72563001D03*
X120674000Y-72813001D03*
X128224000Y-73063001D03*
X120674000Y-73313001D03*
X128224000Y-73563001D03*
X120674000Y-73813001D03*
X128224000Y-74063001D03*
X120674000Y-74313001D03*
X128224000Y-74563001D03*
X120674000Y-74813001D03*
X128224000Y-75063001D03*
D16*
X116989000Y-76183001D03*
X114489000Y-76183001D03*
X111989000Y-76183001D03*
X109489000Y-76183001D03*
D17*
X82489000Y-65832001D03*
D18*
X127449000Y-55463001D03*
X127449000Y-76163001D03*
%TD*%
D19*
%TO.C,R14*%
X108468000Y-21733001D03*
X110118000Y-21733001D03*
%TD*%
D20*
%TO.C,R20*%
X116150032Y-165664832D03*
X116150032Y-167314832D03*
%TD*%
D21*
%TO.C,R17*%
X79003000Y-37735001D03*
X77353000Y-37735001D03*
%TD*%
D22*
%TO.C,C17*%
X121180000Y-88015001D03*
X121180000Y-86465001D03*
%TD*%
%TO.C,C8*%
X111482000Y-39780001D03*
X111482000Y-38230001D03*
%TD*%
D23*
%TO.C,J7*%
X82750000Y-119650001D03*
D24*
X84020000Y-119650001D03*
X85290000Y-119650001D03*
X86560000Y-119650001D03*
X87830000Y-119650001D03*
X89100000Y-119650001D03*
X90370000Y-119650001D03*
X91640000Y-119650001D03*
X92910000Y-119650001D03*
X94180000Y-119650001D03*
%TD*%
D25*
%TO.C,R43*%
X99720000Y-130254001D03*
X99720000Y-128604001D03*
%TD*%
D20*
%TO.C,R34*%
X99720000Y-130304001D03*
X99720000Y-131954001D03*
%TD*%
D26*
%TO.C,@HOLE9*%
X68780032Y-106339832D03*
%TD*%
D25*
%TO.C,R30*%
X83385000Y-123776001D03*
X83385000Y-122126001D03*
%TD*%
D20*
%TO.C,R18*%
X67891000Y-40085001D03*
X67891000Y-41735001D03*
%TD*%
D27*
%TO.C,F1*%
X134744968Y-173270170D03*
X134744968Y-170470170D03*
%TD*%
D28*
%TO.C,C1*%
X140105000Y-162703001D03*
X137155000Y-162703001D03*
%TD*%
D29*
%TO.C,C26*%
X111850000Y-34252001D03*
X113400000Y-34252001D03*
%TD*%
D30*
%TO.C,C3*%
X132595032Y-162703001D03*
X134495032Y-162703001D03*
%TD*%
D19*
%TO.C,R6*%
X109644000Y-42742001D03*
X111294000Y-42742001D03*
%TD*%
D25*
%TO.C,R54*%
X134566000Y-48593001D03*
X134566000Y-46943001D03*
%TD*%
D19*
%TO.C,R16*%
X108468000Y-24654001D03*
X110118000Y-24654001D03*
%TD*%
D31*
%TO.C,C22*%
X113980000Y-91890001D03*
D32*
X115458000Y-95756401D03*
%TD*%
D26*
%TO.C,@HOLE6*%
X140780032Y-106339832D03*
%TD*%
D29*
%TO.C,C20*%
X133791000Y-34306001D03*
X135341000Y-34306001D03*
%TD*%
D20*
%TO.C,R37*%
X95220000Y-130304001D03*
X95220000Y-131954001D03*
%TD*%
D25*
%TO.C,R11*%
X117040000Y-28908001D03*
X117040000Y-27258001D03*
%TD*%
D33*
%TO.C,Q1*%
X135450032Y-167464832D03*
X135450032Y-166814832D03*
X135450032Y-166164832D03*
X135450032Y-165514832D03*
D34*
X133495032Y-166489832D03*
%TD*%
D26*
%TO.C,@HOLE5*%
X140780032Y-179339832D03*
%TD*%
D35*
%TO.C,D3*%
X76781000Y-40467001D03*
X76781000Y-39067001D03*
%TD*%
D25*
%TO.C,R28*%
X86433000Y-123776001D03*
X86433000Y-122126001D03*
%TD*%
D36*
%TO.C,C2*%
X141800032Y-165244832D03*
X141800032Y-167144832D03*
%TD*%
D20*
%TO.C,R35*%
X98220000Y-130304001D03*
X98220000Y-131954001D03*
%TD*%
D37*
%TO.C,FB1*%
X120565000Y-92940001D03*
X119595000Y-92940001D03*
%TD*%
D21*
%TO.C,R53*%
X121105000Y-95140001D03*
X119455000Y-95140001D03*
%TD*%
D25*
%TO.C,R3*%
X107134000Y-32972001D03*
X107134000Y-31322001D03*
%TD*%
D38*
%TO.C,D6*%
X113930000Y-89940001D03*
X116030000Y-89940001D03*
%TD*%
D20*
%TO.C,R32*%
X102720000Y-130304001D03*
X102720000Y-131954001D03*
%TD*%
D39*
%TO.C,SW1*%
X71790000Y-80298001D03*
X71790000Y-76198001D03*
X73390000Y-80298001D03*
X73390000Y-76198001D03*
%TD*%
D40*
%TO.C,Q3*%
X117912532Y-165539832D03*
X117912532Y-167439832D03*
X119787532Y-166489832D03*
%TD*%
D41*
%TO.C,J3*%
X102450000Y-174840001D03*
X100450000Y-174840001D03*
X98450000Y-174840001D03*
X96450000Y-174840001D03*
X94450000Y-174840001D03*
X92450000Y-174840001D03*
X90450000Y-174840001D03*
X88450000Y-174840001D03*
D42*
X104800000Y-179490001D03*
X86100000Y-179490001D03*
%TD*%
D25*
%TO.C,R25*%
X91640000Y-123777001D03*
X91640000Y-122127001D03*
%TD*%
D39*
%TO.C,SW2*%
X71790000Y-55787001D03*
X71790000Y-51687001D03*
X73390000Y-55787001D03*
X73390000Y-51687001D03*
%TD*%
D25*
%TO.C,R24*%
X93164000Y-123777001D03*
X93164000Y-122127001D03*
%TD*%
D43*
%TO.C,C12*%
X90527000Y-41313832D03*
X90527000Y-42863832D03*
%TD*%
D44*
%TO.C,U8*%
X98980000Y-86440001D03*
X98980000Y-87540001D03*
X98980000Y-88640001D03*
X98980000Y-89740001D03*
X98980000Y-90840001D03*
X98980000Y-91940001D03*
X98980000Y-93040001D03*
X98980000Y-96040001D03*
X98980000Y-97140001D03*
X98980000Y-98240001D03*
X98980000Y-99340001D03*
X98980000Y-100440001D03*
X110980000Y-100440001D03*
X110980000Y-99340001D03*
X110980000Y-98240001D03*
X110980000Y-97140001D03*
X110980000Y-96040001D03*
X110980000Y-93040001D03*
X110980000Y-91940001D03*
X110980000Y-90840001D03*
X110980000Y-89740001D03*
X110980000Y-88640001D03*
X110980000Y-87540001D03*
X110980000Y-86440001D03*
%TD*%
D20*
%TO.C,R52*%
X75130000Y-54907001D03*
X75130000Y-56557001D03*
%TD*%
D45*
%TO.C,U9*%
X132292000Y-38362501D03*
X132792000Y-38362501D03*
X133292000Y-38362501D03*
X133792000Y-38362501D03*
D46*
X134054500Y-37600001D03*
X134054500Y-37100001D03*
X134054500Y-36600001D03*
D45*
X133792000Y-35837501D03*
X133292000Y-35837501D03*
X132792000Y-35837501D03*
X132292000Y-35837501D03*
D46*
X132029500Y-36600001D03*
X132029500Y-37100001D03*
X132029500Y-37600001D03*
%TD*%
D47*
%TO.C,J5*%
X92630000Y-99240001D03*
D48*
X91105000Y-100715001D03*
X91105000Y-97765001D03*
%TD*%
D23*
%TO.C,J9*%
X108150000Y-166640001D03*
D24*
X109420000Y-166640001D03*
X110690000Y-166640001D03*
X111960000Y-166640001D03*
%TD*%
D49*
%TO.C,D4*%
X76781000Y-41607001D03*
X76781000Y-43007001D03*
%TD*%
D25*
%TO.C,R48*%
X132280000Y-41481001D03*
X132280000Y-39831001D03*
%TD*%
%TO.C,R44*%
X101220000Y-130254001D03*
X101220000Y-128604001D03*
%TD*%
D50*
%TO.C,D1*%
X113013500Y-42561001D03*
X114588500Y-42561001D03*
%TD*%
D20*
%TO.C,R31*%
X104220000Y-130304001D03*
X104220000Y-131954001D03*
%TD*%
D51*
%TO.C,U5*%
X85549500Y-27387001D03*
X85549500Y-28337001D03*
X85549500Y-29287001D03*
X87824500Y-29287001D03*
X87824500Y-28337001D03*
X87824500Y-27387001D03*
%TD*%
D23*
%TO.C,J1*%
X91640000Y-166640001D03*
D24*
X92910000Y-166640001D03*
X94180000Y-166640001D03*
X95450000Y-166640001D03*
X96720000Y-166640001D03*
X97990000Y-166640001D03*
X99260000Y-166640001D03*
X100530000Y-166640001D03*
%TD*%
D52*
%TO.C,J4*%
X129890000Y-172990001D03*
D53*
X125930000Y-172990001D03*
X121970000Y-172990001D03*
X118010000Y-172990001D03*
%TD*%
D19*
%TO.C,R13*%
X124216000Y-28210001D03*
X125866000Y-28210001D03*
%TD*%
D25*
%TO.C,R8*%
X108785000Y-32972001D03*
X108785000Y-31322001D03*
%TD*%
D54*
%TO.C,C29*%
X118635000Y-47810001D03*
X121710000Y-47810001D03*
%TD*%
D22*
%TO.C,C13*%
X113611000Y-37367001D03*
X113611000Y-35817001D03*
%TD*%
D25*
%TO.C,R42*%
X98220000Y-130254001D03*
X98220000Y-128604001D03*
%TD*%
D19*
%TO.C,R2*%
X94401000Y-33198832D03*
X96051000Y-33198832D03*
%TD*%
D43*
%TO.C,C16*%
X122755000Y-26673001D03*
X122755000Y-28223001D03*
%TD*%
D19*
%TO.C,R15*%
X108468000Y-23257001D03*
X110118000Y-23257001D03*
%TD*%
D22*
%TO.C,C18*%
X113150000Y-87645001D03*
X113150000Y-86095001D03*
%TD*%
D19*
%TO.C,R4*%
X93766000Y-39802832D03*
X95416000Y-39802832D03*
%TD*%
D21*
%TO.C,R19*%
X120275032Y-163589832D03*
X118625032Y-163589832D03*
%TD*%
D19*
%TO.C,R47*%
X116955000Y-84240001D03*
X118605000Y-84240001D03*
%TD*%
D29*
%TO.C,C24*%
X77403000Y-36338001D03*
X78953000Y-36338001D03*
%TD*%
D51*
%TO.C,U6*%
X118823500Y-27260001D03*
X118823500Y-28210001D03*
X118823500Y-29160001D03*
X121098500Y-29160001D03*
X121098500Y-28210001D03*
X121098500Y-27260001D03*
%TD*%
D25*
%TO.C,R39*%
X93720000Y-130254001D03*
X93720000Y-128604001D03*
%TD*%
D55*
%TO.C,FB3*%
X113156000Y-38697001D03*
X114126000Y-38697001D03*
%TD*%
D21*
%TO.C,R50*%
X130438000Y-36084001D03*
X128788000Y-36084001D03*
%TD*%
D25*
%TO.C,R10*%
X83639000Y-28908001D03*
X83639000Y-27258001D03*
%TD*%
D21*
%TO.C,R7*%
X114626000Y-41291001D03*
X112976000Y-41291001D03*
%TD*%
D56*
%TO.C,L2*%
X106879000Y-46117001D03*
X109929000Y-46117001D03*
%TD*%
D22*
%TO.C,C21*%
X135836000Y-37875001D03*
X135836000Y-36325001D03*
%TD*%
D25*
%TO.C,R46*%
X104220000Y-130254001D03*
X104220000Y-128604001D03*
%TD*%
D20*
%TO.C,R38*%
X93720000Y-130304001D03*
X93720000Y-131954001D03*
%TD*%
D25*
%TO.C,R40*%
X95220000Y-130254001D03*
X95220000Y-128604001D03*
%TD*%
D26*
%TO.C,@HOLE8*%
X77780032Y-24839832D03*
%TD*%
D37*
%TO.C,FB2*%
X120565000Y-93840001D03*
X119595000Y-93840001D03*
%TD*%
D57*
%TO.C,R21*%
X121950032Y-163602332D03*
X121950032Y-161777332D03*
%TD*%
D20*
%TO.C,R36*%
X96720000Y-130304001D03*
X96720000Y-131954001D03*
%TD*%
D58*
%TO.C,C4*%
X128480000Y-162440001D03*
X128480000Y-166840001D03*
%TD*%
D54*
%TO.C,C28*%
X118625000Y-44510001D03*
X121700000Y-44510001D03*
%TD*%
D59*
%TO.C,D5*%
X134744968Y-180220170D03*
X134744968Y-176220170D03*
%TD*%
D22*
%TO.C,C14*%
X115135000Y-37367001D03*
X115135000Y-35817001D03*
%TD*%
D60*
%TO.C,U4*%
X94251000Y-36612832D03*
X94251000Y-37262832D03*
X94251000Y-37912832D03*
X96201000Y-37912832D03*
X96201000Y-37262832D03*
X96201000Y-36612832D03*
D61*
X95226000Y-37262832D03*
%TD*%
D26*
%TO.C,@HOLE4*%
X68780032Y-179339832D03*
%TD*%
D43*
%TO.C,C11*%
X92178000Y-41313832D03*
X92178000Y-42863832D03*
%TD*%
D57*
%TO.C,R22*%
X123950032Y-163602332D03*
X123950032Y-161777332D03*
%TD*%
D22*
%TO.C,C19*%
X114650000Y-87645001D03*
X114650000Y-86095001D03*
%TD*%
D36*
%TO.C,C10*%
X104721000Y-36785001D03*
X104721000Y-38685001D03*
%TD*%
D21*
%TO.C,R1*%
X96051000Y-34722832D03*
X94401000Y-34722832D03*
%TD*%
D26*
%TO.C,@HOLE7*%
X131780032Y-24839832D03*
%TD*%
D62*
%TO.C,U3*%
X139762532Y-167144832D03*
X139762532Y-166194832D03*
X139762532Y-165244832D03*
X137487532Y-165244832D03*
X137487532Y-166194832D03*
X137487532Y-167144832D03*
%TD*%
D63*
%TO.C,J2*%
X72590000Y-44660001D03*
D64*
X72590000Y-37160001D03*
D65*
X71830000Y-43690001D03*
X71830000Y-42900001D03*
X71830000Y-42110001D03*
X71830000Y-41320001D03*
X71830000Y-40530001D03*
X71830000Y-39740001D03*
X71830000Y-38950001D03*
X71830000Y-38160001D03*
X73350000Y-38160001D03*
X73350000Y-38950001D03*
X73350000Y-39740001D03*
X73350000Y-40530001D03*
X73350000Y-41320001D03*
X73350000Y-42110001D03*
X73350000Y-42900001D03*
X73350000Y-43690001D03*
D13*
X70440000Y-43310001D03*
X74740000Y-43310001D03*
X70440000Y-38510001D03*
X74740000Y-38510001D03*
%TD*%
D29*
%TO.C,C9*%
X93816000Y-41326832D03*
X95366000Y-41326832D03*
%TD*%
D25*
%TO.C,R41*%
X96720000Y-130254001D03*
X96720000Y-128604001D03*
%TD*%
D19*
%TO.C,R5*%
X96814000Y-39802832D03*
X98464000Y-39802832D03*
%TD*%
D22*
%TO.C,C25*%
X75130000Y-52747001D03*
X75130000Y-51197001D03*
%TD*%
D29*
%TO.C,C27*%
X111850000Y-32728001D03*
X113400000Y-32728001D03*
%TD*%
D43*
%TO.C,C15*%
X89608000Y-26800001D03*
X89608000Y-28350001D03*
%TD*%
D25*
%TO.C,R45*%
X102720000Y-130254001D03*
X102720000Y-128604001D03*
%TD*%
D66*
%TO.C,C30*%
X88920000Y-44770001D03*
X91620000Y-44770001D03*
%TD*%
D25*
%TO.C,R27*%
X87957000Y-123776001D03*
X87957000Y-122126001D03*
%TD*%
D67*
%TO.C,D7*%
X94180000Y-98420001D03*
X94180000Y-99260001D03*
%TD*%
D25*
%TO.C,R26*%
X90116000Y-123777001D03*
X90116000Y-122127001D03*
%TD*%
D68*
%TO.C,U2*%
X106586650Y-35921003D03*
D69*
X106786650Y-36371003D03*
X106786650Y-36821003D03*
X106786650Y-37271003D03*
X106786650Y-37721003D03*
D68*
X106586650Y-38171003D03*
D70*
X106886650Y-38696003D03*
D71*
X107336650Y-38696003D03*
X107786650Y-38696003D03*
X108236650Y-38696003D03*
X108686650Y-38696003D03*
X109136650Y-38696003D03*
D70*
X109586650Y-38696003D03*
D68*
X109886650Y-38171003D03*
D69*
X109686650Y-37721003D03*
X109686650Y-37271003D03*
X109686650Y-36821003D03*
X109686650Y-36371003D03*
D68*
X109886650Y-35921003D03*
D70*
X109586650Y-35396003D03*
D71*
X109136650Y-35396003D03*
X108686650Y-35396003D03*
X108236650Y-35396003D03*
X107786650Y-35396003D03*
X107336650Y-35396003D03*
D70*
X106886650Y-35396003D03*
%TD*%
D36*
%TO.C,C5*%
X102054000Y-36096001D03*
X102054000Y-37996001D03*
%TD*%
D72*
%TO.C,D2*%
X103530032Y-22639832D03*
X103530032Y-24039832D03*
X106030032Y-24039832D03*
X106030032Y-22639832D03*
%TD*%
D19*
%TO.C,R9*%
X109644000Y-41291001D03*
X111294000Y-41291001D03*
%TD*%
D23*
%TO.C,J8*%
X100530000Y-119650001D03*
D24*
X101800000Y-119650001D03*
X103070000Y-119650001D03*
X104340000Y-119650001D03*
X105610000Y-119650001D03*
X106880000Y-119650001D03*
X108150000Y-119650001D03*
X109420000Y-119650001D03*
%TD*%
D22*
%TO.C,C23*%
X97075600Y-97006201D03*
X97075600Y-95456201D03*
%TD*%
D19*
%TO.C,R12*%
X91069000Y-28337001D03*
X92719000Y-28337001D03*
%TD*%
D20*
%TO.C,R33*%
X101220000Y-130304001D03*
X101220000Y-131954001D03*
%TD*%
D62*
%TO.C,U7*%
X118887500Y-87720001D03*
X118887500Y-86770001D03*
X118887500Y-85820001D03*
X116612500Y-85820001D03*
X116612500Y-87720001D03*
%TD*%
D25*
%TO.C,R23*%
X94688000Y-123777001D03*
X94688000Y-122127001D03*
%TD*%
D21*
%TO.C,R51*%
X130438000Y-38370001D03*
X128788000Y-38370001D03*
%TD*%
D73*
%TO.C,U11*%
X136471000Y-49807001D03*
X136471000Y-48657001D03*
X136471000Y-47507001D03*
D74*
X137021000Y-51157001D03*
X137021000Y-46157001D03*
%TD*%
D75*
%TO.C,C6*%
X97893000Y-37196832D03*
X97893000Y-35296832D03*
%TD*%
D76*
%TO.C,D8*%
X102561000Y-33036001D03*
X99261000Y-33036001D03*
%TD*%
D77*
%TO.C,C7*%
X106893000Y-40856001D03*
X105343000Y-40856001D03*
%TD*%
D78*
%TO.C,L1*%
X90781000Y-36524832D03*
X90781000Y-39524832D03*
%TD*%
D79*
%TO.C,J6*%
X74540000Y-68342001D03*
X70640000Y-68342001D03*
X74540000Y-67072001D03*
X70640000Y-67072001D03*
X74540000Y-65802001D03*
X70640000Y-65802001D03*
X74540000Y-64532001D03*
X70640000Y-64532001D03*
X74540000Y-63262001D03*
X70640000Y-63262001D03*
%TD*%
D25*
%TO.C,R29*%
X84909000Y-123776001D03*
X84909000Y-122126001D03*
%TD*%
%TO.C,R49*%
X117580000Y-90865001D03*
X117580000Y-89215001D03*
%TD*%
D33*
%TO.C,Q2*%
X121420032Y-165549832D03*
X121420032Y-166199832D03*
X121420032Y-166849832D03*
X121420032Y-167499832D03*
D80*
X123375032Y-166524832D03*
%TD*%
D81*
%TO.C,U10*%
X122069000Y-39847001D03*
X87059000Y-95047001D03*
D82*
X122069000Y-103267001D03*
%TD*%
M02*
