%TF.GenerationSoftware,KiCad,Pcbnew,7.0.10*%
%TF.CreationDate,2024-03-08T14:55:51+08:00*%
%TF.ProjectId,solar_board,736f6c61-725f-4626-9f61-72642e6b6963,rev?*%
%TF.SameCoordinates,Original*%
%TF.FileFunction,Legend,Bot*%
%TF.FilePolarity,Positive*%
%FSLAX46Y46*%
G04 Gerber Fmt 4.6, Leading zero omitted, Abs format (unit mm)*
G04 Created by KiCad (PCBNEW 7.0.10) date 2024-03-08 14:55:51*
%MOMM*%
%LPD*%
G01*
G04 APERTURE LIST*
%ADD10C,0.150000*%
%ADD11C,0.100000*%
%ADD12C,0.120000*%
%ADD13C,0.500000*%
G04 APERTURE END LIST*
D10*
X121762819Y-76511906D02*
X121762819Y-77083334D01*
X122762819Y-76797620D02*
X121762819Y-76797620D01*
X122762819Y-77416668D02*
X121762819Y-77416668D01*
X121762819Y-77416668D02*
X121762819Y-77797620D01*
X121762819Y-77797620D02*
X121810438Y-77892858D01*
X121810438Y-77892858D02*
X121858057Y-77940477D01*
X121858057Y-77940477D02*
X121953295Y-77988096D01*
X121953295Y-77988096D02*
X122096152Y-77988096D01*
X122096152Y-77988096D02*
X122191390Y-77940477D01*
X122191390Y-77940477D02*
X122239009Y-77892858D01*
X122239009Y-77892858D02*
X122286628Y-77797620D01*
X122286628Y-77797620D02*
X122286628Y-77416668D01*
X122762819Y-78940477D02*
X122762819Y-78369049D01*
X122762819Y-78654763D02*
X121762819Y-78654763D01*
X121762819Y-78654763D02*
X121905676Y-78559525D01*
X121905676Y-78559525D02*
X122000914Y-78464287D01*
X122000914Y-78464287D02*
X122048533Y-78369049D01*
X121762819Y-79559525D02*
X121762819Y-79654763D01*
X121762819Y-79654763D02*
X121810438Y-79750001D01*
X121810438Y-79750001D02*
X121858057Y-79797620D01*
X121858057Y-79797620D02*
X121953295Y-79845239D01*
X121953295Y-79845239D02*
X122143771Y-79892858D01*
X122143771Y-79892858D02*
X122381866Y-79892858D01*
X122381866Y-79892858D02*
X122572342Y-79845239D01*
X122572342Y-79845239D02*
X122667580Y-79797620D01*
X122667580Y-79797620D02*
X122715200Y-79750001D01*
X122715200Y-79750001D02*
X122762819Y-79654763D01*
X122762819Y-79654763D02*
X122762819Y-79559525D01*
X122762819Y-79559525D02*
X122715200Y-79464287D01*
X122715200Y-79464287D02*
X122667580Y-79416668D01*
X122667580Y-79416668D02*
X122572342Y-79369049D01*
X122572342Y-79369049D02*
X122381866Y-79321430D01*
X122381866Y-79321430D02*
X122143771Y-79321430D01*
X122143771Y-79321430D02*
X121953295Y-79369049D01*
X121953295Y-79369049D02*
X121858057Y-79416668D01*
X121858057Y-79416668D02*
X121810438Y-79464287D01*
X121810438Y-79464287D02*
X121762819Y-79559525D01*
D11*
X114946094Y-22708420D02*
X114946094Y-23517943D01*
X114946094Y-23517943D02*
X114898475Y-23613181D01*
X114898475Y-23613181D02*
X114850856Y-23660801D01*
X114850856Y-23660801D02*
X114755618Y-23708420D01*
X114755618Y-23708420D02*
X114565142Y-23708420D01*
X114565142Y-23708420D02*
X114469904Y-23660801D01*
X114469904Y-23660801D02*
X114422285Y-23613181D01*
X114422285Y-23613181D02*
X114374666Y-23517943D01*
X114374666Y-23517943D02*
X114374666Y-22708420D01*
X113374666Y-23708420D02*
X113946094Y-23708420D01*
X113660380Y-23708420D02*
X113660380Y-22708420D01*
X113660380Y-22708420D02*
X113755618Y-22851277D01*
X113755618Y-22851277D02*
X113850856Y-22946515D01*
X113850856Y-22946515D02*
X113946094Y-22994134D01*
X112755618Y-22708420D02*
X112660380Y-22708420D01*
X112660380Y-22708420D02*
X112565142Y-22756039D01*
X112565142Y-22756039D02*
X112517523Y-22803658D01*
X112517523Y-22803658D02*
X112469904Y-22898896D01*
X112469904Y-22898896D02*
X112422285Y-23089372D01*
X112422285Y-23089372D02*
X112422285Y-23327467D01*
X112422285Y-23327467D02*
X112469904Y-23517943D01*
X112469904Y-23517943D02*
X112517523Y-23613181D01*
X112517523Y-23613181D02*
X112565142Y-23660801D01*
X112565142Y-23660801D02*
X112660380Y-23708420D01*
X112660380Y-23708420D02*
X112755618Y-23708420D01*
X112755618Y-23708420D02*
X112850856Y-23660801D01*
X112850856Y-23660801D02*
X112898475Y-23613181D01*
X112898475Y-23613181D02*
X112946094Y-23517943D01*
X112946094Y-23517943D02*
X112993713Y-23327467D01*
X112993713Y-23327467D02*
X112993713Y-23089372D01*
X112993713Y-23089372D02*
X112946094Y-22898896D01*
X112946094Y-22898896D02*
X112898475Y-22803658D01*
X112898475Y-22803658D02*
X112850856Y-22756039D01*
X112850856Y-22756039D02*
X112755618Y-22708420D01*
D10*
X120685819Y-64667096D02*
X120685819Y-65238524D01*
X121685819Y-64952810D02*
X120685819Y-64952810D01*
X121685819Y-65571858D02*
X120685819Y-65571858D01*
X120685819Y-65571858D02*
X120685819Y-65952810D01*
X120685819Y-65952810D02*
X120733438Y-66048048D01*
X120733438Y-66048048D02*
X120781057Y-66095667D01*
X120781057Y-66095667D02*
X120876295Y-66143286D01*
X120876295Y-66143286D02*
X121019152Y-66143286D01*
X121019152Y-66143286D02*
X121114390Y-66095667D01*
X121114390Y-66095667D02*
X121162009Y-66048048D01*
X121162009Y-66048048D02*
X121209628Y-65952810D01*
X121209628Y-65952810D02*
X121209628Y-65571858D01*
X120685819Y-66476620D02*
X120685819Y-67095667D01*
X120685819Y-67095667D02*
X121066771Y-66762334D01*
X121066771Y-66762334D02*
X121066771Y-66905191D01*
X121066771Y-66905191D02*
X121114390Y-67000429D01*
X121114390Y-67000429D02*
X121162009Y-67048048D01*
X121162009Y-67048048D02*
X121257247Y-67095667D01*
X121257247Y-67095667D02*
X121495342Y-67095667D01*
X121495342Y-67095667D02*
X121590580Y-67048048D01*
X121590580Y-67048048D02*
X121638200Y-67000429D01*
X121638200Y-67000429D02*
X121685819Y-66905191D01*
X121685819Y-66905191D02*
X121685819Y-66619477D01*
X121685819Y-66619477D02*
X121638200Y-66524239D01*
X121638200Y-66524239D02*
X121590580Y-66476620D01*
X120685819Y-67588096D02*
X120685819Y-68159524D01*
X121685819Y-67873810D02*
X120685819Y-67873810D01*
X121685819Y-68492858D02*
X120685819Y-68492858D01*
X120685819Y-68492858D02*
X120685819Y-68873810D01*
X120685819Y-68873810D02*
X120733438Y-68969048D01*
X120733438Y-68969048D02*
X120781057Y-69016667D01*
X120781057Y-69016667D02*
X120876295Y-69064286D01*
X120876295Y-69064286D02*
X121019152Y-69064286D01*
X121019152Y-69064286D02*
X121114390Y-69016667D01*
X121114390Y-69016667D02*
X121162009Y-68969048D01*
X121162009Y-68969048D02*
X121209628Y-68873810D01*
X121209628Y-68873810D02*
X121209628Y-68492858D01*
X121019152Y-69921429D02*
X121685819Y-69921429D01*
X120638200Y-69683334D02*
X121352485Y-69445239D01*
X121352485Y-69445239D02*
X121352485Y-70064286D01*
X112134819Y-40444287D02*
X112134819Y-41015715D01*
X113134819Y-40730001D02*
X112134819Y-40730001D01*
X113134819Y-41349049D02*
X112134819Y-41349049D01*
X112611009Y-41349049D02*
X112611009Y-41920477D01*
X113134819Y-41920477D02*
X112134819Y-41920477D01*
X113134819Y-42920477D02*
X113134819Y-42349049D01*
X113134819Y-42634763D02*
X112134819Y-42634763D01*
X112134819Y-42634763D02*
X112277676Y-42539525D01*
X112277676Y-42539525D02*
X112372914Y-42444287D01*
X112372914Y-42444287D02*
X112420533Y-42349049D01*
D12*
%TO.C,TP10*%
X121610000Y-78250001D02*
G75*
G03*
X119710000Y-78250001I-950000J0D01*
G01*
X119710000Y-78250001D02*
G75*
G03*
X121610000Y-78250001I950000J0D01*
G01*
D13*
%TO.C,U10*%
X84509000Y-30117001D02*
X84509000Y-105117001D01*
X95019000Y-34167001D02*
X95019000Y-35867001D01*
X114119000Y-34267001D02*
X114119000Y-35967001D01*
X95869000Y-35017001D02*
X94169000Y-35017001D01*
X114119000Y-98617001D02*
X114119000Y-100317001D01*
X94819000Y-98717001D02*
X94819000Y-100567001D01*
X114969000Y-99467001D02*
X113269000Y-99467001D01*
X124619000Y-105117001D02*
X124619000Y-30117001D01*
D12*
%TO.C,TP3*%
X123959000Y-65929001D02*
G75*
G03*
X122059000Y-65929001I-950000J0D01*
G01*
X122059000Y-65929001D02*
G75*
G03*
X123959000Y-65929001I950000J0D01*
G01*
%TO.C,TP4*%
X123832000Y-68596001D02*
G75*
G03*
X121932000Y-68596001I-950000J0D01*
G01*
X121932000Y-68596001D02*
G75*
G03*
X123832000Y-68596001I950000J0D01*
G01*
%TO.C,TH1*%
X114632500Y-41492743D02*
X114632500Y-41967259D01*
X113587500Y-41492743D02*
X113587500Y-41967259D01*
%TD*%
M02*
