M48
; DRILL file {KiCad 7.0.10} date Fri Mar  8 14:55:57 2024
; FORMAT={-:-/ absolute / inch / decimal}
; #@! TF.CreationDate,2024-03-08T14:55:57+08:00
; #@! TF.GenerationSoftware,Kicad,Pcbnew,7.0.10
; #@! TF.FileFunction,Plated,1,4,PTH
FMAT,2
INCH
; #@! TA.AperFunction,Plated,PTH,ViaDrill
T1C0.0118
; #@! TA.AperFunction,Plated,PTH,ViaDrill
T2C0.0157
; #@! TA.AperFunction,Plated,PTH,ComponentDrill
T3C0.0217
; #@! TA.AperFunction,Plated,PTH,ComponentDrill
T4C0.0256
; #@! TA.AperFunction,Plated,PTH,ComponentDrill
T5C0.0276
; #@! TA.AperFunction,Plated,PTH,ComponentDrill
T6C0.0669
; #@! TA.AperFunction,Plated,PTH,ComponentDrill
T7C0.1437
%
G90
G05
T1
X2.568Y-4.0285
X2.5701Y-3.7219
X2.5765Y-2.5934
X2.5819Y-1.3559
X2.5819Y-1.9228
X2.5819Y-2.285
X2.5858Y-1.6118
X2.6Y-2.9873
X2.6425Y-3.3493
X2.8654Y-3.9622
X2.8772Y-3.6236
X2.8811Y-3.3756
X2.885Y-4.3205
X2.8894Y-2.2341
X2.9196Y-1.3769
X2.9731Y-3.1137
X2.9953Y-3.2457
X3.0129Y-2.4906
X3.0189Y-3.4661
X3.0264Y-4.5217
X3.0268Y-3.6591
X3.0346Y-4.1394
X3.0386Y-3.9189
X3.0425Y-3.1906
X3.0504Y-1.3362
X3.0583Y-2.3323
X3.0583Y-2.4031
X3.0661Y-3.0173
X3.0661Y-3.2575
X3.1016Y-1.2614
X3.137Y-3.0961
X3.137Y-4.6748
X3.1843Y-1.1866
X3.1882Y-2.3323
X3.1882Y-2.4071
X3.1961Y-3.4583
X3.1961Y-3.8638
X3.1961Y-3.9858
X3.1961Y-4.0961
X3.2079Y-4.4937
X3.2184Y-1.0049
X3.2197Y-3.0173
X3.2197Y-3.285
X3.2236Y-2.8598
X3.2329Y-1.1056
X3.2329Y-1.1381
X3.2329Y-1.1706
X3.2354Y-4.2339
X3.2433Y-0.915
X3.2579Y-1.1056
X3.2579Y-1.1706
X3.2829Y-1.1706
X3.2837Y-1.1066
X3.3102Y-0.848
X3.322Y-1.3756
X3.322Y-1.478
X3.322Y-1.5488
X3.322Y-1.6984
X3.322Y-1.7969
X3.322Y-1.9031
X3.322Y-2.0055
X3.322Y-2.0921
X3.326Y-2.3323
X3.326Y-2.4071
X3.326Y-4.3559
X3.3299Y-2.9071
X3.3299Y-3.7102
X3.3299Y-3.8205
X3.3299Y-3.9031
X3.3299Y-3.9543
X3.3417Y-3.1669
X3.3496Y-4.1236
X3.3811Y-3.3953
X3.3847Y-2.1594
X3.3879Y-6.8806
X3.3929Y-5.0961
X3.4039Y-2.6966
X3.4047Y-4.1827
X3.4079Y-1.189
X3.4479Y-6.7006
X3.4529Y-2.2956
X3.4529Y-2.3256
X3.4717Y-4.2535
X3.4843Y-0.8355
X3.4953Y-3.0213
X3.5031Y-4.5134
X3.5039Y-2.2862
X3.5079Y-5.5256
X3.5079Y-5.6606
X3.5079Y-5.8806
X3.5079Y-6.2006
X3.5079Y-6.3806
X3.515Y-5.1748
X3.5279Y-7.0806
X3.5306Y-3.826
X3.5307Y-3.848
X3.5307Y-3.8717
X3.5307Y-3.8972
X3.5307Y-3.9228
X3.5307Y-3.9543
X3.5307Y-3.9819
X3.5409Y-2.5458
X3.5543Y-3.2339
X3.5543Y-3.8165
X3.5583Y-3.9976
X3.574Y-2.6591
X3.578Y-3.8165
X3.5858Y-2.3559
X3.5858Y-3.9976
X3.6016Y-3.3165
X3.6055Y-3.8165
X3.6094Y-3.4858
X3.6134Y-3.9976
X3.6159Y-0.8386
X3.6213Y-5.1827
X3.6291Y-2.411
X3.6291Y-3.8165
X3.6319Y-6.2406
X3.6339Y-6.5146
X3.637Y-3.6079
X3.6409Y-3.9583
X3.6409Y-3.9858
X3.6488Y-2.8638
X3.6529Y-0.9656
X3.6529Y-0.9956
X3.6529Y-1.0256
X3.6529Y-1.0606
X3.6579Y-5.1606
X3.6606Y-3.8165
X3.6606Y-3.8441
X3.6606Y-3.8677
X3.6646Y-3.9465
X3.6724Y-1.663
X3.6724Y-1.6866
X3.6724Y-1.7142
X3.6724Y-1.7457
X3.6724Y-1.785
X3.6724Y-1.8165
X3.6819Y-6.5126
X3.6839Y-6.2426
X3.6862Y-3.8691
X3.6919Y-5.7506
X3.6929Y-0.9656
X3.6929Y-0.9956
X3.6929Y-1.0256
X3.6929Y-1.0606
X3.7Y-3.9465
X3.7118Y-4.4937
X3.7179Y-5.1606
X3.7179Y-5.2746
X3.7179Y-5.4906
X3.7279Y-0.9656
X3.7279Y-0.9956
X3.7279Y-1.0256
X3.7279Y-1.0606
X3.7315Y-3.8677
X3.7315Y-3.9465
X3.7319Y-6.5146
X3.7339Y-6.2426
X3.7479Y-1.7806
X3.7491Y-1.467
X3.7492Y-1.4425
X3.7492Y-1.4921
X3.7551Y-4.5882
X3.7579Y-1.0606
X3.7591Y-3.9465
X3.7629Y-0.9656
X3.7629Y-0.9956
X3.7629Y-1.0256
X3.7629Y-4.6956
X3.763Y-4.7456
X3.7639Y-3.7206
X3.7679Y-7.0806
X3.7779Y-5.1606
X3.7779Y-5.2256
X3.7779Y-5.2746
X3.7799Y-5.4906
X3.7839Y-6.2426
X3.7859Y-6.5146
X3.7866Y-3.9465
X3.7899Y-3.7206
X3.7922Y-3.8646
X3.7928Y-0.8345
X3.7929Y-0.9656
X3.7929Y-0.9956
X3.7929Y-1.0256
X3.7929Y-1.0606
X3.7929Y-1.4006
X3.8059Y-1.7458
X3.8059Y-1.7773
X3.8059Y-1.8166
X3.8059Y-1.8481
X3.8063Y-1.915
X3.8079Y-1.467
X3.8079Y-1.6856
X3.8079Y-5.7946
X3.8102Y-3.9465
X3.8129Y-1.2856
X3.8129Y-1.3106
X3.8129Y-1.3356
X3.8159Y-3.8646
X3.8329Y-0.9656
X3.8329Y-0.9956
X3.8329Y-1.0256
X3.8329Y-1.0606
X3.8339Y-6.2426
X3.8339Y-6.5146
X3.8359Y-5.4906
X3.8378Y-3.9465
X3.8379Y-5.1606
X3.8379Y-5.2686
X3.8419Y-3.7206
X3.8419Y-3.8638
X3.8457Y-4.4898
X3.8579Y-1.8106
X3.8679Y-4.7456
X3.8839Y-6.2426
X3.8839Y-6.5146
X3.8929Y-5.2256
X3.8959Y-5.4906
X3.8969Y-1.8205
X3.8969Y-1.8756
X3.8979Y-5.1606
X3.8979Y-5.2706
X3.9007Y-1.4261
X3.9008Y-1.722
X3.9008Y-1.7693
X3.9008Y-1.974
X3.9029Y-1.3506
X3.9029Y-1.3756
X3.9029Y-1.4006
X3.9029Y-1.5306
X3.9029Y-1.5606
X3.9029Y-1.5956
X3.9029Y-1.6306
X3.9029Y-1.6606
X3.9047Y-4.6984
X3.9079Y-1.1586
X3.9179Y-0.8406
X3.9239Y-5.8446
X3.9283Y-4.6315
X3.9319Y-6.2426
X3.9339Y-6.5146
X3.948Y-3.9661
X3.9497Y-3.8468
X3.9529Y-5.1606
X3.9539Y-5.2686
X3.9559Y-5.4906
X3.9559Y-3.8717
X3.9598Y-3.8953
X3.9598Y-3.9189
X3.9603Y-0.8733
X3.9638Y-3.9465
X3.9843Y-4.5707
X3.9879Y-7.0806
X3.9992Y-2.3244
X4.0059Y-0.8366
X4.0119Y-2.8146
X4.0129Y-5.1656
X4.0129Y-5.2256
X4.0139Y-5.4906
X4.0179Y-5.2686
X4.0228Y-3.0331
X4.0229Y-1.5306
X4.0229Y-1.5606
X4.0268Y-3.3047
X4.0327Y-1.9011
X4.0339Y-1.5966
X4.0339Y-1.6321
X4.0339Y-1.6636
X4.0339Y-1.7029
X4.0339Y-1.7344
X4.0339Y-1.7738
X4.0339Y-1.8092
X4.0339Y-1.8486
X4.0339Y-1.8762
X4.035Y-1.9288
X4.0392Y-4.5187
X4.0519Y-5.9126
X4.0539Y-0.8366
X4.0729Y-5.1656
X4.0739Y-5.2706
X4.0739Y-5.4906
X4.074Y-4.4819
X4.0819Y-3.4819
X4.0858Y-1.1709
X4.0858Y-1.2575
X4.0879Y-0.8366
X4.0879Y-6.6806
X4.1016Y-2.0528
X4.1291Y-3.537
X4.1329Y-1.5606
X4.1379Y-5.2256
X4.1409Y-1.1709
X4.1409Y-1.2575
X4.1479Y-6.9006
X4.1567Y-3.0016
X4.1579Y-1.523
X4.1579Y-1.5606
X4.1606Y-1.9071
X4.1606Y-5.0409
X4.1646Y-2.8087
X4.1646Y-2.915
X4.1646Y-4.9504
X4.1646Y-5.1354
X4.1685Y-2.4701
X4.1829Y-1.5606
X4.1843Y-1.9071
X4.1879Y-4.2406
X4.1882Y-2.1512
X4.1882Y-2.2654
X4.1882Y-3.3126
X4.1882Y-4.3717
X4.1961Y-2.6591
X4.1961Y-3.6079
X4.1969Y-1.2059
X4.2016Y-3.0331
X4.2079Y-3.9006
X4.2079Y-4.0206
X4.2079Y-4.1406
X4.2079Y-4.3441
X4.2079Y-5.5056
X4.2079Y-5.8206
X4.2079Y-6.1606
X4.2079Y-6.4006
X4.2118Y-1.1551
X4.2181Y-4.9066
X4.2236Y-1.9071
X4.2236Y-2.0567
X4.2239Y-1.2046
X4.2354Y-2.3795
X4.2394Y-4.3165
X4.2479Y-2.8056
X4.2512Y-1.9071
X4.2512Y-3.663
X4.263Y-2.8638
X4.272Y-4.8574
X4.3024Y-1.1512
X4.3039Y-3.3506
X4.3063Y-3.3087
X4.3063Y-3.7102
X4.3102Y-1.9071
X4.3119Y-3.5006
X4.3119Y-3.5426
X4.3119Y-3.5966
X4.3184Y-1.376
X4.3378Y-1.9071
X4.3378Y-3.7417
X4.3399Y-3.3506
X4.3406Y-1.3516
X4.3439Y-4.8053
X4.3496Y-2.4701
X4.3496Y-2.8677
X4.3535Y-2.6591
X4.3543Y-1.3949
X4.3575Y-2.1512
X4.3699Y-2.0546
X4.3732Y-1.9071
X4.3754Y-3.3481
X4.3772Y-2.3835
X4.3808Y-4.6539
X4.3846Y-4.7107
X4.3879Y-1.6206
X4.4139Y-3.3506
X4.4165Y-4.5882
X4.4279Y-0.8366
X4.4279Y-1.5276
X4.428Y-1.5043
X4.4402Y-3.3559
X4.4425Y-1.8528
X4.452Y-1.9071
X4.4598Y-2.3835
X4.4598Y-2.7929
X4.4677Y-2.6591
X4.4693Y-1.8339
X4.489Y-1.8122
X4.4913Y-2.8717
X4.4992Y-3.7339
X4.5031Y-1.411
X4.5071Y-1.285
X4.5079Y-1.7956
X4.5079Y-2.1006
X4.5179Y-0.8386
X4.5268Y-2.1551
X4.5276Y-1.3323
X4.5386Y-1.285
X4.5386Y-3.7339
X4.5425Y-1.911
X4.5429Y-1.2106
X4.5429Y-1.2406
X4.5465Y-3.8126
X4.5479Y-6.2406
X4.5579Y-4.6766
X4.5661Y-1.3323
X4.5661Y-3.285
X4.5661Y-3.3402
X4.5679Y-1.2106
X4.5679Y-1.2406
X4.5679Y-5.2806
X4.5679Y-5.6206
X4.5679Y-5.9006
X4.5701Y-4.5882
X4.574Y-1.285
X4.574Y-1.411
X4.578Y-1.9307
X4.578Y-1.978
X4.578Y-2.037
X4.578Y-2.163
X4.578Y-2.226
X4.5858Y-2.4661
X4.5858Y-3.7339
X4.5898Y-2.8362
X4.5929Y-1.2106
X4.5929Y-1.2406
X4.5937Y-3.8087
X4.6055Y-1.3323
X4.6094Y-1.285
X4.6134Y-1.411
X4.6199Y-0.8386
X4.6285Y-2.881
X4.6331Y-1.4307
X4.6331Y-2.6591
X4.637Y-2.3835
X4.6409Y-2.4661
X4.6479Y-4.2706
X4.6488Y-1.3323
X4.6528Y-1.285
X4.6528Y-1.5606
X4.6528Y-1.5921
X4.6528Y-1.6236
X4.6528Y-1.6591
X4.6829Y-0.9506
X4.6829Y-0.9806
X4.7019Y-0.8386
X4.7079Y-0.9506
X4.7079Y-0.9806
X4.7079Y-5.2606
X4.7079Y-5.4606
X4.7079Y-5.6206
X4.7079Y-5.8606
X4.7079Y-6.0606
X4.7079Y-6.2406
X4.7329Y-0.9506
X4.7335Y-0.9806
X4.7394Y-3.3677
X4.7433Y-1.7142
X4.7433Y-1.7417
X4.7433Y-1.7811
X4.7433Y-1.848
X4.7433Y-1.8795
X4.7433Y-1.915
X4.7479Y-4.9606
X4.7512Y-2.4661
X4.7579Y-0.9506
X4.7591Y-0.9806
X4.763Y-1.1787
X4.763Y-1.4189
X4.7659Y-0.8366
X4.7748Y-3.3677
X4.7787Y-1.3087
X4.7787Y-2.0567
X4.7787Y-2.1386
X4.7787Y-2.1906
X4.7829Y-0.9506
X4.7829Y-0.9806
X4.7984Y-3.8402
X4.8063Y-2.2535
X4.8063Y-2.3165
X4.8063Y-2.3717
X4.8085Y-0.9506
X4.8085Y-0.9806
X4.8104Y-2.4381
X4.8129Y-2.4056
X4.8132Y-3.5995
X4.8181Y-3.3677
X4.822Y-2.474
X4.8268Y-3.1236
X4.8279Y-3.4206
X4.8279Y-3.4656
X4.8299Y-4.2457
X4.8329Y-0.9506
X4.8329Y-0.9806
X4.8359Y-0.8366
X4.8417Y-4.5882
X4.8457Y-1.7142
X4.8457Y-1.7496
X4.8457Y-1.785
X4.8457Y-1.8441
X4.8457Y-1.8717
X4.8457Y-1.911
X4.8524Y-3.4652
X4.8575Y-3.789
X4.8629Y-2.7656
X4.8654Y-3.3638
X4.8679Y-2.0406
X4.8679Y-2.1406
X4.8679Y-3.4206
X4.8679Y-4.8206
X4.8693Y-2.3008
X4.8693Y-2.3835
X4.8693Y-2.474
X4.8693Y-2.5409
X4.8732Y-1.3087
X4.8772Y-1.4189
X4.8792Y-1.1837
X4.8811Y-2.6433
X4.8959Y-0.8366
X4.8979Y-4.6806
X4.9079Y-1.0106
X4.9205Y-4.1748
X4.9362Y-1.1748
X4.9362Y-1.6276
X4.9479Y-5.3206
X4.9479Y-5.4806
X4.9479Y-5.7006
X4.9479Y-5.9406
X4.9479Y-6.2006
X4.9519Y-0.8366
X4.952Y-3.6315
X4.9523Y-3.7217
X4.9598Y-1.3087
X4.9598Y-1.7378
X4.9598Y-1.848
X4.9638Y-1.4189
X4.9717Y-3.4071
X4.9795Y-2.0449
X4.9795Y-3.1551
X4.9795Y-3.5291
X4.9829Y-4.8256
X4.9829Y-4.8556
X4.9829Y-4.8806
X4.9829Y-4.8806
X4.9835Y-2.5646
X4.9835Y-2.6157
X4.9835Y-2.6472
X4.9835Y-2.8835
X4.9835Y-2.9189
X4.9874Y-2.2299
X4.9874Y-2.2575
X4.9874Y-2.285
X4.9874Y-2.3126
X4.9874Y-2.3402
X4.9874Y-2.3795
X4.9879Y-2.6756
X4.9979Y-2.7956
X5.0031Y-2.1236
X5.0071Y-2.474
X5.0307Y-1.9858
X5.0346Y-3.0646
X5.0386Y-4.0173
X5.0425Y-2.474
X5.0538Y-3.8315
X5.0543Y-0.974
X5.0543Y-1.6748
X5.0622Y-2.0685
X5.0661Y-1.7535
X5.0661Y-3.1906
X5.0701Y-1.0606
X5.0701Y-1.3087
X5.0701Y-1.8756
X5.0701Y-3.3638
X5.0729Y-1.5506
X5.074Y-1.163
X5.074Y-3.5921
X5.078Y-2.474
X5.0976Y-1.9189
X5.0976Y-2.0252
X5.1016Y-1.6118
X5.1016Y-4.478
X5.1301Y-1.6389
X5.137Y-2.474
X5.1479Y-5.1006
X5.1479Y-5.3406
X5.1479Y-5.5606
X5.1479Y-5.7806
X5.1479Y-5.9806
X5.1479Y-6.1606
X5.1646Y-4.411
X5.1679Y-4.9606
X5.1902Y-1.7056
X5.1921Y-1.3087
X5.2039Y-2.478
X5.2179Y-4.7206
X5.2179Y-4.7456
X5.2179Y-4.7706
X5.2279Y-1.3506
X5.2433Y-2.5291
X5.2674Y-1.5452
X5.2674Y-2.3502
X5.2679Y-4.8606
X5.2748Y-2.4465
X5.2879Y-4.4206
X5.2879Y-4.6406
X5.2984Y-4.2772
X5.3142Y-2.478
X5.3417Y-1.3047
X5.3479Y-1.5506
X5.3496Y-4.1984
X5.3811Y-4.1394
X5.385Y-3.0882
X5.385Y-3.2024
X5.385Y-3.348
X5.385Y-3.4937
X5.385Y-3.6197
X5.385Y-3.7457
X5.385Y-3.8756
X5.385Y-4.0094
X5.3929Y-1.348
X5.3929Y-1.3992
X5.4008Y-1.4661
X5.4126Y-2.6
X5.4126Y-2.7299
X5.4126Y-2.8638
X5.4126Y-3.0094
T2
X2.7129Y-2.6406
X2.7129Y-2.6906
X2.7979Y-1.6256
X2.8079Y-2.3606
X2.8279Y-3.2056
X2.8579Y-1.5356
X2.8579Y-1.689
X2.9166Y-1.5929
X2.9404Y-1.8231
X2.9929Y-1.6356
X3.0129Y-1.4306
X3.0329Y-3.2806
X3.0621Y-1.6313
X3.064Y-1.5919
X3.0729Y-1.5381
X3.1496Y-1.428
X3.1508Y-1.5717
X3.1516Y-1.4736
X3.1528Y-1.524
X3.1563Y-1.6976
X3.1587Y-1.652
X3.2829Y-4.8731
X3.3429Y-4.8731
X3.4029Y-4.8731
X3.4379Y-0.9256
X3.4379Y-0.9656
X3.4379Y-1.0056
X3.4379Y-1.0456
X3.4629Y-4.8731
X3.4779Y-0.9256
X3.4779Y-0.9656
X3.4779Y-1.0056
X3.4779Y-1.0456
X3.5179Y-0.9256
X3.5179Y-0.9656
X3.5179Y-1.0056
X3.5479Y-4.8731
X3.5579Y-0.9256
X3.5579Y-0.9656
X3.5579Y-1.0056
X3.6079Y-4.8731
X3.6379Y-4.1006
X3.6379Y-4.1506
X3.6379Y-4.2106
X3.6379Y-4.2706
X3.6379Y-4.3206
X3.6679Y-4.8731
X3.6829Y-4.1006
X3.6829Y-4.1506
X3.6829Y-4.2106
X3.6829Y-4.2706
X3.6829Y-4.3206
X3.6845Y-1.4724
X3.6879Y-5.1306
X3.7179Y-1.3356
X3.7279Y-4.8731
X3.7379Y-4.1006
X3.7379Y-4.1506
X3.7379Y-4.2106
X3.7379Y-4.2706
X3.7379Y-4.3206
X3.7488Y-5.1301
X3.7979Y-4.1006
X3.7979Y-4.1506
X3.7979Y-4.2106
X3.7979Y-4.2706
X3.7979Y-4.3206
X3.8079Y-5.1306
X3.8429Y-4.1006
X3.8429Y-4.1506
X3.8429Y-4.2106
X3.8429Y-4.2706
X3.8429Y-4.3206
X3.8679Y-5.1306
X3.926Y-5.1301
X3.985Y-5.1301
X3.9879Y-1.1956
X4.0229Y-1.1956
X4.0441Y-5.1301
X4.0753Y-1.4496
X4.0847Y-1.3024
X4.1031Y-5.1301
X4.1129Y-1.33
X4.1179Y-1.4506
X4.1729Y-1.0456
X4.1729Y-1.0856
X4.2029Y-2.5006
X4.2079Y-1.0256
X4.2079Y-1.0656
X4.2079Y-1.1056
X4.2479Y-1.0256
X4.2479Y-1.0656
X4.2479Y-1.1056
X4.2486Y-1.3299
X4.2809Y-1.5999
X4.2829Y-1.1917
X4.2829Y-2.8056
X4.2879Y-1.0256
X4.2879Y-1.0656
X4.2879Y-1.1056
X4.3279Y-1.0456
X4.3279Y-1.0906
X4.3479Y-1.5356
X4.3879Y-4.0856
X4.3879Y-4.1506
X4.3879Y-4.2056
X4.3879Y-4.2606
X4.4339Y-3.6458
X4.4379Y-4.0856
X4.4379Y-4.1506
X4.4379Y-4.2606
X4.4429Y-4.2056
X4.4496Y-3.5834
X4.4929Y-4.0856
X4.4929Y-4.1506
X4.4929Y-4.2056
X4.4929Y-4.2606
X4.5229Y-1.5406
X4.5479Y-4.0856
X4.5479Y-4.1506
X4.5479Y-4.2106
X4.5479Y-4.2656
X4.5929Y-4.0856
X4.5929Y-4.1506
X4.5929Y-4.2106
X4.5929Y-4.2656
X4.6016Y-6.6173
X4.6028Y-6.5575
X4.6079Y-2.7932
X4.6417Y-6.5626
X4.6679Y-1.4156
X4.6679Y-1.5106
X4.6679Y-2.7956
X4.6693Y-3.0831
X4.6979Y-1.3106
X4.7029Y-1.5306
X4.7528Y-3.0803
X4.8379Y-2.7006
X4.8429Y-2.5956
X4.9829Y-2.7256
X4.9829Y-2.7656
X4.9829Y-6.6156
X4.9881Y-6.5767
X4.9913Y-6.5209
X5.0579Y-5.2106
X5.0579Y-5.2456
X5.0929Y-1.4656
X5.1142Y-2.3512
X5.1156Y-2.3118
X5.1319Y-6.5209
X5.1329Y-1.4656
X5.1329Y-6.6206
X5.1339Y-6.5795
X5.3179Y-1.9656
X5.3229Y-2.1206
X5.3429Y-6.4056
X5.3479Y-1.7306
X5.4129Y-1.7506
X5.5354Y-6.5431
T4
X3.2579Y-4.7106
X3.3079Y-4.7106
X3.3579Y-4.7106
X3.4079Y-4.7106
X3.4579Y-4.7106
X3.5079Y-4.7106
X3.5579Y-4.7106
X3.6079Y-4.7106
X3.6079Y-6.5606
X3.6579Y-4.7106
X3.6579Y-6.5606
X3.7079Y-4.7106
X3.7079Y-6.5606
X3.7579Y-6.5606
X3.8079Y-6.5606
X3.8579Y-6.5606
X3.9079Y-6.5606
X3.9579Y-4.7106
X3.9579Y-6.5606
X4.0079Y-4.7106
X4.0579Y-4.7106
X4.1079Y-4.7106
X4.1579Y-4.7106
X4.2079Y-4.7106
X4.2579Y-4.7106
X4.3079Y-4.7106
T5
X2.7732Y-1.5161
X2.7732Y-1.7051
X2.9425Y-1.5161
X2.9425Y-1.7051
X4.2579Y-6.5606
X4.3079Y-6.5606
X4.3579Y-6.5606
X4.4079Y-6.5606
T6
X4.6461Y-6.8106
X4.802Y-6.8106
X4.9579Y-6.8106
X5.1138Y-6.8106
T7
X3.2476Y-2.5918
T3
G00X5.3798Y-1.8172
M15
G01X5.4093Y-1.8172
M16
G05
G00X5.3798Y-2.0141
M15
G01X5.4093Y-2.0141
M16
G05
M30
